<?xml version="1.0" standalone="no"?>
<!DOCTYPE svg PUBLIC "-//W3C//DTD SVG 1.1//EN" "http://www.w3.org/Graphics/SVG/1.1/DTD/svg11.dtd" >
<svg xmlns="http://www.w3.org/2000/svg">
<metadata></metadata>
<defs>
<font id="alwyn_newlight" horiz-adv-x="578" >
<font-face units-per-em="1000" ascent="760" descent="-240" />
<missing-glyph horiz-adv-x="250" />
<glyph unicode="ff" horiz-adv-x="621" d="M98 0v458l-84 6v48h84v76q0 70 41.5 110.5t109.5 40.5q42 0 79 -10l-10 -60q-35 8 -68 8q-84 0 -84 -96v-69h247v76q0 70 42 110.5t110 40.5q42 0 79 -10l-10 -60q-35 8 -68 8q-85 0 -85 -96v-69h121v-54h-121v-438q0 -20 -20 -20h-48v458h-247v-438q0 -20 -20 -20h-48z " />
<glyph unicode="fi" horiz-adv-x="547" d="M98 0v458l-84 6v48h84v56q0 84 47 127.5t135 43.5q70 0 139 -21l-14 -58q-65 18 -124 18q-60 0 -87.5 -27t-27.5 -89v-50h121v-54h-121v-438q0 -20 -20 -20h-48zM392 0v512h68v-492q0 -20 -20 -20h-48z" />
<glyph unicode="fl" horiz-adv-x="548" d="M98 0v458l-84 6v48h84v56q0 84 46.5 127.5t134.5 43.5q51 0 113 -13h68v-633q0 -23 6.5 -32t22.5 -12l-13 -58q-40 5 -62 24t-22 71v578q-65 14 -110 14q-62 0 -89 -27t-27 -90v-49h121v-54h-121v-438q0 -20 -20 -20h-48z" />
<glyph unicode="ffi" horiz-adv-x="862" d="M98 0v458l-84 6v48h84v76q0 70 41.5 110.5t109.5 40.5q42 0 79 -10l-10 -60q-35 8 -68 8q-84 0 -84 -96v-69h247v56q0 84 47 127.5t136 43.5q70 0 139 -21l-14 -58q-67 18 -124 18q-60 0 -88 -27t-28 -89v-50h121v-54h-121v-438q0 -20 -20 -20h-48v458h-247v-438 q0 -20 -20 -20h-48zM708 0v512h68v-492q0 -20 -20 -20h-48z" />
<glyph unicode="ffl" horiz-adv-x="863" d="M98 0v458l-84 6v48h84v76q0 70 41.5 110.5t109.5 40.5q42 0 79 -10l-10 -60q-35 8 -68 8q-84 0 -84 -96v-69h247v56q0 84 47 127.5t135 43.5q51 0 113 -13h68v-633q0 -23 6.5 -32t22.5 -12l-13 -58q-40 4 -62 23.5t-22 71.5v578q-66 14 -111 14q-62 0 -89 -27t-27 -90 v-49h121v-54h-121v-438q0 -20 -20 -20h-48v458h-247v-438q0 -20 -20 -20h-48z" />
<glyph unicode="ft" horiz-adv-x="655" d="M98 0v458l-84 6v48h84v76q0 70 41.5 110.5t109.5 40.5q42 0 79 -10l-10 -60q-35 8 -68 8q-84 0 -84 -96v-69h238v168h68v-168h126v-54h-126v-312q0 -98 85 -98q32 0 67 8l10 -59q-37 -10 -79 -10q-69 0 -110 40t-41 110v321h-238v-438q0 -20 -20 -20h-48z" />
<glyph unicode="fb" horiz-adv-x="859" d="M98 0v458l-84 6v48h84v56q0 84 46.5 127.5t134.5 43.5q51 0 113 -13h68v-260q78 59 149 59q87 0 136.5 -54t49.5 -150v-130q0 -95 -49.5 -149.5t-136.5 -54.5q-74 0 -155 64l-8 -51h-54v664q-65 14 -110 14q-62 0 -89 -27t-27 -90v-49h121v-54h-121v-438q0 -20 -20 -20 h-48zM460 402v-293q81 -61 140 -61q65 0 95 39t30 120v98q0 81 -30 120t-95 39q-35 0 -65.5 -15t-74.5 -47z" />
<glyph unicode="fh" horiz-adv-x="862" d="M98 0v458l-84 6v48h84v56q0 84 46.5 127.5t134.5 43.5q51 0 113 -13h68v-263q84 62 149 62q84 0 128 -46.5t44 -127.5v-331q0 -20 -20 -20h-48v334q0 67 -24.5 98.5t-86.5 31.5q-56 0 -142 -63v-401h-68v664q-65 14 -110 14q-62 0 -89 -27t-27 -90v-49h121v-54h-121v-438 q0 -20 -20 -20h-48z" />
<glyph unicode="fk" horiz-adv-x="794" d="M98 0v458l-84 6v48h84v56q0 84 46.5 127.5t134.5 43.5q51 0 113 -13h68v-433l109 29q36 10 49 44l59 146h71l-69 -168q-23 -54 -69 -73l155 -271h-77l-140 251l-88 -23v-208q0 -20 -20 -20h-48v664q-65 14 -110 14q-62 0 -89 -27t-27 -90v-49h121v-54h-121v-438 q0 -20 -20 -20h-48z" />
<glyph unicode="fj" horiz-adv-x="547" d="M98 0v458l-84 6v48h84v56q0 84 47 127.5t135 43.5q70 0 139 -21l-14 -58q-65 18 -124 18q-60 0 -87.5 -27t-27.5 -89v-50h121v-54h-121v-438q0 -20 -20 -20h-48zM240 -204l10 59q35 -8 66 -8q76 0 76 97v568h68v-575q0 -70 -38 -110.5t-105 -40.5q-40 0 -77 10z" />
<glyph unicode=" "  horiz-adv-x="250" />
<glyph unicode="&#x09;" horiz-adv-x="250" />
<glyph unicode="&#xa0;" horiz-adv-x="250" />
<glyph unicode="!" horiz-adv-x="343" d="M140 210l-11 488h85l-10 -478zM172 -13q-20 0 -34 14.5t-14 33.5q0 20 14 34t34 14t34 -14t14 -34q0 -19 -14 -33.5t-34 -14.5z" />
<glyph unicode="&#x22;" horiz-adv-x="312" d="M198 469l-6 230h66l-6 -230h-54zM60 469l-6 230h67l-6 -230h-55z" />
<glyph unicode="#" horiz-adv-x="553" d="M153 157v145h-84v63h84v125h-84v63h84v145h63v-145h120v145h63v-145h85v-63h-85v-125h85v-63h-85v-145h-63v145h-120v-145h-63zM216 365h120v125h-120v-125z" />
<glyph unicode="$" horiz-adv-x="532" d="M58 21l12 62q113 -34 176 -34q75 0 111.5 35t36.5 96q0 40 -24 68.5t-60.5 43.5t-79 33.5t-79 37t-60.5 55.5t-24 88q0 78 47 125.5t128 56.5v114h58v-112q59 -2 140 -33l-17 -58q-83 30 -143 30q-68 0 -104 -32t-36 -91q0 -31 18 -54.5t47 -38.5t63.5 -29t69.5 -30 t64 -37t47 -56t18 -81q0 -78 -47 -129t-130 -61v-114h-58v111q-73 4 -174 34z" />
<glyph unicode="%" horiz-adv-x="843" d="M77 480v68q0 61 39.5 105.5t104.5 44.5q66 0 105.5 -44.5t39.5 -105.5v-68q0 -61 -39 -105t-104 -44q-66 0 -106 44t-40 105zM255 0l276 691h59l-277 -691h-58zM130 542v-56q0 -45 23.5 -75.5t69.5 -30.5q45 0 68 30.5t23 75.5v56q0 46 -23.5 76.5t-69.5 30.5 q-45 0 -68 -31t-23 -76zM476 138v68q0 61 39.5 105.5t104.5 44.5t105 -44.5t40 -105.5v-68q0 -62 -39 -106t-104 -44q-66 0 -106 44t-40 106zM529 200v-57q0 -45 23.5 -75.5t69.5 -30.5q45 0 68 30.5t23 75.5v57q0 45 -23.5 76t-69.5 31q-45 0 -68 -31t-23 -76z" />
<glyph unicode="&#x26;" horiz-adv-x="595" d="M69 194q0 68 34 113.5t94 66.5q-101 48 -101 164q0 91 64 144.5t159 53.5q67 0 131 -17l-12 -61q-64 16 -118 16q-68 0 -109.5 -35t-41.5 -101q0 -67 41 -102t110 -35h238v-60h-53v-312q-98 -42 -193 -42q-109 0 -176 55t-67 152zM142 195q0 -72 45 -108.5t125 -36.5 q71 0 131 24v267h-130q-79 0 -125 -37t-46 -109z" />
<glyph unicode="'" horiz-adv-x="175" d="M60 468l-6 230h67l-6 -230h-55z" />
<glyph unicode="(" horiz-adv-x="303" d="M85 -23v612q0 191 179 191v-63q-56 0 -83.5 -29.5t-27.5 -98.5v-612q0 -68 28 -99t83 -31v-60q-179 0 -179 190z" />
<glyph unicode=")" horiz-adv-x="303" d="M150 -22v610q0 69 -27.5 99.5t-83.5 30.5v62q179 0 179 -192v-610q0 -191 -179 -191v62q56 0 83.5 30.5t27.5 98.5z" />
<glyph unicode="*" horiz-adv-x="465" d="M201 327l6 142l-120 -75l-31 53l125 66l-125 65l31 54l120 -76l-6 142h62l-5 -141l119 75l31 -54l-125 -65l125 -66l-31 -53l-119 74l5 -141h-62z" />
<glyph unicode="+" horiz-adv-x="628" d="M282 95v188h-188v63h188v188h64v-188h187v-63h-187v-188h-64z" />
<glyph unicode="," horiz-adv-x="233" d="M96 80h72l-74 -229h-53z" />
<glyph unicode="-" horiz-adv-x="486" d="M92 253v60h301v-60h-301z" />
<glyph unicode="." horiz-adv-x="217" d="M60 37q0 19 14 33t34 14t34.5 -14t14.5 -33q0 -20 -14.5 -34t-34.5 -14t-34 14.5t-14 33.5z" />
<glyph unicode="/" horiz-adv-x="433" d="M73 -37l221 778h66l-221 -778h-66z" />
<glyph unicode="0" horiz-adv-x="587" d="M65 263v173q0 130 60 202.5t168 72.5t168.5 -74t60.5 -201v-173q0 -131 -60 -203.5t-169 -72.5q-107 0 -167.5 74t-60.5 202zM293 48q160 0 160 220v163q0 219 -160 219q-159 0 -159 -219v-163q0 -220 159 -220z" />
<glyph unicode="1" horiz-adv-x="442" d="M69 0v60h151v569l-155 -65l-25 55l188 79h60v-638h131v-60h-350z" />
<glyph unicode="2" horiz-adv-x="518" d="M52 0v64q0 56 18.5 103t47.5 78.5t64 58t70.5 50t64.5 46.5t47.5 54t18.5 67q0 54 -34.5 91.5t-101.5 37.5q-72 0 -155 -36l-22 56q90 41 177 41q94 0 150 -55t56 -135q0 -45 -18.5 -82.5t-48 -63.5t-65 -50.5t-71 -49.5t-65 -53.5t-48 -70t-18.5 -91.5h341v-40 q0 -20 -20 -20h-388z" />
<glyph unicode="3" horiz-adv-x="466" d="M30 15l16 58q61 -25 134 -25q74 0 117 39t43 104q0 75 -48 110t-118 35h-40v60h36q67 0 109 37.5t42 94.5q0 54 -36.5 88t-102.5 34q-54 0 -123 -27l-21 57q78 31 144 31q93 0 151 -48.5t58 -132.5q0 -47 -30 -92t-85 -68q65 -21 99.5 -68t34.5 -111q0 -88 -60.5 -146 t-169.5 -58q-80 0 -150 28z" />
<glyph unicode="4" horiz-adv-x="563" d="M127 162q-99 0 -76 99l105 437h64l-105 -443q-8 -33 22 -33h176v272l67 19v-291h135v-60h-135v-162h-67v162h-186z" />
<glyph unicode="5" horiz-adv-x="516" d="M41 24l15 60q94 -36 163 -36q79 0 125 50t46 122q0 70 -38 115t-117 45q-67 0 -138 -30l-30 48v300h357l-6 -61h-286v-212q52 15 105 15q105 0 164 -61t59 -160q0 -105 -69.5 -168.5t-173.5 -63.5q-79 0 -176 37z" />
<glyph unicode="6" horiz-adv-x="553" d="M64 214v269q0 98 58.5 163t167.5 65q74 0 153 -28l-16 -59q-75 26 -136 26q-84 0 -121.5 -49.5t-37.5 -117.5v-77q73 46 149 46q94 0 156 -63.5t62 -174.5q0 -106 -62 -166.5t-156 -60.5q-93 0 -155 60.5t-62 166.5zM132 213q0 -72 38 -118.5t111 -46.5t110.5 46.5 t37.5 119.5q0 78 -38.5 128t-112.5 50q-71 0 -146 -46v-133z" />
<glyph unicode="7" horiz-adv-x="481" d="M175 0q1 89 22 178.5t45 149t66 155t64 154.5h-345v61h422v-55q-24 -65 -65 -156.5t-66.5 -150.5t-47 -149.5t-22.5 -186.5h-73z" />
<glyph unicode="8" horiz-adv-x="548" d="M53 171q0 72 38 115.5t106 76.5q-60 30 -93 69.5t-33 104.5q0 77 60 125.5t143 48.5t143 -48.5t60 -125.5q0 -64 -33.5 -102t-94.5 -68q69 -34 107.5 -78t38.5 -118q0 -81 -62 -132.5t-159 -51.5t-159 51.5t-62 132.5zM278 399q62 28 95.5 58t33.5 80t-38 81.5t-95 31.5 t-95 -32t-38 -81q0 -51 34.5 -80t102.5 -58zM123 171q0 -53 41 -88t110 -35q70 0 110.5 35t40.5 88q0 32 -12 57t-37.5 44t-47.5 30.5t-60 27.5q-71 -31 -108 -65t-37 -94z" />
<glyph unicode="9" horiz-adv-x="555" d="M111 16l15 59q83 -27 137 -27q84 0 122 49.5t38 117.5v78q-72 -45 -149 -45q-94 0 -156.5 62.5t-62.5 173.5q0 106 62.5 166.5t156.5 60.5q92 0 154.5 -60.5t62.5 -166.5v-269q0 -98 -58.5 -163t-168.5 -65q-71 0 -153 29zM277 308q72 0 146 47v130q0 72 -38.5 118.5 t-110.5 46.5q-74 0 -111.5 -47t-37.5 -119q0 -78 38.5 -127t113.5 -49z" />
<glyph unicode=":" horiz-adv-x="217" d="M108 370q-20 0 -34 14t-14 34t14 34t34 14t34.5 -14t14.5 -34t-14.5 -34t-34.5 -14zM60 37q0 19 14 33t34 14t34.5 -14t14.5 -33q0 -20 -14.5 -34t-34.5 -14t-34 14.5t-14 33.5z" />
<glyph unicode=";" horiz-adv-x="245" d="M137 371q-20 0 -33.5 14t-13.5 34q0 19 14 33t33 14q20 0 34 -14t14 -33q0 -20 -14 -34t-34 -14zM96 80h73l-74 -229h-54z" />
<glyph unicode="&#x3c;" horiz-adv-x="573" d="M74 251v48l376 218l29 -56l-322 -186l322 -185l-29 -57z" />
<glyph unicode="=" horiz-adv-x="629" d="M94 393v63h440v-63h-440zM94 170v64h440v-64h-440z" />
<glyph unicode="&#x3e;" horiz-adv-x="575" d="M125 32l-31 59l320 184l-320 183l31 60l375 -218v-50z" />
<glyph unicode="?" horiz-adv-x="455" d="M175 207q0 64 14.5 113.5t35.5 78t41.5 51.5t35 48t14.5 55q0 39 -27 67t-72 28q-50 0 -119 -37l-28 56q74 44 147 44q78 0 123 -46t45 -111q0 -35 -14.5 -64.5t-35.5 -53t-42 -51t-35.5 -71.5t-14.5 -101zM162 36q0 20 14 34t34 14t34 -14t14 -34t-14 -34t-34 -14 t-34 14t-14 34z" />
<glyph unicode="@" horiz-adv-x="958" d="M74 242q0 192 117.5 305.5t299.5 113.5q178 0 290 -115.5t112 -307.5q0 -53 -15.5 -104.5t-57 -92.5t-100.5 -41q-86 0 -116 61q-67 -61 -149 -61q-68 0 -106.5 37.5t-38.5 97.5q0 134 195 134h83v45q0 62 -25 90.5t-85 28.5q-54 0 -122 -21l-15 53q77 23 137 23 q85 0 127.5 -43.5t42.5 -117.5v-183q0 -43 19.5 -67t52.5 -24q57 0 87 58t30 127q0 168 -96 269t-250 101q-158 0 -259.5 -98.5t-101.5 -267.5q0 -171 98.5 -264t253.5 -93q75 0 154 22l11 -53q-84 -23 -165 -23q-176 0 -292 109t-116 302zM372 135q0 -37 22 -58.5t66 -21.5 q66 0 130 51q-2 11 -2 35v77h-81q-135 0 -135 -83z" />
<glyph unicode="A" horiz-adv-x="649" d="M45 0l157 601q13 51 45 80.5t77 29.5q44 0 76.5 -30t46.5 -81l157 -600h-69l-54 207h-314l-53 -207h-69zM183 267h282l-83 322q-15 58 -58 58t-58 -57z" />
<glyph unicode="B" horiz-adv-x="588" d="M98 0v668q109 42 197 42q96 0 152 -53t56 -133q0 -103 -88 -151q60 -21 92 -67.5t32 -107.5q0 -85 -58 -141.5t-163 -56.5h-220zM167 395h127q69 0 103 35.5t34 89.5q0 56 -33.5 92.5t-102.5 36.5q-62 0 -128 -23v-231zM167 62h149q76 0 113 39t37 97q0 59 -36.5 98 t-113.5 39h-149v-273z" />
<glyph unicode="C" horiz-adv-x="570" d="M69 246v205q0 125 64.5 192.5t183.5 67.5q88 0 194 -30l-14 -60q-100 28 -176 28q-180 0 -180 -209v-183q0 -208 180 -208q72 0 176 27l14 -59q-107 -30 -194 -30q-119 0 -183.5 67t-64.5 192z" />
<glyph unicode="D" horiz-adv-x="653" d="M98 0v698h235q127 0 188.5 -60.5t61.5 -186.5v-205q0 -126 -61.5 -186t-188.5 -60h-235zM167 62h165q103 0 141.5 49.5t38.5 147.5v181q0 98 -38.5 147t-141.5 49h-165v-574z" />
<glyph unicode="E" horiz-adv-x="517" d="M78 172v353q0 81 49 127t145 46h180v-62h-180q-69 0 -97 -29.5t-28 -83.5v-134h275v-62h-275v-152q0 -55 28 -84t97 -29h184v-42q0 -20 -20 -20h-164q-96 0 -145 46t-49 126z" />
<glyph unicode="F" horiz-adv-x="519" d="M98 0v698h372v-62h-303v-258h273v-62h-273v-316h-69z" />
<glyph unicode="G" horiz-adv-x="631" d="M69 245v206q0 125 64.5 192.5t183.5 67.5q87 0 194 -30l-14 -60q-101 28 -176 28q-180 0 -180 -209v-184q0 -96 40.5 -151.5t139.5 -55.5q57 0 161 25v244l67 8v-299q-140 -40 -232 -40q-120 0 -184 66.5t-64 191.5z" />
<glyph unicode="H" horiz-adv-x="676" d="M98 0v698h69v-309h341v309h70v-678q0 -20 -20 -20h-50v327h-341v-327h-69z" />
<glyph unicode="I" horiz-adv-x="265" d="M98 0v698h69v-678q0 -20 -20 -20h-49z" />
<glyph unicode="J" horiz-adv-x="482" d="M43 9l15 60q62 -20 117 -20q82 0 113.5 45t31.5 128v476h70v-486q0 -103 -52 -164t-164 -61q-69 0 -131 22z" />
<glyph unicode="K" horiz-adv-x="599" d="M98 0v698h69v-317l126 7l141 310h76l-143 -314q35 -7 56 -30.5t36 -66.5l97 -287h-74l-89 268q-21 62 -78 59l-148 -9v-298q0 -20 -20 -20h-49z" />
<glyph unicode="L" horiz-adv-x="548" d="M98 0v698h69v-636h329v-42q0 -20 -20 -20h-378z" />
<glyph unicode="M" horiz-adv-x="861" d="M55 0l98 698h85l150 -529q8 -31 17.5 -43.5t25.5 -12.5t25.5 12.5t17.5 43.5l150 529h85l97 -698h-69l-68 488q-8 64 -11 115q-19 -82 -29 -116l-90 -329q-14 -54 -39 -81t-69 -27t-69 27t-39 81l-91 331q-23 88 -29 117q-7 -89 -12 -124l-67 -482h-69z" />
<glyph unicode="N" horiz-adv-x="664" d="M98 0v698h66l337 -575q-4 86 -4 122v453h69v-698h-66l-337 574q4 -84 4 -121v-453h-69z" />
<glyph unicode="O" horiz-adv-x="660" d="M69 270v159q0 128 70 205t191 77t191 -77t70 -205v-159q0 -130 -69.5 -206.5t-191.5 -76.5t-191.5 76.5t-69.5 206.5zM141 280q0 -49 9.5 -88.5t30.5 -72.5t59 -51.5t90 -18.5t90 18.5t59 51.5t30.5 72.5t9.5 88.5v138q0 102 -44.5 166.5t-144.5 64.5t-144.5 -64.5 t-44.5 -166.5v-138z" />
<glyph unicode="P" horiz-adv-x="566" d="M98 0v698h188q107 0 167 -62t60 -154t-60 -153t-167 -61h-119v-268h-69zM167 330h117q79 0 118 45t39 107q0 64 -38.5 108.5t-118.5 44.5h-117v-305z" />
<glyph unicode="Q" horiz-adv-x="660" d="M69 270v159q0 128 70 205t191 77t191 -77t70 -205v-159q0 -101 -42.5 -170t-120.5 -96l58 -159l-60 -22l-62 166q-20 -2 -34 -2q-122 0 -191.5 76.5t-69.5 206.5zM141 280q0 -49 9.5 -88.5t30.5 -72.5t59 -51.5t90 -18.5t90 18.5t59 51.5t30.5 72.5t9.5 88.5v138 q0 102 -44.5 166.5t-144.5 64.5t-144.5 -64.5t-44.5 -166.5v-138z" />
<glyph unicode="R" horiz-adv-x="582" d="M98 0v674q113 37 211 37q101 0 158 -63t57 -153q0 -66 -40.5 -127t-123.5 -78l145 -290h-75l-141 282h-122v-282h-69zM167 342h131q73 0 113.5 45t40.5 108q0 64 -35 109t-108 45q-64 0 -142 -21v-286z" />
<glyph unicode="S" horiz-adv-x="524" d="M57 21l13 62q111 -34 175 -34q75 0 111.5 35t36.5 96q0 35 -18 61.5t-46.5 44t-63.5 33.5t-70 33.5t-63.5 39t-46.5 56t-18 78.5q0 86 58 135.5t154 49.5q72 0 161 -34l-18 -58q-88 30 -143 30q-68 0 -103.5 -32t-35.5 -91q0 -42 33.5 -73t81.5 -52.5t96 -46t81.5 -68.5 t33.5 -106q0 -88 -59 -140.5t-162 -52.5q-72 0 -188 34z" />
<glyph unicode="T" horiz-adv-x="549" d="M240 0v636h-192v62h453v-62h-192v-636h-69z" />
<glyph unicode="U" horiz-adv-x="662" d="M83 253v445h69v-463q0 -78 45.5 -132t133.5 -54q87 0 132.5 54t45.5 132v463h70v-445q0 -127 -64.5 -196.5t-183.5 -69.5q-118 0 -183 69.5t-65 196.5z" />
<glyph unicode="V" horiz-adv-x="629" d="M272 0l-232 698h71l168 -505q13 -39 35 -127q21 83 35 127l168 505h72l-232 -698h-85z" />
<glyph unicode="W" horiz-adv-x="886" d="M195 0l-145 698h70l96 -468q8 -38 21 -140q12 81 26 140l74 311q26 107 106 107t106 -107l73 -311q13 -57 26 -141q11 89 22 141l96 468h70l-145 -698h-82l-124 529q-7 31 -15.5 42.5t-26.5 11.5t-27 -12t-16 -42l-123 -529h-82z" />
<glyph unicode="X" horiz-adv-x="621" d="M67 698h80l164 -270l166 270h77l-203 -329l226 -369h-80l-188 307l-188 -307h-77l225 366z" />
<glyph unicode="Y" horiz-adv-x="574" d="M252 0v292q-77 10 -114 61.5t-53 133.5l-40 211h68l39 -200q6 -27 10.5 -44t14.5 -38.5t23.5 -34t35.5 -21.5t51 -9q36 0 61 11.5t39.5 35t21.5 45t13 55.5l38 200h69l-40 -211q-16 -83 -53.5 -134.5t-114.5 -60.5v-292h-69z" />
<glyph unicode="Z" horiz-adv-x="550" d="M55 0v57l347 579h-336v62h417v-56l-347 -580h359v-62h-440z" />
<glyph unicode="[" horiz-adv-x="278" d="M64 -213v993h175v-61h-106v-871h106v-61h-175z" />
<glyph unicode="\" horiz-adv-x="433" d="M294 -37l-221 778h66l221 -778h-66z" />
<glyph unicode="]" horiz-adv-x="299" d="M40 -213v61h106v871h-106v61h175v-993h-175z" />
<glyph unicode="^" horiz-adv-x="586" d="M84 334l174 364h70l174 -364h-73l-136 305l-136 -305h-73z" />
<glyph unicode="_" horiz-adv-x="501" d="M0 -162v61h500v-61h-500z" />
<glyph unicode="`" horiz-adv-x="344" d="M75 651l27 59l168 -77l-20 -46z" />
<glyph unicode="a" horiz-adv-x="513" d="M378 0l-8 52q-72 -65 -157 -65q-75 0 -119 41t-44 108q0 148 219 148h94v49q0 67 -28 99t-95 32q-62 0 -139 -24l-15 59q84 26 154 26q94 0 142.5 -48.5t48.5 -130.5v-346h-53zM363 109v119h-90q-74 0 -113.5 -21t-39.5 -71q0 -40 25.5 -64t74.5 -24q79 0 143 61z" />
<glyph unicode="b" horiz-adv-x="553" d="M86 0v726h68v-260q78 59 149 59q87 0 136.5 -54t49.5 -150v-130q0 -95 -49.5 -149.5t-136.5 -54.5q-74 0 -155 64l-7 -51h-55zM154 402v-293q81 -61 140 -61q66 0 96 39t30 120v98q0 81 -30 120t-96 39q-35 0 -66 -15.5t-74 -46.5z" />
<glyph unicode="c" horiz-adv-x="480" d="M64 214v86q0 104 53.5 164.5t150.5 60.5q72 0 158 -26l-16 -58q-72 23 -140 23q-137 0 -137 -171v-71q0 -174 137 -174q65 0 140 24l16 -59q-86 -26 -158 -26q-97 0 -150.5 61.5t-53.5 165.5z" />
<glyph unicode="d" horiz-adv-x="552" d="M64 191v130q0 96 49.5 150t136.5 54q68 0 148 -61v262h68v-726h-54l-7 53q-84 -66 -155 -66q-87 0 -136.5 54.5t-49.5 149.5zM133 305v-98q0 -80 30 -119.5t95 -39.5q59 0 140 63v288q-82 65 -140 65q-65 0 -95 -39t-30 -120z" />
<glyph unicode="e" horiz-adv-x="523" d="M64 191v129q0 85 54.5 145t145.5 60q90 0 145 -61t55 -144v-56q0 -8 -5.5 -14t-13.5 -6h-313v-53q0 -56 33 -99.5t105 -43.5q61 0 156 27l15 -58q-97 -30 -171 -30q-96 0 -151 60t-55 144zM132 298h264v25q0 56 -33 98.5t-99 42.5t-99 -42t-33 -99v-25z" />
<glyph unicode="f" horiz-adv-x="306" d="M98 0v458l-84 6v48h84v76q0 70 41.5 110.5t109.5 40.5q42 0 79 -10l-10 -59q-35 8 -68 8q-84 0 -84 -97v-69h121v-54h-121v-438q0 -20 -20 -20h-48z" />
<glyph unicode="g" horiz-adv-x="553" d="M170 -201l-12 60h144q46 0 71 27.5t25 72.5v98q-74 -57 -148 -57q-87 0 -136.5 54t-49.5 150v117q0 96 49.5 150t136.5 54q72 0 155 -67l7 54h54v-552q0 -76 -42.5 -118.5t-121.5 -42.5h-132zM133 305v-85q0 -81 30 -120t95 -39q59 0 140 58v280q-81 65 -140 65 q-65 0 -95 -39t-30 -120z" />
<glyph unicode="h" horiz-adv-x="556" d="M86 0v726h68v-263q84 62 152 62q83 0 126 -46t43 -126v-333q0 -20 -20 -20h-48v337q0 65 -24.5 96t-85.5 31q-59 0 -143 -63v-401h-68z" />
<glyph unicode="i" horiz-adv-x="240" d="M120 610q-19 0 -31.5 13.5t-12.5 32.5t12.5 31t31.5 12q20 0 33 -12t13 -31t-13.5 -32.5t-32.5 -13.5zM86 0v512h68v-492q0 -20 -20 -20h-48z" />
<glyph unicode="j" horiz-adv-x="241" d="M120 610q-19 0 -31.5 13.5t-12.5 32.5t12.5 31t31.5 12q20 0 33 -12t13 -31t-13.5 -32.5t-32.5 -13.5zM-66 -204l10 59q37 -8 66 -8q76 0 76 99v566h68v-575q0 -70 -38 -110.5t-105 -40.5q-40 0 -77 10z" />
<glyph unicode="k" horiz-adv-x="488" d="M86 0v726h68v-434l108 28q35 10 51 47l58 145h71l-69 -168q-23 -54 -69 -73l155 -271h-77l-140 251l-88 -23v-208q0 -20 -20 -20h-48z" />
<glyph unicode="l" horiz-adv-x="242" d="M86 83v643h68v-636q0 -22 7 -31t23 -12l-14 -58q-39 4 -61.5 23.5t-22.5 70.5z" />
<glyph unicode="m" horiz-adv-x="855" d="M86 0v512h54l8 -54q77 67 147 67q106 0 146 -75q88 75 164 75q83 0 126 -46t43 -126v-333q0 -20 -20 -20h-48v336q0 65 -24.5 96.5t-85.5 31.5q-63 0 -137 -65q5 -25 5 -47v-352h-68v336q0 65 -24.5 96.5t-85.5 31.5q-57 0 -132 -65v-399h-68z" />
<glyph unicode="n" horiz-adv-x="556" d="M86 0v512h54l8 -54q83 67 158 67q83 0 126 -46t43 -126v-333q0 -20 -20 -20h-48v336q0 65 -24.5 96.5t-85.5 31.5q-58 0 -143 -64v-400h-68z" />
<glyph unicode="o" horiz-adv-x="545" d="M64 211v91q0 104 55.5 163.5t153.5 59.5q97 0 152.5 -59.5t55.5 -163.5v-91q0 -104 -55.5 -164t-152.5 -60q-98 0 -153.5 59.5t-55.5 164.5zM133 295v-76q0 -171 140 -171q139 0 139 171v76q0 169 -139 169q-140 0 -140 -169z" />
<glyph unicode="p" horiz-adv-x="553" d="M86 -201v713h55l7 -54q81 67 155 67q87 0 136.5 -54t49.5 -150v-130q0 -95 -49.5 -149.5t-136.5 -54.5q-64 0 -149 61v-249h-68zM154 399v-288q30 -22 47 -32.5t43 -20.5t50 -10q65 0 95.5 39.5t30.5 119.5v98q0 80 -30.5 119.5t-95.5 39.5q-57 0 -140 -65z" />
<glyph unicode="q" horiz-adv-x="548" d="M398 -201v249q-81 -61 -148 -61q-87 0 -136.5 54.5t-49.5 149.5v130q0 96 49.5 150t136.5 54q72 0 155 -67l7 54h54v-713h-68zM133 305v-98q0 -80 30 -119.5t95 -39.5q35 0 66 15.5t74 47.5v288q-84 65 -140 65q-65 0 -95 -39.5t-30 -119.5z" />
<glyph unicode="r" horiz-adv-x="363" d="M86 0v512h54l9 -75q26 37 63 62.5t74 25.5q24 0 48 -6l-10 -60q-17 4 -39 4q-31 0 -67.5 -27.5t-63.5 -65.5v-370h-68z" />
<glyph unicode="s" horiz-adv-x="427" d="M51 14l14 61q79 -27 134 -27q104 0 104 86q0 30 -25 52t-60.5 37t-71 33t-60.5 50.5t-25 77.5q0 65 46.5 103t121.5 38q63 0 123 -22l-16 -57q-57 18 -106 18q-48 0 -73 -21t-25 -59q0 -28 25 -49.5t60.5 -37.5t71 -34.5t60.5 -51t25 -77.5q0 -67 -47.5 -107t-127.5 -40 q-65 0 -148 27z" />
<glyph unicode="t" horiz-adv-x="349" d="M98 137v321l-84 6v48h84v168h68v-168h126v-54h-126v-312q0 -98 84 -98q33 0 68 8l10 -59q-37 -10 -80 -10q-68 0 -109 40t-41 110z" />
<glyph unicode="u" horiz-adv-x="556" d="M81 160v332q0 20 20 20h48v-336q0 -65 25 -96.5t86 -31.5t142 64v400h68v-512h-54l-7 54q-83 -67 -158 -67q-83 0 -126.5 46.5t-43.5 126.5z" />
<glyph unicode="v" horiz-adv-x="497" d="M208 0l-178 512h70l110 -319q12 -36 38 -133q18 72 39 133l110 319h70l-178 -512h-81z" />
<glyph unicode="w" horiz-adv-x="716" d="M164 0l-130 512h70l77 -315q11 -46 25 -123q29 117 31 123l81 277h80l81 -277q4 -15 9 -36t12 -48t10 -40q24 118 25 124l77 315h70l-130 -512h-79l-115 396l-115 -396h-79z" />
<glyph unicode="x" horiz-adv-x="483" d="M41 512h77l124 -192l125 192h75l-160 -247l171 -265h-77l-136 208l-135 -208h-75l171 263z" />
<glyph unicode="y" horiz-adv-x="510" d="M90 166l-45 346h67l44 -338q14 -112 100 -112q47 0 105 30l23 420h66l-29 -554q-8 -159 -165 -159h-94l-5 61h100q51 0 72.5 26t24.5 76l4 65q-56 -27 -105 -27q-142 0 -163 166z" />
<glyph unicode="z" horiz-adv-x="474" d="M59 0v48l259 403h-249v61h333v-49l-259 -403h272v-60h-356z" />
<glyph unicode="{" horiz-adv-x="353" d="M128 -32v175q0 52 -18.5 78t-70.5 26v55q52 0 71 26.5t19 79.5v188q0 89 41 134.5t143 45.5v-62q-71 0 -94 -29.5t-23 -88.5v-188q0 -53 -16.5 -82t-56.5 -51q40 -23 56.5 -51t16.5 -81v-175q0 -60 23 -90t94 -30v-61q-101 0 -143 46.5t-42 134.5z" />
<glyph unicode="|" horiz-adv-x="269" d="M101 -184v923h67v-923h-67z" />
<glyph unicode="}" horiz-adv-x="353" d="M39 -213v61q72 0 94.5 29.5t22.5 90.5v175q0 53 17 81t57 51q-40 22 -57 51t-17 82v188q0 60 -23 89t-94 29v62q103 0 144 -45.5t41 -134.5v-188q0 -53 18.5 -79.5t70.5 -26.5v-55q-52 0 -70.5 -26t-18.5 -78v-175q0 -89 -41.5 -135t-143.5 -46z" />
<glyph unicode="~" horiz-adv-x="608" d="M142 228l-41 43q50 68 120 68q40 0 91.5 -30t74.5 -30q41 0 79 45l40 -43q-50 -68 -119 -68q-41 0 -92.5 30.5t-73.5 30.5t-43.5 -14.5t-35.5 -31.5z" />
<glyph unicode="&#xa1;" horiz-adv-x="343" d="M123 559q0 20 14.5 34t34.5 14t34 -14.5t14 -33.5q0 -20 -14 -34t-34 -14t-34.5 14t-14.5 34zM129 -100l10 478l65 10l10 -488h-85z" />
<glyph unicode="&#xa2;" horiz-adv-x="486" d="M241 -124v113q-85 8 -131 68t-46 157v86q0 96 46 155.5t131 67.5v113h58v-113q57 -3 127 -24l-16 -58q-72 23 -140 23q-137 0 -137 -171v-71q0 -174 137 -174q65 0 140 24l16 -59q-77 -21 -127 -25v-112h-58z" />
<glyph unicode="&#xa3;" horiz-adv-x="512" d="M62 0v55q55 84 55 159v90h-62v52h62v151q0 99 55 151.5t148 52.5q66 0 139 -28l-17 -56q-66 23 -120 23q-69 0 -102.5 -37t-33.5 -116v-141h221v-52h-221v-82q0 -89 -51 -162h316v-40q0 -20 -20 -20h-369z" />
<glyph unicode="&#xa4;" horiz-adv-x="521" d="M115 84l-45 45l52 52q-28 42 -28 93q0 50 28 92l-53 54l46 45l53 -53q40 29 92 29q49 0 92 -30l54 54l45 -44l-53 -55q29 -45 29 -92q0 -51 -29 -92q10 -10 28.5 -29t23.5 -24l-44 -45l-54 53q-43 -29 -92 -29q-52 0 -92 28zM261 169q43 0 74 30.5t31 74.5q0 43 -31 75 t-75 32q-43 0 -74 -31t-31 -75q0 -43 31 -74.5t75 -31.5z" />
<glyph unicode="&#xa5;" horiz-adv-x="505" d="M68 140v53h150v110h-150v53h123l-176 342h69l168 -329l169 329h69l-178 -342h126v-53h-151v-110h151v-53h-151v-140h-69v140h-150z" />
<glyph unicode="&#xa6;" horiz-adv-x="265" d="M99 424v315h67v-315h-67zM99 -185v317h67v-317h-67z" />
<glyph unicode="&#xa7;" horiz-adv-x="502" d="M65 -67l12 60q92 -27 151 -27q60 0 90.5 28.5t30.5 77.5q0 33 -20.5 58t-50.5 39t-66 32.5t-66 36.5t-50.5 51.5t-20.5 77.5q0 78 53 120q-20 35 -20 77q0 75 50 118t132 43q62 0 142 -29l-16 -57q-70 24 -124 24q-53 0 -82 -25.5t-29 -73.5q0 -30 20.5 -53.5t50.5 -37.5 t66 -32.5t66 -37.5t50.5 -53.5t20.5 -79.5q0 -78 -52 -122q19 -36 19 -76q0 -76 -53 -122t-140 -46q-70 0 -164 29zM357 198q26 26 26 72q0 43 -32 70t-91 53.5t-84 45.5q-29 -26 -29 -72q0 -32 23 -56.5t52.5 -38t70 -34t64.5 -40.5z" />
<glyph unicode="&#xa8;" horiz-adv-x="407" d="M242 647q0 19 13 32.5t32 13.5q18 0 31.5 -13.5t13.5 -32.5q0 -18 -13.5 -31.5t-31.5 -13.5q-19 0 -32 13.5t-13 31.5zM75 647q0 19 13.5 32.5t31.5 13.5q19 0 32 -13.5t13 -32.5q0 -18 -13 -31.5t-32 -13.5q-18 0 -31.5 13.5t-13.5 31.5z" />
<glyph unicode="&#xa9;" horiz-adv-x="805" d="M402 0q-154 0 -243.5 97.5t-89.5 245.5q0 147 89.5 244.5t243.5 97.5t244 -97.5t90 -244.5q0 -148 -90 -245.5t-244 -97.5zM402 50q133 0 207 82.5t74 210.5q0 127 -74 209.5t-207 82.5t-206.5 -82.5t-73.5 -209.5q0 -128 73.5 -210.5t206.5 -82.5zM263 286v114 q0 60 38 94t99 34q51 0 102 -20l-13 -48q-43 15 -87 15q-81 0 -81 -86v-93q0 -86 81 -86q45 0 87 16l13 -49q-48 -19 -102 -19q-62 0 -99.5 34t-37.5 94z" />
<glyph unicode="&#xaa;" horiz-adv-x="367" d="M275 336l-6 35q-47 -44 -106 -44q-54 0 -85 29.5t-31 79.5q0 106 156 106h60v33q0 44 -18.5 65t-62.5 21q-46 0 -97 -17l-13 47q58 20 110 20q68 0 102.5 -35t34.5 -94v-246h-44zM263 416v82h-56q-101 0 -101 -62q0 -27 16 -43.5t48 -16.5q50 0 93 40z" />
<glyph unicode="&#xab;" horiz-adv-x="542" d="M399 84l-149 186l149 187l52 -40l-120 -147l120 -147zM225 84l-149 186l149 187l52 -40l-120 -147l120 -147z" />
<glyph unicode="&#xac;" horiz-adv-x="582" d="M101 243v62h380v-235h-63v173h-317z" />
<glyph unicode="&#xad;" horiz-adv-x="390" d="M44 253v60h301v-60h-301z" />
<glyph unicode="&#xae;" horiz-adv-x="805" d="M402 0q-154 0 -243.5 97.5t-89.5 245.5q0 147 89.5 244.5t243.5 97.5t244 -97.5t90 -244.5q0 -148 -90 -245.5t-244 -97.5zM402 50q133 0 207 82.5t74 210.5q0 127 -74 209.5t-207 82.5t-206.5 -82.5t-73.5 -209.5q0 -128 73.5 -210.5t206.5 -82.5zM283 163v340 q79 25 123 25q57 0 89.5 -33t32.5 -81q0 -35 -18.5 -63.5t-52.5 -40.5l66 -147h-62l-60 137h-60v-137h-58zM341 350h65q32 0 47.5 18.5t15.5 45.5q0 25 -16 43t-47 18q-25 0 -65 -11v-114z" />
<glyph unicode="&#xaf;" horiz-adv-x="370" d="M74 620v57h221v-57h-221z" />
<glyph unicode="&#xb0;" horiz-adv-x="404" d="M202 480q-49 0 -84.5 35t-35.5 84t35 84.5t85 35.5q49 0 84 -35.5t35 -84.5t-35 -84t-84 -35zM202 530q28 0 48 20.5t20 48.5q0 30 -20 50t-48 20q-29 0 -48.5 -20t-19.5 -50q0 -29 20 -49t48 -20z" />
<glyph unicode="&#xb1;" horiz-adv-x="629" d="M94 283v63h189v178h63v-178h188v-63h-188v-179h-63v179h-189zM94 -19v63h440v-63h-440z" />
<glyph unicode="&#xb4;" horiz-adv-x="344" d="M95 587l-21 46l169 77l27 -59z" />
<glyph unicode="&#xb5;" horiz-adv-x="558" d="M81 -201v693q0 20 20 20h48v-336q0 -65 25 -96.5t86 -31.5t142 64v400h68v-512h-54l-7 54q-83 -67 -158 -67q-65 0 -102 35v-223h-68z" />
<glyph unicode="&#xb6;" horiz-adv-x="586" d="M243 -109v400q-92 4 -151 62.5t-59 141.5q0 84 62 143.5t150 59.5h255v-807h-66v741h-125v-741h-66z" />
<glyph unicode="&#xb7;" horiz-adv-x="237" d="M74 303q0 19 13 32t31 13t31 -13t13 -32t-13 -31.5t-31 -12.5t-31 12.5t-13 31.5z" />
<glyph unicode="&#xb8;" horiz-adv-x="245" d="M44 -207l7 51q17 -4 38 -4q53 0 53 66v94h59v-105q0 -57 -31 -82.5t-76 -25.5q-24 0 -50 6z" />
<glyph unicode="&#xba;" horiz-adv-x="392" d="M47 488v62q0 75 39.5 118t109.5 43q69 0 108.5 -43t39.5 -118v-62q0 -75 -39.5 -118t-108.5 -43q-70 0 -109.5 43t-39.5 118zM105 544v-51q0 -117 91 -117t91 117v51q0 117 -91 117t-91 -117z" />
<glyph unicode="&#xbb;" horiz-adv-x="540" d="M263 123l120 147l-120 147l52 40l149 -187l-149 -186zM91 123l120 147l-120 147l52 40l149 -187l-149 -186z" />
<glyph unicode="&#xbf;" horiz-adv-x="455" d="M197 559q0 19 14.5 33.5t33.5 14.5t33.5 -14.5t14.5 -33.5q0 -20 -14 -34t-34 -14t-34 14t-14 34zM357 -12l28 -56q-72 -44 -147 -44q-78 0 -123 46t-45 110q0 35 14.5 64.5t35.5 53t42 51t35.5 71.5t14.5 101l68 7q0 -64 -14.5 -113.5t-35.5 -78t-42.5 -51.5t-36 -48.5 t-14.5 -55.5q0 -39 27 -66.5t74 -27.5q53 0 119 37z" />
<glyph unicode="&#xc0;" horiz-adv-x="649" d="M226 822l27 59l169 -77l-21 -46zM45 0l157 601q13 51 45 80.5t77 29.5q44 0 76.5 -30t46.5 -81l157 -600h-69l-54 207h-314l-53 -207h-69zM183 267h282l-83 322q-15 58 -58 58t-58 -57z" />
<glyph unicode="&#xc1;" horiz-adv-x="649" d="M247 758l-21 46l169 77l27 -59zM45 0l157 601q13 51 45 80.5t77 29.5q44 0 76.5 -30t46.5 -81l157 -600h-69l-54 207h-314l-53 -207h-69zM183 267h282l-83 322q-15 58 -58 58t-58 -57z" />
<glyph unicode="&#xc2;" horiz-adv-x="649" d="M229 757l-34 45l129 80l129 -80l-34 -45l-95 61zM45 0l157 601q13 51 45 80.5t77 29.5q44 0 76.5 -30t46.5 -81l157 -600h-69l-54 207h-314l-53 -207h-69zM183 267h282l-83 322q-15 58 -58 58t-58 -57z" />
<glyph unicode="&#xc3;" horiz-adv-x="649" d="M223 780l-29 34q35 51 82 51q23 0 54.5 -19.5t42.5 -19.5q27 0 53 32l29 -35q-21 -28 -39.5 -39.5t-42.5 -11.5q-23 0 -54.5 19.5t-42.5 19.5q-28 0 -53 -31zM45 0l157 601q13 51 45 80.5t77 29.5q44 0 76.5 -30t46.5 -81l157 -600h-69l-54 207h-314l-53 -207h-69z M183 267h282l-83 322q-15 58 -58 58t-58 -57z" />
<glyph unicode="&#xc4;" horiz-adv-x="649" d="M362 818q0 19 13.5 32.5t32.5 13.5q17 0 30.5 -13.5t13.5 -32.5q0 -18 -13.5 -31.5t-30.5 -13.5q-19 0 -32.5 13.5t-13.5 31.5zM196 818q0 19 13 32.5t32 13.5q18 0 31 -13.5t13 -32.5q0 -18 -13 -31.5t-31 -13.5q-19 0 -32 13.5t-13 31.5zM45 0l157 601q13 51 45 80.5 t77 29.5q44 0 76.5 -30t46.5 -81l157 -600h-69l-54 207h-314l-53 -207h-69zM183 267h282l-83 322q-15 58 -58 58t-58 -57z" />
<glyph unicode="&#xc5;" horiz-adv-x="649" d="M242 809q0 33 24 55t58 22q36 0 59.5 -21.5t23.5 -55.5q0 -32 -24 -53.5t-59 -21.5q-34 0 -58 21.5t-24 53.5zM293 809q0 -11 9 -19.5t21 -8.5q13 0 22.5 8.5t9.5 19.5q0 13 -8.5 21.5t-21.5 8.5t-22.5 -9t-9.5 -21zM45 0l157 601q13 51 45 80.5t77 29.5q44 0 76.5 -30 t46.5 -81l157 -600h-69l-54 207h-314l-53 -207h-69zM183 267h282l-83 322q-15 58 -58 58t-58 -57z" />
<glyph unicode="&#xc6;" horiz-adv-x="928" d="M687 0q-97 0 -146.5 48.5t-49.5 131.5v27h-279l-92 -207h-75l266 593q47 105 145 105h406v-62h-303v-247h273v-62h-273v-145q0 -56 28.5 -88t100.5 -32h179v-49q0 -5 -4.5 -9t-9.5 -4h-166zM373 569l-135 -302h253v368h-32q-56 0 -86 -66z" />
<glyph unicode="&#xc7;" horiz-adv-x="570" d="M207 -207l6 51q17 -4 38 -4q53 0 53 66v81q-114 4 -174.5 70.5t-60.5 188.5v205q0 125 64.5 192.5t183.5 67.5q88 0 194 -30l-14 -60q-100 28 -176 28q-180 0 -180 -209v-183q0 -208 180 -208q72 0 176 27l14 -59q-82 -23 -148 -28v-94q0 -57 -31 -82.5t-75 -25.5 q-26 0 -50 6z" />
<glyph unicode="&#xc8;" horiz-adv-x="517" d="M192 822l26 59l169 -77l-21 -46zM78 172v353q0 81 49 127t145 46h180v-62h-180q-69 0 -97 -29.5t-28 -83.5v-134h275v-62h-275v-152q0 -55 28 -84t97 -29h184v-42q0 -20 -20 -20h-164q-96 0 -145 46t-49 126z" />
<glyph unicode="&#xc9;" horiz-adv-x="517" d="M208 758l-21 46l169 77l26 -59zM78 172v353q0 81 49 127t145 46h180v-62h-180q-69 0 -97 -29.5t-28 -83.5v-134h275v-62h-275v-152q0 -55 28 -84t97 -29h184v-42q0 -20 -20 -20h-164q-96 0 -145 46t-49 126z" />
<glyph unicode="&#xca;" horiz-adv-x="517" d="M193 757l-34 45l129 80l129 -80l-35 -45l-94 61zM78 172v353q0 81 49 127t145 46h180v-62h-180q-69 0 -97 -29.5t-28 -83.5v-134h275v-62h-275v-152q0 -55 28 -84t97 -29h184v-42q0 -20 -20 -20h-164q-96 0 -145 46t-49 126z" />
<glyph unicode="&#xcb;" horiz-adv-x="517" d="M317 818q0 19 13.5 32.5t32.5 13.5q17 0 30.5 -13.5t13.5 -32.5q0 -18 -13.5 -31.5t-30.5 -13.5q-19 0 -32.5 13.5t-13.5 31.5zM150 818q0 19 13.5 32.5t31.5 13.5q19 0 32 -13.5t13 -32.5q0 -18 -13 -31.5t-32 -13.5q-18 0 -31.5 13.5t-13.5 31.5zM78 172v353 q0 81 49 127t145 46h180v-62h-180q-69 0 -97 -29.5t-28 -83.5v-134h275v-62h-275v-152q0 -55 28 -84t97 -29h184v-42q0 -20 -20 -20h-164q-96 0 -145 46t-49 126z" />
<glyph unicode="&#xcc;" horiz-adv-x="265" d="M35 822l27 59l169 -77l-21 -46zM98 0v698h69v-678q0 -20 -20 -20h-49z" />
<glyph unicode="&#xcd;" horiz-adv-x="265" d="M56 758l-21 46l169 77l27 -59zM98 0v698h69v-678q0 -20 -20 -20h-49z" />
<glyph unicode="&#xce;" horiz-adv-x="265" d="M38 757l-34 45l129 80l129 -80l-34 -45l-95 61zM98 0v698h69v-678q0 -20 -20 -20h-49z" />
<glyph unicode="&#xcf;" horiz-adv-x="265" d="M171 818q0 19 13.5 32.5t32.5 13.5q17 0 30.5 -13.5t13.5 -32.5q0 -18 -13.5 -31.5t-30.5 -13.5q-19 0 -32.5 13.5t-13.5 31.5zM5 818q0 19 13 32.5t32 13.5q18 0 31 -13.5t13 -32.5q0 -18 -13 -31.5t-31 -13.5q-19 0 -32 13.5t-13 31.5zM98 0v698h69v-678q0 -20 -20 -20 h-49z" />
<glyph unicode="&#xd0;" horiz-adv-x="653" d="M98 0v322h-64v54h64v322h235q127 0 188.5 -60.5t61.5 -186.5v-205q0 -126 -61.5 -186t-188.5 -60h-235zM167 62h165q103 0 141.5 49.5t38.5 147.5v181q0 98 -38.5 147t-141.5 49h-165v-260h160v-54h-160v-260z" />
<glyph unicode="&#xd1;" horiz-adv-x="664" d="M230 780l-29 34q36 51 82 51q24 0 55.5 -19.5t42.5 -19.5q27 0 52 32l29 -35q-36 -51 -81 -51q-23 0 -55 19.5t-43 19.5q-28 0 -53 -31zM98 0v698h66l337 -575q-4 86 -4 122v453h69v-698h-66l-337 574q4 -84 4 -121v-453h-69z" />
<glyph unicode="&#xd2;" horiz-adv-x="660" d="M232 822l27 59l168 -77l-20 -46zM69 270v159q0 128 70 205t191 77t191 -77t70 -205v-159q0 -130 -69.5 -206.5t-191.5 -76.5t-191.5 76.5t-69.5 206.5zM141 418v-138q0 -49 9.5 -88.5t30.5 -72.5t59 -51.5t90 -18.5t90 18.5t59 51.5t30.5 72.5t9.5 88.5v138 q0 102 -44.5 166.5t-144.5 64.5t-144.5 -64.5t-44.5 -166.5z" />
<glyph unicode="&#xd3;" horiz-adv-x="660" d="M253 758l-21 46l169 77l26 -59zM69 270v159q0 128 70 205t191 77t191 -77t70 -205v-159q0 -130 -69.5 -206.5t-191.5 -76.5t-191.5 76.5t-69.5 206.5zM141 418v-138q0 -49 9.5 -88.5t30.5 -72.5t59 -51.5t90 -18.5t90 18.5t59 51.5t30.5 72.5t9.5 88.5v138 q0 102 -44.5 166.5t-144.5 64.5t-144.5 -64.5t-44.5 -166.5z" />
<glyph unicode="&#xd4;" horiz-adv-x="660" d="M235 757l-34 45l129 80l129 -80l-34 -45l-95 61zM69 270v159q0 128 70 205t191 77t191 -77t70 -205v-159q0 -130 -69.5 -206.5t-191.5 -76.5t-191.5 76.5t-69.5 206.5zM141 418v-138q0 -49 9.5 -88.5t30.5 -72.5t59 -51.5t90 -18.5t90 18.5t59 51.5t30.5 72.5t9.5 88.5 v138q0 102 -44.5 166.5t-144.5 64.5t-144.5 -64.5t-44.5 -166.5z" />
<glyph unicode="&#xd5;" horiz-adv-x="660" d="M228 780l-29 34q35 51 82 51q23 0 54.5 -19.5t42.5 -19.5q27 0 53 32l29 -35q-21 -28 -39.5 -39.5t-42.5 -11.5q-23 0 -54.5 19.5t-42.5 19.5q-28 0 -53 -31zM69 270v159q0 128 70 205t191 77t191 -77t70 -205v-159q0 -130 -69.5 -206.5t-191.5 -76.5t-191.5 76.5 t-69.5 206.5zM141 418v-138q0 -49 9.5 -88.5t30.5 -72.5t59 -51.5t90 -18.5t90 18.5t59 51.5t30.5 72.5t9.5 88.5v138q0 102 -44.5 166.5t-144.5 64.5t-144.5 -64.5t-44.5 -166.5z" />
<glyph unicode="&#xd6;" horiz-adv-x="660" d="M368 818q0 19 13.5 32.5t32.5 13.5q17 0 30.5 -13.5t13.5 -32.5q0 -18 -13.5 -31.5t-30.5 -13.5q-19 0 -32.5 13.5t-13.5 31.5zM202 818q0 19 13 32.5t32 13.5q18 0 31 -13.5t13 -32.5q0 -18 -13 -31.5t-31 -13.5q-19 0 -32 13.5t-13 31.5zM69 270v159q0 128 70 205 t191 77t191 -77t70 -205v-159q0 -130 -69.5 -206.5t-191.5 -76.5t-191.5 76.5t-69.5 206.5zM141 418v-138q0 -49 9.5 -88.5t30.5 -72.5t59 -51.5t90 -18.5t90 18.5t59 51.5t30.5 72.5t9.5 88.5v138q0 102 -44.5 166.5t-144.5 64.5t-144.5 -64.5t-44.5 -166.5z" />
<glyph unicode="&#xd7;" horiz-adv-x="555" d="M144 126l-45 45l133 133l-133 133l45 45l133 -133l134 134l45 -45l-135 -134l135 -134l-45 -44l-134 133z" />
<glyph unicode="&#xd8;" horiz-adv-x="660" d="M115 -58l45 100q-91 78 -91 228v159q0 128 70 205t191 77q63 0 117 -24l41 91l51 -22l-44 -98q96 -77 96 -229v-159q0 -130 -69.5 -206.5t-191.5 -76.5q-68 0 -122 26l-41 -94zM190 111l231 517q-39 21 -91 21q-100 0 -144.5 -64.5t-44.5 -166.5v-138q0 -112 49 -169z M519 280v138q0 115 -54 173l-231 -520q41 -22 96 -22q52 0 90 18.5t59 51.5t30.5 72.5t9.5 88.5z" />
<glyph unicode="&#xd9;" horiz-adv-x="662" d="M233 822l26 59l169 -77l-21 -46zM83 253v445h69v-463q0 -78 45.5 -132t133.5 -54q87 0 132.5 54t45.5 132v463h70v-445q0 -127 -64.5 -196.5t-183.5 -69.5q-118 0 -183 69.5t-65 196.5z" />
<glyph unicode="&#xda;" horiz-adv-x="662" d="M254 758l-21 46l169 77l26 -59zM83 253v445h69v-463q0 -78 45.5 -132t133.5 -54q87 0 132.5 54t45.5 132v463h70v-445q0 -127 -64.5 -196.5t-183.5 -69.5q-118 0 -183 69.5t-65 196.5z" />
<glyph unicode="&#xdb;" horiz-adv-x="662" d="M236 757l-35 45l129 80l129 -80l-34 -45l-95 61zM83 253v445h69v-463q0 -78 45.5 -132t133.5 -54q87 0 132.5 54t45.5 132v463h70v-445q0 -127 -64.5 -196.5t-183.5 -69.5q-118 0 -183 69.5t-65 196.5z" />
<glyph unicode="&#xdc;" horiz-adv-x="662" d="M369 818q0 19 13 32.5t32 13.5q18 0 31.5 -13.5t13.5 -32.5q0 -18 -13.5 -31.5t-31.5 -13.5q-19 0 -32 13.5t-13 31.5zM202 818q0 19 13.5 32.5t31.5 13.5q19 0 32 -13.5t13 -32.5q0 -18 -13 -31.5t-32 -13.5q-18 0 -31.5 13.5t-13.5 31.5zM83 253v445h69v-463 q0 -78 45.5 -132t133.5 -54q87 0 132.5 54t45.5 132v463h70v-445q0 -127 -64.5 -196.5t-183.5 -69.5q-118 0 -183 69.5t-65 196.5z" />
<glyph unicode="&#xdd;" horiz-adv-x="574" d="M210 758l-21 46l169 77l26 -59zM252 0v292q-77 10 -114 61.5t-53 133.5l-40 211h68l39 -200q6 -27 10.5 -44t14.5 -38.5t23.5 -34t35.5 -21.5t51 -9q36 0 61 11.5t39.5 35t21.5 45t13 55.5l38 200h69l-40 -211q-16 -83 -53.5 -134.5t-114.5 -60.5v-292h-69z" />
<glyph unicode="&#xde;" horiz-adv-x="566" d="M98 0v698h69v-122h119q107 0 167 -61.5t60 -153.5q0 -93 -60 -154t-167 -61h-119v-146h-69zM167 209h117q79 0 118 45t39 107q0 64 -38.5 108t-118.5 44h-117v-304z" />
<glyph unicode="&#xdf;" horiz-adv-x="575" d="M98 0v458l-84 6v48h84v67q0 75 45 117.5t120 42.5q70 0 117.5 -41.5t47.5 -107.5q0 -32 -12 -58.5t-29 -44.5t-33.5 -34.5t-28.5 -36t-12 -42.5q0 -30 21.5 -50.5t52.5 -34.5t62 -30.5t52.5 -47.5t21.5 -75q0 -68 -46.5 -108.5t-125.5 -40.5q-65 0 -143 26l13 61 q80 -26 130 -26q103 0 103 88q0 26 -15.5 45.5t-39 30t-50.5 24t-50.5 28.5t-39 43t-15.5 67q0 37 18.5 67t40 47t40 43.5t18.5 58.5q0 36 -25 62t-72 26q-98 0 -98 -106v-552q0 -8 -5.5 -14t-13.5 -6h-49z" />
<glyph unicode="&#xe0;" horiz-adv-x="513" d="M160 651l26 59l169 -77l-21 -46zM378 0l-8 52q-72 -65 -157 -65q-75 0 -119 41t-44 108q0 148 219 148h94v49q0 67 -28 99t-95 32q-62 0 -139 -24l-15 59q84 26 154 26q94 0 142.5 -48.5t48.5 -130.5v-346h-53zM363 109v119h-90q-74 0 -113.5 -21t-39.5 -71 q0 -40 25.5 -64t74.5 -24q79 0 143 61z" />
<glyph unicode="&#xe1;" horiz-adv-x="513" d="M179 587l-21 46l169 77l26 -59zM378 0l-8 52q-72 -65 -157 -65q-75 0 -119 41t-44 108q0 148 219 148h94v49q0 67 -28 99t-95 32q-62 0 -139 -24l-15 59q84 26 154 26q94 0 142.5 -48.5t48.5 -130.5v-346h-53zM363 109v119h-90q-74 0 -113.5 -21t-39.5 -71 q0 -40 25.5 -64t74.5 -24q79 0 143 61z" />
<glyph unicode="&#xe2;" horiz-adv-x="513" d="M161 586l-35 45l129 80l129 -80l-34 -45l-95 61zM378 0l-8 52q-72 -65 -157 -65q-75 0 -119 41t-44 108q0 148 219 148h94v49q0 67 -28 99t-95 32q-62 0 -139 -24l-15 59q84 26 154 26q94 0 142.5 -48.5t48.5 -130.5v-346h-53zM363 109v119h-90q-74 0 -113.5 -21 t-39.5 -71q0 -40 25.5 -64t74.5 -24q79 0 143 61z" />
<glyph unicode="&#xe3;" horiz-adv-x="513" d="M153 609l-29 34q36 51 82 51q24 0 55.5 -19.5t42.5 -19.5q27 0 52 32l29 -35q-36 -51 -81 -51q-24 0 -55 19.5t-43 19.5q-28 0 -53 -31zM378 0l-8 52q-72 -65 -157 -65q-75 0 -119 41t-44 108q0 148 219 148h94v49q0 67 -28 99t-95 32q-62 0 -139 -24l-15 59 q84 26 154 26q94 0 142.5 -48.5t48.5 -130.5v-346h-53zM363 109v119h-90q-74 0 -113.5 -21t-39.5 -71q0 -40 25.5 -64t74.5 -24q79 0 143 61z" />
<glyph unicode="&#xe4;" horiz-adv-x="513" d="M293 647q0 19 13 32.5t32 13.5q18 0 31.5 -13.5t13.5 -32.5q0 -18 -13.5 -31.5t-31.5 -13.5q-19 0 -32 13.5t-13 31.5zM126 647q0 19 13.5 32.5t31.5 13.5q19 0 32 -13.5t13 -32.5q0 -18 -13 -31.5t-32 -13.5q-18 0 -31.5 13.5t-13.5 31.5zM378 0l-8 52q-72 -65 -157 -65 q-75 0 -119 41t-44 108q0 148 219 148h94v49q0 67 -28 99t-95 32q-62 0 -139 -24l-15 59q84 26 154 26q94 0 142.5 -48.5t48.5 -130.5v-346h-53zM363 109v119h-90q-74 0 -113.5 -21t-39.5 -71q0 -40 25.5 -64t74.5 -24q79 0 143 61z" />
<glyph unicode="&#xe5;" horiz-adv-x="513" d="M172 649q0 33 24 55t58 22q36 0 59.5 -21.5t23.5 -55.5q0 -32 -24 -54t-59 -22q-33 0 -57.5 22t-24.5 54zM223 649q0 -12 9.5 -20.5t22.5 -8.5t22 9t9 20q0 13 -9 21t-22 8t-22.5 -8.5t-9.5 -20.5zM378 0l-8 52q-72 -65 -157 -65q-75 0 -119 41t-44 108q0 148 219 148h94 v49q0 67 -28 99t-95 32q-62 0 -139 -24l-15 59q84 26 154 26q94 0 142.5 -48.5t48.5 -130.5v-346h-53zM363 109v119h-90q-74 0 -113.5 -21t-39.5 -71q0 -40 25.5 -64t74.5 -24q79 0 143 61z" />
<glyph unicode="&#xe6;" horiz-adv-x="823" d="M269 284h94v47q0 69 -28 101t-95 32q-62 0 -139 -24l-15 59q84 26 154 26q119 0 163 -82q55 82 161 82q90 0 145 -61t55 -144v-56q0 -8 -5.5 -14t-13.5 -6h-313v-53q0 -56 33 -99.5t105 -43.5q61 0 156 27l15 -58q-97 -30 -171 -30q-106 0 -163 74q-86 -74 -193 -74 q-76 0 -120 41.5t-44 109.5q0 76 59 111t160 35zM432 298h264v25q0 56 -33 98.5t-99 42.5t-99 -42t-33 -98v-26zM364 191v37h-91q-74 0 -113.5 -20t-39.5 -71q0 -41 25.5 -65t74.5 -24q81 0 160 58q-16 43 -16 85z" />
<glyph unicode="&#xe7;" horiz-adv-x="480" d="M147 -207l7 51q17 -4 38 -4q53 0 53 66v82q-87 7 -134 67.5t-47 158.5v86q0 104 53.5 164.5t150.5 60.5q72 0 158 -26l-16 -58q-72 23 -140 23q-137 0 -137 -171v-71q0 -174 137 -174q65 0 140 24l16 -59q-61 -19 -123 -25v-93q0 -57 -31 -82.5t-75 -25.5q-26 0 -50 6z " />
<glyph unicode="&#xe8;" horiz-adv-x="523" d="M163 651l27 59l169 -77l-21 -46zM64 191v129q0 85 54.5 145t145.5 60q90 0 145 -61t55 -144v-56q0 -8 -5.5 -14t-13.5 -6h-313v-53q0 -56 33 -99.5t105 -43.5q61 0 156 27l15 -58q-97 -30 -171 -30q-96 0 -151 60t-55 144zM132 298h264v25q0 56 -33 98.5t-99 42.5 t-99 -42t-33 -99v-25z" />
<glyph unicode="&#xe9;" horiz-adv-x="523" d="M180 587l-20 46l168 77l27 -59zM64 191v129q0 85 54.5 145t145.5 60q90 0 145 -61t55 -144v-56q0 -8 -5.5 -14t-13.5 -6h-313v-53q0 -56 33 -99.5t105 -43.5q61 0 156 27l15 -58q-97 -30 -171 -30q-96 0 -151 60t-55 144zM132 298h264v25q0 56 -33 98.5t-99 42.5t-99 -42 t-33 -99v-25z" />
<glyph unicode="&#xea;" horiz-adv-x="523" d="M167 586l-34 45l129 80l129 -80l-35 -45l-94 61zM64 191v129q0 85 54.5 145t145.5 60q90 0 145 -61t55 -144v-56q0 -8 -5.5 -14t-13.5 -6h-313v-53q0 -56 33 -99.5t105 -43.5q61 0 156 27l15 -58q-97 -30 -171 -30q-96 0 -151 60t-55 144zM132 298h264v25q0 56 -33 98.5 t-99 42.5t-99 -42t-33 -99v-25z" />
<glyph unicode="&#xeb;" horiz-adv-x="523" d="M300 647q0 19 13.5 32.5t32.5 13.5q17 0 30.5 -13.5t13.5 -32.5q0 -18 -13.5 -31.5t-30.5 -13.5q-19 0 -32.5 13.5t-13.5 31.5zM133 647q0 19 13.5 32.5t31.5 13.5q19 0 32 -13.5t13 -32.5q0 -18 -13 -31.5t-32 -13.5q-18 0 -31.5 13.5t-13.5 31.5zM64 191v129 q0 85 54.5 145t145.5 60q90 0 145 -61t55 -144v-56q0 -8 -5.5 -14t-13.5 -6h-313v-53q0 -56 33 -99.5t105 -43.5q61 0 156 27l15 -58q-97 -30 -171 -30q-96 0 -151 60t-55 144zM132 298h264v25q0 56 -33 98.5t-99 42.5t-99 -42t-33 -99v-25z" />
<glyph unicode="&#xec;" horiz-adv-x="240" d="M23 651l26 59l169 -77l-21 -46zM86 0v512h68v-492q0 -20 -20 -20h-48z" />
<glyph unicode="&#xed;" horiz-adv-x="240" d="M44 587l-21 46l169 77l26 -59zM86 0v512h68v-492q0 -20 -20 -20h-48z" />
<glyph unicode="&#xee;" horiz-adv-x="240" d="M26 586l-35 45l129 80l129 -80l-34 -45l-95 61zM86 0v512h68v-492q0 -20 -20 -20h-48z" />
<glyph unicode="&#xef;" horiz-adv-x="240" d="M159 647q0 19 13 32.5t32 13.5q18 0 31.5 -13.5t13.5 -32.5q0 -18 -13.5 -31.5t-31.5 -13.5q-19 0 -32 13.5t-13 31.5zM-8 647q0 19 13.5 32.5t31.5 13.5q19 0 32 -13.5t13 -32.5q0 -18 -13 -31.5t-32 -13.5q-18 0 -31.5 13.5t-13.5 31.5zM86 0v512h68v-492 q0 -20 -20 -20h-48z" />
<glyph unicode="&#xf0;" horiz-adv-x="544" d="M64 195v73q0 92 58 149.5t150 57.5q88 0 143 -58q-6 204 -129 226l-42 -90l-43 20l35 74q-68 -1 -135 -19l-14 57q79 21 158 21q12 0 18 -1l38 82l43 -20l-32 -70q78 -19 123 -88.5t45 -191.5v-222q0 -90 -56 -149t-152 -59t-152 59t-56 149zM133 260v-57q0 -69 34 -112 t105 -43q72 0 105.5 43t33.5 112v57q0 68 -34 110.5t-105 42.5t-105 -42.5t-34 -110.5z" />
<glyph unicode="&#xf1;" horiz-adv-x="556" d="M176 609l-29 34q36 51 82 51q24 0 55.5 -19.5t42.5 -19.5q27 0 52 32l29 -35q-36 -51 -81 -51q-23 0 -55 19.5t-43 19.5q-28 0 -53 -31zM86 0v512h54l8 -54q83 67 158 67q83 0 126 -46t43 -126v-333q0 -20 -20 -20h-48v336q0 65 -24.5 96.5t-85.5 31.5q-58 0 -143 -64 v-400h-68z" />
<glyph unicode="&#xf2;" horiz-adv-x="545" d="M171 651l27 59l169 -77l-21 -46zM64 211v91q0 104 55.5 163.5t153.5 59.5q97 0 152.5 -59.5t55.5 -163.5v-91q0 -104 -55.5 -164t-152.5 -60q-98 0 -153.5 59.5t-55.5 164.5zM133 295v-76q0 -171 140 -171q139 0 139 171v76q0 169 -139 169q-140 0 -140 -169z" />
<glyph unicode="&#xf3;" horiz-adv-x="545" d="M192 587l-21 46l169 77l27 -59zM64 211v91q0 104 55.5 163.5t153.5 59.5q97 0 152.5 -59.5t55.5 -163.5v-91q0 -104 -55.5 -164t-152.5 -60q-98 0 -153.5 59.5t-55.5 164.5zM133 295v-76q0 -171 140 -171q139 0 139 171v76q0 169 -139 169q-140 0 -140 -169z" />
<glyph unicode="&#xf4;" horiz-adv-x="545" d="M178 586l-34 45l129 80l129 -80l-35 -45l-94 61zM64 211v91q0 104 55.5 163.5t153.5 59.5q97 0 152.5 -59.5t55.5 -163.5v-91q0 -104 -55.5 -164t-152.5 -60q-98 0 -153.5 59.5t-55.5 164.5zM133 295v-76q0 -171 140 -171q139 0 139 171v76q0 169 -139 169 q-140 0 -140 -169z" />
<glyph unicode="&#xf5;" horiz-adv-x="545" d="M171 609l-28 34q35 51 81 51q24 0 55.5 -19.5t42.5 -19.5q27 0 53 32l29 -35q-38 -51 -82 -51q-23 0 -54.5 19.5t-43.5 19.5q-28 0 -53 -31zM64 211v91q0 104 55.5 163.5t153.5 59.5q97 0 152.5 -59.5t55.5 -163.5v-91q0 -104 -55.5 -164t-152.5 -60q-98 0 -153.5 59.5 t-55.5 164.5zM133 295v-76q0 -171 140 -171q139 0 139 171v76q0 169 -139 169q-140 0 -140 -169z" />
<glyph unicode="&#xf6;" horiz-adv-x="545" d="M311 647q0 19 13.5 32.5t32.5 13.5q17 0 30.5 -13.5t13.5 -32.5q0 -18 -13.5 -31.5t-30.5 -13.5q-19 0 -32.5 13.5t-13.5 31.5zM144 647q0 19 13.5 32.5t31.5 13.5q19 0 32 -13.5t13 -32.5q0 -18 -13 -31.5t-32 -13.5q-18 0 -31.5 13.5t-13.5 31.5zM64 211v91 q0 104 55.5 163.5t153.5 59.5q97 0 152.5 -59.5t55.5 -163.5v-91q0 -104 -55.5 -164t-152.5 -60q-98 0 -153.5 59.5t-55.5 164.5zM133 295v-76q0 -171 140 -171q139 0 139 171v76q0 169 -139 169q-140 0 -140 -169z" />
<glyph unicode="&#xf8;" horiz-adv-x="545" d="M99 -62l40 91q-75 58 -75 182v91q0 104 55.5 163.5t153.5 59.5q43 0 82 -14l37 84l51 -22l-40 -88q78 -59 78 -183v-91q0 -104 -55.5 -164t-152.5 -60q-49 0 -86 15l-38 -86zM169 97l160 357q-27 10 -56 10q-140 0 -140 -169v-76q0 -83 36 -122zM412 219v76q0 82 -39 122 l-160 -358q27 -11 60 -11q139 0 139 171z" />
<glyph unicode="&#xf9;" horiz-adv-x="556" d="M181 651l26 59l169 -77l-21 -46zM81 160v332q0 20 20 20h48v-336q0 -65 25 -96.5t86 -31.5t142 64v400h68v-512h-54l-7 54q-83 -67 -158 -67q-83 0 -126.5 46.5t-43.5 126.5z" />
<glyph unicode="&#xfa;" horiz-adv-x="556" d="M201 587l-20 46l168 77l27 -59zM81 160v332q0 20 20 20h48v-336q0 -65 25 -96.5t86 -31.5t142 64v400h68v-512h-54l-7 54q-83 -67 -158 -67q-83 0 -126.5 46.5t-43.5 126.5z" />
<glyph unicode="&#xfb;" horiz-adv-x="556" d="M183 586l-34 45l129 80l129 -80l-34 -45l-95 61zM81 160v332q0 20 20 20h48v-336q0 -65 25 -96.5t86 -31.5t142 64v400h68v-512h-54l-7 54q-83 -67 -158 -67q-83 0 -126.5 46.5t-43.5 126.5z" />
<glyph unicode="&#xfc;" horiz-adv-x="556" d="M316 647q0 19 13.5 32.5t32.5 13.5q18 0 31 -13.5t13 -32.5q0 -18 -13 -31.5t-31 -13.5q-19 0 -32.5 13.5t-13.5 31.5zM150 647q0 19 13 32.5t32 13.5q18 0 31.5 -13.5t13.5 -32.5q0 -18 -13.5 -31.5t-31.5 -13.5q-19 0 -32 13.5t-13 31.5zM81 160v332q0 20 20 20h48 v-336q0 -65 25 -96.5t86 -31.5t142 64v400h68v-512h-54l-7 54q-83 -67 -158 -67q-83 0 -126.5 46.5t-43.5 126.5z" />
<glyph unicode="&#xfd;" horiz-adv-x="510" d="M174 587l-21 46l169 77l26 -59zM90 166l-45 346h67l44 -338q14 -112 100 -112q47 0 105 30l23 420h66l-29 -554q-8 -159 -165 -159h-94l-5 61h100q51 0 72.5 26t24.5 76l4 65q-56 -27 -105 -27q-142 0 -163 166z" />
<glyph unicode="&#xfe;" horiz-adv-x="553" d="M86 -201v927h68v-262q81 61 149 61q87 0 136.5 -54t49.5 -150v-130q0 -95 -49.5 -149.5t-136.5 -54.5q-64 0 -149 61v-249h-68zM154 399v-288q30 -22 47 -32.5t43 -20.5t50 -10q65 0 95.5 39.5t30.5 119.5v98q0 80 -30.5 119.5t-95.5 39.5q-57 0 -140 -65z" />
<glyph unicode="&#xff;" horiz-adv-x="510" d="M289 647q0 19 13 32.5t32 13.5q18 0 31.5 -13.5t13.5 -32.5q0 -18 -13.5 -31.5t-31.5 -13.5q-19 0 -32 13.5t-13 31.5zM122 647q0 19 13.5 32.5t31.5 13.5q19 0 32 -13.5t13 -32.5q0 -18 -13 -31.5t-32 -13.5q-18 0 -31.5 13.5t-13.5 31.5zM90 166l-45 346h67l44 -338 q14 -112 100 -112q47 0 105 30l23 420h66l-29 -554q-8 -159 -165 -159h-94l-5 61h100q51 0 72.5 26t24.5 76l4 65q-56 -27 -105 -27q-142 0 -163 166z" />
<glyph unicode="&#x100;" horiz-adv-x="649" d="M214 791v57h221v-57h-221zM45 0l157 601q13 51 45 80.5t77 29.5q44 0 76.5 -30t46.5 -81l157 -600h-69l-54 207h-314l-53 -207h-69zM183 267h282l-83 322q-15 58 -58 58t-58 -57z" />
<glyph unicode="&#x101;" horiz-adv-x="513" d="M146 620v57h221v-57h-221zM378 0l-8 52q-72 -65 -157 -65q-75 0 -119 41t-44 108q0 148 219 148h94v49q0 67 -28 99t-95 32q-62 0 -139 -24l-15 59q84 26 154 26q94 0 142.5 -48.5t48.5 -130.5v-346h-53zM363 109v119h-90q-74 0 -113.5 -21t-39.5 -71q0 -40 25.5 -64 t74.5 -24q79 0 143 61z" />
<glyph unicode="&#x102;" horiz-adv-x="649" d="M212 875h54q0 -27 16.5 -43t41.5 -16t42 16t17 43h54q0 -50 -30.5 -81t-82.5 -31t-82 31t-30 81zM45 0l157 601q13 51 45 80.5t77 29.5q44 0 76.5 -30t46.5 -81l157 -600h-69l-54 207h-314l-53 -207h-69zM183 267h282l-83 322q-15 58 -58 58t-58 -57z" />
<glyph unicode="&#x103;" horiz-adv-x="513" d="M142 704h54q0 -27 16.5 -43t41.5 -16t42 16t17 43h54q0 -50 -30.5 -81t-82.5 -31t-82 31t-30 81zM378 0l-8 52q-72 -65 -157 -65q-75 0 -119 41t-44 108q0 148 219 148h94v49q0 67 -28 99t-95 32q-62 0 -139 -24l-15 59q84 26 154 26q94 0 142.5 -48.5t48.5 -130.5v-346 h-53zM363 109v119h-90q-74 0 -113.5 -21t-39.5 -71q0 -40 25.5 -64t74.5 -24q79 0 143 61z" />
<glyph unicode="&#x104;" horiz-adv-x="649" d="M45 0l157 601q13 51 45 80.5t77 29.5q44 0 76.5 -30t46.5 -81l157 -600q-81 -71 -81 -121q0 -18 10 -29.5t26 -11.5q12 0 34 6l6 -50q-23 -8 -52 -8q-36 0 -58.5 23.5t-22.5 58.5q0 65 76 132h-7l-54 207h-314l-53 -207h-69zM183 267h282l-83 322q-15 58 -58 58t-58 -57z " />
<glyph unicode="&#x105;" horiz-adv-x="513" d="M420 -156l7 -50q-24 -8 -53 -8q-36 0 -58.5 23.5t-22.5 58.5q0 70 84 139l-7 45q-72 -65 -157 -65q-75 0 -119 41t-44 108q0 148 219 148h94v49q0 67 -28 99t-95 32q-62 0 -139 -24l-15 59q84 26 154 26q94 0 142.5 -48.5t48.5 -130.5v-346q-80 -70 -80 -121 q0 -18 9.5 -29.5t25.5 -11.5q12 0 34 6zM363 109v119h-90q-74 0 -113.5 -21t-39.5 -71q0 -40 25.5 -64t74.5 -24q79 0 143 61z" />
<glyph unicode="&#x106;" horiz-adv-x="570" d="M233 758l-21 46l169 77l26 -59zM69 246v205q0 125 64.5 192.5t183.5 67.5q88 0 194 -30l-14 -60q-100 28 -176 28q-180 0 -180 -209v-183q0 -208 180 -208q72 0 176 27l14 -59q-107 -30 -194 -30q-119 0 -183.5 67t-64.5 192z" />
<glyph unicode="&#x107;" horiz-adv-x="480" d="M183 587l-21 46l169 77l26 -59zM64 214v86q0 104 53.5 164.5t150.5 60.5q72 0 158 -26l-16 -58q-72 23 -140 23q-137 0 -137 -171v-71q0 -174 137 -174q65 0 140 24l16 -59q-86 -26 -158 -26q-97 0 -150.5 61.5t-53.5 165.5z" />
<glyph unicode="&#x108;" horiz-adv-x="570" d="M217 757l-34 45l129 80l129 -80l-34 -45l-95 61zM69 246v205q0 125 64.5 192.5t183.5 67.5q88 0 194 -30l-14 -60q-100 28 -176 28q-180 0 -180 -209v-183q0 -208 180 -208q72 0 176 27l14 -59q-107 -30 -194 -30q-119 0 -183.5 67t-64.5 192z" />
<glyph unicode="&#x109;" horiz-adv-x="480" d="M168 586l-34 45l129 80l129 -80l-34 -45l-95 61zM64 214v86q0 104 53.5 164.5t150.5 60.5q72 0 158 -26l-16 -58q-72 23 -140 23q-137 0 -137 -171v-71q0 -174 137 -174q65 0 140 24l16 -59q-86 -26 -158 -26q-97 0 -150.5 61.5t-53.5 165.5z" />
<glyph unicode="&#x10a;" horiz-adv-x="570" d="M266 818q0 19 13.5 32.5t32.5 13.5q17 0 30.5 -13.5t13.5 -32.5q0 -18 -13.5 -31.5t-30.5 -13.5q-19 0 -32.5 13.5t-13.5 31.5zM69 246v205q0 125 64.5 192.5t183.5 67.5q88 0 194 -30l-14 -60q-100 28 -176 28q-180 0 -180 -209v-183q0 -208 180 -208q72 0 176 27 l14 -59q-107 -30 -194 -30q-119 0 -183.5 67t-64.5 192z" />
<glyph unicode="&#x10b;" horiz-adv-x="480" d="M209 647q0 19 13.5 32.5t32.5 13.5q17 0 30.5 -13.5t13.5 -32.5q0 -18 -13.5 -31.5t-30.5 -13.5q-19 0 -32.5 13.5t-13.5 31.5zM64 214v86q0 104 53.5 164.5t150.5 60.5q72 0 158 -26l-16 -58q-72 23 -140 23q-137 0 -137 -171v-71q0 -174 137 -174q65 0 140 24l16 -59 q-86 -26 -158 -26q-97 0 -150.5 61.5t-53.5 165.5z" />
<glyph unicode="&#x10c;" horiz-adv-x="570" d="M183 836l34 46l95 -62l95 62l34 -46l-129 -80zM69 246v205q0 125 64.5 192.5t183.5 67.5q88 0 194 -30l-14 -60q-100 28 -176 28q-180 0 -180 -209v-183q0 -208 180 -208q72 0 176 27l14 -59q-107 -30 -194 -30q-119 0 -183.5 67t-64.5 192z" />
<glyph unicode="&#x10d;" horiz-adv-x="480" d="M130 665l34 46l95 -62l94 62l35 -46l-129 -80zM64 214v86q0 104 53.5 164.5t150.5 60.5q72 0 158 -26l-16 -58q-72 23 -140 23q-137 0 -137 -171v-71q0 -174 137 -174q65 0 140 24l16 -59q-86 -26 -158 -26q-97 0 -150.5 61.5t-53.5 165.5z" />
<glyph unicode="&#x10e;" horiz-adv-x="653" d="M187 836l34 46l95 -62l94 62l35 -46l-129 -80zM98 0v698h235q127 0 188.5 -60.5t61.5 -186.5v-205q0 -126 -61.5 -186t-188.5 -60h-235zM167 62h165q103 0 141.5 49.5t38.5 147.5v181q0 98 -38.5 147t-141.5 49h-165v-574z" />
<glyph unicode="&#x10f;" horiz-adv-x="552" d="M516 574l22 152h69l-36 -152h-55zM64 191v130q0 96 49.5 150t136.5 54q68 0 148 -61v262h68v-726h-54l-7 53q-84 -66 -155 -66q-87 0 -136.5 54.5t-49.5 149.5zM133 305v-98q0 -80 30 -119.5t95 -39.5q59 0 140 63v288q-82 65 -140 65q-65 0 -95 -39t-30 -120z" />
<glyph unicode="&#x110;" horiz-adv-x="653" d="M98 0v322h-64v54h64v322h235q127 0 188.5 -60.5t61.5 -186.5v-205q0 -126 -61.5 -186t-188.5 -60h-235zM167 62h165q103 0 141.5 49.5t38.5 147.5v181q0 98 -38.5 147t-141.5 49h-165v-260h160v-54h-160v-260z" />
<glyph unicode="&#x111;" horiz-adv-x="552" d="M64 191v130q0 96 49.5 150t136.5 54q68 0 148 -61v142h-148v51h148v69h68v-69h50v-51h-50v-606h-54l-7 53q-84 -66 -155 -66q-87 0 -136.5 54.5t-49.5 149.5zM133 305v-98q0 -80 30 -119.5t95 -39.5q59 0 140 63v288q-82 65 -140 65q-65 0 -95 -39t-30 -120z" />
<glyph unicode="&#x112;" horiz-adv-x="517" d="M169 791v57h221v-57h-221zM78 172v353q0 81 49 127t145 46h180v-62h-180q-69 0 -97 -29.5t-28 -83.5v-134h275v-62h-275v-152q0 -55 28 -84t97 -29h184v-42q0 -20 -20 -20h-164q-96 0 -145 46t-49 126z" />
<glyph unicode="&#x113;" horiz-adv-x="523" d="M147 620v57h221v-57h-221zM64 191v129q0 85 54.5 145t145.5 60q90 0 145 -61t55 -144v-56q0 -8 -5.5 -14t-13.5 -6h-313v-53q0 -56 33 -99.5t105 -43.5q61 0 156 27l15 -58q-97 -30 -171 -30q-96 0 -151 60t-55 144zM132 298h264v25q0 56 -33 98.5t-99 42.5t-99 -42 t-33 -99v-25z" />
<glyph unicode="&#x114;" horiz-adv-x="517" d="M167 875h54q0 -27 16.5 -43t41.5 -16t41.5 16t16.5 43h54q0 -50 -30 -81t-82 -31t-82 31t-30 81zM78 172v353q0 81 49 127t145 46h180v-62h-180q-69 0 -97 -29.5t-28 -83.5v-134h275v-62h-275v-152q0 -55 28 -84t97 -29h184v-42q0 -20 -20 -20h-164q-96 0 -145 46 t-49 126z" />
<glyph unicode="&#x115;" horiz-adv-x="523" d="M145 704h54q0 -27 16.5 -43t41.5 -16t42 16t17 43h54q0 -50 -30.5 -81t-82.5 -31t-82 31t-30 81zM64 191v129q0 85 54.5 145t145.5 60q90 0 145 -61t55 -144v-56q0 -8 -5.5 -14t-13.5 -6h-313v-53q0 -56 33 -99.5t105 -43.5q61 0 156 27l15 -58q-97 -30 -171 -30 q-96 0 -151 60t-55 144zM132 298h264v25q0 56 -33 98.5t-99 42.5t-99 -42t-33 -99v-25z" />
<glyph unicode="&#x116;" horiz-adv-x="517" d="M244 818q0 19 13.5 32.5t32.5 13.5q18 0 31 -13.5t13 -32.5q0 -18 -13 -31.5t-31 -13.5q-19 0 -32.5 13.5t-13.5 31.5zM78 172v353q0 81 49 127t145 46h180v-62h-180q-69 0 -97 -29.5t-28 -83.5v-134h275v-62h-275v-152q0 -55 28 -84t97 -29h184v-42q0 -20 -20 -20h-164 q-96 0 -145 46t-49 126z" />
<glyph unicode="&#x117;" horiz-adv-x="523" d="M212 647q0 19 13.5 32.5t32.5 13.5q17 0 30.5 -13.5t13.5 -32.5q0 -18 -13.5 -31.5t-30.5 -13.5q-19 0 -32.5 13.5t-13.5 31.5zM64 191v129q0 85 54.5 145t145.5 60q90 0 145 -61t55 -144v-56q0 -8 -5.5 -14t-13.5 -6h-313v-53q0 -56 33 -99.5t105 -43.5q61 0 156 27 l15 -58q-97 -30 -171 -30q-96 0 -151 60t-55 144zM132 298h264v25q0 56 -33 98.5t-99 42.5t-99 -42t-33 -99v-25z" />
<glyph unicode="&#x118;" horiz-adv-x="517" d="M445 -156l6 -50q-23 -8 -52 -8q-36 0 -58.5 23.5t-22.5 58.5q0 65 76 132h-122q-96 0 -145 46t-49 126v353q0 81 49 127t145 46h180v-62h-180q-70 0 -97.5 -30t-27.5 -83v-134h275v-62h-275v-152q0 -54 27.5 -83.5t97.5 -29.5h184v-62q-81 -71 -81 -121q0 -18 10 -29.5 t26 -11.5q12 0 34 6z" />
<glyph unicode="&#x119;" horiz-adv-x="523" d="M64 191v129q0 85 54.5 145t145.5 60q90 0 145 -61t55 -144v-56q0 -8 -5.5 -14t-13.5 -6h-313v-53q0 -56 33 -99.5t105 -43.5q61 0 156 27l15 -58q-32 -28 -57 -68t-25 -70q0 -18 10 -29.5t26 -11.5q12 0 34 6l6 -50q-23 -8 -52 -8q-36 0 -58.5 23.5t-22.5 59.5 q0 63 58 128q-50 -10 -90 -10q-96 0 -151 60t-55 144zM132 298h264v25q0 56 -33 98.5t-99 42.5t-99 -42t-33 -99v-25z" />
<glyph unicode="&#x11a;" horiz-adv-x="517" d="M155 836l34 46l95 -62l95 62l34 -46l-129 -80zM78 172v353q0 81 49 127t145 46h180v-62h-180q-69 0 -97 -29.5t-28 -83.5v-134h275v-62h-275v-152q0 -55 28 -84t97 -29h184v-42q0 -20 -20 -20h-164q-96 0 -145 46t-49 126z" />
<glyph unicode="&#x11b;" horiz-adv-x="523" d="M128 665l34 46l95 -62l95 62l34 -46l-129 -80zM64 191v129q0 85 54.5 145t145.5 60q90 0 145 -61t55 -144v-56q0 -8 -5.5 -14t-13.5 -6h-313v-53q0 -56 33 -99.5t105 -43.5q61 0 156 27l15 -58q-97 -30 -171 -30q-96 0 -151 60t-55 144zM132 298h264v25q0 56 -33 98.5 t-99 42.5t-99 -42t-33 -99v-25z" />
<glyph unicode="&#x11c;" horiz-adv-x="631" d="M220 757l-34 45l129 80l129 -80l-34 -45l-95 61zM69 245v206q0 125 64.5 192.5t183.5 67.5q87 0 194 -30l-14 -60q-101 28 -176 28q-180 0 -180 -209v-184q0 -96 40.5 -151.5t139.5 -55.5q57 0 161 25v244l67 8v-299q-140 -40 -232 -40q-120 0 -184 66.5t-64 191.5z" />
<glyph unicode="&#x11d;" horiz-adv-x="553" d="M173 586l-34 45l129 80l129 -80l-34 -45l-95 61zM170 -201l-12 60h144q46 0 71 27.5t25 72.5v98q-74 -57 -148 -57q-87 0 -136.5 54t-49.5 150v117q0 96 49.5 150t136.5 54q72 0 155 -67l7 54h54v-552q0 -76 -42.5 -118.5t-121.5 -42.5h-132zM133 305v-85q0 -81 30 -120 t95 -39q59 0 140 58v280q-81 65 -140 65q-65 0 -95 -39t-30 -120z" />
<glyph unicode="&#x11e;" horiz-adv-x="631" d="M201 875h54q0 -27 16.5 -43t41.5 -16t41.5 16t16.5 43h54q0 -50 -30 -81t-82 -31t-82 31t-30 81zM69 245v206q0 125 64.5 192.5t183.5 67.5q87 0 194 -30l-14 -60q-101 28 -176 28q-180 0 -180 -209v-184q0 -96 40.5 -151.5t139.5 -55.5q57 0 161 25v244l67 8v-299 q-140 -40 -232 -40q-120 0 -184 66.5t-64 191.5z" />
<glyph unicode="&#x11f;" horiz-adv-x="553" d="M155 704h54q0 -27 16.5 -43t41.5 -16t41.5 16t16.5 43h54q0 -50 -30 -81t-82 -31t-82 31t-30 81zM170 -201l-12 60h144q46 0 71 27.5t25 72.5v98q-74 -57 -148 -57q-87 0 -136.5 54t-49.5 150v117q0 96 49.5 150t136.5 54q72 0 155 -67l7 54h54v-552q0 -76 -42.5 -118.5 t-121.5 -42.5h-132zM133 305v-85q0 -81 30 -120t95 -39q59 0 140 58v280q-81 65 -140 65q-65 0 -95 -39t-30 -120z" />
<glyph unicode="&#x120;" horiz-adv-x="631" d="M270 818q0 19 13.5 32.5t32.5 13.5q17 0 30.5 -13.5t13.5 -32.5q0 -18 -13.5 -31.5t-30.5 -13.5q-19 0 -32.5 13.5t-13.5 31.5zM69 245v206q0 125 64.5 192.5t183.5 67.5q87 0 194 -30l-14 -60q-101 28 -176 28q-180 0 -180 -209v-184q0 -96 40.5 -151.5t139.5 -55.5 q57 0 161 25v244l67 8v-299q-140 -40 -232 -40q-120 0 -184 66.5t-64 191.5z" />
<glyph unicode="&#x121;" horiz-adv-x="553" d="M220 647q0 19 13 32.5t32 13.5q18 0 31.5 -13.5t13.5 -32.5q0 -18 -13.5 -31.5t-31.5 -13.5q-19 0 -32 13.5t-13 31.5zM170 -201l-12 60h144q46 0 71 27.5t25 72.5v98q-74 -57 -148 -57q-87 0 -136.5 54t-49.5 150v117q0 96 49.5 150t136.5 54q72 0 155 -67l7 54h54v-552 q0 -76 -42.5 -118.5t-121.5 -42.5h-132zM133 305v-85q0 -81 30 -120t95 -39q59 0 140 58v280q-81 65 -140 65q-65 0 -95 -39t-30 -120z" />
<glyph unicode="&#x122;" horiz-adv-x="631" d="M69 245v206q0 125 64.5 192.5t183.5 67.5q87 0 194 -30l-14 -60q-101 28 -176 28q-180 0 -180 -209v-184q0 -96 40.5 -151.5t139.5 -55.5q57 0 161 25v244l67 8v-299q-140 -40 -232 -40q-120 0 -184 66.5t-64 191.5zM276 -213l22 150h69l-35 -150h-56z" />
<glyph unicode="&#x123;" horiz-adv-x="553" d="M234 585l26 150h65l-31 -150h-60zM170 -201l-12 61h144q46 0 71 27t25 72v98q-74 -57 -148 -57q-87 0 -136.5 54t-49.5 150v117q0 96 49.5 150t136.5 54q72 0 155 -67l7 54h54v-552q0 -76 -42.5 -118.5t-121.5 -42.5h-132zM134 305v-85q0 -81 29.5 -119.5t94.5 -38.5 q59 0 140 58v278q-81 65 -140 65q-65 0 -94.5 -38.5t-29.5 -119.5z" />
<glyph unicode="&#x124;" horiz-adv-x="676" d="M243 757l-35 45l129 80l129 -80l-34 -45l-95 61zM98 0v698h69v-309h341v309h70v-678q0 -20 -20 -20h-50v327h-341v-327h-69z" />
<glyph unicode="&#x125;" horiz-adv-x="556" d="M27 757l-34 45l129 80l129 -80l-34 -45l-95 59zM86 0v726h68v-263q84 62 152 62q83 0 126 -46t43 -126v-333q0 -20 -20 -20h-48v337q0 64 -24.5 95t-85.5 31q-59 0 -143 -63v-400h-68z" />
<glyph unicode="&#x126;" horiz-adv-x="676" d="M98 0v514h-59v54h59v130h69v-130h341v130h70v-130h59v-54h-59v-494q0 -20 -20 -20h-50v327h-341v-327h-69zM167 389h341v125h-341v-125z" />
<glyph unicode="&#x127;" horiz-adv-x="556" d="M86 0v612h-50v51h50v63h68v-63h148v-51h-148v-149q84 62 152 62q83 0 126 -46t43 -126v-333q0 -20 -20 -20h-48v337q0 65 -24.5 96t-85.5 31q-59 0 -143 -63v-401h-68z" />
<glyph unicode="&#x128;" horiz-adv-x="265" d="M31 780l-29 34q36 51 82 51q23 0 54.5 -19.5t42.5 -19.5q27 0 53 32l29 -35q-36 -51 -82 -51q-23 0 -54 19.5t-43 19.5q-28 0 -53 -31zM98 0v698h69v-678q0 -20 -20 -20h-49z" />
<glyph unicode="&#x129;" horiz-adv-x="240" d="M19 609l-29 34q36 51 82 51q24 0 55.5 -19.5t42.5 -19.5q27 0 52 32l29 -35q-36 -51 -81 -51q-24 0 -55 19.5t-43 19.5q-28 0 -53 -31zM86 0v512h68v-492q0 -20 -20 -20h-48z" />
<glyph unicode="&#x12a;" horiz-adv-x="265" d="M22 791v57h221v-57h-221zM98 0v698h69v-678q0 -20 -20 -20h-49z" />
<glyph unicode="&#x12b;" horiz-adv-x="240" d="M10 620v57h221v-57h-221zM86 0v512h68v-492q0 -20 -20 -20h-48z" />
<glyph unicode="&#x12c;" horiz-adv-x="265" d="M20 862h54q0 -27 16.5 -43t41.5 -16t42 16t17 43h54q0 -50 -30.5 -81t-82.5 -31t-82 31t-30 81zM98 0v698h69v-678q0 -20 -20 -20h-49z" />
<glyph unicode="&#x12d;" horiz-adv-x="240" d="M8 704h54q0 -27 16.5 -43t41.5 -16q26 0 42.5 16t16.5 43h54q0 -50 -30.5 -81t-82.5 -31t-82 31t-30 81zM86 0v512h68v-492q0 -20 -20 -20h-48z" />
<glyph unicode="&#x12e;" horiz-adv-x="265" d="M98 0v698h69v-698q-80 -70 -80 -121q0 -18 10 -29.5t26 -11.5t34 6l6 -50q-24 -8 -52 -8q-36 0 -59 23.5t-23 58.5q0 64 76 132h-7z" />
<glyph unicode="&#x12f;" horiz-adv-x="240" d="M120 610q-19 0 -31.5 13.5t-12.5 32.5t12.5 31t31.5 12q20 0 33 -12t13 -31t-13.5 -32.5t-32.5 -13.5zM86 0v512h68v-512q-80 -70 -80 -121q0 -18 10 -29.5t26 -11.5q18 0 34 6l6 -50q-24 -8 -52 -8q-36 0 -59 23.5t-23 58.5q0 64 76 132h-6z" />
<glyph unicode="&#x130;" horiz-adv-x="265" d="M87 818q0 19 13.5 32.5t32.5 13.5q17 0 30.5 -13.5t13.5 -32.5q0 -18 -13.5 -31.5t-30.5 -13.5q-19 0 -32.5 13.5t-13.5 31.5zM98 0v698h69v-678q0 -20 -20 -20h-49z" />
<glyph unicode="&#x131;" horiz-adv-x="240" d="M86 0v512h68v-492q0 -20 -20 -20h-48z" />
<glyph unicode="&#x132;" horiz-adv-x="748" d="M308 9l15 60q63 -20 117 -20q82 0 113.5 45t31.5 128v476h70v-486q0 -103 -52 -164t-164 -61q-69 0 -131 22zM98 0v698h69v-678q0 -20 -20 -20h-49z" />
<glyph unicode="&#x133;" horiz-adv-x="482" d="M361 610q-19 0 -31.5 13.5t-12.5 32.5t12.5 31t31.5 12q20 0 33 -12t13 -31t-13.5 -32.5t-32.5 -13.5zM120 610q-19 0 -31.5 13.5t-12.5 32.5t12.5 31t31.5 12q20 0 33 -12t13 -31t-13.5 -32.5t-32.5 -13.5zM175 -204l10 59q37 -8 66 -8q76 0 76 97v568h68v-575 q0 -70 -38 -110.5t-105 -40.5q-40 0 -77 10zM86 0v512h68v-492q0 -20 -20 -20h-48z" />
<glyph unicode="&#x134;" horiz-adv-x="482" d="M257 757l-34 45l129 80l129 -80l-35 -45l-94 61zM43 9l15 60q62 -20 117 -20q82 0 113.5 45t31.5 128v476h70v-486q0 -103 -52 -164t-164 -61q-69 0 -131 22z" />
<glyph unicode="&#x135;" horiz-adv-x="241" d="M26 605l-35 45l129 80l129 -80l-34 -45l-95 59zM-66 -204l10 60q37 -8 66 -8q37 0 56.5 22t19.5 74v568h68v-575q0 -71 -38 -111t-105 -40q-40 0 -77 10z" />
<glyph unicode="&#x136;" horiz-adv-x="599" d="M98 0v698h69v-317l126 7l141 310h76l-143 -314q35 -7 56 -30.5t36 -66.5l97 -287h-74l-89 268q-21 62 -78 59l-148 -9v-298q0 -20 -20 -20h-49zM253 -213l22 150h70l-36 -150h-56z" />
<glyph unicode="&#x137;" horiz-adv-x="488" d="M86 0v726h68v-434l108 28q35 10 51 47l58 145h71l-69 -168q-23 -54 -69 -73l155 -271h-77l-140 251l-88 -23v-208q0 -20 -20 -20h-48zM213 -213l21 150h70l-36 -150h-55z" />
<glyph unicode="&#x139;" horiz-adv-x="548" d="M57 758l-20 46l168 77l27 -59zM98 0v698h69v-636h329v-42q0 -20 -20 -20h-378z" />
<glyph unicode="&#x13a;" horiz-adv-x="242" d="M42 757l-21 47l169 76l27 -59zM86 83v643h68v-636q0 -22 7 -31t23 -12l-14 -58q-39 4 -61.5 23.5t-22.5 70.5z" />
<glyph unicode="&#x13b;" horiz-adv-x="548" d="M98 0v698h69v-636h329v-42q0 -20 -20 -20h-378zM255 -213l21 150h70l-36 -150h-55z" />
<glyph unicode="&#x13c;" horiz-adv-x="242" d="M86 83v643h68v-636q0 -22 7 -31t23 -12l-14 -58q-39 4 -61.5 23.5t-22.5 70.5zM81 -213l22 150h69l-35 -150h-56z" />
<glyph unicode="&#x13d;" horiz-adv-x="548" d="M98 0v698h69v-636h329v-42q0 -20 -20 -20h-378zM327 546l22 152h70l-37 -152h-55z" />
<glyph unicode="&#x13e;" horiz-adv-x="242" d="M201 574l22 152h70l-36 -152h-56zM86 83v643h68v-636q0 -22 7 -31t23 -12l-14 -58q-39 4 -61.5 23.5t-22.5 70.5z" />
<glyph unicode="&#x13f;" horiz-adv-x="548" d="M98 0v698h69v-636h329v-42q0 -20 -20 -20h-378zM311 303q0 19 13 32t31 13t31 -13t13 -32t-13 -31.5t-31 -12.5t-31 12.5t-13 31.5z" />
<glyph unicode="&#x140;" horiz-adv-x="270" d="M86 83v643h68v-636q0 -22 7 -31t23 -12l-14 -58q-39 4 -61.5 23.5t-22.5 70.5zM212 303q0 19 12.5 32t31.5 13q18 0 31 -13t13 -32t-13 -31.5t-31 -12.5q-19 0 -31.5 12.5t-12.5 31.5z" />
<glyph unicode="&#x141;" horiz-adv-x="548" d="M98 0v270l-59 -21l-19 51l78 28v370h69v-345l109 39l18 -50l-127 -46v-234h329v-42q0 -20 -20 -20h-378z" />
<glyph unicode="&#x142;" horiz-adv-x="242" d="M86 83v196l-58 -22l-19 51l77 28v390h68v-365l63 23l18 -51l-81 -29v-214q0 -22 7 -31t23 -12l-14 -58q-39 4 -61.5 23.5t-22.5 70.5z" />
<glyph unicode="&#x143;" horiz-adv-x="664" d="M255 758l-21 46l169 77l26 -59zM98 0v698h66l337 -575q-4 86 -4 122v453h69v-698h-66l-337 574q4 -84 4 -121v-453h-69z" />
<glyph unicode="&#x144;" horiz-adv-x="556" d="M201 587l-20 46l168 77l27 -59zM86 0v512h54l8 -54q83 67 158 67q83 0 126 -46t43 -126v-333q0 -20 -20 -20h-48v336q0 65 -24.5 96.5t-85.5 31.5q-58 0 -143 -64v-400h-68z" />
<glyph unicode="&#x145;" horiz-adv-x="664" d="M98 0v698h66l337 -575q-4 86 -4 122v453h69v-698h-66l-337 574q4 -84 4 -121v-453h-69zM281 -213l22 150h70l-36 -150h-56z" />
<glyph unicode="&#x146;" horiz-adv-x="556" d="M86 0v512h54l8 -54q83 67 158 67q83 0 126 -46t43 -126v-333q0 -20 -20 -20h-48v336q0 65 -24.5 96.5t-85.5 31.5q-58 0 -143 -64v-400h-68zM236 -213l22 150h69l-35 -150h-56z" />
<glyph unicode="&#x147;" horiz-adv-x="664" d="M203 836l34 46l95 -62l94 62l35 -46l-129 -80zM98 0v698h66l337 -575q-4 86 -4 122v453h69v-698h-66l-337 574q4 -84 4 -121v-453h-69z" />
<glyph unicode="&#x148;" horiz-adv-x="556" d="M148 665l35 46l94 -62l95 62l34 -46l-129 -80zM86 0v512h54l8 -54q83 67 158 67q83 0 126 -46t43 -126v-333q0 -20 -20 -20h-48v336q0 65 -24.5 96.5t-85.5 31.5q-58 0 -143 -64v-400h-68z" />
<glyph unicode="&#x14a;" horiz-adv-x="664" d="M98 0v698h66l337 -575q-4 86 -4 122v453h69v-756q0 -71 -38 -111t-105 -40q-40 0 -77 10l10 60q37 -8 66 -8q37 0 56.5 22t19.5 74v55l-335 570q4 -84 4 -121v-453h-69z" />
<glyph unicode="&#x14b;" horiz-adv-x="556" d="M255 -203l10 59q35 -8 66 -8q76 0 76 98v390q0 65 -24.5 96.5t-85.5 31.5q-58 0 -143 -64v-400h-68v512h54l8 -54q83 67 158 67q83 0 126 -46t43 -126v-415q0 -70 -38 -110.5t-105 -40.5q-40 0 -77 10z" />
<glyph unicode="&#x14c;" horiz-adv-x="660" d="M219 791v57h221v-57h-221zM69 270v159q0 128 70 205t191 77t191 -77t70 -205v-159q0 -130 -69.5 -206.5t-191.5 -76.5t-191.5 76.5t-69.5 206.5zM141 418v-138q0 -49 9.5 -88.5t30.5 -72.5t59 -51.5t90 -18.5t90 18.5t59 51.5t30.5 72.5t9.5 88.5v138q0 102 -44.5 166.5 t-144.5 64.5t-144.5 -64.5t-44.5 -166.5z" />
<glyph unicode="&#x14d;" horiz-adv-x="545" d="M163 620v57h221v-57h-221zM64 211v91q0 104 55.5 163.5t153.5 59.5q97 0 152.5 -59.5t55.5 -163.5v-91q0 -104 -55.5 -164t-152.5 -60q-98 0 -153.5 59.5t-55.5 164.5zM133 295v-76q0 -171 140 -171q139 0 139 171v76q0 169 -139 169q-140 0 -140 -169z" />
<glyph unicode="&#x14e;" horiz-adv-x="660" d="M217 875h54q0 -27 16.5 -43t41.5 -16t42 16t17 43h54q0 -50 -30.5 -81t-82.5 -31t-82 31t-30 81zM69 270v159q0 128 70 205t191 77t191 -77t70 -205v-159q0 -130 -69.5 -206.5t-191.5 -76.5t-191.5 76.5t-69.5 206.5zM141 418v-138q0 -49 9.5 -88.5t30.5 -72.5t59 -51.5 t90 -18.5t90 18.5t59 51.5t30.5 72.5t9.5 88.5v138q0 102 -44.5 166.5t-144.5 64.5t-144.5 -64.5t-44.5 -166.5z" />
<glyph unicode="&#x14f;" horiz-adv-x="545" d="M161 704h54q0 -27 16.5 -43t41.5 -16t41.5 16t16.5 43h54q0 -50 -30 -81t-82 -31t-82 31t-30 81zM64 211v91q0 104 55.5 163.5t153.5 59.5q97 0 152.5 -59.5t55.5 -163.5v-91q0 -104 -55.5 -164t-152.5 -60q-98 0 -153.5 59.5t-55.5 164.5zM133 295v-76q0 -171 140 -171 q139 0 139 171v76q0 169 -139 169q-140 0 -140 -169z" />
<glyph unicode="&#x150;" horiz-adv-x="660" d="M350 776l84 119l53 -40l-95 -111zM198 776l84 119l53 -40l-95 -111zM69 270v159q0 128 70 205t191 77t191 -77t70 -205v-159q0 -130 -69.5 -206.5t-191.5 -76.5t-191.5 76.5t-69.5 206.5zM141 418v-138q0 -49 9.5 -88.5t30.5 -72.5t59 -51.5t90 -18.5t90 18.5t59 51.5 t30.5 72.5t9.5 88.5v138q0 102 -44.5 166.5t-144.5 64.5t-144.5 -64.5t-44.5 -166.5z" />
<glyph unicode="&#x151;" horiz-adv-x="545" d="M300 605l84 119l53 -40l-96 -111zM148 605l84 119l53 -40l-96 -111zM64 211v91q0 104 55.5 163.5t153.5 59.5q97 0 152.5 -59.5t55.5 -163.5v-91q0 -104 -55.5 -164t-152.5 -60q-98 0 -153.5 59.5t-55.5 164.5zM133 295v-76q0 -171 140 -171q139 0 139 171v76 q0 169 -139 169q-140 0 -140 -169z" />
<glyph unicode="&#x152;" horiz-adv-x="924" d="M69 270v159q0 128 70 205t191 77q44 0 89 -13h440v-62h-344q76 -76 76 -204v-43h238v-62h-238v-57q0 -135 -75 -208h347v-42q0 -20 -20 -20h-424q-44 -13 -89 -13q-122 0 -191.5 76.5t-69.5 206.5zM141 418v-138q0 -49 9.5 -88.5t30.5 -72.5t59 -51.5t90 -18.5t90 18.5 t59 51.5t30.5 72.5t9.5 88.5v138q0 102 -44.5 166.5t-144.5 64.5t-144.5 -64.5t-44.5 -166.5z" />
<glyph unicode="&#x153;" horiz-adv-x="873" d="M64 211v91q0 104 55.5 163.5t153.5 59.5q122 0 172 -95q53 95 168 95q90 0 145.5 -61.5t55.5 -143.5v-56q0 -8 -6 -14t-14 -6h-313v-53q0 -56 33 -99.5t105 -43.5q61 0 156 27l15 -58q-97 -30 -170 -30q-120 0 -175 95q-50 -95 -172 -95q-98 0 -153.5 59.5t-55.5 164.5z M481 298h265v25q0 56 -33 98.5t-100 42.5q-66 0 -99 -42t-33 -99v-25zM133 295v-76q0 -171 140 -171q139 0 139 171v76q0 169 -139 169q-140 0 -140 -169z" />
<glyph unicode="&#x154;" horiz-adv-x="582" d="M214 758l-21 46l169 77l26 -59zM98 0v674q113 37 211 37q101 0 158 -63t57 -153q0 -66 -40.5 -127t-123.5 -78l145 -290h-75l-141 282h-122v-282h-69zM167 342h131q73 0 113.5 45t40.5 108q0 64 -35 109t-108 45q-64 0 -142 -21v-286z" />
<glyph unicode="&#x155;" horiz-adv-x="363" d="M104 587l-20 46l168 77l27 -59zM86 0v512h54l9 -75q26 37 63 62.5t74 25.5q24 0 48 -6l-10 -60q-17 4 -39 4q-31 0 -67.5 -27.5t-63.5 -65.5v-370h-68z" />
<glyph unicode="&#x156;" horiz-adv-x="582" d="M98 0v674q113 37 211 37q101 0 158 -63t57 -153q0 -66 -40.5 -127t-123.5 -78l145 -290h-75l-141 282h-122v-282h-69zM167 342h131q73 0 113.5 45t40.5 108q0 64 -35 109t-108 45q-64 0 -142 -21v-286zM244 -213l21 150h70l-36 -150h-55z" />
<glyph unicode="&#x157;" horiz-adv-x="363" d="M86 0v512h54l9 -75q26 37 63 62.5t74 25.5q24 0 48 -6l-10 -60q-17 4 -39 4q-31 0 -67.5 -27.5t-63.5 -65.5v-370h-68zM63 -213l22 150h69l-35 -150h-56z" />
<glyph unicode="&#x158;" horiz-adv-x="582" d="M161 836l35 46l94 -62l95 62l34 -46l-129 -80zM98 0v674q113 37 211 37q101 0 158 -63t57 -153q0 -66 -40.5 -127t-123.5 -78l145 -290h-75l-141 282h-122v-282h-69zM167 342h131q73 0 113.5 45t40.5 108q0 64 -35 109t-108 45q-64 0 -142 -21v-286z" />
<glyph unicode="&#x159;" horiz-adv-x="363" d="M69 665l34 46l95 -62l94 62l35 -46l-129 -80zM86 0v512h54l9 -75q26 37 63 62.5t74 25.5q24 0 48 -6l-10 -60q-17 4 -39 4q-31 0 -67.5 -27.5t-63.5 -65.5v-370h-68z" />
<glyph unicode="&#x15a;" horiz-adv-x="524" d="M185 758l-21 46l169 77l27 -59zM57 21l13 62q111 -34 175 -34q75 0 111.5 35t36.5 96q0 35 -18 61.5t-46.5 44t-63.5 33.5t-70 33.5t-63.5 39t-46.5 56t-18 78.5q0 86 58 135.5t154 49.5q72 0 161 -34l-18 -58q-88 30 -143 30q-68 0 -103.5 -32t-35.5 -91q0 -42 33.5 -73 t81.5 -52.5t96 -46t81.5 -68.5t33.5 -106q0 -88 -59 -140.5t-162 -52.5q-72 0 -188 34z" />
<glyph unicode="&#x15b;" horiz-adv-x="427" d="M136 587l-20 46l168 77l27 -59zM51 14l14 61q79 -27 134 -27q104 0 104 86q0 30 -25 52t-60.5 37t-71 33t-60.5 50.5t-25 77.5q0 65 46.5 103t121.5 38q63 0 123 -22l-16 -57q-57 18 -106 18q-48 0 -73 -21t-25 -59q0 -28 25 -49.5t60.5 -37.5t71 -34.5t60.5 -51 t25 -77.5q0 -67 -47.5 -107t-127.5 -40q-65 0 -148 27z" />
<glyph unicode="&#x15c;" horiz-adv-x="524" d="M167 757l-34 45l129 80l129 -80l-34 -45l-95 61zM57 21l13 62q111 -34 175 -34q75 0 111.5 35t36.5 96q0 35 -18 61.5t-46.5 44t-63.5 33.5t-70 33.5t-63.5 39t-46.5 56t-18 78.5q0 86 58 135.5t154 49.5q72 0 161 -34l-18 -58q-88 30 -143 30q-68 0 -103.5 -32 t-35.5 -91q0 -42 33.5 -73t81.5 -52.5t96 -46t81.5 -68.5t33.5 -106q0 -88 -59 -140.5t-162 -52.5q-72 0 -188 34z" />
<glyph unicode="&#x15d;" horiz-adv-x="427" d="M118 586l-34 45l129 80l129 -80l-34 -45l-95 61zM51 14l14 61q79 -27 134 -27q104 0 104 86q0 30 -25 52t-60.5 37t-71 33t-60.5 50.5t-25 77.5q0 65 46.5 103t121.5 38q63 0 123 -22l-16 -57q-57 18 -106 18q-48 0 -73 -21t-25 -59q0 -28 25 -49.5t60.5 -37.5t71 -34.5 t60.5 -51t25 -77.5q0 -67 -47.5 -107t-127.5 -40q-65 0 -148 27z" />
<glyph unicode="&#x15e;" horiz-adv-x="524" d="M132 -207l7 51q17 -4 38 -4q53 0 53 66v81q-67 2 -173 34l13 62q111 -34 175 -34q75 0 111.5 35t36.5 96q0 35 -18 61.5t-46.5 44t-63.5 33.5t-70 33.5t-63.5 39t-46.5 56t-18 78.5q0 86 58 135.5t154 49.5q72 0 161 -34l-18 -58q-88 30 -143 30q-68 0 -103.5 -32 t-35.5 -91q0 -42 33.5 -73t81.5 -52.5t96 -46t81.5 -68.5t33.5 -106q0 -78 -47 -129t-130 -61v-95q0 -57 -31 -82.5t-76 -25.5q-24 0 -50 6z" />
<glyph unicode="&#x15f;" horiz-adv-x="427" d="M92 -207l6 51q17 -4 38 -4q53 0 53 66v81q-63 3 -138 27l14 61q79 -27 134 -27q104 0 104 86q0 30 -25 52t-60.5 37t-71 33t-60.5 50.5t-25 77.5q0 65 46.5 103t121.5 38q63 0 123 -22l-16 -57q-57 18 -106 18q-48 0 -73 -21t-25 -59q0 -28 25 -49.5t60.5 -37.5t71 -34.5 t60.5 -51t25 -77.5q0 -57 -33.5 -94t-92.5 -48v-97q0 -57 -31 -82.5t-75 -25.5q-26 0 -50 6z" />
<glyph unicode="&#x160;" horiz-adv-x="524" d="M133 836l34 46l95 -62l95 62l34 -46l-129 -80zM57 21l13 62q111 -34 175 -34q75 0 111.5 35t36.5 96q0 35 -18 61.5t-46.5 44t-63.5 33.5t-70 33.5t-63.5 39t-46.5 56t-18 78.5q0 86 58 135.5t154 49.5q72 0 161 -34l-18 -58q-88 30 -143 30q-68 0 -103.5 -32t-35.5 -91 q0 -42 33.5 -73t81.5 -52.5t96 -46t81.5 -68.5t33.5 -106q0 -88 -59 -140.5t-162 -52.5q-72 0 -188 34z" />
<glyph unicode="&#x161;" horiz-adv-x="427" d="M84 665l34 46l95 -62l95 62l34 -46l-129 -80zM51 14l14 61q79 -27 134 -27q104 0 104 86q0 30 -25 52t-60.5 37t-71 33t-60.5 50.5t-25 77.5q0 65 46.5 103t121.5 38q63 0 123 -22l-16 -57q-57 18 -106 18q-48 0 -73 -21t-25 -59q0 -28 25 -49.5t60.5 -37.5t71 -34.5 t60.5 -51t25 -77.5q0 -67 -47.5 -107t-127.5 -40q-65 0 -148 27z" />
<glyph unicode="&#x162;" horiz-adv-x="549" d="M240 0v636h-192v62h453v-62h-192v-636h-69zM221 -213l21 150h70l-36 -150h-55z" />
<glyph unicode="&#x163;" horiz-adv-x="349" d="M98 137v321l-84 6v48h84v168h68v-168h126v-54h-126v-312q0 -98 84 -98q33 0 68 8l10 -59q-37 -10 -80 -10q-68 0 -109 40t-41 110zM168 -213l22 150h70l-36 -150h-56z" />
<glyph unicode="&#x164;" horiz-adv-x="549" d="M145 836l34 46l95 -62l95 62l34 -46l-129 -80zM240 0v636h-192v62h453v-62h-192v-636h-69z" />
<glyph unicode="&#x165;" horiz-adv-x="349" d="M264 574l22 152h69l-36 -152h-55zM98 137v321l-84 6v48h84v168h68v-168h126v-54h-126v-312q0 -98 84 -98q33 0 68 8l10 -59q-37 -10 -80 -10q-68 0 -109 40t-41 110z" />
<glyph unicode="&#x166;" horiz-adv-x="549" d="M240 0v322h-109v53h109v261h-192v62h453v-62h-192v-261h109v-53h-109v-322h-69z" />
<glyph unicode="&#x167;" horiz-adv-x="349" d="M98 137v108h-82v54h82v159l-84 6v48h84v168h68v-168h126v-54h-126v-159h126v-54h-126v-99q0 -98 84 -98q33 0 68 8l10 -59q-37 -10 -80 -10q-68 0 -109 40t-41 110z" />
<glyph unicode="&#x168;" horiz-adv-x="662" d="M229 780l-29 34q36 51 82 51q24 0 55.5 -19.5t42.5 -19.5q27 0 52 32l29 -35q-36 -51 -81 -51q-24 0 -55 19.5t-43 19.5q-28 0 -53 -31zM83 253v445h69v-463q0 -78 45.5 -132t133.5 -54q87 0 132.5 54t45.5 132v463h70v-445q0 -127 -64.5 -196.5t-183.5 -69.5 q-118 0 -183 69.5t-65 196.5z" />
<glyph unicode="&#x169;" horiz-adv-x="556" d="M177 609l-29 34q36 51 82 51q23 0 54.5 -19.5t42.5 -19.5q27 0 53 32l29 -35q-36 -51 -82 -51q-23 0 -54 19.5t-43 19.5q-28 0 -53 -31zM81 160v332q0 20 20 20h48v-336q0 -65 25 -96.5t86 -31.5t142 64v400h68v-512h-54l-7 54q-83 -67 -158 -67q-83 0 -126.5 46.5 t-43.5 126.5z" />
<glyph unicode="&#x16a;" horiz-adv-x="662" d="M220 791v57h221v-57h-221zM83 253v445h69v-463q0 -78 45.5 -132t133.5 -54q87 0 132.5 54t45.5 132v463h70v-445q0 -127 -64.5 -196.5t-183.5 -69.5q-118 0 -183 69.5t-65 196.5z" />
<glyph unicode="&#x16b;" horiz-adv-x="556" d="M168 620v57h221v-57h-221zM81 160v332q0 20 20 20h48v-336q0 -65 25 -96.5t86 -31.5t142 64v400h68v-512h-54l-7 54q-83 -67 -158 -67q-83 0 -126.5 46.5t-43.5 126.5z" />
<glyph unicode="&#x16c;" horiz-adv-x="662" d="M218 875h54q0 -27 16.5 -43t41.5 -16q26 0 42.5 16t16.5 43h54q0 -50 -30.5 -81t-82.5 -31t-82 31t-30 81zM83 253v445h69v-463q0 -78 45.5 -132t133.5 -54q87 0 132.5 54t45.5 132v463h70v-445q0 -127 -64.5 -196.5t-183.5 -69.5q-118 0 -183 69.5t-65 196.5z" />
<glyph unicode="&#x16d;" horiz-adv-x="556" d="M166 704h54q0 -27 16.5 -43t41.5 -16t42 16t17 43h54q0 -50 -30.5 -81t-82.5 -31t-82 31t-30 81zM81 160v332q0 20 20 20h48v-336q0 -65 25 -96.5t86 -31.5t142 64v400h68v-512h-54l-7 54q-83 -67 -158 -67q-83 0 -126.5 46.5t-43.5 126.5z" />
<glyph unicode="&#x16e;" horiz-adv-x="662" d="M248 809q0 33 24 55t58 22q36 0 60 -22t24 -55q0 -32 -24.5 -53.5t-59.5 -21.5q-34 0 -58 21.5t-24 53.5zM299 808q0 -11 9.5 -19t21.5 -8q14 0 23 8.5t9 20.5t-9.5 20.5t-21.5 8.5t-22 -9t-10 -22zM83 253v445h69v-463q0 -78 45.5 -132t133.5 -54q87 0 132.5 54 t45.5 132v463h70v-445q0 -127 -64.5 -196.5t-183.5 -69.5q-118 0 -183 69.5t-65 196.5z" />
<glyph unicode="&#x16f;" horiz-adv-x="556" d="M196 649q0 33 24 55t58 22q36 0 59.5 -21.5t23.5 -55.5q0 -32 -24 -54t-59 -22q-33 0 -57.5 22t-24.5 54zM247 649q0 -12 9.5 -20.5t22.5 -8.5t22 9t9 20q0 13 -9 21t-22 8t-22.5 -8.5t-9.5 -20.5zM81 160v332q0 20 20 20h48v-336q0 -65 25 -96.5t86 -31.5t142 64v400h68 v-512h-54l-7 54q-83 -67 -158 -67q-83 0 -126.5 46.5t-43.5 126.5z" />
<glyph unicode="&#x170;" horiz-adv-x="662" d="M350 776l84 119l53 -40l-95 -111zM198 776l84 119l53 -40l-95 -111zM83 253v445h69v-463q0 -78 45.5 -132t133.5 -54q87 0 132.5 54t45.5 132v463h70v-445q0 -127 -64.5 -196.5t-183.5 -69.5q-118 0 -183 69.5t-65 196.5z" />
<glyph unicode="&#x171;" horiz-adv-x="556" d="M294 605l84 119l53 -40l-95 -111zM142 605l84 119l53 -40l-95 -111zM81 160v332q0 20 20 20h48v-336q0 -65 25 -96.5t86 -31.5t142 64v400h68v-512h-54l-7 54q-83 -67 -158 -67q-83 0 -126.5 46.5t-43.5 126.5z" />
<glyph unicode="&#x172;" horiz-adv-x="662" d="M370 -156l6 -50q-24 -8 -52 -8q-36 0 -59 23.5t-23 58.5q0 61 63 120q-106 8 -164 76.5t-58 188.5v445h69v-463q0 -78 45.5 -132t133.5 -54q87 0 132.5 54t45.5 132v463h70v-445q0 -117 -55 -185t-157 -79q-67 -63 -67 -110q0 -18 10 -29.5t26 -11.5t34 6z" />
<glyph unicode="&#x173;" horiz-adv-x="556" d="M459 -156l7 -50q-24 -8 -53 -8q-36 0 -58.5 23.5t-22.5 58.5q0 69 83 138l-6 48q-83 -67 -158 -67q-83 0 -126.5 46.5t-43.5 126.5v332q0 20 20 20h48v-336q0 -65 25 -96.5t86 -31.5t142 64v400h68v-512q-80 -70 -80 -121q0 -18 9.5 -29.5t25.5 -11.5q12 0 34 6z" />
<glyph unicode="&#x174;" horiz-adv-x="886" d="M348 757l-34 45l129 80l129 -80l-34 -45l-95 61zM195 0l-145 698h70l96 -468q8 -38 21 -140q12 81 26 140l74 311q26 107 106 107t106 -107l73 -311q13 -57 26 -141q11 89 22 141l96 468h70l-145 -698h-82l-124 529q-7 31 -15.5 42.5t-26.5 11.5t-27 -12t-16 -42 l-123 -529h-82z" />
<glyph unicode="&#x175;" horiz-adv-x="716" d="M263 586l-34 45l129 80l129 -80l-35 -45l-94 61zM164 0l-130 512h70l77 -315q11 -46 25 -123q29 117 31 123l81 277h80l81 -277q4 -15 9 -36t12 -48t10 -40q24 118 25 124l77 315h70l-130 -512h-79l-115 396l-115 -396h-79z" />
<glyph unicode="&#x176;" horiz-adv-x="574" d="M192 757l-34 45l129 80l129 -80l-34 -45l-95 61zM252 0v292q-77 10 -114 61.5t-53 133.5l-40 211h68l39 -200q6 -27 10.5 -44t14.5 -38.5t23.5 -34t35.5 -21.5t51 -9q36 0 61 11.5t39.5 35t21.5 45t13 55.5l38 200h69l-40 -211q-16 -83 -53.5 -134.5t-114.5 -60.5v-292 h-69z" />
<glyph unicode="&#x177;" horiz-adv-x="510" d="M158 586l-34 45l129 80l129 -80l-35 -45l-94 61zM90 166l-45 346h67l44 -338q14 -112 100 -112q47 0 105 30l23 420h66l-29 -554q-8 -159 -165 -159h-94l-5 61h100q51 0 72.5 26t24.5 76l4 65q-56 -27 -105 -27q-142 0 -163 166z" />
<glyph unicode="&#x178;" horiz-adv-x="574" d="M325 818q0 19 13.5 32.5t32.5 13.5q17 0 30.5 -13.5t13.5 -32.5q0 -18 -13.5 -31.5t-30.5 -13.5q-19 0 -32.5 13.5t-13.5 31.5zM159 818q0 19 13 32.5t32 13.5q18 0 31 -13.5t13 -32.5q0 -18 -13 -31.5t-31 -13.5q-19 0 -32 13.5t-13 31.5zM252 0v292q-77 10 -114 61.5 t-53 133.5l-40 211h68l39 -200q6 -27 10.5 -44t14.5 -38.5t23.5 -34t35.5 -21.5t51 -9q36 0 61 11.5t39.5 35t21.5 45t13 55.5l38 200h69l-40 -211q-16 -83 -53.5 -134.5t-114.5 -60.5v-292h-69z" />
<glyph unicode="&#x179;" horiz-adv-x="550" d="M197 758l-20 46l168 77l27 -59zM55 0v57l347 579h-336v62h417v-56l-347 -580h359v-62h-440z" />
<glyph unicode="&#x17a;" horiz-adv-x="474" d="M160 587l-21 46l169 77l27 -59zM59 0v48l259 403h-249v61h333v-49l-259 -403h272v-60h-356z" />
<glyph unicode="&#x17b;" horiz-adv-x="550" d="M229 818q0 19 13.5 32.5t32.5 13.5q18 0 31 -13.5t13 -32.5q0 -18 -13 -31.5t-31 -13.5q-19 0 -32.5 13.5t-13.5 31.5zM55 0v57l347 579h-336v62h417v-56l-347 -580h359v-62h-440z" />
<glyph unicode="&#x17c;" horiz-adv-x="474" d="M192 647q0 19 13.5 32.5t32.5 13.5q17 0 30.5 -13.5t13.5 -32.5q0 -18 -13.5 -31.5t-30.5 -13.5q-19 0 -32.5 13.5t-13.5 31.5zM59 0v48l259 403h-249v61h333v-49l-259 -403h272v-60h-356z" />
<glyph unicode="&#x17d;" horiz-adv-x="550" d="M145 836l35 46l94 -62l95 62l34 -46l-129 -80zM55 0v57l347 579h-336v62h417v-56l-347 -580h359v-62h-440z" />
<glyph unicode="&#x17e;" horiz-adv-x="474" d="M108 665l34 46l95 -62l95 62l34 -46l-129 -80zM59 0v48l259 403h-249v61h333v-49l-259 -403h272v-60h-356z" />
<glyph unicode="&#x192;" horiz-adv-x="455" d="M-39 -196l12 59q35 -11 67 -11q42 0 65.5 22.5t27.5 76.5l35 417h-105v51h109l14 167q6 71 48.5 112t111.5 41q36 0 79 -12l-14 -59q-31 9 -64 9q-87 0 -95 -99l-14 -159h139v-51h-143l-36 -425q-6 -70 -48.5 -111t-110.5 -41q-36 0 -78 13z" />
<glyph unicode="&#x218;" horiz-adv-x="524" d="M57 21l13 62q111 -34 175 -34q75 0 111.5 35t36.5 96q0 35 -18 61.5t-46.5 44t-63.5 33.5t-70 33.5t-63.5 39t-46.5 56t-18 78.5q0 86 58 135.5t154 49.5q72 0 161 -34l-18 -58q-88 30 -143 30q-68 0 -103.5 -32t-35.5 -91q0 -42 33.5 -73t81.5 -52.5t96 -46t81.5 -68.5 t33.5 -106q0 -88 -59 -140.5t-162 -52.5q-72 0 -188 34zM206 -213l22 150h70l-36 -150h-56z" />
<glyph unicode="&#x219;" horiz-adv-x="427" d="M51 14l14 61q79 -27 134 -27q104 0 104 86q0 30 -25 52t-60.5 37t-71 33t-60.5 50.5t-25 77.5q0 65 46.5 103t121.5 38q63 0 123 -22l-16 -57q-57 18 -106 18q-48 0 -73 -21t-25 -59q0 -28 25 -49.5t60.5 -37.5t71 -34.5t60.5 -51t25 -77.5q0 -67 -47.5 -107t-127.5 -40 q-65 0 -148 27zM162 -213l21 150h70l-36 -150h-55z" />
<glyph unicode="&#x2c6;" horiz-adv-x="407" d="M109 586l-35 45l129 80l129 -80l-34 -45l-95 61z" />
<glyph unicode="&#x2c7;" horiz-adv-x="407" d="M74 665l35 46l94 -62l95 62l34 -46l-129 -80z" />
<glyph unicode="&#x2d8;" horiz-adv-x="339" d="M57 704h54q0 -27 16.5 -43t41.5 -16t42 16t17 43h54q0 -50 -30.5 -81t-82.5 -31t-82 31t-30 81z" />
<glyph unicode="&#x2d9;" horiz-adv-x="200" d="M55 647q0 19 13.5 32.5t32.5 13.5q17 0 30.5 -13.5t13.5 -32.5q0 -18 -13.5 -31.5t-30.5 -13.5q-19 0 -32.5 13.5t-13.5 31.5z" />
<glyph unicode="&#x2da;" horiz-adv-x="274" d="M54 649q0 33 24 55t58 22q36 0 60 -21.5t24 -55.5q0 -32 -24 -54t-60 -22q-33 0 -57.5 22t-24.5 54zM105 647q0 -11 10.5 -19t22.5 -8q13 0 21.5 9t8.5 20q0 13 -9 21t-21 8q-14 0 -23.5 -9t-9.5 -22z" />
<glyph unicode="&#x2db;" horiz-adv-x="235" d="M181 -156l6 -50q-24 -8 -52 -8q-36 0 -59 23.5t-23 58.5q0 64 76 132h63q-81 -69 -81 -121q0 -18 10 -29.5t26 -11.5q12 0 34 6z" />
<glyph unicode="&#x2dc;" horiz-adv-x="410" d="M103 609l-29 34q36 51 82 51q24 0 55.5 -19.5t42.5 -19.5q27 0 52 32l29 -35q-36 -51 -81 -51q-24 0 -55 19.5t-43 19.5q-28 0 -53 -31z" />
<glyph unicode="&#x2dd;" horiz-adv-x="399" d="M206 605l84 119l53 -40l-95 -111zM54 605l84 119l53 -40l-95 -111z" />
<glyph unicode="&#x3a9;" horiz-adv-x="702" d="M64 0v59h147v57q-70 33 -108.5 94.5t-38.5 138.5v94q0 117 77.5 192.5t207.5 75.5t208 -77.5t78 -190.5v-94q0 -78 -39 -140.5t-108 -93.5v-56h147v-59h-210v160q68 22 102.5 76.5t34.5 115.5v88q0 37 -12 71.5t-35.5 66t-66.5 50.5t-99 19t-99 -19t-66.5 -50t-35 -66 t-11.5 -72v-88q0 -62 33.5 -116t103.5 -76v-160h-210z" />
<glyph unicode="&#x3c0;" horiz-adv-x="657" d="M131 0v449h-84v63h563v-63h-84v-449h-68v449h-260v-449h-67z" />
<glyph unicode="&#x1e80;" horiz-adv-x="886" d="M345 822l27 59l169 -77l-21 -46zM195 0l-145 698h70l96 -468q8 -38 21 -140q12 81 26 140l74 311q26 107 106 107t106 -107l73 -311q13 -57 26 -141q11 89 22 141l96 468h70l-145 -698h-82l-124 529q-7 31 -15.5 42.5t-26.5 11.5t-27 -12t-16 -42l-123 -529h-82z" />
<glyph unicode="&#x1e81;" horiz-adv-x="716" d="M260 651l27 59l168 -77l-20 -46zM164 0l-130 512h70l77 -315q11 -46 25 -123q29 117 31 123l81 277h80l81 -277q4 -15 9 -36t12 -48t10 -40q24 118 25 124l77 315h70l-130 -512h-79l-115 396l-115 -396h-79z" />
<glyph unicode="&#x1e82;" horiz-adv-x="886" d="M366 758l-21 46l169 77l27 -59zM195 0l-145 698h70l96 -468q8 -38 21 -140q12 81 26 140l74 311q26 107 106 107t106 -107l73 -311q13 -57 26 -141q11 89 22 141l96 468h70l-145 -698h-82l-124 529q-7 31 -15.5 42.5t-26.5 11.5t-27 -12t-16 -42l-123 -529h-82z" />
<glyph unicode="&#x1e83;" horiz-adv-x="716" d="M281 587l-21 46l169 77l26 -59zM164 0l-130 512h70l77 -315q11 -46 25 -123q29 117 31 123l81 277h80l81 -277q4 -15 9 -36t12 -48t10 -40q24 118 25 124l77 315h70l-130 -512h-79l-115 396l-115 -396h-79z" />
<glyph unicode="&#x1e84;" horiz-adv-x="886" d="M481 818q0 19 13.5 32.5t32.5 13.5q17 0 30.5 -13.5t13.5 -32.5q0 -18 -13.5 -31.5t-30.5 -13.5q-19 0 -32.5 13.5t-13.5 31.5zM315 818q0 19 13 32.5t32 13.5q18 0 31 -13.5t13 -32.5q0 -18 -13 -31.5t-31 -13.5q-19 0 -32 13.5t-13 31.5zM195 0l-145 698h70l96 -468 q8 -38 21 -140q12 81 26 140l74 311q26 107 106 107t106 -107l73 -311q13 -57 26 -141q11 89 22 141l96 468h70l-145 -698h-82l-124 529q-7 31 -15.5 42.5t-26.5 11.5t-27 -12t-16 -42l-123 -529h-82z" />
<glyph unicode="&#x1e85;" horiz-adv-x="716" d="M396 647q0 19 13.5 32.5t32.5 13.5q17 0 30.5 -13.5t13.5 -32.5q0 -18 -13.5 -31.5t-30.5 -13.5q-19 0 -32.5 13.5t-13.5 31.5zM229 647q0 19 13.5 32.5t31.5 13.5q19 0 32 -13.5t13 -32.5q0 -18 -13 -31.5t-32 -13.5q-18 0 -31.5 13.5t-13.5 31.5zM164 0l-130 512h70 l77 -315q11 -46 25 -123q29 117 31 123l81 277h80l81 -277q4 -15 9 -36t12 -48t10 -40q24 118 25 124l77 315h70l-130 -512h-79l-115 396l-115 -396h-79z" />
<glyph unicode="&#x1ef2;" horiz-adv-x="574" d="M189 822l27 59l168 -77l-20 -46zM252 0v292q-77 10 -114 61.5t-53 133.5l-40 211h68l39 -200q6 -27 10.5 -44t14.5 -38.5t23.5 -34t35.5 -21.5t51 -9q36 0 61 11.5t39.5 35t21.5 45t13 55.5l38 200h69l-40 -211q-16 -83 -53.5 -134.5t-114.5 -60.5v-292h-69z" />
<glyph unicode="&#x1ef3;" horiz-adv-x="510" d="M155 651l27 59l168 -77l-20 -46zM90 166l-45 346h67l44 -338q14 -112 100 -112q47 0 105 30l23 420h66l-29 -554q-8 -159 -165 -159h-94l-5 61h100q51 0 72.5 26t24.5 76l4 65q-56 -27 -105 -27q-142 0 -163 166z" />
<glyph unicode="&#x2013;" horiz-adv-x="500" d="M0 254v60h500v-60h-500z" />
<glyph unicode="&#x2014;" horiz-adv-x="1000" d="M-1 254v60h1000v-60h-1000z" />
<glyph unicode="&#x2018;" horiz-adv-x="235" d="M65 486l68 212h51l-50 -212h-69z" />
<glyph unicode="&#x2019;" horiz-adv-x="236" d="M65 486l50 212h69l-68 -212h-51z" />
<glyph unicode="&#x201a;" horiz-adv-x="233" d="M48 -132l50 212h69l-68 -212h-51z" />
<glyph unicode="&#x201c;" horiz-adv-x="369" d="M200 486l68 212h51l-51 -212h-68zM67 486l68 212h51l-51 -212h-68z" />
<glyph unicode="&#x201d;" horiz-adv-x="369" d="M196 486l51 212h68l-68 -212h-51zM63 486l51 212h69l-69 -212h-51z" />
<glyph unicode="&#x201e;" horiz-adv-x="373" d="M200 -132l51 212h68l-68 -212h-51zM63 -132l51 212h69l-69 -212h-51z" />
<glyph unicode="&#x2020;" horiz-adv-x="464" d="M198 0v430h-114v60h114v166h68v-166h114v-60h-114v-430h-68z" />
<glyph unicode="&#x2021;" horiz-adv-x="469" d="M201 0v193h-117v60h117v150h-117v61h117v192h67v-192h116v-61h-116v-150h116v-60h-116v-193h-67z" />
<glyph unicode="&#x2022;" horiz-adv-x="525" d="M109 305q0 63 45 108t108 45t108.5 -45t45.5 -108t-45.5 -107.5t-108.5 -44.5t-108 44.5t-45 107.5z" />
<glyph unicode="&#x2026;" horiz-adv-x="843" d="M687 37q0 19 14.5 33.5t33.5 14.5t33 -14t14 -34t-14 -34t-33 -14t-33.5 14.5t-14.5 33.5zM421 -11q-19 0 -33 14t-14 34t14 34t33 14q20 0 34 -14t14 -34t-14 -34t-34 -14zM60 37q0 19 14 33.5t34 14.5t34 -14.5t14 -33.5t-14 -33.5t-34 -14.5t-34 14.5t-14 33.5z" />
<glyph unicode="&#x2030;" horiz-adv-x="1196" d="M77 480v68q0 61 39.5 105.5t104.5 44.5q66 0 105.5 -44.5t39.5 -105.5v-68q0 -61 -39 -105t-104 -44q-66 0 -106 44t-40 105zM256 0l276 691h59l-277 -691h-58zM130 542v-56q0 -45 23.5 -75.5t69.5 -30.5q45 0 68 30.5t23 75.5v56q0 46 -23.5 76.5t-69.5 30.5 q-45 0 -68 -31t-23 -76zM830 138v68q0 61 39.5 105.5t104.5 44.5t105 -44.5t40 -105.5v-68q0 -62 -39.5 -106t-104.5 -44q-66 0 -105.5 44t-39.5 106zM485 138v68q0 61 39.5 105.5t104.5 44.5t105 -44.5t40 -105.5v-68q0 -62 -39 -106t-104 -44q-66 0 -106 44t-40 106z M882 200v-57q0 -45 24 -75.5t69 -30.5t68 30.5t23 75.5v57q0 45 -23 76t-69 31q-45 0 -68.5 -31t-23.5 -76zM538 200v-57q0 -45 23.5 -75.5t69.5 -30.5q45 0 68 30.5t23 75.5v57q0 45 -23.5 76t-69.5 31q-45 0 -68 -31t-23 -76z" />
<glyph unicode="&#x2039;" horiz-adv-x="370" d="M223 84l-149 186l149 187l52 -40l-119 -147l119 -147z" />
<glyph unicode="&#x203a;" horiz-adv-x="370" d="M94 123l120 147l-119 147l52 40l148 -187l-148 -186z" />
<glyph unicode="&#x20ac;" horiz-adv-x="548" d="M48 245v51h60v105h-60v52h60q2 125 61 191.5t175 66.5q76 0 159 -22l-14 -60q-80 20 -145 20q-88 0 -126 -49t-40 -147h232l-9 -52h-223v-105h232l-9 -51h-223q2 -97 39.5 -146.5t126.5 -49.5q62 0 145 19l14 -59q-83 -22 -159 -22q-116 0 -175 66.5t-61 191.5h-60z" />
<glyph unicode="&#x2122;" horiz-adv-x="737" d="M318 358l37 340h61l89 -236l90 236h60l38 -340h-55l-25 247l-77 -207h-61l-77 207l-25 -247h-55zM144 358v292h-97v48h248v-48h-97v-292h-54z" />
<glyph unicode="&#x2206;" horiz-adv-x="719" d="M27 0l293 709h79l293 -709h-665zM122 62h475l-237 569z" />
<glyph unicode="&#x220f;" horiz-adv-x="714" d="M131 -101v736h-84v63h620v-63h-85v-736h-67v736h-316v-736h-68z" />
<glyph unicode="&#x2211;" horiz-adv-x="606" d="M52 -86v61l277 332l-277 330v61h501v-64h-409l275 -327l-275 -330h409v-63h-501z" />
<glyph unicode="&#x221a;" horiz-adv-x="592" d="M262 0l-157 450h-92v62h141l147 -428l217 657h70l-249 -741h-77z" />
<glyph unicode="&#x222b;" horiz-adv-x="343" d="M-38 -197l7 59q37 -10 68 -10q85 0 85 101v630q0 72 40 114t110 42q32 0 77 -12l-7 -59q-38 10 -67 10q-85 0 -85 -102v-630q0 -71 -40.5 -113t-110.5 -42q-27 0 -77 12z" />
<glyph unicode="&#x2248;" horiz-adv-x="587" d="M136 309l-40 43q51 69 120 69q40 0 91 -30.5t74 -30.5q42 0 80 45l40 -43q-50 -68 -120 -68q-40 0 -91 31t-74 31q-40 0 -80 -47zM136 143l-40 43q50 68 120 68q40 0 91 -30.5t74 -30.5q41 0 80 46l40 -43q-51 -69 -120 -69q-40 0 -91 31t-74 31q-41 0 -80 -46z" />
<glyph unicode="&#x2260;" horiz-adv-x="629" d="M94 170v63h157l58 160h-215v63h239l42 116l54 -20l-35 -96h140v-63h-164l-59 -160h223v-63h-247l-42 -116l-53 20l35 96h-133z" />
<glyph unicode="&#x2264;" horiz-adv-x="559" d="M94 247v60l351 177l17 -61l-295 -146l295 -147l-17 -61zM95 -33v61h369v-61h-369z" />
<glyph unicode="&#x2265;" horiz-adv-x="559" d="M114 69l-18 61l295 147l-295 146l17 61l351 -177v-59zM95 -33v61h369v-61h-369z" />
<glyph unicode="&#x25ca;" horiz-adv-x="707" d="M354 -2l-290 318l290 318l289 -318zM354 93l197 224l-198 223l-197 -224z" />
<glyph unicode="&#x25fc;" horiz-adv-x="510" d="M0 510h510v-510h-510v510z" />
<glyph unicode="&#xf8ff;" horiz-adv-x="0" />
<glyph horiz-adv-x="210" />
<glyph horiz-adv-x="230" d="M68 -213l22 150h69l-35 -150h-56z" />
<glyph d="M65 258v45q0 130 58 201t166 71q107 0 165.5 -72.5t58.5 -199.5v-45q0 -129 -58 -200t-166 -71q-107 0 -165.5 72t-58.5 199zM134 303v-45q0 -210 155 -210t155 210v45q0 211 -155 211t-155 -211z" />
<glyph horiz-adv-x="451" d="M75 0v60h151v432l-155 -63l-25 56l188 77h60v-502h131v-60h-350z" />
<glyph horiz-adv-x="491" d="M51 0v40q0 55 22.5 99t56.5 69.5t73.5 49.5t73.5 42.5t56.5 45.5t22.5 60q0 49 -32 78.5t-95 29.5t-141 -35l-22 56q90 40 163 40q88 0 142.5 -45.5t54.5 -123.5q0 -37 -16.5 -67.5t-42.5 -51.5t-58 -39.5t-64 -36.5t-58 -38t-42.5 -49t-16.5 -64h303v-40q0 -20 -20 -20 h-360z" />
<glyph horiz-adv-x="466" d="M30 -121l16 58q61 -25 134 -25q74 0 117 39t43 104q0 75 -48 110t-118 35h-40v60h36q67 0 109 37.5t42 94.5q0 54 -36.5 88t-102.5 34q-54 0 -123 -27l-21 57q78 31 144 31q93 0 151 -48.5t58 -132.5q0 -47 -30 -92t-85 -68q65 -21 99.5 -68t34.5 -111q0 -88 -60.5 -146 t-169.5 -58q-80 0 -150 28z" />
<glyph horiz-adv-x="557" d="M53 125l105 437h65l-105 -443q-8 -33 21 -33h177v272l67 19v-291h134v-60h-134v-162h-67v162h-186q-100 0 -77 99z" />
<glyph horiz-adv-x="516" d="M41 -112l15 60q94 -36 163 -36q79 0 125 50t46 122q0 70 -38 115t-117 45q-67 0 -138 -30l-30 48v300h357l-6 -61h-286v-212q52 15 105 15q105 0 164 -61t59 -160q0 -105 -69.5 -168.5t-173.5 -63.5q-79 0 -176 37z" />
<glyph horiz-adv-x="553" d="M64 214v269q0 98 58.5 163t167.5 65q74 0 153 -28l-16 -59q-75 26 -136 26q-84 0 -121.5 -49.5t-37.5 -117.5v-77q73 46 149 46q94 0 156 -63.5t62 -174.5q0 -106 -62 -166.5t-156 -60.5q-93 0 -155 60.5t-62 166.5zM132 346v-133q0 -72 38 -118.5t111 -46.5t110.5 46.5 t37.5 119.5q0 78 -38.5 128t-112.5 50q-71 0 -146 -46z" />
<glyph horiz-adv-x="481" d="M248 -136h-73q1 89 22 178.5t45 149t66 155t64 154.5h-345v61h422v-55q-24 -65 -65 -156.5t-66.5 -150.5t-47 -149.5t-22.5 -186.5z" />
<glyph horiz-adv-x="548" d="M197 363q-60 30 -93 69.5t-33 104.5q0 77 60 125.5t143 48.5t143 -48.5t60 -125.5q0 -64 -33.5 -102t-94.5 -68q69 -34 107.5 -78t38.5 -118q0 -81 -62 -132.5t-159 -51.5t-159 51.5t-62 132.5q0 72 38 115.5t106 76.5zM278 399q62 28 95.5 58t33.5 80t-38 81.5t-95 31.5 t-95 -32t-38 -81q0 -51 34.5 -80t102.5 -58zM268 330q-71 -31 -108 -65t-37 -94q0 -53 41 -88t110 -35q70 0 110.5 35t40.5 88q0 32 -12 57t-37.5 44t-47.5 30.5t-60 27.5z" />
<glyph horiz-adv-x="555" d="M111 -120l15 59q83 -27 137 -27q84 0 122 49.5t38 117.5v78q-72 -45 -149 -45q-94 0 -156.5 62.5t-62.5 173.5q0 106 62.5 166.5t156.5 60.5q92 0 154.5 -60.5t62.5 -166.5v-269q0 -98 -58.5 -163t-168.5 -65q-71 0 -153 29zM423 219v130q0 72 -38.5 118.5t-110.5 46.5 q-74 0 -111.5 -47t-37.5 -119q0 -78 38.5 -127t113.5 -49q72 0 146 47z" />
<glyph horiz-adv-x="532" d="M58 21l12 62q113 -34 176 -34q75 0 111.5 35t36.5 96q0 40 -24 68.5t-60.5 43.5t-79 33.5t-79 37t-60.5 55.5t-24 88q0 78 47 125.5t128 56.5v114h58v-112q59 -2 140 -33l-17 -58q-83 30 -143 30q-68 0 -104 -32t-36 -91q0 -31 18 -54.5t47 -38.5t63.5 -29t69.5 -30 t64 -37t47 -56t18 -81q0 -78 -47 -129t-130 -61v-114h-58v111q-73 4 -174 34z" />
<glyph horiz-adv-x="486" d="M241 -124v113q-85 8 -131 68t-46 157v86q0 96 46 155.5t131 67.5v113h58v-113q57 -3 127 -24l-16 -58q-72 23 -140 23q-137 0 -137 -171v-71q0 -174 137 -174q65 0 140 24l16 -59q-77 -21 -127 -25v-112h-58z" />
<glyph horiz-adv-x="512" d="M62 0v55q55 84 55 159v90h-62v52h62v151q0 99 55 151.5t148 52.5q66 0 139 -28l-17 -56q-66 23 -120 23q-69 0 -102.5 -37t-33.5 -116v-141h221v-52h-221v-82q0 -89 -51 -162h316v-40q0 -20 -20 -20h-369z" />
<glyph horiz-adv-x="555" d="M54 245v51h61v105h-61v52h61q2 125 60.5 191.5t174.5 66.5q77 0 160 -22l-14 -60q-82 20 -145 20q-88 0 -126.5 -49.5t-39.5 -146.5h232l-9 -52h-224v-105h233l-9 -51h-223q1 -96 39 -146t127 -50q60 0 145 19l14 -59q-83 -22 -160 -22q-116 0 -174.5 66.5t-60.5 191.5 h-61z" />
<glyph horiz-adv-x="505" d="M68 140v53h150v110h-150v53h123l-176 342h69l168 -329l169 329h69l-178 -342h126v-53h-151v-110h151v-53h-151v-140h-69v140h-150z" />
<glyph horiz-adv-x="553" d="M153 157v145h-84v63h84v125h-84v63h84v145h63v-145h120v145h63v-145h85v-63h-85v-125h85v-63h-85v-145h-63v145h-120v-145h-63zM216 365h120v125h-120v-125z" />
<glyph d="M60 263v173q0 130 60.5 202.5t168.5 72.5t168.5 -74t60.5 -201v-173q0 -131 -60 -203.5t-169 -72.5q-107 0 -168 74t-61 202zM129 431v-163q0 -220 160 -220q159 0 159 220v163q0 219 -159 219q-160 0 -160 -219z" />
<glyph d="M139 0v60h151v569l-155 -65l-24 55l187 79h60v-638h131v-60h-350z" />
<glyph d="M85 0v64q0 56 18.5 103t47.5 78.5t64 58t70.5 50t64.5 46.5t47.5 54t18.5 67q0 54 -34.5 91.5t-101.5 37.5q-72 0 -154 -36l-23 56q91 41 178 41q93 0 149 -55t56 -135q0 -45 -18.5 -82.5t-47.5 -63.5t-65 -50.5t-71.5 -49.5t-64.5 -53.5t-47.5 -70t-18.5 -91.5h340v-40 q0 -20 -20 -20h-388z" />
<glyph d="M91 15l16 58q61 -25 134 -25q74 0 117 39t43 104q0 75 -48 110t-118 35h-40v60h36q67 0 109 37.5t42 94.5q0 54 -36.5 88t-102.5 34q-54 0 -123 -27l-21 57q78 31 144 31q93 0 151 -48.5t58 -132.5q0 -47 -30 -92t-85 -68q65 -21 99.5 -68t34.5 -111q0 -88 -60.5 -146 t-169.5 -58q-80 0 -150 28z" />
<glyph d="M61 261l105 437h65l-105 -443q-8 -33 21 -33h177v272l67 19v-291h134v-60h-134v-162h-67v162h-186q-100 0 -77 99z" />
<glyph d="M75 24l15 60q96 -36 164 -36q79 0 125 50t46 122q0 70 -38.5 115t-117.5 45q-67 0 -138 -30l-29 48v300h357l-7 -61h-285v-212q51 15 104 15q105 0 164.5 -61t59.5 -160q0 -105 -69.5 -168.5t-174.5 -63.5q-79 0 -176 37z" />
<glyph d="M74 214v269q0 98 58 163t168 65q74 0 153 -28l-16 -59q-75 26 -136 26q-84 0 -121.5 -49.5t-37.5 -117.5v-77q73 46 148 46q94 0 156.5 -63.5t62.5 -174.5q0 -106 -62 -166.5t-156 -60.5q-93 0 -155 60.5t-62 166.5zM142 346v-133q0 -72 38 -118.5t111 -46.5t110.5 46.5 t37.5 119.5q0 78 -38.5 128t-112.5 50q-72 0 -146 -46z" />
<glyph d="M301 0h-73q1 89 22 178.5t45 149t66 155t64 154.5h-345v61h422v-55q-24 -65 -65 -156.5t-66.5 -150.5t-47 -149.5t-22.5 -186.5z" />
<glyph d="M212 363q-60 30 -93 69.5t-33 104.5q0 77 59.5 125.5t143.5 48.5q83 0 143 -48.5t60 -125.5q0 -64 -33.5 -102t-94.5 -68q69 -34 107.5 -78t38.5 -118q0 -81 -62 -132.5t-159 -51.5t-159 51.5t-62 132.5q0 72 38 115.5t106 76.5zM293 399q62 28 95.5 58t33.5 80 t-38.5 81.5t-94.5 31.5q-57 0 -95 -32t-38 -81q0 -51 34.5 -80t102.5 -58zM283 330q-71 -31 -108 -65t-37 -94q0 -53 41 -88t110 -35q70 0 110.5 35t40.5 88q0 32 -12 57t-37.5 44t-47.5 30.5t-60 27.5z" />
<glyph d="M124 16l14 59q83 -27 138 -27q83 0 121 49.5t38 117.5v78q-70 -45 -149 -45q-94 0 -156.5 62.5t-62.5 173.5q0 106 62.5 166.5t156.5 60.5q92 0 154.5 -60.5t62.5 -166.5v-269q0 -98 -58.5 -163t-167.5 -65q-72 0 -153 29zM435 355v130q0 72 -38.5 118.5t-110.5 46.5 q-73 0 -111 -47t-38 -119q0 -78 38.5 -127t113.5 -49q72 0 146 47z" />
<glyph d="M79 21l13 62q113 -34 176 -34q74 0 110.5 35t36.5 96q0 40 -24 68.5t-60.5 43.5t-78.5 33.5t-78.5 37t-60.5 55.5t-24 88q0 78 46.5 125.5t127.5 56.5v114h58v-112q60 -2 141 -33l-18 -58q-82 30 -143 30q-68 0 -103.5 -32t-35.5 -91q0 -42 33.5 -70.5t81.5 -47t96 -40 t81.5 -63.5t33.5 -105q0 -78 -47 -129t-129 -61v-114h-58v111q-74 4 -175 34z" />
<glyph d="M284 -124v113q-85 8 -131 68t-46 157v86q0 96 46 155.5t131 67.5v113h58v-113q56 -3 127 -24l-16 -58q-72 23 -139 23q-137 0 -137 -171v-71q0 -174 137 -174q64 0 139 24l17 -59q-77 -21 -128 -25v-112h-58z" />
<glyph d="M96 0v55q55 84 55 159v90h-62v52h62v151q0 99 55 151.5t147 52.5q67 0 140 -28l-18 -56q-66 23 -119 23q-70 0 -103 -36.5t-33 -116.5v-141h221v-52h-221v-82q0 -89 -51 -162h315v-40q0 -20 -20 -20h-368z" />
<glyph d="M72 245v51h60v105h-60v52h60q2 125 61 191.5t175 66.5q75 0 160 -22l-15 -60q-80 20 -145 20q-88 0 -126 -49t-40 -147h232l-8 -52h-224v-105h232l-8 -51h-224q2 -97 39.5 -146.5t126.5 -49.5q62 0 145 19l15 -59q-85 -22 -160 -22q-116 0 -175 66.5t-61 191.5h-60z" />
<glyph d="M104 140v53h150v110h-150v53h123l-176 342h69l168 -329l169 329h69l-178 -342h126v-53h-151v-110h151v-53h-151v-140h-69v140h-150z" />
<glyph d="M165 157v145h-84v63h84v125h-84v63h84v145h63v-145h120v145h63v-145h85v-63h-85v-125h85v-63h-85v-145h-63v145h-120v-145h-63zM228 365h120v125h-120v-125z" />
<glyph d="M65 258v45q0 130 58 201t166 71q107 0 165.5 -72.5t58.5 -199.5v-45q0 -129 -58 -200t-166 -71q-107 0 -165.5 72t-58.5 199zM134 303v-45q0 -210 155 -210t155 210v45q0 211 -155 211t-155 -211z" />
<glyph d="M128 0v60h151v433l-155 -63l-25 55l188 77h60v-502h131v-60h-350z" />
<glyph d="M95 0v40q0 55 22.5 99t56.5 69.5t73.5 49.5t73.5 42.5t56.5 45.5t22.5 60q0 49 -32 78.5t-95 29.5t-141 -35l-22 56q90 40 163 40q88 0 142.5 -45.5t54.5 -123.5q0 -37 -16.5 -67.5t-42.5 -51.5t-58 -39.5t-64 -36.5t-58 -38t-42.5 -49t-16.5 -64h303v-40q0 -20 -20 -20 h-360z" />
<glyph d="M93 -121l16 58q62 -25 135 -25q74 0 117 39.5t43 103.5q0 75 -48 110t-118 35h-41v60h36q67 0 109.5 37.5t42.5 94.5q0 53 -37 87.5t-102 34.5q-53 0 -124 -27l-20 57q78 31 144 31q92 0 150.5 -48.5t58.5 -132.5q0 -47 -30 -92t-86 -68q66 -21 100.5 -68t34.5 -111 q0 -88 -60.5 -146t-169.5 -58q-80 0 -151 28z" />
<glyph d="M62 125l105 437h65l-105 -443q-8 -33 21 -33h177v272l67 19v-291h135v-60h-135v-162h-67v162h-186q-100 0 -77 99z" />
<glyph d="M75 -112l15 60q96 -36 164 -36q79 0 125 50t46 122q0 70 -38.5 115t-117.5 45q-67 0 -138 -30l-29 48v300h357l-7 -61h-285v-212q51 15 104 15q105 0 164.5 -61t59.5 -160q0 -105 -69.5 -168.5t-174.5 -63.5q-79 0 -176 37z" />
<glyph d="M71 214v269q0 98 58.5 163t167.5 65q75 0 153 -28l-16 -59q-75 26 -136 26q-83 0 -121 -49.5t-38 -117.5v-77q73 46 149 46q94 0 156.5 -63.5t62.5 -174.5q0 -106 -62.5 -166.5t-156.5 -60.5q-93 0 -155 60.5t-62 166.5zM139 346v-133q0 -72 38 -118.5t111 -46.5 q74 0 111.5 46.5t37.5 119.5q0 78 -39 128t-113 50q-71 0 -146 -46z" />
<glyph d="M298 -136h-72q1 89 21.5 179t44.5 149t66.5 155t64.5 154h-345v61h421v-55q-24 -65 -65 -156t-66.5 -150.5t-47 -150t-22.5 -186.5z" />
<glyph d="M212 363q-60 30 -93 69.5t-33 104.5q0 77 59.5 125.5t143.5 48.5q83 0 143 -48.5t60 -125.5q0 -64 -33.5 -102t-94.5 -68q69 -34 107.5 -78t38.5 -118q0 -81 -62 -132.5t-159 -51.5t-159 51.5t-62 132.5q0 72 38 115.5t106 76.5zM293 399q62 28 95.5 58t33.5 80 t-38.5 81.5t-94.5 31.5q-57 0 -95 -32t-38 -81q0 -51 34.5 -80t102.5 -58zM283 330q-71 -31 -108 -65t-37 -94q0 -53 41 -88t110 -35q70 0 110.5 35t40.5 88q0 32 -12 57t-37.5 44t-47.5 30.5t-60 27.5z" />
<glyph d="M124 -120l14 59q83 -27 138 -27q83 0 121 49.5t38 117.5v78q-70 -45 -149 -45q-94 0 -156.5 62.5t-62.5 173.5q0 106 62.5 166.5t156.5 60.5q92 0 154.5 -60.5t62.5 -166.5v-269q0 -98 -58.5 -163t-167.5 -65q-72 0 -153 29zM435 219v130q0 72 -38.5 118.5t-110.5 46.5 q-73 0 -111 -47t-38 -119q0 -78 38.5 -127t113.5 -49q72 0 146 47z" />
<glyph d="M84 21l13 62q113 -34 175 -34q75 0 111.5 35t36.5 96q0 40 -24 68.5t-60.5 43.5t-78.5 33.5t-78.5 37t-60.5 55.5t-24 88q0 78 46.5 125.5t127.5 56.5v114h58v-112q58 -2 141 -33l-18 -58q-83 30 -143 30q-68 0 -103.5 -32t-35.5 -91q0 -42 33.5 -70.5t81.5 -47t96 -40 t81.5 -63.5t33.5 -105q0 -78 -47 -129t-130 -61v-114h-58v111q-73 4 -174 34z" />
<glyph d="M284 -124v113q-85 8 -131 68t-46 157v86q0 96 46 155.5t131 67.5v113h58v-113q56 -3 127 -24l-16 -58q-72 23 -139 23q-138 0 -138 -171v-71q0 -174 138 -174q64 0 139 24l17 -59q-77 -21 -128 -25v-112h-58z" />
<glyph d="M96 0v55q55 84 55 159v90h-62v52h62v151q0 99 55 151.5t147 52.5q67 0 140 -28l-18 -56q-66 23 -119 23q-70 0 -103 -36.5t-33 -116.5v-141h221v-52h-221v-82q0 -89 -51 -162h315v-40q0 -20 -20 -20h-368z" />
<glyph d="M70 245v51h61v105h-61v52h61q2 125 60.5 191.5t174.5 66.5q75 0 160 -22l-15 -60q-80 20 -145 20q-88 0 -126 -49t-40 -147h232l-8 -52h-224v-105h232l-8 -51h-224q2 -97 39.5 -146.5t126.5 -49.5q62 0 145 19l15 -59q-85 -22 -160 -22q-116 0 -174.5 66.5t-60.5 191.5 h-61z" />
<glyph d="M104 140v53h150v110h-150v53h123l-176 342h69l168 -329l169 329h69l-178 -342h126v-53h-151v-110h151v-53h-151v-140h-69v140h-150z" />
<glyph d="M165 157v145h-84v63h84v125h-84v63h84v145h63v-145h120v145h63v-145h85v-63h-85v-125h85v-63h-85v-145h-63v145h-120v-145h-63zM228 365h120v125h-120v-125z" />
<glyph horiz-adv-x="562" d="M44 0l130 483q12 42 39.5 67t67.5 25q39 0 66.5 -25t39.5 -67l131 -483h-69l-43 163h-250l-43 -163h-69zM170 220h222l-67 249q-11 43 -44 43q-32 0 -44 -43z" />
<glyph horiz-adv-x="510" d="M87 0v540q93 35 168 35q82 0 130 -44t48 -110q0 -33 -18 -67.5t-56 -52.5q55 -18 79.5 -57t24.5 -82q0 -69 -50.5 -115.5t-140.5 -46.5h-185zM155 323h98q54 0 81 27t27 69t-26.5 69t-80.5 27q-48 0 -99 -17v-175zM155 60h116q60 0 90 29t30 73q0 45 -29.5 74.5 t-91.5 29.5h-115v-206z" />
<glyph horiz-adv-x="492" d="M64 197v168q0 101 54.5 155.5t154.5 54.5q74 0 164 -24l-13 -59q-81 22 -146 22q-81 0 -113 -42.5t-32 -115.5v-149q0 -74 32 -116.5t113 -42.5q60 0 146 21l13 -57q-90 -25 -164 -25q-100 0 -154.5 54.5t-54.5 155.5z" />
<glyph horiz-adv-x="564" d="M87 0v562h201q108 0 160 -49t52 -152v-161q0 -102 -52 -151t-160 -49h-201zM155 61h132q80 0 111.5 36.5t31.5 112.5v142q0 76 -31.5 112.5t-111.5 36.5h-132v-440z" />
<glyph horiz-adv-x="450" d="M71 142v278q0 66 41.5 104t124.5 38h152v-61h-152q-54 0 -76 -22t-22 -63v-99h225v-58h-225v-114q0 -40 22 -62t76 -22h155v-44q0 -17 -17 -17h-138q-83 0 -124.5 37.5t-41.5 104.5z" />
<glyph horiz-adv-x="452" d="M87 0v562h318v-61h-250v-193h224v-58h-224v-250h-68z" />
<glyph horiz-adv-x="546" d="M64 197v168q0 101 54.5 155.5t154.5 54.5q78 0 164 -24l-13 -59q-83 22 -146 22q-145 0 -145 -158v-150q0 -74 32.5 -116t112.5 -42q53 0 129 20v194l64 6v-248q-121 -33 -198 -33q-100 0 -154.5 54t-54.5 156z" />
<glyph horiz-adv-x="582" d="M87 0v562h68v-244h272v244h68v-545q0 -17 -18 -17h-50v259h-272v-259h-68z" />
<glyph horiz-adv-x="242" d="M87 0v562h68v-545q0 -17 -18 -17h-50z" />
<glyph horiz-adv-x="421" d="M41 6l15 60q48 -17 100 -17q64 0 89 33.5t25 95.5v384h68v-390q0 -84 -44.5 -134t-140.5 -50q-58 0 -112 18z" />
<glyph horiz-adv-x="519" d="M87 0v562h68v-250l96 5l116 245h73l-120 -249q22 -5 38.5 -19t23 -27t13.5 -32l83 -235h-72l-75 217q-15 45 -61 42l-115 -6v-236q0 -17 -18 -17h-50z" />
<glyph horiz-adv-x="476" d="M87 0v562h68v-501h271v-44q0 -17 -18 -17h-321z" />
<glyph horiz-adv-x="740" d="M52 0l80 562h81l123 -417q7 -24 14 -33t20 -9t20.5 9t14.5 33l123 417h80l80 -562h-67l-52 366q-9 61 -10 106q-21 -95 -24 -105l-69 -239q-13 -44 -35 -66.5t-61 -22.5q-69 0 -95 89l-69 239q-17 60 -26 107q-4 -70 -9 -108l-52 -366h-67z" />
<glyph horiz-adv-x="573" d="M87 0v562h64l271 -444q-4 40 -4 91v353h68v-562h-64l-270 442q3 -59 3 -89v-353h-68z" />
<glyph horiz-adv-x="570" d="M64 220v124q0 104 59 167.5t162 63.5q102 0 161.5 -63.5t59.5 -167.5v-124q0 -107 -59 -170t-162 -63t-162 63t-59 170zM133 335v-107q0 -180 152 -180t152 180v107q0 179 -152 179t-152 -179z" />
<glyph horiz-adv-x="490" d="M87 0v562h160q90 0 142 -50.5t52 -124.5q0 -76 -51.5 -126t-142.5 -50h-92v-211h-68zM155 270h91q63 0 94 34.5t31 82.5t-31 81t-95 33h-90v-231z" />
<glyph horiz-adv-x="570" d="M366 -147l-53 136q-18 -2 -28 -2q-103 0 -162 63t-59 170v124q0 104 59 167.5t162 63.5q102 0 161.5 -63.5t59.5 -167.5v-124q0 -81 -35 -137.5t-99 -79.5l50 -130zM133 335v-107q0 -180 152 -180t152 180v107q0 179 -152 179t-152 -179z" />
<glyph horiz-adv-x="503" d="M87 0v544q103 31 180 31q85 0 134 -52.5t49 -125.5q0 -52 -33 -101t-101 -64l120 -232h-73l-115 224h-93v-224h-68zM155 280h102q57 0 89 33.5t32 82.5q0 50 -27.5 84t-84.5 34q-49 0 -111 -15v-219z" />
<glyph horiz-adv-x="445" d="M48 16l12 60q93 -28 148 -28q58 0 87.5 26.5t29.5 71.5q0 31 -20 54.5t-50 36.5t-64.5 30t-64.5 33.5t-50 48.5t-20 74q0 71 50 111.5t132 40.5q58 0 137 -28l-18 -57q-70 24 -119 24q-54 0 -82.5 -24t-28.5 -67q0 -28 20 -49.5t50 -35t64.5 -30.5t64.5 -35.5t50 -51 t20 -75.5q0 -72 -50.5 -115.5t-137.5 -43.5q-66 0 -160 29z" />
<glyph horiz-adv-x="472" d="M202 0v501h-157v61h382v-61h-157v-501h-68z" />
<glyph horiz-adv-x="570" d="M75 204v358h68v-372q0 -59 36 -100t106 -41t106 41.5t36 99.5v372h68v-358q0 -103 -54.5 -159.5t-155.5 -56.5q-100 0 -155 56.5t-55 159.5z" />
<glyph horiz-adv-x="546" d="M233 0l-193 562h70l132 -389q1 -2 31 -108q17 66 31 108l132 389h70l-193 -562h-80z" />
<glyph horiz-adv-x="761" d="M169 0l-121 562h69l74 -351q9 -45 19 -127q8 53 25 127l54 223q22 89 92 89q69 0 91 -89l54 -223q18 -75 24 -125q12 86 20 125l74 351h69l-121 -562h-78l-99 421q-6 23 -13.5 32t-20.5 9q-14 0 -21.5 -8.5t-12.5 -32.5l-100 -421h-78z" />
<glyph horiz-adv-x="542" d="M62 562h77l133 -210l133 210h75l-169 -266l189 -296h-77l-153 239l-153 -239h-75l189 295z" />
<glyph horiz-adv-x="499" d="M216 0v232q-63 9 -93.5 49.5t-43.5 106.5l-35 174h66l33 -161q6 -27 11 -42.5t16.5 -34.5t31 -27.5t48.5 -8.5q28 0 47.5 8.5t31 27t16.5 34.5t11 43l32 161h67l-35 -174q-13 -65 -44 -106t-93 -50v-232h-67z" />
<glyph horiz-adv-x="480" d="M53 0v54l283 447h-274v61h355v-54l-284 -447h294v-61h-374z" />
<glyph horiz-adv-x="516" d="M278 328h201v-56h-45v-250q-84 -35 -164 -35q-93 0 -149.5 46t-56.5 125q0 108 106 143q-84 38 -84 132q0 74 54.5 118.5t136.5 44.5q58 0 111 -14l-11 -59q-51 12 -99 12q-56 0 -88.5 -26t-32.5 -76q0 -52 32.5 -78.5t88.5 -26.5zM376 66v206h-105q-64 0 -100 -29 t-36 -85q0 -54 35.5 -82t99.5 -28q54 0 106 18z" />
<glyph horiz-adv-x="401" d="M218 173l-65 -6q0 52 12 92.5t29 63t34 41t29 38.5t12 43q0 28 -21 49t-56 21q-39 0 -101 -31l-26 53q61 38 127 38t105 -37.5t39 -90.5q0 -34 -18.5 -64t-40.5 -51t-40.5 -62.5t-18.5 -96.5zM142 31q0 18 12.5 31t31.5 13q18 0 31.5 -13t13.5 -31t-13.5 -31t-31.5 -13 q-19 0 -31.5 13t-12.5 31z" />
<glyph horiz-adv-x="309" d="M124 172l-10 390h81l-10 -381zM110 32q0 18 13 30.5t31 12.5q19 0 32 -12.5t13 -30.5t-13 -31t-32 -13q-18 0 -31 13t-13 31z" />
<glyph horiz-adv-x="401" d="M170 446q0 18 13 31t31 13q19 0 32 -13t13 -31t-13 -31t-32 -13q-18 0 -31 13t-13 31zM309 -7l27 -53q-61 -38 -128 -38q-66 0 -104.5 37t-38.5 91q0 34 18.5 64t40 51t40 62.5t18.5 96.5l65 6q0 -64 -18 -110.5t-39.5 -67.5t-39.5 -46.5t-18 -53.5t21 -49t55 -21 q44 0 101 31z" />
<glyph horiz-adv-x="309" d="M110 445q0 18 13 31t31 13q19 0 32 -13t13 -31t-13 -31t-32 -13q-18 0 -31 13t-13 31zM114 -81l10 381l61 10l10 -391h-81z" />
<glyph horiz-adv-x="820" d="M536 -68l11 -50q-66 -20 -138 -20q-147 0 -245 88.5t-98 246.5q0 156 99.5 248.5t252.5 92.5q151 0 246 -94.5t95 -249.5q0 -73 -36.5 -133.5t-110.5 -60.5q-76 0 -102 49q-55 -49 -122 -49q-57 0 -90 30.5t-33 80.5q0 110 166 110h63v33q0 46 -19.5 68t-66.5 22 q-45 0 -103 -16l-15 49q65 19 118 19q71 0 108 -36t37 -97v-140q0 -34 16 -53t43 -19q46 0 70 43.5t24 99.5q0 133 -80.5 213t-207.5 80q-131 0 -214.5 -78t-83.5 -212q0 -136 81 -209.5t208 -73.5q65 0 127 18zM494 121v55h-60q-54 0 -81.5 -14.5t-27.5 -48.5 q0 -28 17.5 -44.5t52.5 -16.5q52 0 101 40q-2 9 -2 29z" />
<glyph horiz-adv-x="486" d="M48 213v137q0 106 51.5 165.5t143.5 59.5t143.5 -60.5t51.5 -164.5v-137q0 -107 -51 -166.5t-144 -59.5q-92 0 -143.5 61t-51.5 165zM117 344v-124q0 -172 126 -172t126 172v124q0 170 -126 170t-126 -170z" />
<glyph horiz-adv-x="486" d="M113 0v57h125v436l-126 -51l-25 55l162 65h57v-505h108v-57h-301z" />
<glyph horiz-adv-x="486" d="M70 0v56q0 61 28 108.5t68 76.5t80 54t68 56t28 69q0 40 -27.5 67t-80.5 27q-59 0 -128 -29l-22 54q77 36 151 36q80 0 128.5 -44.5t48.5 -110.5q0 -42 -20.5 -76t-50.5 -56t-66 -46.5t-66 -46.5t-50.5 -57t-20.5 -78h279v-43q0 -17 -18 -17h-329z" />
<glyph horiz-adv-x="486" d="M75 11l17 57q51 -20 111 -20q59 0 93 29t34 78q0 58 -38 85t-94 27h-37v56h32q54 0 87.5 28t33.5 73q0 39 -29.5 64.5t-79.5 25.5q-46 0 -103 -21l-20 55q65 27 123 27q79 0 129 -40t50 -109q0 -35 -24 -72.5t-71 -56.5q58 -17 84.5 -56.5t26.5 -85.5q0 -72 -51.5 -120 t-145.5 -48q-66 0 -128 24z" />
<glyph horiz-adv-x="486" d="M51 215l85 347h64l-83 -350q-6 -27 18 -27h135v213l65 15v-228h110v-59h-110v-126h-65v126h-148q-91 0 -71 89z" />
<glyph horiz-adv-x="486" d="M70 18l15 60q80 -29 137 -29q62 0 99 37t37 92q0 52 -30 85.5t-92 33.5q-55 0 -116 -24l-28 45v244h307l-6 -60h-237v-155q40 10 82 10q89 0 139.5 -49t50.5 -131q0 -86 -59 -137.5t-149 -51.5q-68 0 -150 30z" />
<glyph horiz-adv-x="486" d="M60 174v214q0 80 50 133.5t144 53.5q65 0 132 -23l-16 -60q-61 22 -115 22q-66 0 -96.5 -36t-30.5 -88v-57q57 34 119 34q80 0 132.5 -51t52.5 -142q0 -88 -53 -137.5t-133 -49.5q-79 0 -132.5 50t-53.5 137zM128 277v-104q0 -54 30.5 -89.5t87.5 -35.5q58 0 87 35t29 91 q0 61 -30 99t-89 38q-55 0 -115 -34z" />
<glyph horiz-adv-x="486" d="M259 0h-72q1 73 18 144t37 116.5t54.5 120t53.5 120.5h-284v61h360v-50q-20 -53 -54 -125t-55.5 -118.5t-39 -118.5t-18.5 -150z" />
<glyph horiz-adv-x="486" d="M171 291q-48 24 -74.5 56t-26.5 83q0 64 51 104.5t122 40.5t122 -40t51 -105q0 -49 -27 -79.5t-76 -55.5q56 -27 87.5 -62.5t31.5 -93.5q0 -67 -53 -109.5t-136 -42.5t-135.5 42.5t-52.5 109.5q0 57 31 92t85 60zM246 325q49 22 74.5 45t25.5 60t-29.5 60.5t-73.5 23.5 t-73.5 -24t-29.5 -60q0 -37 26.5 -59.5t79.5 -45.5zM237 261q-55 -25 -83.5 -51t-28.5 -71q0 -39 32 -65t86 -26q55 0 87 25.5t32 65.5q0 24 -9.5 43t-30 34t-37.5 23.5t-48 21.5z" />
<glyph horiz-adv-x="486" d="M101 13l15 58q69 -23 116 -23q66 0 96.5 36t30.5 88v59q-58 -34 -119 -34q-80 0 -132.5 50.5t-52.5 141.5q0 87 53 136.5t133 49.5q79 0 132.5 -49.5t53.5 -136.5v-214q0 -81 -50 -134.5t-144 -53.5q-61 0 -132 26zM359 288v102q0 53 -30.5 88.5t-87.5 35.5 q-58 0 -87 -35.5t-29 -89.5q0 -60 30 -98t88 -38q57 0 116 35z" />
<glyph horiz-adv-x="486" d="M66 18l12 58q95 -28 149 -28q59 0 88 26.5t29 72.5q0 36 -27.5 59.5t-67 37.5t-79.5 30.5t-67.5 49t-27.5 82.5q0 59 37 98.5t109 48.5v92h54v-90q53 -2 118 -27l-16 -54q-74 24 -121 24q-54 0 -82 -24t-28 -68q0 -32 27.5 -54t67 -36.5t79.5 -31.5t67.5 -51.5 t27.5 -85.5q0 -60 -37 -101.5t-111 -52.5v-93h-54v89q-53 1 -147 29z" />
<glyph horiz-adv-x="486" d="M237 -100v92q-76 9 -112.5 58t-36.5 124v66q0 74 36.5 123t112.5 58v92h54v-90q39 -3 106 -20l-15 -56q-60 20 -116 20q-110 0 -110 -133v-55q0 -132 110 -132q53 0 116 20l15 -56q-55 -16 -106 -20v-91h-54z" />
<glyph horiz-adv-x="486" d="M81 0v52q45 67 45 126v67h-52v48h52v116q0 80 47 123t125 43q57 0 121 -24l-17 -55q-56 18 -100 18q-56 0 -82 -28t-26 -88v-105h180v-48h-180v-61q0 -71 -44 -127h262v-40q0 -17 -17 -17h-314z" />
<glyph horiz-adv-x="486" d="M59 193v47h48v82h-48v47h48q2 98 53.5 152t146.5 54q69 0 136 -19l-15 -57q-64 16 -121 16q-128 0 -132 -146h187l-6 -47h-181v-82h187l-6 -47h-181q4 -146 132 -146q50 0 121 16l15 -56q-71 -20 -136 -20q-95 0 -146.5 54t-53.5 152h-48z" />
<glyph horiz-adv-x="486" d="M86 110v47h123v82h-123v47h100l-147 276h67l136 -257l137 257h67l-148 -276h101v-47h-124v-82h124v-47h-124v-110h-66v110h-123z" />
<glyph horiz-adv-x="486" d="M136 126v113h-67v59h67v92h-67v59h67v113h59v-113h95v113h59v-113h67v-59h-67v-92h67v-59h-67v-113h-59v113h-95v-113h-59zM195 298h95v92h-95v-92z" />
<glyph horiz-adv-x="509" d="M59 213v137q0 106 52 165.5t144 59.5t143.5 -60.5t51.5 -164.5v-137q0 -107 -51 -166.5t-144 -59.5q-92 0 -144 61t-52 165zM129 344v-124q0 -172 126 -172q125 0 125 172v124q0 170 -125 170q-126 0 -126 -170z" />
<glyph horiz-adv-x="396" d="M66 0v57h125v436l-126 -51l-25 55l162 65h57v-505h107v-57h-300z" />
<glyph horiz-adv-x="452" d="M50 0v56q0 61 28 108.5t67.5 76.5t79.5 54t68 56t28 69q0 40 -27.5 67t-79.5 27q-59 0 -128 -29l-23 54q77 36 152 36q80 0 128 -44.5t48 -110.5q0 -49 -28 -87.5t-68.5 -64.5t-80.5 -52.5t-68 -66t-28 -89.5h278v-43q0 -17 -18 -17h-328z" />
<glyph horiz-adv-x="407" d="M30 11l17 57q51 -20 111 -20q59 0 93 29t34 78q0 58 -38 85t-94 27h-37v56h32q54 0 87.5 28t33.5 73q0 39 -29.5 64.5t-79.5 25.5q-46 0 -103 -21l-20 55q65 27 123 27q79 0 129 -40t50 -109q0 -35 -24 -72.5t-71 -56.5q58 -17 84.5 -56.5t26.5 -85.5q0 -72 -51.5 -120 t-145.5 -48q-66 0 -128 24z" />
<glyph horiz-adv-x="489" d="M50 215l85 347h64l-84 -350q-6 -27 18 -27h136v213l64 15v-228h110v-59h-110v-126h-64v126h-148q-93 0 -71 89z" />
<glyph horiz-adv-x="451" d="M41 18l15 60q80 -29 137 -29q62 0 99 37t37 92q0 52 -30.5 85.5t-92.5 33.5q-56 0 -115 -24l-28 45v244h307l-6 -60h-237v-155q40 10 82 10q89 0 139.5 -49t50.5 -131q0 -86 -59 -137.5t-149 -51.5q-68 0 -150 30z" />
<glyph horiz-adv-x="482" d="M59 174v214q0 80 49.5 133.5t143.5 53.5q65 0 132 -23l-16 -60q-61 22 -115 22q-66 0 -96 -35.5t-30 -88.5v-57q55 34 118 34q80 0 132.5 -51t52.5 -142q0 -88 -53 -137.5t-133 -49.5q-79 0 -132 50t-53 137zM127 277v-104q0 -54 30 -89.5t87 -35.5q58 0 87 35t29 91 q0 61 -30 99t-89 38q-55 0 -114 -34z" />
<glyph horiz-adv-x="424" d="M223 0h-72q1 73 18 144t37 116.5t54.5 120t53.5 120.5h-284v61h360v-50q-20 -53 -54 -125t-55.5 -118.5t-39 -118.5t-18.5 -150z" />
<glyph horiz-adv-x="477" d="M166 291q-48 24 -74.5 56t-26.5 83q0 64 51 104.5t123 40.5q71 0 122 -40t51 -105q0 -50 -27 -80.5t-77 -54.5q56 -27 87.5 -62.5t31.5 -93.5q0 -67 -53 -109.5t-135 -42.5q-83 0 -136 42.5t-53 109.5q0 57 31 91.5t85 60.5zM242 325q49 22 74.5 45t25.5 60t-30 60.5 t-73 23.5q-45 0 -74.5 -23.5t-29.5 -60.5t27 -59.5t80 -45.5zM233 261q-55 -25 -84 -51t-29 -71q0 -39 32.5 -65t86.5 -26q55 0 86.5 25.5t31.5 65.5q0 24 -9 43t-29.5 34t-38 23.5t-47.5 21.5z" />
<glyph horiz-adv-x="483" d="M99 13l14 58q71 -23 117 -23q66 0 96 36t30 88v59q-57 -34 -118 -34q-81 0 -133 50.5t-52 141.5q0 87 53 136.5t133 49.5q79 0 132 -49.5t53 -136.5v-214q0 -81 -49.5 -134.5t-143.5 -53.5q-61 0 -132 26zM356 288v102q0 54 -30 89t-87 35q-58 0 -87 -35.5t-29 -89.5 q0 -60 30 -98t88 -38q57 0 115 35z" />
<glyph horiz-adv-x="461" d="M53 18l12 58q95 -28 149 -28q59 0 88 26.5t29 72.5q0 36 -27.5 59.5t-67 37.5t-79.5 30.5t-67.5 49t-27.5 82.5q0 59 37 98.5t109 48.5v92h54v-90q53 -2 118 -27l-16 -54q-74 24 -121 24q-54 0 -82 -24t-28 -68q0 -32 27.5 -54t67.5 -36.5t79.5 -31.5t67 -51.5 t27.5 -85.5q0 -60 -37 -101.5t-111 -52.5v-93h-54v89q-53 1 -147 29z" />
<glyph horiz-adv-x="424" d="M207 -100v92q-76 9 -112 58.5t-36 123.5v66q0 74 36.5 123t111.5 58v92h55v-90q41 -3 105 -20l-15 -56q-60 20 -115 20q-111 0 -111 -133v-55q0 -132 111 -132q53 0 115 20l15 -56q-55 -16 -105 -20v-91h-55z" />
<glyph horiz-adv-x="447" d="M59 0v52q46 66 46 126v67h-52v48h52v116q0 80 47 123t125 43q55 0 121 -24l-18 -55q-54 18 -99 18q-57 0 -83 -28t-26 -88v-105h181v-48h-181v-61q0 -71 -44 -127h263v-40q0 -17 -17 -17h-315z" />
<glyph horiz-adv-x="481" d="M47 193v47h48v82h-48v47h48q2 97 53 151.5t146 54.5q70 0 137 -19l-16 -57q-64 16 -120 16q-130 0 -132 -146h187l-7 -47h-180v-82h187l-7 -47h-180q2 -146 132 -146q49 0 120 16l16 -56q-71 -20 -137 -20q-95 0 -146 54.5t-53 151.5h-48z" />
<glyph horiz-adv-x="445" d="M66 110v47h123v82h-123v47h100l-147 276h67l136 -257l137 257h67l-148 -276h101v-47h-124v-82h124v-47h-124v-110h-66v110h-123z" />
<glyph horiz-adv-x="476" d="M131 126v113h-67v59h67v92h-67v59h67v113h60v-113h94v113h59v-113h68v-59h-68v-92h68v-59h-68v-113h-59v113h-94v-113h-60zM191 298h94v92h-94v-92z" />
<glyph horiz-adv-x="344" d="M75 702l27 59l168 -77l-20 -47z" />
<glyph horiz-adv-x="344" d="M95 637l-21 47l169 77l27 -59z" />
<glyph horiz-adv-x="407" d="M242 698q0 18 13.5 32t31.5 14t31.5 -14t13.5 -32q0 -19 -13.5 -32t-31.5 -13q-19 0 -32 13t-13 32zM75 698q0 18 13.5 32t31.5 14t31.5 -14t13.5 -32q0 -19 -13 -32t-32 -13q-18 0 -31.5 13t-13.5 32z" />
<glyph horiz-adv-x="407" d="M109 636l-35 46l129 80l129 -80l-34 -46l-95 62z" />
<glyph horiz-adv-x="410" d="M103 659l-29 35q37 51 82 51q24 0 55.5 -19.5t42.5 -19.5q28 0 52 32l29 -35q-36 -51 -81 -51q-24 0 -55 19.5t-43 19.5q-28 0 -53 -32z" />
<glyph horiz-adv-x="370" d="M74 671v57h221v-57h-221z" />
<glyph horiz-adv-x="339" d="M57 754h54q0 -26 16.5 -42t41.5 -16t42 16t17 42h54q0 -50 -30.5 -80.5t-82.5 -30.5t-82 30.5t-30 80.5z" />
<glyph horiz-adv-x="200" d="M55 698q0 18 13.5 32t32.5 14q17 0 30.5 -14t13.5 -32t-13.5 -31.5t-30.5 -13.5q-19 0 -32.5 13t-13.5 32z" />
<glyph horiz-adv-x="274" d="M54 700q0 33 24 54.5t58 21.5q36 0 60 -21.5t24 -54.5q0 -32 -24 -54t-60 -22q-33 0 -57.5 22t-24.5 54zM105 698q0 -11 10 -19t22 -8q13 0 22 9t9 20q0 12 -9 20.5t-21 8.5q-14 0 -23.5 -9t-9.5 -22z" />
<glyph horiz-adv-x="245" d="M44 -207l7 51q17 -4 38 -4q53 0 53 66v94h59v-105q0 -57 -31 -82.5t-76 -25.5q-24 0 -50 6z" />
<glyph horiz-adv-x="389" d="M200 657l84 119l53 -40l-96 -111zM55 657l84 119l53 -40l-95 -111z" />
<glyph horiz-adv-x="235" d="M181 -156l6 -50q-24 -8 -52 -8q-36 0 -59 23.5t-23 58.5q0 64 76 132h63q-81 -69 -81 -121q0 -18 10 -29.5t26 -11.5q12 0 34 6z" />
<glyph horiz-adv-x="407" d="M74 716l35 45l94 -61l95 61l34 -45l-129 -80z" />
<glyph horiz-adv-x="225" d="M68 -213l22 150h69l-35 -150h-56z" />
<glyph horiz-adv-x="562" d="M204 637l-21 47l169 77l27 -59zM44 0l130 483q12 42 39.5 67t67.5 25q39 0 66.5 -25t39.5 -67l131 -483h-69l-43 163h-250l-43 -163h-69zM170 220h222l-67 249q-11 43 -44 43q-32 0 -44 -43z" />
<glyph horiz-adv-x="562" d="M183 702l27 59l169 -77l-21 -47zM44 0l130 483q12 42 39.5 67t67.5 25q39 0 66.5 -25t39.5 -67l131 -483h-69l-43 163h-250l-43 -163h-69zM170 220h222l-67 249q-11 43 -44 43q-32 0 -44 -43z" />
<glyph horiz-adv-x="562" d="M186 636l-34 46l129 80l129 -80l-34 -46l-95 62zM44 0l130 483q12 42 39.5 67t67.5 25q39 0 66.5 -25t39.5 -67l131 -483h-69l-43 163h-250l-43 -163h-69zM170 220h222l-67 249q-11 43 -44 43q-32 0 -44 -43z" />
<glyph horiz-adv-x="562" d="M319 698q0 18 13.5 32t32.5 14q17 0 30.5 -14t13.5 -32t-13.5 -31.5t-30.5 -13.5q-19 0 -32.5 13t-13.5 32zM153 698q0 18 13.5 32t31.5 14t31 -14t13 -32q0 -19 -13 -32t-31 -13q-19 0 -32 13t-13 32zM44 0l130 483q12 42 39.5 67t67.5 25q39 0 66.5 -25t39.5 -67 l131 -483h-69l-43 163h-250l-43 -163h-69zM170 220h222l-67 249q-11 43 -44 43q-32 0 -44 -43z" />
<glyph horiz-adv-x="562" d="M180 659l-29 35q36 51 82 51q23 0 54.5 -19.5t42.5 -19.5q28 0 53 32l29 -35q-21 -28 -39.5 -39.5t-42.5 -11.5q-23 0 -54.5 19.5t-42.5 19.5q-28 0 -53 -32zM44 0l130 483q12 42 39.5 67t67.5 25q39 0 66.5 -25t39.5 -67l131 -483h-69l-43 163h-250l-43 -163h-69z M170 220h222l-67 249q-11 43 -44 43q-32 0 -44 -43z" />
<glyph horiz-adv-x="562" d="M199 700q0 33 24 54.5t58 21.5q36 0 59.5 -21.5t23.5 -54.5q0 -32 -24 -54t-59 -22q-34 0 -58 22t-24 54zM250 700q0 -12 9 -20.5t22 -8.5t22 8.5t9 19.5q0 13 -8.5 21.5t-21.5 8.5t-22.5 -8.5t-9.5 -20.5zM44 0l130 483q12 42 39.5 67t67.5 25q39 0 66.5 -25t39.5 -67 l131 -483h-69l-43 163h-250l-43 -163h-69zM170 220h222l-67 249q-11 43 -44 43q-32 0 -44 -43z" />
<glyph horiz-adv-x="562" d="M171 671v57h221v-57h-221zM44 0l130 483q12 42 39.5 67t67.5 25q39 0 66.5 -25t39.5 -67l131 -483h-69l-43 163h-250l-43 -163h-69zM170 220h222l-67 249q-11 43 -44 43q-32 0 -44 -43z" />
<glyph horiz-adv-x="562" d="M169 754h54q0 -26 16.5 -42t41.5 -16t42 16t17 42h54q0 -50 -30.5 -80.5t-82.5 -30.5t-82 30.5t-30 80.5zM44 0l130 483q12 42 39.5 67t67.5 25q39 0 66.5 -25t39.5 -67l131 -483h-69l-43 163h-250l-43 -163h-69zM170 220h222l-67 249q-11 43 -44 43q-32 0 -44 -43z" />
<glyph horiz-adv-x="562" d="M44 0l130 483q12 42 39.5 67t67.5 25q39 0 66.5 -25t39.5 -67l131 -483q-80 -70 -80 -121q0 -18 9.5 -29.5t25.5 -11.5q12 0 34 6l7 -50q-24 -8 -53 -8q-36 0 -58.5 23.5t-22.5 58.5q0 65 76 132h-7l-43 163h-250l-43 -163h-69zM170 220h222l-67 249q-11 43 -44 43 q-32 0 -44 -43z" />
<glyph horiz-adv-x="785" d="M582 0q-83 0 -125.5 38.5t-42.5 105.5v19h-226l-75 -163h-72l222 477q41 85 125 85h343v-61h-250v-184h224v-58h-224v-109q0 -42 22 -65.5t80 -23.5h152v-48q0 -5 -4.5 -9t-9.5 -4h-139zM322 454l-108 -234h200v281h-25q-44 0 -67 -47z" />
<glyph horiz-adv-x="492" d="M185 637l-21 47l169 77l26 -59zM64 197v168q0 101 54.5 155.5t154.5 54.5q74 0 164 -24l-13 -59q-81 22 -146 22q-81 0 -113 -42.5t-32 -115.5v-149q0 -74 32 -116.5t113 -42.5q60 0 146 21l13 -57q-90 -25 -164 -25q-100 0 -154.5 54.5t-54.5 155.5z" />
<glyph horiz-adv-x="492" d="M168 636l-34 46l129 80l129 -80l-35 -46l-94 62zM64 197v168q0 101 54.5 155.5t154.5 54.5q74 0 164 -24l-13 -59q-81 22 -146 22q-81 0 -113 -42.5t-32 -115.5v-149q0 -74 32 -116.5t113 -42.5q60 0 146 21l13 -57q-90 -25 -164 -25q-100 0 -154.5 54.5t-54.5 155.5z " />
<glyph horiz-adv-x="492" d="M139 716l34 45l95 -61l94 61l35 -45l-129 -80zM64 197v168q0 101 54.5 155.5t154.5 54.5q74 0 164 -24l-13 -59q-81 22 -146 22q-81 0 -113 -42.5t-32 -115.5v-149q0 -74 32 -116.5t113 -42.5q60 0 146 21l13 -57q-90 -25 -164 -25q-100 0 -154.5 54.5t-54.5 155.5z" />
<glyph horiz-adv-x="492" d="M154 -207l7 51q17 -4 38 -4q53 0 53 66v82q-90 5 -139 59t-49 150v168q0 101 54.5 155.5t154.5 54.5q74 0 164 -24l-13 -59q-81 22 -146 22q-81 0 -113 -42.5t-32 -115.5v-149q0 -74 32 -116.5t113 -42.5q60 0 146 21l13 -57q-73 -20 -127 -24v-93q0 -57 -31 -82.5 t-75 -25.5q-26 0 -50 6z" />
<glyph horiz-adv-x="564" d="M143 716l34 45l95 -61l94 61l35 -45l-129 -80zM87 0v562h201q108 0 160 -49t52 -152v-161q0 -102 -52 -151t-160 -49h-201zM155 61h132q80 0 111.5 36.5t31.5 112.5v142q0 76 -31.5 112.5t-111.5 36.5h-132v-440z" />
<glyph horiz-adv-x="564" d="M87 0v256h-55v50h55v256h201q108 0 160 -49t52 -152v-161q0 -102 -52 -151t-160 -49h-201zM155 61h132q80 0 111.5 36.5t31.5 112.5v142q0 76 -31.5 112.5t-111.5 36.5h-132v-195h127v-50h-127v-195z" />
<glyph horiz-adv-x="564" d="M87 0v256h-55v50h55v256h201q108 0 160 -49t52 -152v-161q0 -102 -52 -151t-160 -49h-201zM155 61h132q80 0 111.5 36.5t31.5 112.5v142q0 76 -31.5 112.5t-111.5 36.5h-132v-195h127v-50h-127v-195z" />
<glyph horiz-adv-x="450" d="M161 637l-21 47l169 77l26 -59zM71 142v278q0 66 41.5 104t124.5 38h152v-61h-152q-54 0 -76 -22t-22 -63v-99h225v-58h-225v-114q0 -40 22 -62t76 -22h155v-44q0 -17 -17 -17h-138q-83 0 -124.5 37.5t-41.5 104.5z" />
<glyph horiz-adv-x="450" d="M151 702l26 59l169 -77l-21 -47zM71 142v278q0 66 41.5 104t124.5 38h152v-61h-152q-54 0 -76 -22t-22 -63v-99h225v-58h-225v-114q0 -40 22 -62t76 -22h155v-44q0 -17 -17 -17h-138q-83 0 -124.5 37.5t-41.5 104.5z" />
<glyph horiz-adv-x="450" d="M143 636l-35 46l129 80l129 -80l-34 -46l-95 62zM71 142v278q0 66 41.5 104t124.5 38h152v-61h-152q-54 0 -76 -22t-22 -63v-99h225v-58h-225v-114q0 -40 22 -62t76 -22h155v-44q0 -17 -17 -17h-138q-83 0 -124.5 37.5t-41.5 104.5z" />
<glyph horiz-adv-x="450" d="M280 698q0 18 13.5 32t32.5 14q17 0 30.5 -14t13.5 -32t-13 -31.5t-31 -13.5q-19 0 -32.5 13t-13.5 32zM114 698q0 18 13.5 32t31.5 14t31 -14t13 -32q0 -19 -13 -32t-31 -13q-19 0 -32 13t-13 32zM71 142v278q0 66 41.5 104t124.5 38h152v-61h-152q-54 0 -76 -22 t-22 -63v-99h225v-58h-225v-114q0 -40 22 -62t76 -22h155v-44q0 -17 -17 -17h-138q-83 0 -124.5 37.5t-41.5 104.5z" />
<glyph horiz-adv-x="450" d="M105 716l35 45l94 -61l95 61l34 -45l-129 -80zM71 142v278q0 66 41.5 104t124.5 38h152v-61h-152q-54 0 -76 -22t-22 -63v-99h225v-58h-225v-114q0 -40 22 -62t76 -22h155v-44q0 -17 -17 -17h-138q-83 0 -124.5 37.5t-41.5 104.5z" />
<glyph horiz-adv-x="450" d="M131 671v57h221v-57h-221zM71 142v278q0 66 41.5 104t124.5 38h152v-61h-152q-54 0 -76 -22t-22 -63v-99h225v-58h-225v-114q0 -40 22 -62t76 -22h155v-44q0 -17 -17 -17h-138q-83 0 -124.5 37.5t-41.5 104.5z" />
<glyph horiz-adv-x="450" d="M123 754h54q0 -26 16.5 -42t41.5 -16q26 0 42.5 15.5t16.5 42.5h54q0 -50 -30.5 -80.5t-82.5 -30.5t-82 30.5t-30 80.5zM71 142v278q0 66 41.5 104t124.5 38h152v-61h-152q-54 0 -76 -22t-22 -63v-99h225v-58h-225v-114q0 -40 22 -62t76 -22h155v-44q0 -17 -17 -17h-138 q-83 0 -124.5 37.5t-41.5 104.5z" />
<glyph horiz-adv-x="450" d="M381 -156l6 -50q-24 -8 -52 -8q-36 0 -59 23.5t-23 58.5q0 64 76 132h-92q-83 0 -124.5 37.5t-41.5 104.5v278q0 66 41.5 104t124.5 38h152v-61h-152q-54 0 -76 -22t-22 -63v-99h225v-58h-225v-114q0 -40 22 -62t76 -22h155v-61q-81 -69 -81 -121q0 -18 10 -29.5 t26 -11.5q12 0 34 6z" />
<glyph horiz-adv-x="450" d="M191 698q0 18 13.5 32t32.5 14q17 0 30.5 -14t13.5 -32t-13.5 -31.5t-30.5 -13.5q-19 0 -32.5 13t-13.5 32zM71 142v278q0 66 41.5 104t124.5 38h152v-61h-152q-54 0 -76 -22t-22 -63v-99h225v-58h-225v-114q0 -40 22 -62t76 -22h155v-44q0 -17 -17 -17h-138 q-83 0 -124.5 37.5t-41.5 104.5z" />
<glyph horiz-adv-x="546" d="M170 636l-34 46l129 80l129 -80l-34 -46l-95 62zM64 197v168q0 101 54.5 155.5t154.5 54.5q78 0 164 -24l-13 -59q-83 22 -146 22q-145 0 -145 -158v-150q0 -74 32.5 -116t112.5 -42q53 0 129 20v194l64 6v-248q-121 -33 -198 -33q-100 0 -154.5 54t-54.5 156z" />
<glyph horiz-adv-x="546" d="M150 754h54q0 -26 16.5 -42t41.5 -16t42 16t17 42h54q0 -50 -30.5 -80.5t-82.5 -30.5t-82 30.5t-30 80.5zM64 197v168q0 101 54.5 155.5t154.5 54.5q78 0 164 -24l-13 -59q-83 22 -146 22q-145 0 -145 -158v-150q0 -74 32.5 -116t112.5 -42q53 0 129 20v194l64 6v-248 q-121 -33 -198 -33q-100 0 -154.5 54t-54.5 156z" />
<glyph horiz-adv-x="546" d="M222 698q0 18 13.5 32t32.5 14q17 0 30.5 -14t13.5 -32t-13 -31.5t-31 -13.5q-19 0 -32.5 13t-13.5 32zM64 197v168q0 101 54.5 155.5t154.5 54.5q78 0 164 -24l-13 -59q-83 22 -146 22q-145 0 -145 -158v-150q0 -74 32.5 -116t112.5 -42q53 0 129 20v194l64 6v-248 q-121 -33 -198 -33q-100 0 -154.5 54t-54.5 156z" />
<glyph horiz-adv-x="546" d="M64 197v168q0 101 54.5 155.5t154.5 54.5q78 0 164 -24l-13 -59q-83 22 -146 22q-145 0 -145 -158v-150q0 -74 32.5 -116t112.5 -42q53 0 129 20v194l64 6v-248q-121 -33 -198 -33q-100 0 -154.5 54t-54.5 156zM226 -213l21 150h70l-36 -150h-55z" />
<glyph horiz-adv-x="582" d="M197 636l-35 46l129 80l129 -80l-34 -46l-95 62zM87 0v562h68v-244h272v244h68v-545q0 -17 -18 -17h-50v259h-272v-259h-68z" />
<glyph horiz-adv-x="582" d="M87 0v414h-49v51h49v97h68v-97h272v97h68v-97h49v-51h-49v-397q0 -17 -18 -17h-50v259h-272v-259h-68zM155 318h272v96h-272v-96z" />
<glyph horiz-adv-x="242" d="M45 637l-21 47l169 77l26 -59zM87 0v562h68v-545q0 -17 -18 -17h-50z" />
<glyph horiz-adv-x="242" d="M24 702l26 59l169 -77l-21 -47zM87 0v562h68v-545q0 -17 -18 -17h-50z" />
<glyph horiz-adv-x="242" d="M27 636l-35 46l129 80l129 -80l-34 -46l-95 62zM87 0v562h68v-545q0 -17 -18 -17h-50z" />
<glyph horiz-adv-x="242" d="M160 698q0 18 13.5 32t31.5 14t31.5 -14t13.5 -32q0 -19 -13.5 -32t-31.5 -13q-19 0 -32 13t-13 32zM-7 698q0 18 13.5 32t31.5 14t31.5 -14t13.5 -32q0 -19 -13 -32t-32 -13q-18 0 -31.5 13t-13.5 32zM87 0v562h68v-545q0 -17 -18 -17h-50z" />
<glyph horiz-adv-x="242" d="M20 659l-29 35q37 51 82 51q24 0 55.5 -19.5t42.5 -19.5q28 0 52 32l29 -35q-36 -51 -81 -51q-23 0 -55 19.5t-43 19.5q-28 0 -53 -32zM87 0v562h68v-545q0 -17 -18 -17h-50z" />
<glyph horiz-adv-x="242" d="M11 671v57h221v-57h-221zM87 0v562h68v-545q0 -17 -18 -17h-50z" />
<glyph horiz-adv-x="242" d="M9 754h54q0 -26 16.5 -42t41.5 -16q26 0 42.5 15.5t16.5 42.5h54q0 -50 -30.5 -80.5t-82.5 -30.5t-82 30.5t-30 80.5zM87 0v562h68v-545q0 -17 -18 -17h-50z" />
<glyph horiz-adv-x="242" d="M87 0v562h68v-562q-81 -69 -81 -121q0 -18 10 -29.5t26 -11.5q12 0 34 6l6 -50q-24 -8 -52 -8q-36 0 -59 23.5t-23 58.5q0 64 76 132h-5z" />
<glyph horiz-adv-x="647" d="M268 8l14 57q54 -17 100 -17q65 0 89.5 34.5t24.5 98.5v381h68v-389q0 -84 -44.5 -133.5t-139.5 -49.5q-59 0 -112 18zM87 0v562h68v-545q0 -17 -18 -17h-50z" />
<glyph horiz-adv-x="421" d="M207 636l-34 46l129 80l129 -80l-34 -46l-95 62zM41 6l15 60q48 -17 100 -17q64 0 89 33.5t25 95.5v384h68v-390q0 -84 -44.5 -134t-140.5 -50q-58 0 -112 18z" />
<glyph horiz-adv-x="519" d="M87 0v562h68v-250l96 5l116 245h73l-120 -249q22 -5 38.5 -19t23 -27t13.5 -32l83 -235h-72l-75 217q-15 45 -61 42l-115 -6v-236q0 -17 -18 -17h-50zM205 -213l22 150h70l-36 -150h-56z" />
<glyph horiz-adv-x="476" d="M45 637l-21 47l169 77l26 -59zM87 0v562h68v-501h271v-44q0 -17 -18 -17h-321z" />
<glyph horiz-adv-x="476" d="M87 0v562h68v-501h271v-44q0 -17 -18 -17h-321zM265 410l22 152h70l-36 -152h-56z" />
<glyph horiz-adv-x="476" d="M87 0v562h68v-501h271v-44q0 -17 -18 -17h-321zM202 -213l22 150h69l-35 -150h-56z" />
<glyph horiz-adv-x="476" d="M87 0v562h68v-501h271v-44q0 -17 -18 -17h-321zM269 254q0 19 13 32t31 13t31 -13t13 -32q0 -18 -13 -30.5t-31 -12.5t-31 12.5t-13 30.5z" />
<glyph horiz-adv-x="476" d="M87 0v212l-47 -16l-18 48l65 22v296h68v-272l88 31l17 -48l-105 -37v-175h271v-44q0 -17 -18 -17h-321z" />
<glyph horiz-adv-x="573" d="M210 637l-21 47l169 77l26 -59zM87 0v562h64l271 -444q-4 40 -4 91v353h68v-562h-64l-270 442q3 -59 3 -89v-353h-68z" />
<glyph horiz-adv-x="573" d="M185 659l-29 35q37 51 82 51q24 0 55.5 -19.5t42.5 -19.5q28 0 52 32l29 -35q-36 -51 -81 -51q-24 0 -55 19.5t-43 19.5q-28 0 -53 -32zM87 0v562h64l271 -444q-4 40 -4 91v353h68v-562h-64l-270 442q3 -59 3 -89v-353h-68z" />
<glyph horiz-adv-x="573" d="M157 716l35 45l94 -61l95 61l34 -45l-129 -80zM87 0v562h64l271 -444q-4 40 -4 91v353h68v-562h-64l-270 442q3 -59 3 -89v-353h-68z" />
<glyph horiz-adv-x="573" d="M87 0v562h64l271 -444q-4 40 -4 91v353h68v-562h-64l-270 442q3 -59 3 -89v-353h-68zM232 -213l22 150h70l-36 -150h-56z" />
<glyph horiz-adv-x="573" d="M87 0v562h64l271 -444q-4 40 -4 91v353h68v-606q0 -58 -33 -91t-93 -33q-32 0 -66 9l10 56q27 -7 55 -7q30 0 45 16t15 55v44l-267 437q3 -59 3 -89v-353h-68z" />
<glyph horiz-adv-x="570" d="M208 637l-21 47l169 77l27 -59zM64 220v124q0 104 59 167.5t162 63.5q102 0 161.5 -63.5t59.5 -167.5v-124q0 -107 -59 -170t-162 -63t-162 63t-59 170zM133 335v-107q0 -180 152 -180t152 180v107q0 179 -152 179t-152 -179z" />
<glyph horiz-adv-x="570" d="M187 702l27 59l169 -77l-21 -47zM64 220v124q0 104 59 167.5t162 63.5q102 0 161.5 -63.5t59.5 -167.5v-124q0 -107 -59 -170t-162 -63t-162 63t-59 170zM133 335v-107q0 -180 152 -180t152 180v107q0 179 -152 179t-152 -179z" />
<glyph horiz-adv-x="570" d="M190 636l-34 46l129 80l129 -80l-34 -46l-95 62zM64 220v124q0 104 59 167.5t162 63.5q102 0 161.5 -63.5t59.5 -167.5v-124q0 -107 -59 -170t-162 -63t-162 63t-59 170zM133 335v-107q0 -180 152 -180t152 180v107q0 179 -152 179t-152 -179z" />
<glyph horiz-adv-x="570" d="M323 698q0 18 13.5 32t32.5 14q17 0 30.5 -14t13.5 -32t-13.5 -31.5t-30.5 -13.5q-19 0 -32.5 13t-13.5 32zM157 698q0 18 13.5 32t31.5 14t31 -14t13 -32q0 -19 -13 -32t-31 -13q-19 0 -32 13t-13 32zM64 220v124q0 104 59 167.5t162 63.5q102 0 161.5 -63.5 t59.5 -167.5v-124q0 -107 -59 -170t-162 -63t-162 63t-59 170zM133 335v-107q0 -180 152 -180t152 180v107q0 179 -152 179t-152 -179z" />
<glyph horiz-adv-x="570" d="M184 659l-29 35q36 51 82 51q23 0 54.5 -19.5t42.5 -19.5q28 0 53 32l29 -35q-21 -28 -39.5 -39.5t-42.5 -11.5q-23 0 -54.5 19.5t-42.5 19.5q-28 0 -53 -32zM64 220v124q0 104 59 167.5t162 63.5q102 0 161.5 -63.5t59.5 -167.5v-124q0 -107 -59 -170t-162 -63t-162 63 t-59 170zM133 335v-107q0 -180 152 -180t152 180v107q0 179 -152 179t-152 -179z" />
<glyph horiz-adv-x="570" d="M173 754h54q0 -26 16.5 -42t41.5 -16t42 16t17 42h54q0 -50 -30.5 -80.5t-82.5 -30.5t-82 30.5t-30 80.5zM64 220v124q0 104 59 167.5t162 63.5q102 0 161.5 -63.5t59.5 -167.5v-124q0 -107 -59 -170t-162 -63t-162 63t-59 170zM133 335v-107q0 -180 152 -180t152 180 v107q0 179 -152 179t-152 -179z" />
<glyph horiz-adv-x="570" d="M175 671v57h221v-57h-221zM64 220v124q0 104 59 167.5t162 63.5q102 0 161.5 -63.5t59.5 -167.5v-124q0 -107 -59 -170t-162 -63t-162 63t-59 170zM133 335v-107q0 -180 152 -180t152 180v107q0 179 -152 179t-152 -179z" />
<glyph horiz-adv-x="570" d="M322 657l84 119l53 -40l-96 -111zM177 657l84 119l53 -40l-95 -111zM64 220v124q0 104 59 167.5t162 63.5q102 0 161.5 -63.5t59.5 -167.5v-124q0 -107 -59 -170t-162 -63t-162 63t-59 170zM133 335v-107q0 -180 152 -180t152 180v107q0 179 -152 179t-152 -179z" />
<glyph horiz-adv-x="570" d="M103 -48l38 81q-77 64 -77 187v124q0 104 59.5 167.5t161.5 63.5q52 0 96 -19l34 74l47 -20l-36 -79q80 -64 80 -187v-124q0 -107 -59 -170t-162 -63q-56 0 -99 20l-35 -75zM171 101l184 399q-30 14 -70 14q-151 0 -151 -179v-107q0 -85 37 -127zM437 228v107 q0 85 -42 128l-184 -400q30 -15 74 -15q152 0 152 180z" />
<glyph horiz-adv-x="791" d="M64 220v124q0 104 59 167.5t162 63.5q41 0 82 -13h364v-61h-278q53 -59 53 -151v-33h199v-58h-199v-42q0 -98 -53 -156h281v-44q0 -17 -18 -17h-349q-41 -13 -82 -13q-103 0 -162 63t-59 170zM133 335v-107q0 -180 152 -180t152 180v107q0 179 -152 179t-152 -179z" />
<glyph horiz-adv-x="490" d="M87 0v562h68v-96h92q90 0 142 -50.5t52 -125.5t-51.5 -125t-142.5 -50h-92v-115h-68zM155 175h90q63 0 94 34t31 81q0 49 -30.5 82.5t-94.5 33.5h-90v-231z" />
<glyph horiz-adv-x="503" d="M175 637l-21 47l169 77l26 -59zM87 0v544q103 31 180 31q85 0 134 -52.5t49 -125.5q0 -52 -33 -101t-101 -64l120 -232h-73l-115 224h-93v-224h-68zM155 280h102q57 0 89 33.5t32 82.5q0 50 -27.5 84t-84.5 34q-49 0 -111 -15v-219z" />
<glyph horiz-adv-x="503" d="M122 716l35 45l94 -61l95 61l34 -45l-129 -80zM87 0v544q103 31 180 31q85 0 134 -52.5t49 -125.5q0 -52 -33 -101t-101 -64l120 -232h-73l-115 224h-93v-224h-68zM155 280h102q57 0 89 33.5t32 82.5q0 50 -27.5 84t-84.5 34q-49 0 -111 -15v-219z" />
<glyph horiz-adv-x="503" d="M87 0v544q103 31 180 31q85 0 134 -52.5t49 -125.5q0 -52 -33 -101t-101 -64l120 -232h-73l-115 224h-93v-224h-68zM155 280h102q57 0 89 33.5t32 82.5q0 50 -27.5 84t-84.5 34q-49 0 -111 -15v-219zM197 -213l22 150h70l-36 -150h-56z" />
<glyph horiz-adv-x="445" d="M145 637l-21 47l169 77l27 -59zM48 16l12 60q93 -28 148 -28q58 0 87.5 26.5t29.5 71.5q0 31 -20 54.5t-50 36.5t-64.5 30t-64.5 33.5t-50 48.5t-20 74q0 71 50 111.5t132 40.5q58 0 137 -28l-18 -57q-70 24 -119 24q-54 0 -82.5 -24t-28.5 -67q0 -28 20 -49.5t50 -35 t64.5 -30.5t64.5 -35.5t50 -51t20 -75.5q0 -72 -50.5 -115.5t-137.5 -43.5q-66 0 -160 29z" />
<glyph horiz-adv-x="445" d="M127 636l-34 46l129 80l129 -80l-34 -46l-95 62zM48 16l12 60q93 -28 148 -28q58 0 87.5 26.5t29.5 71.5q0 31 -20 54.5t-50 36.5t-64.5 30t-64.5 33.5t-50 48.5t-20 74q0 71 50 111.5t132 40.5q58 0 137 -28l-18 -57q-70 24 -119 24q-54 0 -82.5 -24t-28.5 -67 q0 -28 20 -49.5t50 -35t64.5 -30.5t64.5 -35.5t50 -51t20 -75.5q0 -72 -50.5 -115.5t-137.5 -43.5q-66 0 -160 29z" />
<glyph horiz-adv-x="445" d="M93 716l34 45l95 -61l95 61l34 -45l-129 -80zM48 16l12 60q93 -28 148 -28q58 0 87.5 26.5t29.5 71.5q0 31 -20 54.5t-50 36.5t-64.5 30t-64.5 33.5t-50 48.5t-20 74q0 71 50 111.5t132 40.5q58 0 137 -28l-18 -57q-70 24 -119 24q-54 0 -82.5 -24t-28.5 -67 q0 -28 20 -49.5t50 -35t64.5 -30.5t64.5 -35.5t50 -51t20 -75.5q0 -72 -50.5 -115.5t-137.5 -43.5q-66 0 -160 29z" />
<glyph horiz-adv-x="445" d="M102 -207l7 51q17 -4 38 -4q53 0 53 66v81q-61 1 -152 29l12 60q93 -28 148 -28q58 0 87.5 26.5t29.5 71.5q0 31 -20 54.5t-50 36.5t-64.5 30t-64.5 33.5t-50 48.5t-20 74q0 71 50 111.5t132 40.5q58 0 137 -28l-18 -57q-70 24 -119 24q-54 0 -82.5 -24t-28.5 -67 q0 -28 20 -49.5t50 -35t64.5 -30.5t64.5 -35.5t50 -51t20 -75.5q0 -61 -36.5 -102t-101.5 -53v-96q0 -57 -31 -82.5t-75 -25.5q-26 0 -50 6z" />
<glyph horiz-adv-x="445" d="M48 16l12 60q93 -28 148 -28q58 0 87.5 26.5t29.5 71.5q0 31 -20 54.5t-50 36.5t-64.5 30t-64.5 33.5t-50 48.5t-20 74q0 71 50 111.5t132 40.5q58 0 137 -28l-18 -57q-70 24 -119 24q-54 0 -82.5 -24t-28.5 -67q0 -28 20 -49.5t50 -35t64.5 -30.5t64.5 -35.5t50 -51 t20 -75.5q0 -72 -50.5 -115.5t-137.5 -43.5q-66 0 -160 29zM168 -213l21 150h70l-36 -150h-55z" />
<glyph horiz-adv-x="875" d="M478 16l12 60q93 -28 148 -28q58 0 87.5 26.5t29.5 71.5q0 37 -27.5 62.5t-67.5 42t-79.5 35t-67 53t-27.5 84.5q0 71 50 111.5t132 40.5q58 0 137 -28l-18 -57q-70 24 -119 24q-54 0 -82.5 -24t-28.5 -67q0 -28 20 -49.5t50 -35t64.5 -30.5t64.5 -35.5t50 -51t20 -75.5 q0 -72 -50.5 -115.5t-137.5 -43.5q-66 0 -160 29zM48 16l12 60q93 -28 148 -28q58 0 87.5 26.5t29.5 71.5q0 31 -20 54.5t-50 36.5t-64.5 30t-64.5 33.5t-50 48.5t-20 74q0 71 50 111.5t132 40.5q58 0 137 -28l-18 -57q-70 24 -119 24q-54 0 -82.5 -24t-28.5 -67 q0 -28 20 -49.5t50 -35t64.5 -30.5t64.5 -35.5t50 -51t20 -75.5q0 -72 -50.5 -115.5t-137.5 -43.5q-66 0 -160 29z" />
<glyph horiz-adv-x="472" d="M104 716l34 45l95 -61l94 61l35 -45l-129 -80zM202 0v501h-157v61h382v-61h-157v-501h-68z" />
<glyph horiz-adv-x="472" d="M202 0v501h-157v61h382v-61h-157v-501h-68zM180 -213l21 150h70l-36 -150h-55z" />
<glyph horiz-adv-x="472" d="M202 0v255h-89v50h89v196h-157v61h382v-61h-157v-196h89v-50h-89v-255h-68z" />
<glyph horiz-adv-x="570" d="M208 637l-21 47l169 77l26 -59zM75 204v358h68v-372q0 -59 36 -100t106 -41t106 41.5t36 99.5v372h68v-358q0 -103 -54.5 -159.5t-155.5 -56.5q-100 0 -155 56.5t-55 159.5z" />
<glyph horiz-adv-x="570" d="M189 702l26 59l169 -77l-21 -47zM75 204v358h68v-372q0 -59 36 -100t106 -41t106 41.5t36 99.5v372h68v-358q0 -103 -54.5 -159.5t-155.5 -56.5q-100 0 -155 56.5t-55 159.5z" />
<glyph horiz-adv-x="570" d="M190 636l-34 46l129 80l129 -80l-35 -46l-94 62zM75 204v358h68v-372q0 -59 36 -100t106 -41t106 41.5t36 99.5v372h68v-358q0 -103 -54.5 -159.5t-155.5 -56.5q-100 0 -155 56.5t-55 159.5z" />
<glyph horiz-adv-x="570" d="M323 698q0 18 13.5 32t32.5 14q17 0 30.5 -14t13.5 -32t-13.5 -31.5t-30.5 -13.5q-19 0 -32.5 13t-13.5 32zM156 698q0 18 13.5 32t31.5 14t31.5 -14t13.5 -32q0 -19 -13 -32t-32 -13q-18 0 -31.5 13t-13.5 32zM75 204v358h68v-372q0 -59 36 -100t106 -41t106 41.5 t36 99.5v372h68v-358q0 -103 -54.5 -159.5t-155.5 -56.5q-100 0 -155 56.5t-55 159.5z" />
<glyph horiz-adv-x="570" d="M183 659l-28 35q36 51 81 51q24 0 55.5 -19.5t42.5 -19.5q28 0 53 32l29 -35q-38 -51 -82 -51q-23 0 -54.5 19.5t-43.5 19.5q-28 0 -53 -32zM75 204v358h68v-372q0 -59 36 -100t106 -41t106 41.5t36 99.5v372h68v-358q0 -103 -54.5 -159.5t-155.5 -56.5q-100 0 -155 56.5 t-55 159.5z" />
<glyph horiz-adv-x="570" d="M202 700q0 33 24 54.5t58 21.5q36 0 60 -21.5t24 -54.5q0 -32 -24 -54t-60 -22q-33 0 -57.5 22t-24.5 54zM253 698q0 -11 10 -19t22 -8q13 0 22 9t9 20q0 12 -9 20.5t-21 8.5q-14 0 -23.5 -9t-9.5 -22zM75 204v358h68v-372q0 -59 36 -100t106 -41t106 41.5t36 99.5v372 h68v-358q0 -103 -54.5 -159.5t-155.5 -56.5q-100 0 -155 56.5t-55 159.5z" />
<glyph horiz-adv-x="570" d="M173 754h54q0 -26 16.5 -42t41.5 -16t41.5 16t16.5 42h54q0 -50 -30 -80.5t-82 -30.5t-82 30.5t-30 80.5zM75 204v358h68v-372q0 -59 36 -100t106 -41t106 41.5t36 99.5v372h68v-358q0 -103 -54.5 -159.5t-155.5 -56.5q-100 0 -155 56.5t-55 159.5z" />
<glyph horiz-adv-x="570" d="M175 671v57h221v-57h-221zM75 204v358h68v-372q0 -59 36 -100t106 -41t106 41.5t36 99.5v372h68v-358q0 -103 -54.5 -159.5t-155.5 -56.5q-100 0 -155 56.5t-55 159.5z" />
<glyph horiz-adv-x="570" d="M305 657l84 119l53 -40l-95 -111zM161 657l84 119l53 -40l-96 -111zM75 204v358h68v-372q0 -59 36 -100t106 -41t106 41.5t36 99.5v372h68v-358q0 -103 -54.5 -159.5t-155.5 -56.5q-100 0 -155 56.5t-55 159.5z" />
<glyph horiz-adv-x="570" d="M319 -156l6 -50q-23 -8 -52 -8q-36 0 -58.5 23.5t-22.5 58.5q0 62 64 122q-87 7 -134 63t-47 151v358h68v-372q0 -59 36 -100t106 -41t106 41.5t36 99.5v372h68v-358q0 -94 -45.5 -149.5t-130.5 -64.5q-70 -64 -70 -111q0 -18 10 -29.5t26 -11.5q12 0 34 6z" />
<glyph horiz-adv-x="761" d="M304 637l-21 47l169 77l26 -59zM169 0l-121 562h69l74 -351q9 -45 19 -127q8 53 25 127l54 223q22 89 92 89q69 0 91 -89l54 -223q18 -75 24 -125q12 86 20 125l74 351h69l-121 -562h-78l-99 421q-6 23 -13.5 32t-20.5 9q-14 0 -21.5 -8.5t-12.5 -32.5l-100 -421h-78z " />
<glyph horiz-adv-x="761" d="M283 702l27 59l168 -77l-20 -47zM169 0l-121 562h69l74 -351q9 -45 19 -127q8 53 25 127l54 223q22 89 92 89q69 0 91 -89l54 -223q18 -75 24 -125q12 86 20 125l74 351h69l-121 -562h-78l-99 421q-6 23 -13.5 32t-20.5 9q-14 0 -21.5 -8.5t-12.5 -32.5l-100 -421h-78z " />
<glyph horiz-adv-x="761" d="M286 636l-34 46l129 80l129 -80l-35 -46l-94 62zM169 0l-121 562h69l74 -351q9 -45 19 -127q8 53 25 127l54 223q22 89 92 89q69 0 91 -89l54 -223q18 -75 24 -125q12 86 20 125l74 351h69l-121 -562h-78l-99 421q-6 23 -13.5 32t-20.5 9q-14 0 -21.5 -8.5t-12.5 -32.5 l-100 -421h-78z" />
<glyph horiz-adv-x="761" d="M419 698q0 18 13.5 32t32.5 14q17 0 30.5 -14t13.5 -32t-13.5 -31.5t-30.5 -13.5q-19 0 -32.5 13t-13.5 32zM252 698q0 18 13.5 32t31.5 14t31.5 -14t13.5 -32q0 -19 -13 -32t-32 -13q-18 0 -31.5 13t-13.5 32zM169 0l-121 562h69l74 -351q9 -45 19 -127q8 53 25 127 l54 223q22 89 92 89q69 0 91 -89l54 -223q18 -75 24 -125q12 86 20 125l74 351h69l-121 -562h-78l-99 421q-6 23 -13.5 32t-20.5 9q-14 0 -21.5 -8.5t-12.5 -32.5l-100 -421h-78z" />
<glyph horiz-adv-x="499" d="M172 637l-20 47l168 77l27 -59zM216 0v232q-63 9 -93.5 49.5t-43.5 106.5l-35 174h66l33 -161q6 -27 11 -42.5t16.5 -34.5t31 -27.5t48.5 -8.5q28 0 47.5 8.5t31 27t16.5 34.5t11 43l32 161h67l-35 -174q-13 -65 -44 -106t-93 -50v-232h-67z" />
<glyph horiz-adv-x="499" d="M152 702l26 59l169 -77l-21 -47zM216 0v232q-63 9 -93.5 49.5t-43.5 106.5l-35 174h66l33 -161q6 -27 11 -42.5t16.5 -34.5t31 -27.5t48.5 -8.5q28 0 47.5 8.5t31 27t16.5 34.5t11 43l32 161h67l-35 -174q-13 -65 -44 -106t-93 -50v-232h-67z" />
<glyph horiz-adv-x="499" d="M154 636l-34 46l129 80l129 -80l-34 -46l-95 62zM216 0v232q-63 9 -93.5 49.5t-43.5 106.5l-35 174h66l33 -161q6 -27 11 -42.5t16.5 -34.5t31 -27.5t48.5 -8.5q28 0 47.5 8.5t31 27t16.5 34.5t11 43l32 161h67l-35 -174q-13 -65 -44 -106t-93 -50v-232h-67z" />
<glyph horiz-adv-x="499" d="M287 698q0 18 13.5 32t32.5 14q18 0 31 -14t13 -32q0 -19 -13 -32t-31 -13q-19 0 -32.5 13t-13.5 32zM121 698q0 18 13.5 32t31.5 14t31.5 -14t13.5 -32q0 -19 -13.5 -32t-31.5 -13q-19 0 -32 13t-13 32zM216 0v232q-63 9 -93.5 49.5t-43.5 106.5l-35 174h66l33 -161 q6 -27 11 -42.5t16.5 -34.5t31 -27.5t48.5 -8.5q28 0 47.5 8.5t31 27t16.5 34.5t11 43l32 161h67l-35 -174q-13 -65 -44 -106t-93 -50v-232h-67z" />
<glyph horiz-adv-x="480" d="M163 637l-21 47l169 77l26 -59zM53 0v54l283 447h-274v61h355v-54l-284 -447h294v-61h-374z" />
<glyph horiz-adv-x="480" d="M110 716l35 45l94 -61l95 61l34 -45l-129 -80zM53 0v54l283 447h-274v61h355v-54l-284 -447h294v-61h-374z" />
<glyph horiz-adv-x="480" d="M194 698q0 18 13.5 32t32.5 14q18 0 31 -14t13 -32q0 -19 -13 -32t-31 -13q-19 0 -32.5 13t-13.5 32zM53 0v54l283 447h-274v61h355v-54l-284 -447h294v-61h-374z" />
<glyph horiz-adv-x="492" d="M214 698q0 18 13.5 32t32.5 14q17 0 30.5 -14t13.5 -32t-13 -31.5t-31 -13.5q-19 0 -32.5 13t-13.5 32zM64 197v168q0 101 54.5 155.5t154.5 54.5q74 0 164 -24l-13 -59q-81 22 -146 22q-81 0 -113 -42.5t-32 -115.5v-149q0 -74 32 -116.5t113 -42.5q60 0 146 21l13 -57 q-90 -25 -164 -25q-100 0 -154.5 54.5t-54.5 155.5z" />
</font>
</defs>
</svg>
