<?xml version="1.0" standalone="no"?>
<!DOCTYPE svg PUBLIC "-//W3C//DTD SVG 1.1//EN" "http://www.w3.org/Graphics/SVG/1.1/DTD/svg11.dtd" >
<svg xmlns="http://www.w3.org/2000/svg">
<metadata></metadata>
<defs>
<font id="alwyn_newmedium" horiz-adv-x="586" >
<font-face units-per-em="1000" ascent="760" descent="-240" />
<missing-glyph horiz-adv-x="230" />
<glyph unicode="ff" horiz-adv-x="670" d="M95 0v433l-83 10v75h83v59q0 74 47 118t130 44q44 0 97 -15l-18 -94q-40 10 -76 10q-64 0 -64 -68v-54h223v59q0 74 47 118t129 44q44 0 97 -15l-18 -94q-40 10 -75 10q-64 0 -64 -68v-54h105v-85h-105v-409q0 -24 -24 -24h-92v433h-223v-409q0 -24 -24 -24h-92z" />
<glyph unicode="fi" d="M95 0v433l-83 10v75h83v45q0 83 53 129.5t153 46.5q65 0 143 -21l-20 -95q-60 17 -120 17q-49 0 -71 -19.5t-22 -63.5v-39h106v-85h-106v-409q0 -24 -24 -24h-92zM401 0v518h116v-494q0 -24 -24 -24h-92z" />
<glyph unicode="fl" horiz-adv-x="589" d="M95 0v433l-83 10v75h83v44q0 82 52 129.5t145 47.5q50 0 109 -13h116v-602q0 -23 6.5 -31.5t24.5 -10.5l-23 -92q-60 6 -92 32.5t-32 88.5v517q-60 12 -102 12q-47 0 -67.5 -19.5t-20.5 -64.5v-38h106v-85h-106v-409q0 -24 -24 -24h-92z" />
<glyph unicode="ffi" horiz-adv-x="925" d="M95 0v433l-83 10v75h83v59q0 74 47 118t130 44q44 0 97 -15l-18 -94q-40 10 -76 10q-64 0 -64 -68v-54h223v45q0 83 52.5 129.5t152.5 46.5q65 0 144 -21l-20 -95q-62 17 -120 17q-49 0 -71 -19.5t-22 -63.5v-39h105v-85h-105v-409q0 -24 -24 -24h-92v433h-223v-409 q0 -24 -24 -24h-92zM739 0v518h116v-494q0 -24 -24 -24h-92z" />
<glyph unicode="ffl" horiz-adv-x="928" d="M95 0v433l-83 10v75h83v59q0 74 47 118t130 44q44 0 97 -15l-18 -94q-40 10 -76 10q-64 0 -64 -68v-54h223v44q0 82 51.5 129.5t144.5 47.5q50 0 109 -13h116v-602q0 -23 7 -31.5t25 -10.5l-24 -92q-59 6 -91.5 33t-32.5 88v517q-58 12 -101 12q-48 0 -68 -19.5 t-20 -64.5v-38h105v-85h-105v-409q0 -24 -24 -24h-92v433h-223v-409q0 -24 -24 -24h-92z" />
<glyph unicode="ft" horiz-adv-x="712" d="M95 0v433l-83 10v75h83v59q0 74 47 118t130 44q44 0 97 -15l-18 -94q-40 10 -76 10q-64 0 -64 -68v-54h215v162h116v-162h120v-85h-120v-275q0 -72 64 -72q36 0 75 11l18 -95q-53 -15 -99 -15q-83 0 -128.5 42t-45.5 116v288h-215v-409q0 -24 -24 -24h-92z" />
<glyph unicode="fb" horiz-adv-x="882" d="M95 0v433l-83 10v75h83v44q0 82 52 129.5t145 47.5q50 0 109 -13h116v-244q61 49 124 49q88 0 138.5 -56t50.5 -157v-118q0 -100 -50.5 -156.5t-138.5 -56.5q-70 0 -136 59l-6 -46h-98v628q-60 12 -102 12q-47 0 -67.5 -19.5t-20.5 -64.5v-38h106v-85h-106v-409 q0 -24 -24 -24h-92zM517 381v-245q57 -50 106 -50q47 0 68 31t21 99v86q0 68 -21 99t-68 31q-44 0 -106 -51z" />
<glyph unicode="fh" horiz-adv-x="881" d="M95 0v433l-83 10v75h83v44q0 82 52 129.5t145 47.5q50 0 109 -13h116v-247q65 52 124 52q84 0 129.5 -48t45.5 -135v-324q0 -24 -24 -24h-92v331q0 56 -16.5 78.5t-60.5 22.5q-18 0 -37.5 -8t-33 -17t-35.5 -26v-381h-116v628q-60 12 -102 12q-47 0 -67.5 -19.5 t-20.5 -64.5v-38h106v-85h-106v-409q0 -24 -24 -24h-92z" />
<glyph unicode="fk" horiz-adv-x="833" d="M95 0v433l-83 10v75h83v44q0 82 52 129.5t145 47.5q50 0 109 -13h116v-400l67 19q22 6 30 26l61 147h122l-81 -187q-18 -44 -53 -64l153 -267h-128l-126 232l-45 -12v-196q0 -24 -24 -24h-92v628q-60 12 -102 12q-47 0 -67.5 -19.5t-20.5 -64.5v-38h106v-85h-106v-409 q0 -24 -24 -24h-92z" />
<glyph unicode="fj" d="M95 0v433l-83 10v75h83v45q0 83 53 129.5t153 46.5q65 0 143 -21l-20 -95q-60 17 -120 17q-49 0 -71 -19.5t-22 -63.5v-39h106v-85h-106v-409q0 -24 -24 -24h-92zM258 -199l19 94q40 -10 69 -10t42 15.5t13 52.5v565h116v-570q0 -75 -43 -118.5t-125 -43.5q-38 0 -91 15z " />
<glyph unicode=" "  horiz-adv-x="230" />
<glyph unicode="&#x09;" horiz-adv-x="230" />
<glyph unicode="&#xa0;" horiz-adv-x="230" />
<glyph unicode="!" horiz-adv-x="370" d="M135 223l-17 475h135l-16 -460zM185 -12q-29 0 -49.5 21t-20.5 49q0 30 20.5 50.5t49.5 20.5q30 0 50.5 -20.5t20.5 -50.5q0 -29 -20.5 -49.5t-50.5 -20.5z" />
<glyph unicode="&#x22;" horiz-adv-x="369" d="M223 458l-8 240h111l-8 -240h-95zM51 458l-8 240h111l-8 -240h-95z" />
<glyph unicode="#" horiz-adv-x="529" d="M122 157v126h-65v101h65v87h-65v101h65v126h101v-126h82v126h101v-126h66v-101h-66v-87h66v-101h-66v-126h-101v126h-82v-126h-101zM223 384h82v87h-82v-87z" />
<glyph unicode="$" horiz-adv-x="529" d="M40 26l21 98q110 -36 180 -36q57 0 85 26.5t28 72.5q0 30 -16.5 51.5t-43.5 34.5t-59 25t-64 27t-59 35.5t-43.5 56t-16.5 82.5q0 75 46.5 123.5t125.5 62.5v117h90v-113q57 -4 143 -35l-30 -94q-84 30 -143 30q-52 0 -79.5 -24t-27.5 -67q0 -26 16.5 -45.5t43.5 -32 t59 -24.5t64 -28.5t59 -38t43.5 -58.5t16.5 -85q0 -75 -46 -127t-126 -67v-117h-90v112q-66 3 -177 38z" />
<glyph unicode="%" horiz-adv-x="877" d="M66 479v58q0 64 42 111t112 47t112.5 -46.5t42.5 -111.5v-58q0 -65 -42 -111t-111 -46q-71 0 -113.5 46t-42.5 111zM262 0l272 688h84l-273 -688h-83zM150 531v-46q0 -39 18.5 -63.5t53.5 -24.5q34 0 52 24.5t18 63.5v46q0 40 -18.5 64.5t-53.5 24.5q-34 0 -52 -24.5 t-18 -64.5zM501 148v58q0 64 42 110.5t112 46.5t112.5 -46.5t42.5 -110.5v-58q0 -65 -42 -111t-111 -46q-71 0 -113.5 46t-42.5 111zM585 200v-46q0 -39 18.5 -63.5t53.5 -24.5q34 0 52 24.5t18 63.5v46q0 39 -18.5 63.5t-53.5 24.5q-34 0 -52 -24.5t-18 -63.5z" />
<glyph unicode="&#x26;" horiz-adv-x="602" d="M58 203q0 124 114 172q-88 51 -88 154q0 92 68.5 150t173.5 58q67 0 140 -19l-21 -99q-64 16 -118 16q-56 0 -87.5 -27.5t-31.5 -78.5q0 -54 31.5 -83.5t87.5 -29.5h250v-90h-54v-294q-108 -45 -208 -45q-119 0 -188 59.5t-69 156.5zM182 205q0 -116 135 -116 q61 0 107 17v220h-106q-66 0 -101 -31.5t-35 -89.5z" />
<glyph unicode="'" horiz-adv-x="198" d="M51 458l-8 240h111l-8 -240h-95z" />
<glyph unicode="(" horiz-adv-x="314" d="M74 -17v601q0 114 55.5 163t156.5 49v-100q-53 0 -74.5 -24t-21.5 -88v-601q0 -64 21.5 -88.5t74.5 -24.5v-99q-101 0 -156.5 49t-55.5 163z" />
<glyph unicode=")" horiz-adv-x="314" d="M125 -17v600q0 65 -22 89.5t-75 24.5v99q101 0 156.5 -49.5t55.5 -163.5v-600q0 -114 -55.5 -163t-156.5 -49v99q53 0 75 24.5t22 88.5z" />
<glyph unicode="*" horiz-adv-x="490" d="M194 294l7 125l-105 -67l-51 88l111 56l-111 57l51 88l104 -68l-6 125h102l-7 -125l105 68l51 -88l-111 -57l111 -56l-51 -88l-105 67l7 -125h-102z" />
<glyph unicode="+" horiz-adv-x="636" d="M83 262v103h184v183h102v-183h183v-103h-183v-184h-102v184h-184z" />
<glyph unicode="," horiz-adv-x="260" d="M33 -146l62 271h114l-88 -271h-88z" />
<glyph unicode="-" horiz-adv-x="491" d="M77 230v94h337v-94h-337z" />
<glyph unicode="." horiz-adv-x="240" d="M49 59q0 29 20.5 49.5t49.5 20.5q30 0 50.5 -20.5t20.5 -49.5t-20.5 -49.5t-50.5 -20.5q-29 0 -49.5 20.5t-20.5 49.5z" />
<glyph unicode="/" horiz-adv-x="454" d="M62 -37l221 778h108l-221 -778h-108z" />
<glyph unicode="0" horiz-adv-x="593" d="M54 270v159q0 133 63.5 207.5t178.5 74.5t179 -76t64 -206v-159q0 -133 -63.5 -208t-179.5 -75q-114 0 -178 76.5t-64 206.5zM296 86q125 0 125 199v129q0 198 -125 198q-124 0 -124 -198v-129q0 -199 124 -199z" />
<glyph unicode="1" horiz-adv-x="483" d="M68 0v97h145v483l-138 -57l-42 91l208 84h88v-601h121v-97h-382z" />
<glyph unicode="2" horiz-adv-x="525" d="M45 0v80q0 63 22.5 114.5t57 84t74 63t74 53.5t57 54t22.5 65q0 41 -25 69.5t-82 28.5q-61 0 -150 -39l-36 90q101 48 187 48q102 0 163 -55.5t61 -141.5q0 -49 -23 -91.5t-57 -70.5t-74 -58.5t-74 -56t-57 -62t-23 -78.5h311v-73q0 -24 -24 -24h-404z" />
<glyph unicode="3" horiz-adv-x="470" d="M19 17l27 94q63 -25 131 -25q64 0 96 32t32 82q0 118 -138 118h-51v95h45q65 0 95 29.5t30 74.5q0 40 -27.5 67.5t-79.5 27.5q-58 0 -121 -26l-33 89q81 36 154 36q98 0 161.5 -50t63.5 -140q0 -41 -25.5 -83t-74.5 -69q59 -25 89 -70t30 -99q0 -92 -64 -152.5 t-182 -60.5q-81 0 -158 30z" />
<glyph unicode="4" horiz-adv-x="566" d="M154 146q-68 0 -95 32t-12 101l91 419h109l-87 -419q-8 -36 23 -36h109v251l113 19v-270h125v-97h-125v-146h-113v146h-138z" />
<glyph unicode="5" horiz-adv-x="525" d="M35 27l24 96q105 -37 163 -37q68 0 104.5 41t36.5 100q0 56 -30.5 93t-93.5 37q-67 0 -137 -31l-42 67v305h389l-7 -98h-275v-156q39 9 78 9q111 0 173.5 -61.5t62.5 -164.5q0 -109 -74 -174.5t-187 -65.5q-81 0 -185 40z" />
<glyph unicode="6" horiz-adv-x="560" d="M52 223v252q0 102 60.5 169t180.5 67q84 0 171 -32l-28 -94q-78 27 -140 27q-71 0 -99.5 -40t-28.5 -97v-46q61 34 120 34q100 0 163 -63t63 -177q0 -110 -65.5 -173t-165.5 -63q-99 0 -165 63t-66 173zM168 221q0 -60 28.5 -97.5t86.5 -37.5t85.5 38t27.5 98 q0 64 -29 104.5t-87 40.5q-54 0 -112 -32v-114z" />
<glyph unicode="7" horiz-adv-x="504" d="M158 0q1 93 20.5 179.5t41.5 139t63 140.5t62 140h-321v99h450v-77q-23 -66 -62.5 -151.5t-65 -141.5t-46 -143.5t-20.5 -184.5h-122z" />
<glyph unicode="8" horiz-adv-x="557" d="M44 180q0 65 31.5 106.5t86.5 71.5q-100 59 -100 165q0 83 63.5 135.5t153.5 52.5q88 0 152 -52.5t64 -135.5q0 -55 -26 -91t-73 -63q55 -32 86.5 -75.5t31.5 -113.5q0 -85 -66.5 -139t-168.5 -54q-101 0 -168 54t-67 139zM288 418q43 21 66 45t23 60q0 37 -27 63t-71 26 q-45 0 -72 -26.5t-27 -62.5q0 -37 27 -59.5t81 -45.5zM162 180q0 -39 30.5 -66.5t86.5 -27.5q57 0 87 27.5t30 66.5q0 47 -32.5 74.5t-94.5 53.5q-52 -25 -79.5 -53.5t-27.5 -74.5z" />
<glyph unicode="9" horiz-adv-x="565" d="M100 23l28 94q89 -31 140 -31q71 0 100 40t29 97v48q-60 -33 -121 -33q-100 0 -163.5 61.5t-63.5 175.5q0 110 66 173t166 63q99 0 165.5 -63.5t66.5 -172.5v-252q0 -102 -61 -169t-181 -67q-78 0 -171 36zM284 333q53 0 113 33v110q0 60 -29 98t-87 38t-86 -38.5 t-28 -98.5q0 -63 29 -102.5t88 -39.5z" />
<glyph unicode=":" horiz-adv-x="240" d="M119 364q-29 0 -49.5 20.5t-20.5 49.5t20.5 49.5t49.5 20.5q30 0 50.5 -20.5t20.5 -49.5t-20.5 -49.5t-50.5 -20.5zM49 59q0 29 20.5 49.5t49.5 20.5q30 0 50.5 -20.5t20.5 -49.5t-20.5 -49.5t-50.5 -20.5q-29 0 -49.5 20.5t-20.5 49.5z" />
<glyph unicode=";" horiz-adv-x="274" d="M156 364q-29 0 -49.5 20.5t-20.5 49.5t20.5 49t49.5 20t49.5 -20.5t20.5 -48.5q0 -29 -20.5 -49.5t-49.5 -20.5zM30 -146l63 271h113l-88 -271h-88z" />
<glyph unicode="&#x3c;" horiz-adv-x="582" d="M63 237v75l386 234l50 -100l-289 -171l289 -172l-50 -100z" />
<glyph unicode="=" horiz-adv-x="637" d="M83 371v102h470v-102h-470zM83 153v102h470v-102h-470z" />
<glyph unicode="&#x3e;" horiz-adv-x="583" d="M83 104l288 171l-288 170l51 102l385 -234v-76l-385 -234z" />
<glyph unicode="?" horiz-adv-x="472" d="M164 209q0 68 14 118.5t33.5 78t39 48.5t33.5 42.5t14 47.5q0 28 -18.5 47t-51.5 19q-48 0 -123 -42l-45 89q84 54 168 54q83 0 133.5 -47.5t50.5 -116.5q0 -34 -14 -62t-34 -50.5t-40 -48.5t-34 -68.5t-14 -97.5zM150 61q0 29 20.5 49.5t49.5 20.5t50 -20.5t21 -49.5 t-21 -49.5t-50 -20.5t-49.5 20.5t-20.5 49.5z" />
<glyph unicode="@" horiz-adv-x="961" d="M59 243q0 193 119.5 307t306.5 114q185 0 302 -117t117 -307q0 -59 -17 -111t-61.5 -90.5t-109.5 -38.5q-96 0 -135 58q-58 -58 -132 -58q-70 0 -111 40t-41 107q0 142 206 142h52v22q0 47 -18.5 69t-63.5 22q-55 0 -124 -20l-23 81q81 26 147 26q90 0 137 -46.5 t47 -124.5v-151q0 -39 15.5 -61t43.5 -22q46 0 73 45t27 111q0 154 -92.5 247.5t-238.5 93.5q-150 0 -244 -90.5t-94 -247.5q0 -158 91.5 -243.5t229.5 -85.5q71 0 148 22l18 -79q-73 -26 -166 -26q-81 0 -153.5 26t-130 76t-91.5 130t-34 180zM400 148q0 -60 65 -60 q46 0 92 37q-2 13 -2 39v49h-47q-51 0 -79.5 -14t-28.5 -51z" />
<glyph unicode="A" horiz-adv-x="661" d="M35 0l154 592q13 53 49.5 86t91.5 33q54 0 90 -33.5t50 -85.5l156 -592h-120l-48 188h-256l-47 -188h-120zM226 287h208l-73 290q-9 31 -31 31q-23 0 -31 -31z" />
<glyph unicode="B" horiz-adv-x="594" d="M83 0v665q122 46 207 46q103 0 164.5 -57t61.5 -141q0 -95 -78 -141q55 -22 84.5 -65t29.5 -100q0 -88 -65.5 -147.5t-179.5 -59.5h-224zM202 410h86q52 0 79 29t27 72q0 44 -26.5 71.5t-78.5 27.5q-43 0 -87 -15v-185zM202 101h101q60 0 92 30t32 76q0 49 -30 79t-94 30 h-101v-215z" />
<glyph unicode="C" horiz-adv-x="564" d="M58 245v207q0 124 68 191.5t188 67.5q98 0 198 -30l-21 -97q-88 26 -163 26q-76 0 -112 -41t-36 -128v-185q0 -86 36 -127t112 -41q71 0 163 25l21 -96q-100 -30 -198 -30q-120 0 -188 67t-68 191z" />
<glyph unicode="D" horiz-adv-x="654" d="M83 0v698h253q133 0 196.5 -62.5t63.5 -193.5v-187q0 -130 -63.5 -192.5t-196.5 -62.5h-253zM202 101h131q85 0 113 40t28 125v165q0 85 -28 125.5t-113 40.5h-131v-496z" />
<glyph unicode="E" horiz-adv-x="520" d="M63 185v327q0 86 54 136t158 50h189v-101h-187q-53 0 -74 -23t-21 -70v-96h252v-100h-252v-115q0 -48 21 -70t74 -22h191v-77q0 -24 -24 -24h-169q-103 0 -157.5 49.5t-54.5 135.5z" />
<glyph unicode="F" horiz-adv-x="525" d="M83 0v698h400v-101h-281v-201h251v-100h-251v-296h-119z" />
<glyph unicode="G" horiz-adv-x="632" d="M58 245v207q0 124 68 191.5t188 67.5q98 0 198 -30l-21 -96q-92 25 -163 25q-76 0 -112 -41t-36 -128v-185q0 -86 36 -127t112 -41q49 0 121 17v237l115 9v-322q-150 -42 -250 -42q-120 0 -188 67t-68 191z" />
<glyph unicode="H" horiz-adv-x="674" d="M83 0v698h119v-290h269v290h120v-674q0 -24 -24 -24h-96v309h-269v-309h-119z" />
<glyph unicode="I" horiz-adv-x="285" d="M83 0v698h119v-674q0 -24 -24 -24h-95z" />
<glyph unicode="J" horiz-adv-x="485" d="M28 14l25 96q65 -22 125 -22q65 0 87.5 36.5t22.5 107.5v466h119v-476q0 -107 -54.5 -171t-173.5 -64q-71 0 -151 27z" />
<glyph unicode="K" horiz-adv-x="604" d="M83 0v698h119v-293l72 5l131 288h132l-145 -299q55 -22 81 -95l103 -304h-125l-93 273q-14 42 -54 39l-102 -7v-281q0 -24 -24 -24h-95z" />
<glyph unicode="L" horiz-adv-x="547" d="M83 0v698h119v-597h307v-77q0 -24 -24 -24h-402z" />
<glyph unicode="M" horiz-adv-x="873" d="M46 0l88 698h131l152 -522q8 -26 20 -26t20 26l151 522h131l88 -698h-119l-44 371q-5 45 -9 122q-17 -83 -29 -125l-58 -206q-34 -117 -131 -117q-99 0 -131 117l-59 211q-19 63 -30 126q-8 -119 -9 -130l-43 -369h-119z" />
<glyph unicode="N" horiz-adv-x="662" d="M83 0v698h109l277 -482q-7 66 -7 132v350h117v-698h-109l-276 481q7 -84 7 -131v-350h-118z" />
<glyph unicode="O" horiz-adv-x="664" d="M58 280v138q0 131 73.5 212t200.5 81t200.5 -81t73.5 -212v-138q0 -131 -73 -212t-201 -81t-201 81t-73 212zM180 291q0 -203 152 -203t152 203v116q0 203 -152 203t-152 -203v-116z" />
<glyph unicode="P" horiz-adv-x="564" d="M83 0v698h198q114 0 179.5 -65t65.5 -160q0 -96 -65.5 -160t-179.5 -64h-79v-249h-119zM202 349h75q61 0 92.5 36t31.5 88q0 53 -31.5 88.5t-92.5 35.5h-75v-248z" />
<glyph unicode="Q" horiz-adv-x="664" d="M58 280v138q0 131 73.5 212t200.5 81t200.5 -81t73.5 -212v-138q0 -93 -37.5 -162t-107.5 -103l60 -165l-99 -34l-65 172q-8 -1 -25 -1q-128 0 -201 81t-73 212zM180 291q0 -203 152 -203t152 203v116q0 203 -152 203t-152 -203v-116z" />
<glyph unicode="R" horiz-adv-x="580" d="M83 0v671q129 40 221 40q109 0 171 -66.5t62 -160.5q0 -37 -13 -74.5t-46.5 -75t-82.5 -54.5l133 -280h-130l-121 263h-75v-263h-119zM202 359h91q57 0 88 35t31 90t-26.5 90.5t-81.5 35.5q-56 0 -102 -15v-236z" />
<glyph unicode="S" horiz-adv-x="525" d="M42 26l21 98q113 -36 179 -36q58 0 86 26.5t28 72.5q0 30 -16.5 52.5t-43.5 37.5t-59 29t-64 31.5t-59 39.5t-43.5 58.5t-16.5 83.5q0 89 64.5 140.5t167.5 51.5q72 0 173 -37l-30 -94q-85 30 -143 30q-52 0 -79.5 -24t-27.5 -67q0 -30 22.5 -53.5t56 -38.5t72.5 -35.5 t72.5 -43.5t56 -64.5t22.5 -96.5q0 -91 -65.5 -145.5t-173.5 -54.5q-78 0 -200 39z" />
<glyph unicode="T" horiz-adv-x="529" d="M205 0v597h-172v101h463v-101h-172v-597h-119z" />
<glyph unicode="U" horiz-adv-x="660" d="M68 260v438h119v-455q0 -64 35.5 -109.5t107.5 -45.5q71 0 106.5 45.5t35.5 109.5v455h120v-438q0 -129 -68 -201t-194 -72q-125 0 -193.5 72t-68.5 201z" />
<glyph unicode="V" horiz-adv-x="641" d="M253 0l-223 698h122l132 -427q14 -45 36 -144q22 99 36 144l132 427h123l-223 -698h-135z" />
<glyph unicode="W" horiz-adv-x="903" d="M182 0l-142 698h121l66 -356q7 -36 25 -181q13 120 27 181l45 194q27 117 127 117q102 0 127 -117l44 -194q11 -50 28 -184q13 115 25 184l66 356h122l-142 -698h-135l-118 522q-4 22 -17 22q-14 0 -18 -22l-117 -522h-134z" />
<glyph unicode="X" horiz-adv-x="651" d="M54 698h136l137 -228l137 228h133l-201 -329l224 -369h-136l-160 266l-160 -266h-133l223 367z" />
<glyph unicode="Y" d="M234 0v282q-120 26 -152 184l-47 232h119l43 -216q11 -54 31.5 -81t64.5 -27t64.5 27t31.5 82l43 215h119l-47 -232q-32 -158 -152 -184v-282h-118z" />
<glyph unicode="Z" horiz-adv-x="567" d="M50 0v92l314 505h-303v101h441v-93l-314 -504h329v-101h-467z" />
<glyph unicode="[" horiz-adv-x="301" d="M53 -229v1025h220v-98h-104v-829h104v-98h-220z" />
<glyph unicode="\" horiz-adv-x="454" d="M283 -37l-221 778h108l221 -778h-108z" />
<glyph unicode="]" horiz-adv-x="322" d="M29 -229v98h104v829h-104v98h220v-1025h-220z" />
<glyph unicode="^" horiz-adv-x="621" d="M73 315l185 382h105l185 -382h-121l-117 277l-116 -277h-121z" />
<glyph unicode="_" horiz-adv-x="502" d="M0 -179v99h501v-99h-501z" />
<glyph unicode="`" horiz-adv-x="365" d="M64 649l31 86l206 -77l-26 -70z" />
<glyph unicode="a" horiz-adv-x="516" d="M356 0l-7 49q-54 -62 -135 -62q-78 0 -124.5 44t-46.5 120q0 82 63 120t170 38h60v23q0 51 -21 75.5t-72 24.5q-61 0 -141 -25l-25 93q91 31 166 31q100 0 154.5 -53t54.5 -139v-339h-96zM336 132v92h-52q-58 0 -90.5 -15.5t-32.5 -57.5q0 -65 73 -65q59 0 102 46z" />
<glyph unicode="b" horiz-adv-x="551" d="M69 0v726h116v-244q62 49 125 49q88 0 138.5 -56t50.5 -157v-118q0 -100 -50.5 -156.5t-138.5 -56.5q-70 0 -136 59l-6 -46h-99zM185 381v-245q59 -50 106 -50q48 0 69 31t21 99v86q0 68 -21 99t-69 31q-43 0 -106 -51z" />
<glyph unicode="c" horiz-adv-x="483" d="M52 223v73q0 106 57 170.5t166 64.5q74 0 166 -29l-26 -94q-72 24 -134 24q-111 0 -111 -145v-54q0 -147 111 -147q62 0 134 25l26 -95q-92 -29 -166 -29q-109 0 -166 65t-57 171z" />
<glyph unicode="d" horiz-adv-x="550" d="M52 200v118q0 101 50.5 157t138.5 56q64 0 124 -50v245h116v-726h-98l-6 46q-68 -59 -136 -59q-88 0 -138.5 56.5t-50.5 156.5zM170 302v-86q0 -68 21 -99t68 -31t106 50v244q-56 52 -106 52q-47 0 -68 -31t-21 -99z" />
<glyph unicode="e" horiz-adv-x="526" d="M52 202v114q0 89 57.5 152t155.5 63t156 -64.5t58 -150.5v-67q0 -10 -7 -17t-16 -7h-288v-23q0 -116 111 -116q59 0 151 26l24 -92q-104 -33 -175 -33q-111 0 -169 62.5t-58 152.5zM168 307h195v17q0 45 -23 76.5t-74 31.5q-50 0 -74 -31.5t-24 -76.5v-17z" />
<glyph unicode="f" horiz-adv-x="331" d="M95 0v433l-83 10v75h83v59q0 74 47 118t130 44q44 0 97 -15l-18 -94q-40 10 -76 10q-64 0 -64 -68v-54h106v-85h-106v-409q0 -24 -24 -24h-92z" />
<glyph unicode="g" horiz-adv-x="551" d="M148 -201l-13 97h162q32 0 50 20.5t18 53.5v78q-58 -48 -124 -48q-88 0 -138.5 56t-50.5 157v105q0 101 50.5 157t138.5 56q69 0 136 -60l6 47h98v-545q0 -81 -47.5 -127.5t-136.5 -46.5h-149zM170 302v-73q0 -68 20.5 -99t68.5 -31q46 0 106 47v234q-59 52 -106 52 t-68 -31t-21 -99z" />
<glyph unicode="h" horiz-adv-x="549" d="M69 0v726h116v-246q65 51 132 51q81 0 124.5 -46.5t43.5 -129.5v-331q0 -24 -24 -24h-92v339q0 49 -17 71t-58 22q-52 0 -109 -51v-381h-116z" />
<glyph unicode="i" horiz-adv-x="255" d="M127 597q-28 0 -47.5 19t-19.5 47t19 46.5t48 18.5t48.5 -18.5t19.5 -46.5t-19.5 -47t-48.5 -19zM69 0v518h116v-494q0 -24 -24 -24h-92z" />
<glyph unicode="j" horiz-adv-x="255" d="M127 597q-28 0 -47.5 19t-19.5 47t19 46.5t48 18.5t48.5 -18.5t19.5 -46.5t-19.5 -47t-48.5 -19zM-73 -199l18 94q42 -10 70 -10q29 0 41.5 17t12.5 55v561h116v-570q0 -76 -42.5 -119t-124.5 -43q-38 0 -91 15z" />
<glyph unicode="k" horiz-adv-x="501" d="M69 0v726h116v-403l63 18q26 8 36 34l60 143h121l-80 -187q-20 -44 -54 -64l153 -267h-127l-126 232l-46 -12v-196q0 -24 -24 -24h-92z" />
<glyph unicode="l" horiz-adv-x="258" d="M69 110v616h116v-604q0 -22 7 -30t25 -10l-24 -92q-59 5 -91.5 32t-32.5 88z" />
<glyph unicode="m" horiz-adv-x="832" d="M69 0v518h98l6 -48q69 61 136 61q100 0 141 -68q78 68 150 68q81 0 124.5 -46.5t43.5 -129.5v-331q0 -24 -24 -24h-92v339q0 49 -17 71t-58 22q-50 0 -103 -50q3 -27 3 -30v-352h-116v339q0 49 -17 71t-58 22q-43 0 -101 -52v-380h-116z" />
<glyph unicode="n" horiz-adv-x="549" d="M69 0v518h98l6 -48q69 61 144 61q81 0 124.5 -46.5t43.5 -129.5v-331q0 -24 -24 -24h-92v339q0 49 -17 71t-58 22q-52 0 -109 -51v-381h-116z" />
<glyph unicode="o" horiz-adv-x="548" d="M52 220v79q0 106 59 169t163 63t163 -63t59 -169v-79q0 -108 -59 -170.5t-163 -62.5t-163 62.5t-59 170.5zM170 290v-62q0 -71 23.5 -106.5t80.5 -35.5q58 0 81.5 35.5t23.5 106.5v62q0 70 -24 106t-81 36t-80.5 -36t-23.5 -106z" />
<glyph unicode="p" horiz-adv-x="551" d="M69 -201v719h99l6 -47q66 60 136 60q88 0 138.5 -56t50.5 -157v-118q0 -100 -50.5 -156.5t-138.5 -56.5q-59 0 -125 50v-238h-116zM185 380v-244q64 -50 106 -50q48 0 69 31t21 99v86q0 68 -21 99t-69 31q-45 0 -106 -52z" />
<glyph unicode="q" horiz-adv-x="546" d="M365 -201v238q-62 -50 -124 -50q-88 0 -138.5 56.5t-50.5 156.5v118q0 101 50.5 157t138.5 56q69 0 136 -60l6 47h98v-719h-116zM170 302v-86q0 -68 21 -99t68 -31q42 0 106 50v244q-62 52 -106 52q-47 0 -68 -31t-21 -99z" />
<glyph unicode="r" horiz-adv-x="372" d="M69 0v518h95l10 -67q24 34 59 56.5t72 22.5q26 0 50 -6l-16 -98q-16 4 -39 4q-53 0 -115 -73v-357h-116z" />
<glyph unicode="s" horiz-adv-x="442" d="M44 19l24 97q78 -30 134 -30q74 0 74 59q0 21 -16.5 36t-40.5 24t-53 22.5t-53 29.5t-40.5 47.5t-16.5 74.5q0 69 53 110.5t134 41.5q70 0 134 -27l-28 -92q-61 21 -103 21q-33 0 -50.5 -14.5t-17.5 -39.5q0 -22 22.5 -38t55 -29.5t65 -31t55 -52t22.5 -83.5 q0 -71 -54 -114.5t-140 -43.5q-77 0 -160 32z" />
<glyph unicode="t" horiz-adv-x="381" d="M95 145v288l-83 10v75h83v162h116v-162h120v-85h-120v-275q0 -72 64 -72q36 0 75 11l19 -95q-55 -15 -100 -15q-83 0 -128.5 42t-45.5 116z" />
<glyph unicode="u" horiz-adv-x="549" d="M64 163v331q0 24 24 24h92v-339q0 -49 17 -71t58 -22q52 0 109 51v381h116v-518h-98l-6 48q-69 -61 -144 -61q-81 0 -124.5 46.5t-43.5 129.5z" />
<glyph unicode="v" horiz-adv-x="521" d="M197 0l-176 518h120l77 -241q23 -72 43 -164q17 86 42 164l77 241h120l-176 -518h-127z" />
<glyph unicode="w" horiz-adv-x="751" d="M159 0l-137 518h123l51 -228q9 -41 28 -153q16 83 34 153l55 199h124l55 -199q14 -55 35 -156q23 135 27 156l51 228h124l-137 -518h-126l-91 337l-91 -337h-125z" />
<glyph unicode="x" horiz-adv-x="518" d="M36 518h132l92 -150l93 150h129l-154 -246l169 -272h-132l-107 173l-108 -173h-129l169 269z" />
<glyph unicode="y" horiz-adv-x="525" d="M81 174l-46 344h114l44 -329q6 -43 23 -66t55 -23q35 0 71 14l21 404h112l-28 -549q-4 -81 -50.5 -125.5t-135.5 -44.5h-100l-7 98h110q38 0 53.5 20t17.5 58l2 40q-43 -15 -76 -15q-156 0 -180 174z" />
<glyph unicode="z" horiz-adv-x="478" d="M47 0v69l226 351h-215v98h362v-70l-226 -351h237v-97h-384z" />
<glyph unicode="{" horiz-adv-x="357" d="M115 -36v177q0 45 -16.5 69t-70.5 24v81q54 0 71 24.5t17 69.5v182q0 94 47 143.5t165 49.5v-99q-56 0 -76.5 -23.5t-20.5 -70.5v-182q0 -50 -17.5 -81.5t-65.5 -52.5q48 -21 65.5 -52.5t17.5 -81.5v-177q0 -48 20 -71.5t77 -23.5v-99q-118 0 -165.5 50t-47.5 144z" />
<glyph unicode="|" horiz-adv-x="292" d="M90 -181v917h111v-917h-111z" />
<glyph unicode="}" horiz-adv-x="357" d="M28 -230v99q57 0 77 23.5t20 71.5v177q0 50 18 81.5t66 52.5q-48 21 -66 53t-18 81v182q0 47 -20 70.5t-77 23.5v99q119 0 166 -49.5t47 -143.5v-182q0 -45 17 -69.5t70 -24.5v-81q-53 0 -70 -24t-17 -69v-177q0 -94 -47 -144t-166 -50z" />
<glyph unicode="~" horiz-adv-x="611" d="M151 211l-61 62q63 77 141 77q37 0 83 -26t66 -26q40 0 80 42l61 -62q-64 -78 -141 -78q-38 0 -84 26.5t-65 26.5q-39 0 -80 -42z" />
<glyph unicode="&#xa1;" horiz-adv-x="370" d="M114 538q0 29 21 49.5t50 20.5t49.5 -20.5t20.5 -49.5t-20.5 -49.5t-49.5 -20.5t-50 20.5t-21 49.5zM117 -100l16 460l102 15l17 -475h-135z" />
<glyph unicode="&#xa2;" horiz-adv-x="489" d="M227 -124v116q-86 13 -130.5 75t-44.5 156v73q0 93 44.5 154.5t130.5 75.5v116h90v-114q57 -4 124 -26l-26 -94q-72 24 -134 24q-111 0 -111 -145v-54q0 -147 111 -147q62 0 134 25l26 -95q-73 -22 -124 -27v-113h-90z" />
<glyph unicode="&#xa3;" horiz-adv-x="528" d="M59 0v88q54 77 54 149v54h-62v78h62v136q0 99 60 152.5t156 53.5q73 0 157 -35l-31 -90q-63 25 -120 25q-55 0 -79.5 -27t-24.5 -92v-123h197v-78h-197v-52q0 -76 -54 -144h293v-71q0 -24 -24 -24h-387z" />
<glyph unicode="&#xa4;" horiz-adv-x="530" d="M131 69l-72 73l46 46q-23 40 -23 87t23 88l-47 46l73 73l47 -47q38 23 86 23q45 0 87 -24l48 48l73 -72l-49 -49q23 -40 23 -86q0 -47 -22 -86l47 -47l-72 -73l-48 47q-40 -23 -87 -23q-46 0 -87 22zM264 191q35 0 60 24.5t25 59.5t-25 60t-60 25t-59.5 -24.5 t-24.5 -59.5t24.5 -60t59.5 -25z" />
<glyph unicode="&#xa5;" horiz-adv-x="534" d="M73 127v78h135v85h-135v78h97l-164 330h117l143 -294l145 294h117l-167 -330h98v-78h-135v-85h135v-78h-135v-127h-116v127h-135z" />
<glyph unicode="&#xa6;" horiz-adv-x="288" d="M88 410v326h111v-326h-111zM88 -181v326h111v-326h-111z" />
<glyph unicode="&#xa7;" horiz-adv-x="507" d="M42 -64l20 96q90 -29 156 -29q46 0 70 20t24 54q0 33 -26.5 56t-64.5 39t-76 35.5t-64.5 58t-26.5 94.5q0 76 57 122q-16 34 -16 76q0 77 57 122t143 45q74 0 160 -34l-28 -92q-65 26 -126 26q-39 0 -60.5 -17.5t-21.5 -49.5q0 -30 26.5 -51.5t64.5 -38t75.5 -37.5 t64 -60.5t26.5 -95.5q0 -74 -56 -122q15 -35 15 -76q0 -77 -61.5 -125.5t-152.5 -48.5q-75 0 -179 33zM340 233q13 16 13 42q0 25 -16.5 45t-36 30t-54.5 26t-53 27q-15 -15 -15 -43q0 -29 22.5 -48.5t70.5 -42t69 -36.5z" />
<glyph unicode="&#xa8;" horiz-adv-x="425" d="M241 660q0 23 18 41.5t41 18.5t41 -18.5t18 -41.5q0 -24 -18 -41.5t-41 -17.5t-41 17.5t-18 41.5zM66 660q0 24 17.5 42t41.5 18q23 0 40.5 -18.5t17.5 -41.5q0 -24 -17.5 -41.5t-40.5 -17.5q-24 0 -41.5 17.5t-17.5 41.5z" />
<glyph unicode="&#xa9;" horiz-adv-x="783" d="M391 0q-154 0 -243.5 97.5t-89.5 244.5t89.5 244.5t243.5 97.5t244 -97.5t90 -244.5t-90 -244.5t-244 -97.5zM391 66q126 0 195.5 78t69.5 198t-69.5 198t-195.5 78t-195 -78t-69 -198t69 -198t195 -78zM243 289v106q0 63 40 97.5t104 34.5q57 0 110 -21l-19 -69 q-46 15 -87 15q-62 0 -62 -69v-82q0 -68 62 -68q44 0 87 14l19 -69q-53 -21 -110 -21q-64 0 -104 34.5t-40 97.5z" />
<glyph unicode="&#xaa;" horiz-adv-x="377" d="M259 332l-5 31q-37 -40 -91 -40q-55 0 -88 31.5t-33 87.5q0 60 45 87.5t121 27.5h36v15q0 62 -59 62q-45 0 -99 -17l-20 71q66 23 119 23q71 0 110 -38t39 -100v-241h-75zM244 427v64h-29q-38 0 -59 -10t-21 -39q0 -43 46 -43q35 0 63 28z" />
<glyph unicode="&#xab;" d="M422 73l-137 198l137 199l90 -60l-102 -139l102 -140zM207 73l-138 198l138 199l89 -60l-102 -139l102 -140z" />
<glyph unicode="&#xac;" horiz-adv-x="591" d="M90 224v100h411v-275h-100v175h-311z" />
<glyph unicode="&#xad;" horiz-adv-x="403" d="M33 230v94h337v-94h-337z" />
<glyph unicode="&#xae;" horiz-adv-x="783" d="M391 0q-154 0 -243.5 97.5t-89.5 244.5t89.5 244.5t243.5 97.5t244 -97.5t90 -244.5t-90 -244.5t-244 -97.5zM391 66q126 0 195.5 78t69.5 198t-69.5 198t-195.5 78t-195 -78t-69 -198t69 -198t195 -78zM262 163v341q77 27 131 27q60 0 94.5 -35t34.5 -86q0 -71 -58 -100 l66 -147h-90l-56 130h-36v-130h-86zM348 360h45q22 0 33 14.5t11 35.5q0 20 -11 33t-33 13q-17 0 -45 -7v-89z" />
<glyph unicode="&#xaf;" horiz-adv-x="356" d="M63 619v85h229v-85h-229z" />
<glyph unicode="&#xb0;" horiz-adv-x="407" d="M203 451q-54 0 -93 38.5t-39 92.5q0 55 39 93.5t93 38.5q55 0 93.5 -38.5t38.5 -93.5q0 -54 -38.5 -92.5t-93.5 -38.5zM203 521q25 0 42.5 18t17.5 43q0 27 -17.5 44.5t-42.5 17.5t-42.5 -17.5t-17.5 -44.5q0 -25 17.5 -43t42.5 -18z" />
<glyph unicode="&#xb1;" horiz-adv-x="637" d="M83 263v101h185v175h101v-175h184v-101h-184v-175h-101v175h-185zM83 -62v101h470v-101h-470z" />
<glyph unicode="&#xb4;" horiz-adv-x="365" d="M90 588l-27 70l207 77l31 -86z" />
<glyph unicode="&#xb5;" horiz-adv-x="554" d="M64 -201v695q0 24 24 24h92v-339q0 -49 17 -71t58 -22q52 0 109 51v381h116v-518h-98l-6 48q-69 -61 -144 -61q-31 0 -52 13v-201h-116z" />
<glyph unicode="&#xb6;" horiz-adv-x="581" d="M218 -102v373q-86 11 -141 71t-55 142q0 89 65 151.5t157 62.5h263v-800h-110v691h-70v-691h-109z" />
<glyph unicode="&#xb7;" horiz-adv-x="246" d="M63 303q0 25 17.5 42.5t42.5 17.5t42.5 -17.5t17.5 -42.5t-17 -42t-43 -17q-25 0 -42.5 17t-17.5 42z" />
<glyph unicode="&#xb8;" horiz-adv-x="258" d="M33 -204l13 77q25 -5 44 -5q18 0 29.5 12.5t11.5 33.5v86h94v-103q0 -58 -36.5 -84t-85.5 -26q-34 0 -70 9z" />
<glyph unicode="&#xba;" horiz-adv-x="401" d="M42 491v52q0 78 42 123t117 45q74 0 116 -45t42 -123v-52q0 -77 -42 -122.5t-116 -45.5q-75 0 -117 45.5t-42 122.5zM134 537v-41q0 -49 14.5 -73t52.5 -24q37 0 51.5 24t14.5 73v41q0 49 -15 73t-51 24q-37 0 -52 -23.5t-15 -73.5z" />
<glyph unicode="&#xbb;" horiz-adv-x="585" d="M288 131l102 140l-102 139l90 60l138 -199l-138 -198zM74 131l103 140l-103 139l90 60l139 -199l-139 -198z" />
<glyph unicode="&#xbf;" horiz-adv-x="472" d="M181 538q0 29 20.5 49.5t50.5 20.5q29 0 49.5 -20.5t20.5 -49.5t-20.5 -49.5t-49.5 -20.5q-30 0 -50.5 20.5t-20.5 49.5zM366 32l46 -89q-84 -54 -168 -54t-134 47.5t-50 116.5q0 34 14 62t33.5 50.5t39.5 48.5t34 68.5t14 97.5l112 11q0 -68 -14 -118.5t-33.5 -78 t-39 -48.5t-33.5 -42.5t-14 -47.5q0 -28 18.5 -47t52.5 -19q49 0 122 42z" />
<glyph unicode="&#xc0;" horiz-adv-x="661" d="M211 814l32 86l206 -77l-26 -70zM35 0l154 592q13 53 49.5 86t91.5 33q54 0 90 -33.5t50 -85.5l156 -592h-120l-48 188h-256l-47 -188h-120zM226 287h208l-73 290q-9 31 -31 31q-23 0 -31 -31z" />
<glyph unicode="&#xc1;" horiz-adv-x="661" d="M238 753l-27 70l207 77l31 -86zM35 0l154 592q13 53 49.5 86t91.5 33q54 0 90 -33.5t50 -85.5l156 -592h-120l-48 188h-256l-47 -188h-120zM226 287h208l-73 290q-9 31 -31 31q-23 0 -31 -31z" />
<glyph unicode="&#xc2;" horiz-adv-x="661" d="M236 752l-49 71l143 77l143 -77l-49 -71l-94 55zM35 0l154 592q13 53 49.5 86t91.5 33q54 0 90 -33.5t50 -85.5l156 -592h-120l-48 188h-256l-47 -188h-120zM226 287h208l-73 290q-9 31 -31 31q-23 0 -31 -31z" />
<glyph unicode="&#xc3;" horiz-adv-x="661" d="M234 771l-44 52q43 61 95 61q23 0 53 -16.5t38 -16.5q24 0 50 30l45 -52q-45 -60 -95 -60q-23 0 -52 15.5t-39 15.5q-26 0 -51 -29zM35 0l154 592q13 53 49.5 86t91.5 33q54 0 90 -33.5t50 -85.5l156 -592h-120l-48 188h-256l-47 -188h-120zM226 287h208l-73 290 q-9 31 -31 31q-23 0 -31 -31z" />
<glyph unicode="&#xc4;" horiz-adv-x="661" d="M359 825q0 24 17.5 42t41.5 18q23 0 41 -18.5t18 -41.5q0 -24 -18 -41.5t-41 -17.5q-24 0 -41.5 17.5t-17.5 41.5zM183 825q0 23 18 41.5t41 18.5q24 0 41 -18t17 -42t-17 -41.5t-41 -17.5q-23 0 -41 17.5t-18 41.5zM35 0l154 592q13 53 49.5 86t91.5 33q54 0 90 -33.5 t50 -85.5l156 -592h-120l-48 188h-256l-47 -188h-120zM226 287h208l-73 290q-9 31 -31 31q-23 0 -31 -31z" />
<glyph unicode="&#xc5;" horiz-adv-x="661" d="M233 824q0 39 28 64t68 25q43 0 71 -25t28 -64q0 -38 -28.5 -62.5t-70.5 -24.5q-40 0 -68 24.5t-28 62.5zM307 824q0 -9 6 -16t15 -7q10 0 18 6.5t8 16.5q0 9 -7 16.5t-17 7.5q-9 0 -16 -7t-7 -17zM35 0l154 592q13 53 49.5 86t91.5 33q54 0 90 -33.5t50 -85.5l156 -592 h-120l-48 188h-256l-47 -188h-120zM226 287h208l-73 290q-9 31 -31 31q-23 0 -31 -31z" />
<glyph unicode="&#xc6;" horiz-adv-x="936" d="M692 0q-103 0 -156.5 50t-54.5 138h-237l-83 -188h-126l261 588q48 110 160 110h423v-101h-282v-189h252v-100h-252v-112q0 -46 20.5 -70.5t76.5 -24.5h190v-79q0 -9 -7 -15.5t-16 -6.5h-169zM404 550l-116 -263h193v309h-18q-38 0 -59 -46z" />
<glyph unicode="&#xc7;" horiz-adv-x="564" d="M186 -204l12 77q25 -5 44 -5t30 12t11 34v74q-107 9 -166 75t-59 182v207q0 124 68 191.5t188 67.5q98 0 198 -30l-21 -97q-88 26 -163 26q-76 0 -112 -41t-36 -128v-185q0 -86 36 -127t112 -41q71 0 163 25l21 -96q-67 -20 -134 -27v-93q0 -58 -36.5 -84t-85.5 -26 q-34 0 -70 9z" />
<glyph unicode="&#xc8;" horiz-adv-x="520" d="M172 814l31 86l207 -77l-27 -70zM63 185v327q0 86 54 136t158 50h189v-101h-187q-53 0 -74 -23t-21 -70v-96h252v-100h-252v-115q0 -48 21 -70t74 -22h191v-77q0 -24 -24 -24h-169q-103 0 -157.5 49.5t-54.5 135.5z" />
<glyph unicode="&#xc9;" horiz-adv-x="520" d="M189 753l-26 70l206 77l32 -86zM63 185v327q0 86 54 136t158 50h189v-101h-187q-53 0 -74 -23t-21 -70v-96h252v-100h-252v-115q0 -48 21 -70t74 -22h191v-77q0 -24 -24 -24h-169q-103 0 -157.5 49.5t-54.5 135.5z" />
<glyph unicode="&#xca;" horiz-adv-x="520" d="M191 752l-49 71l143 77l143 -77l-49 -71l-94 55zM63 185v327q0 86 54 136t158 50h189v-101h-187q-53 0 -74 -23t-21 -70v-96h252v-100h-252v-115q0 -48 21 -70t74 -22h191v-77q0 -24 -24 -24h-169q-103 0 -157.5 49.5t-54.5 135.5z" />
<glyph unicode="&#xcb;" horiz-adv-x="520" d="M309 825q0 24 17.5 42t41.5 18q23 0 41 -18.5t18 -41.5q0 -24 -18 -41.5t-41 -17.5q-24 0 -41.5 17.5t-17.5 41.5zM133 825q0 23 18 41.5t41 18.5q24 0 41.5 -18t17.5 -42t-17.5 -41.5t-41.5 -17.5q-23 0 -41 17.5t-18 41.5zM63 185v327q0 86 54 136t158 50h189v-101 h-187q-53 0 -74 -23t-21 -70v-96h252v-100h-252v-115q0 -48 21 -70t74 -22h191v-77q0 -24 -24 -24h-169q-103 0 -157.5 49.5t-54.5 135.5z" />
<glyph unicode="&#xcc;" horiz-adv-x="285" d="M24 814l32 86l206 -77l-26 -70zM83 0v698h119v-674q0 -24 -24 -24h-95z" />
<glyph unicode="&#xcd;" horiz-adv-x="285" d="M51 753l-27 70l207 77l31 -86zM83 0v698h119v-674q0 -24 -24 -24h-95z" />
<glyph unicode="&#xce;" horiz-adv-x="285" d="M49 752l-49 71l143 77l143 -77l-49 -71l-94 55zM83 0v698h119v-674q0 -24 -24 -24h-95z" />
<glyph unicode="&#xcf;" horiz-adv-x="285" d="M172 825q0 24 17.5 42t41.5 18q23 0 41 -18.5t18 -41.5q0 -24 -18 -41.5t-41 -17.5q-24 0 -41.5 17.5t-17.5 41.5zM-4 825q0 23 18 41.5t41 18.5q24 0 41 -18t17 -42t-17 -41.5t-41 -17.5q-23 0 -41 17.5t-18 41.5zM83 0v698h119v-674q0 -24 -24 -24h-95z" />
<glyph unicode="&#xd0;" horiz-adv-x="654" d="M83 0v307h-72v84h72v307h253q133 0 196.5 -62.5t63.5 -193.5v-187q0 -130 -63.5 -192.5t-196.5 -62.5h-253zM202 101h131q85 0 113 40t28 125v165q0 85 -28 125.5t-113 40.5h-131v-206h122v-84h-122v-206z" />
<glyph unicode="&#xd1;" horiz-adv-x="662" d="M235 771l-45 52q44 61 96 61q23 0 52 -16.5t38 -16.5q24 0 50 30l45 -52q-24 -33 -45.5 -46.5t-49.5 -13.5q-23 0 -51.5 15.5t-38.5 15.5q-26 0 -51 -29zM83 0v698h109l277 -482q-7 66 -7 132v350h117v-698h-109l-276 481q7 -84 7 -131v-350h-118z" />
<glyph unicode="&#xd2;" horiz-adv-x="664" d="M213 814l31 86l206 -77l-26 -70zM58 280v138q0 131 73.5 212t200.5 81t200.5 -81t73.5 -212v-138q0 -131 -73 -212t-201 -81t-201 81t-73 212zM180 407v-116q0 -203 152 -203t152 203v116q0 203 -152 203t-152 -203z" />
<glyph unicode="&#xd3;" horiz-adv-x="664" d="M239 753l-26 70l206 77l31 -86zM58 280v138q0 131 73.5 212t200.5 81t200.5 -81t73.5 -212v-138q0 -131 -73 -212t-201 -81t-201 81t-73 212zM180 407v-116q0 -203 152 -203t152 203v116q0 203 -152 203t-152 -203z" />
<glyph unicode="&#xd4;" horiz-adv-x="664" d="M238 752l-49 71l143 77l143 -77l-49 -71l-94 55zM58 280v138q0 131 73.5 212t200.5 81t200.5 -81t73.5 -212v-138q0 -131 -73 -212t-201 -81t-201 81t-73 212zM180 407v-116q0 -203 152 -203t152 203v116q0 203 -152 203t-152 -203z" />
<glyph unicode="&#xd5;" horiz-adv-x="664" d="M235 771l-44 52q43 61 95 61q24 0 53 -16.5t38 -16.5q24 0 50 30l45 -52q-45 -60 -95 -60q-23 0 -52 15.5t-39 15.5q-26 0 -51 -29zM58 280v138q0 131 73.5 212t200.5 81t200.5 -81t73.5 -212v-138q0 -131 -73 -212t-201 -81t-201 81t-73 212zM180 407v-116 q0 -203 152 -203t152 203v116q0 203 -152 203t-152 -203z" />
<glyph unicode="&#xd6;" horiz-adv-x="664" d="M361 825q0 24 17.5 42t41.5 18q23 0 41 -18.5t18 -41.5q0 -24 -18 -41.5t-41 -17.5q-24 0 -41.5 17.5t-17.5 41.5zM185 825q0 23 18 41.5t41 18.5q24 0 41 -18t17 -42t-17 -41.5t-41 -17.5q-23 0 -41 17.5t-18 41.5zM58 280v138q0 131 73.5 212t200.5 81t200.5 -81 t73.5 -212v-138q0 -131 -73 -212t-201 -81t-201 81t-73 212zM180 407v-116q0 -203 152 -203t152 203v116q0 203 -152 203t-152 -203z" />
<glyph unicode="&#xd7;" horiz-adv-x="582" d="M161 81l-73 73l130 129l-130 130l73 73l129 -130l130 130l73 -72l-131 -131l131 -130l-73 -72l-130 130z" />
<glyph unicode="&#xd8;" horiz-adv-x="664" d="M108 -51l44 98q-94 80 -94 233v138q0 131 73.5 212t200.5 81q56 0 107 -19l40 89l74 -32l-43 -97q96 -82 96 -234v-138q0 -131 -73 -212t-201 -81q-58 0 -109 19l-40 -90zM205 168l191 429q-28 13 -64 13q-152 0 -152 -203v-116q0 -77 25 -123zM484 291v116q0 78 -28 126 l-191 -432q26 -13 67 -13q152 0 152 203z" />
<glyph unicode="&#xd9;" horiz-adv-x="660" d="M211 814l31 86l207 -77l-27 -70zM68 260v438h119v-455q0 -64 35.5 -109.5t107.5 -45.5q71 0 106.5 45.5t35.5 109.5v455h120v-438q0 -129 -68 -201t-194 -72q-125 0 -193.5 72t-68.5 201z" />
<glyph unicode="&#xda;" horiz-adv-x="660" d="M237 753l-26 70l206 77l32 -86zM68 260v438h119v-455q0 -64 35.5 -109.5t107.5 -45.5q71 0 106.5 45.5t35.5 109.5v455h120v-438q0 -129 -68 -201t-194 -72q-125 0 -193.5 72t-68.5 201z" />
<glyph unicode="&#xdb;" horiz-adv-x="660" d="M235 752l-49 71l143 77l143 -77l-48 -71l-95 55zM68 260v438h119v-455q0 -64 35.5 -109.5t107.5 -45.5q71 0 106.5 45.5t35.5 109.5v455h120v-438q0 -129 -68 -201t-194 -72q-125 0 -193.5 72t-68.5 201z" />
<glyph unicode="&#xdc;" horiz-adv-x="660" d="M358 825q0 23 18 41.5t41 18.5t41 -18.5t18 -41.5q0 -24 -18 -41.5t-41 -17.5t-41 17.5t-18 41.5zM183 825q0 24 17.5 42t41.5 18q23 0 40.5 -18.5t17.5 -41.5q0 -24 -17.5 -41.5t-40.5 -17.5q-24 0 -41.5 17.5t-17.5 41.5zM68 260v438h119v-455q0 -64 35.5 -109.5 t107.5 -45.5q71 0 106.5 45.5t35.5 109.5v455h120v-438q0 -129 -68 -201t-194 -72q-125 0 -193.5 72t-68.5 201z" />
<glyph unicode="&#xdd;" d="M200 753l-26 70l206 77l31 -86zM234 0v282q-120 26 -152 184l-47 232h119l43 -216q11 -54 31.5 -81t64.5 -27t64.5 27t31.5 82l43 215h119l-47 -232q-32 -158 -152 -184v-282h-118z" />
<glyph unicode="&#xde;" horiz-adv-x="564" d="M83 0v698h119v-113h79q114 0 179.5 -64.5t65.5 -159.5q0 -96 -65.5 -160t-179.5 -64h-79v-137h-119zM202 237h75q61 0 92.5 36t31.5 88q0 53 -31.5 88t-92.5 35h-75v-247z" />
<glyph unicode="&#xdf;" horiz-adv-x="620" d="M95 0v433l-83 10v75h83v37q0 88 54.5 136t142.5 48q84 0 138.5 -48.5t54.5 -121.5q0 -38 -16.5 -69t-36 -47.5t-36 -39t-16.5 -46.5q0 -23 20.5 -38t49.5 -25.5t57.5 -25.5t49 -48t20.5 -83q0 -72 -54 -116t-139 -44q-65 0 -151 29l25 95q74 -25 126 -25q75 0 75 61 q0 25 -20 41t-48.5 26t-57.5 24.5t-49 46.5t-20 82q0 31 11.5 55t27.5 40t32 30.5t27.5 34t11.5 42.5q0 32 -22 51.5t-58 19.5q-83 0 -83 -91v-525q0 -10 -7 -17t-17 -7h-92z" />
<glyph unicode="&#xe0;" horiz-adv-x="516" d="M143 649l32 86l206 -77l-26 -70zM356 0l-7 49q-54 -62 -135 -62q-78 0 -124.5 44t-46.5 120q0 82 63 120t170 38h60v23q0 51 -21 75.5t-72 24.5q-61 0 -141 -25l-25 93q91 31 166 31q100 0 154.5 -53t54.5 -139v-339h-96zM336 132v92h-52q-58 0 -90.5 -15.5t-32.5 -57.5 q0 -65 73 -65q59 0 102 46z" />
<glyph unicode="&#xe1;" horiz-adv-x="516" d="M165 588l-26 70l206 77l31 -86zM356 0l-7 49q-54 -62 -135 -62q-78 0 -124.5 44t-46.5 120q0 82 63 120t170 38h60v23q0 51 -21 75.5t-72 24.5q-61 0 -141 -25l-25 93q91 31 166 31q100 0 154.5 -53t54.5 -139v-339h-96zM336 132v92h-52q-58 0 -90.5 -15.5t-32.5 -57.5 q0 -65 73 -65q59 0 102 46z" />
<glyph unicode="&#xe2;" horiz-adv-x="516" d="M162 587l-49 71l143 77l143 -77l-48 -71l-95 55zM356 0l-7 49q-54 -62 -135 -62q-78 0 -124.5 44t-46.5 120q0 82 63 120t170 38h60v23q0 51 -21 75.5t-72 24.5q-61 0 -141 -25l-25 93q91 31 166 31q100 0 154.5 -53t54.5 -139v-339h-96zM336 132v92h-52 q-58 0 -90.5 -15.5t-32.5 -57.5q0 -65 73 -65q59 0 102 46z" />
<glyph unicode="&#xe3;" horiz-adv-x="516" d="M158 606l-45 52q44 61 96 61q23 0 52 -16.5t38 -16.5q24 0 50 30l45 -52q-24 -33 -45.5 -46.5t-49.5 -13.5q-23 0 -51.5 15.5t-38.5 15.5q-26 0 -51 -29zM356 0l-7 49q-54 -62 -135 -62q-78 0 -124.5 44t-46.5 120q0 82 63 120t170 38h60v23q0 51 -21 75.5t-72 24.5 q-61 0 -141 -25l-25 93q91 31 166 31q100 0 154.5 -53t54.5 -139v-339h-96zM336 132v92h-52q-58 0 -90.5 -15.5t-32.5 -57.5q0 -65 73 -65q59 0 102 46z" />
<glyph unicode="&#xe4;" horiz-adv-x="516" d="M282 660q0 23 18 41.5t41 18.5t41 -18.5t18 -41.5q0 -24 -18 -41.5t-41 -17.5t-41 17.5t-18 41.5zM107 660q0 24 17.5 42t41.5 18q23 0 40.5 -18.5t17.5 -41.5q0 -24 -17.5 -41.5t-40.5 -17.5q-24 0 -41.5 17.5t-17.5 41.5zM356 0l-7 49q-54 -62 -135 -62 q-78 0 -124.5 44t-46.5 120q0 82 63 120t170 38h60v23q0 51 -21 75.5t-72 24.5q-61 0 -141 -25l-25 93q91 31 166 31q100 0 154.5 -53t54.5 -139v-339h-96zM336 132v92h-52q-58 0 -90.5 -15.5t-32.5 -57.5q0 -65 73 -65q59 0 102 46z" />
<glyph unicode="&#xe5;" horiz-adv-x="516" d="M156 663q0 39 27.5 63.5t68.5 24.5q43 0 70.5 -24.5t27.5 -63.5q0 -38 -28 -62.5t-70 -24.5q-40 0 -68 24.5t-28 62.5zM229 662q0 -9 6.5 -15.5t15.5 -6.5q10 0 17.5 7t7.5 17q0 9 -6.5 16t-15.5 7t-17 -7.5t-8 -17.5zM356 0l-7 49q-54 -62 -135 -62q-78 0 -124.5 44 t-46.5 120q0 82 63 120t170 38h60v23q0 51 -21 75.5t-72 24.5q-61 0 -141 -25l-25 93q91 31 166 31q100 0 154.5 -53t54.5 -139v-339h-96zM336 132v92h-52q-58 0 -90.5 -15.5t-32.5 -57.5q0 -65 73 -65q59 0 102 46z" />
<glyph unicode="&#xe6;" horiz-adv-x="810" d="M276 309h60v23q0 53 -20.5 76.5t-72.5 23.5q-56 0 -141 -25l-25 93q91 31 166 31q103 0 157 -59q59 59 149 59q98 0 156 -64.5t58 -150.5v-67q0 -10 -7 -17t-16 -7h-288v-23q0 -116 111 -116q59 0 151 26l24 -92q-104 -33 -175 -33q-113 0 -173 68q-70 -68 -174 -68 q-80 0 -126.5 44.5t-46.5 121.5q0 156 233 156zM452 307h195v17q0 45 -23 76.5t-74 31.5q-49 0 -73.5 -30.5t-24.5 -72.5v-22zM336 202v22h-52q-60 0 -90.5 -14t-30.5 -57q0 -67 71 -67q60 0 113 41q-11 39 -11 75z" />
<glyph unicode="&#xe7;" horiz-adv-x="483" d="M141 -204l12 77q25 -5 44 -5t30 12t11 34v75q-91 11 -138.5 74.5t-47.5 159.5v73q0 106 57 170.5t166 64.5q74 0 166 -29l-26 -94q-72 24 -134 24q-111 0 -111 -145v-54q0 -147 111 -147q62 0 134 25l26 -95q-63 -20 -109 -25v-94q0 -58 -36 -84t-85 -26q-35 0 -70 9z " />
<glyph unicode="&#xe8;" horiz-adv-x="526" d="M142 649l32 86l206 -77l-26 -70zM52 202v114q0 89 57.5 152t155.5 63t156 -64.5t58 -150.5v-67q0 -10 -7 -17t-16 -7h-288v-23q0 -116 111 -116q59 0 151 26l24 -92q-104 -33 -175 -33q-111 0 -169 62.5t-58 152.5zM168 307h195v17q0 45 -23 76.5t-74 31.5 q-50 0 -74 -31.5t-24 -76.5v-17z" />
<glyph unicode="&#xe9;" horiz-adv-x="526" d="M167 588l-26 70l206 77l32 -86zM52 202v114q0 89 57.5 152t155.5 63t156 -64.5t58 -150.5v-67q0 -10 -7 -17t-16 -7h-288v-23q0 -116 111 -116q59 0 151 26l24 -92q-104 -33 -175 -33q-111 0 -169 62.5t-58 152.5zM168 307h195v17q0 45 -23 76.5t-74 31.5 q-50 0 -74 -31.5t-24 -76.5v-17z" />
<glyph unicode="&#xea;" horiz-adv-x="526" d="M169 587l-49 71l143 77l143 -77l-49 -71l-94 55zM52 202v114q0 89 57.5 152t155.5 63t156 -64.5t58 -150.5v-67q0 -10 -7 -17t-16 -7h-288v-23q0 -116 111 -116q59 0 151 26l24 -92q-104 -33 -175 -33q-111 0 -169 62.5t-58 152.5zM168 307h195v17q0 45 -23 76.5 t-74 31.5q-50 0 -74 -31.5t-24 -76.5v-17z" />
<glyph unicode="&#xeb;" horiz-adv-x="526" d="M292 660q0 24 17.5 42t41.5 18q23 0 41 -18.5t18 -41.5q0 -24 -18 -41.5t-41 -17.5q-24 0 -41.5 17.5t-17.5 41.5zM116 660q0 23 18 41.5t41 18.5q24 0 41.5 -18t17.5 -42t-17.5 -41.5t-41.5 -17.5q-23 0 -41 17.5t-18 41.5zM52 202v114q0 89 57.5 152t155.5 63 t156 -64.5t58 -150.5v-67q0 -10 -7 -17t-16 -7h-288v-23q0 -116 111 -116q59 0 151 26l24 -92q-104 -33 -175 -33q-111 0 -169 62.5t-58 152.5zM168 307h195v17q0 45 -23 76.5t-74 31.5q-50 0 -74 -31.5t-24 -76.5v-17z" />
<glyph unicode="&#xec;" horiz-adv-x="255" d="M9 649l31 86l207 -77l-27 -70zM69 0v518h116v-494q0 -24 -24 -24h-92z" />
<glyph unicode="&#xed;" horiz-adv-x="255" d="M35 588l-26 70l206 77l32 -86zM69 0v518h116v-494q0 -24 -24 -24h-92z" />
<glyph unicode="&#xee;" horiz-adv-x="255" d="M33 587l-49 71l143 77l143 -77l-48 -71l-95 55zM69 0v518h116v-494q0 -24 -24 -24h-92z" />
<glyph unicode="&#xef;" horiz-adv-x="255" d="M156 660q0 23 18 41.5t41 18.5t41 -18.5t18 -41.5q0 -24 -18 -41.5t-41 -17.5t-41 17.5t-18 41.5zM-19 660q0 24 17.5 42t41.5 18q23 0 40.5 -18.5t17.5 -41.5q0 -24 -17.5 -41.5t-40.5 -17.5q-24 0 -41.5 17.5t-17.5 41.5zM69 0v518h116v-494q0 -24 -24 -24h-92z" />
<glyph unicode="&#xf0;" horiz-adv-x="553" d="M52 204v66q0 100 65 158t160 58q64 0 115 -32q-10 136 -95 156l-38 -80l-55 25l28 59q-62 -1 -132 -23l-24 86q84 29 174 29q17 0 25 -1l35 73l55 -25l-28 -59q164 -47 164 -276v-214q0 -93 -61 -155t-163 -62q-103 0 -164 62t-61 155zM170 261v-49q0 -125 107 -125 q56 0 81.5 34.5t25.5 90.5v49q0 56 -25.5 90.5t-81.5 34.5q-107 0 -107 -125z" />
<glyph unicode="&#xf1;" horiz-adv-x="549" d="M179 606l-45 52q44 61 96 61q23 0 52 -16.5t38 -16.5q24 0 50 30l45 -52q-24 -33 -45.5 -46.5t-49.5 -13.5q-23 0 -51.5 15.5t-38.5 15.5q-26 0 -51 -29zM69 0v518h98l6 -48q69 61 144 61q81 0 124.5 -46.5t43.5 -129.5v-331q0 -24 -24 -24h-92v339q0 49 -17 71t-58 22 q-52 0 -109 -51v-381h-116z" />
<glyph unicode="&#xf2;" horiz-adv-x="548" d="M154 649l32 86l206 -77l-26 -70zM52 220v79q0 106 59 169t163 63t163 -63t59 -169v-79q0 -108 -59 -170.5t-163 -62.5t-163 62.5t-59 170.5zM170 290v-62q0 -71 23.5 -106.5t80.5 -35.5q58 0 81.5 35.5t23.5 106.5v62q0 70 -24 106t-81 36t-80.5 -36t-23.5 -106z" />
<glyph unicode="&#xf3;" horiz-adv-x="548" d="M181 588l-27 70l207 77l31 -86zM52 220v79q0 106 59 169t163 63t163 -63t59 -169v-79q0 -108 -59 -170.5t-163 -62.5t-163 62.5t-59 170.5zM170 290v-62q0 -71 23.5 -106.5t80.5 -35.5q58 0 81.5 35.5t23.5 106.5v62q0 70 -24 106t-81 36t-80.5 -36t-23.5 -106z" />
<glyph unicode="&#xf4;" horiz-adv-x="548" d="M180 587l-49 71l143 77l143 -77l-49 -71l-94 55zM52 220v79q0 106 59 169t163 63t163 -63t59 -169v-79q0 -108 -59 -170.5t-163 -62.5t-163 62.5t-59 170.5zM170 290v-62q0 -71 23.5 -106.5t80.5 -35.5q58 0 81.5 35.5t23.5 106.5v62q0 70 -24 106t-81 36t-80.5 -36 t-23.5 -106z" />
<glyph unicode="&#xf5;" horiz-adv-x="548" d="M178 606l-44 52q44 61 95 61q23 0 53 -16.5t38 -16.5q24 0 50 30l45 -52q-44 -60 -95 -60q-22 0 -51 15.5t-40 15.5q-26 0 -51 -29zM52 220v79q0 106 59 169t163 63t163 -63t59 -169v-79q0 -108 -59 -170.5t-163 -62.5t-163 62.5t-59 170.5zM170 290v-62 q0 -71 23.5 -106.5t80.5 -35.5q58 0 81.5 35.5t23.5 106.5v62q0 70 -24 106t-81 36t-80.5 -36t-23.5 -106z" />
<glyph unicode="&#xf6;" horiz-adv-x="548" d="M303 660q0 24 17.5 42t41.5 18q23 0 41 -18.5t18 -41.5q0 -24 -18 -41.5t-41 -17.5q-24 0 -41.5 17.5t-17.5 41.5zM127 660q0 23 18 41.5t41 18.5q24 0 41.5 -18t17.5 -42t-17.5 -41.5t-41.5 -17.5q-23 0 -41 17.5t-18 41.5zM52 220v79q0 106 59 169t163 63t163 -63 t59 -169v-79q0 -108 -59 -170.5t-163 -62.5t-163 62.5t-59 170.5zM170 290v-62q0 -71 23.5 -106.5t80.5 -35.5q58 0 81.5 35.5t23.5 106.5v62q0 70 -24 106t-81 36t-80.5 -36t-23.5 -106z" />
<glyph unicode="&#xf8;" horiz-adv-x="548" d="M91 -55l39 87q-78 61 -78 188v79q0 106 59 169t163 63q37 0 72 -10l37 83l74 -32l-39 -87q78 -64 78 -186v-79q0 -108 -59 -170.5t-163 -62.5q-36 0 -74 10l-36 -84zM184 154l121 273q-15 5 -31 5q-57 0 -80.5 -36t-23.5 -106v-62q0 -47 14 -74zM379 228v62q0 44 -15 73 l-122 -273q12 -4 32 -4q58 0 81.5 35.5t23.5 106.5z" />
<glyph unicode="&#xf9;" horiz-adv-x="549" d="M156 649l32 86l206 -77l-26 -70zM64 163v331q0 24 24 24h92v-339q0 -49 17 -71t58 -22q52 0 109 51v381h116v-518h-98l-6 48q-69 -61 -144 -61q-81 0 -124.5 46.5t-43.5 129.5z" />
<glyph unicode="&#xfa;" horiz-adv-x="549" d="M182 588l-26 70l206 77l32 -86zM64 163v331q0 24 24 24h92v-339q0 -49 17 -71t58 -22q52 0 109 51v381h116v-518h-98l-6 48q-69 -61 -144 -61q-81 0 -124.5 46.5t-43.5 129.5z" />
<glyph unicode="&#xfb;" horiz-adv-x="549" d="M180 587l-48 71l143 77l143 -77l-49 -71l-94 55zM64 163v331q0 24 24 24h92v-339q0 -49 17 -71t58 -22q52 0 109 51v381h116v-518h-98l-6 48q-69 -61 -144 -61q-81 0 -124.5 46.5t-43.5 129.5z" />
<glyph unicode="&#xfc;" horiz-adv-x="549" d="M303 660q0 23 18 41.5t42 18.5q22 0 40 -18.5t18 -41.5q0 -24 -17.5 -41.5t-40.5 -17.5q-24 0 -42 17.5t-18 41.5zM128 660q0 24 17.5 42t41.5 18q23 0 40.5 -18.5t17.5 -41.5q0 -24 -17.5 -41.5t-40.5 -17.5q-24 0 -41.5 17.5t-17.5 41.5zM64 163v331q0 24 24 24h92 v-339q0 -49 17 -71t58 -22q52 0 109 51v381h116v-518h-98l-6 48q-69 -61 -144 -61q-81 0 -124.5 46.5t-43.5 129.5z" />
<glyph unicode="&#xfd;" horiz-adv-x="525" d="M167 588l-26 70l206 77l32 -86zM81 174l-46 344h114l44 -329q6 -43 23 -66t55 -23q35 0 71 14l21 404h112l-28 -549q-4 -81 -50.5 -125.5t-135.5 -44.5h-100l-7 98h110q38 0 53.5 20t17.5 58l2 40q-43 -15 -76 -15q-156 0 -180 174z" />
<glyph unicode="&#xfe;" horiz-adv-x="551" d="M69 -201v927h116v-245q62 50 125 50q88 0 138.5 -56t50.5 -157v-118q0 -100 -50.5 -156.5t-138.5 -56.5q-59 0 -125 50v-238h-116zM185 380v-244q64 -50 106 -50q48 0 69 31t21 99v86q0 68 -21 99t-69 31q-45 0 -106 -52z" />
<glyph unicode="&#xff;" horiz-adv-x="525" d="M288 660q0 23 18 41.5t41 18.5t41 -18.5t18 -41.5q0 -24 -18 -41.5t-41 -17.5t-41 17.5t-18 41.5zM113 660q0 24 17.5 42t41.5 18q23 0 40.5 -18.5t17.5 -41.5q0 -24 -17.5 -41.5t-40.5 -17.5q-24 0 -41.5 17.5t-17.5 41.5zM81 174l-46 344h114l44 -329q6 -43 23 -66 t55 -23q35 0 71 14l21 404h112l-28 -549q-4 -81 -50.5 -125.5t-135.5 -44.5h-100l-7 98h110q38 0 53.5 20t17.5 58l2 40q-43 -15 -76 -15q-156 0 -180 174z" />
<glyph unicode="&#x100;" horiz-adv-x="661" d="M216 784v85h229v-85h-229zM35 0l154 592q13 53 49.5 86t91.5 33q54 0 90 -33.5t50 -85.5l156 -592h-120l-48 188h-256l-47 -188h-120zM226 287h208l-73 290q-9 31 -31 31q-23 0 -31 -31z" />
<glyph unicode="&#x101;" horiz-adv-x="516" d="M144 619v85h229v-85h-229zM356 0l-7 49q-54 -62 -135 -62q-78 0 -124.5 44t-46.5 120q0 82 63 120t170 38h60v23q0 51 -21 75.5t-72 24.5q-61 0 -141 -25l-25 93q91 31 166 31q100 0 154.5 -53t54.5 -139v-339h-96zM336 132v92h-52q-58 0 -90.5 -15.5t-32.5 -57.5 q0 -65 73 -65q59 0 102 46z" />
<glyph unicode="&#x102;" horiz-adv-x="661" d="M200 892h80q0 -55 50 -55t50 55h80q0 -60 -34.5 -96.5t-95.5 -36.5q-62 0 -96 36.5t-34 96.5zM35 0l154 592q13 53 49.5 86t91.5 33q54 0 90 -33.5t50 -85.5l156 -592h-120l-48 188h-256l-47 -188h-120zM226 287h208l-73 290q-9 31 -31 31q-23 0 -31 -31z" />
<glyph unicode="&#x103;" horiz-adv-x="516" d="M122 727h80q0 -55 50 -55t50 55h80q0 -60 -34.5 -96.5t-95.5 -36.5q-62 0 -96 36.5t-34 96.5zM356 0l-7 49q-54 -62 -135 -62q-78 0 -124.5 44t-46.5 120q0 82 63 120t170 38h60v23q0 51 -21 75.5t-72 24.5q-61 0 -141 -25l-25 93q91 31 166 31q100 0 154.5 -53 t54.5 -139v-339h-96zM336 132v92h-52q-58 0 -90.5 -15.5t-32.5 -57.5q0 -65 73 -65q59 0 102 46z" />
<glyph unicode="&#x104;" horiz-adv-x="661" d="M35 0l154 592q13 53 49.5 86t91.5 33q54 0 90 -33.5t50 -85.5l156 -592q-76 -60 -76 -104q0 -27 28 -27q12 0 32 6l10 -79q-30 -10 -66 -10q-42 0 -69.5 25.5t-27.5 65.5q0 65 68 123h-19l-48 188h-256l-47 -188h-120zM226 287h208l-73 290q-9 31 -31 31q-23 0 -31 -31z " />
<glyph unicode="&#x105;" horiz-adv-x="516" d="M435 -125l11 -79q-30 -10 -67 -10q-42 0 -69 25.5t-27 65.5q0 71 72 127l-6 45q-54 -62 -135 -62q-78 0 -124.5 44t-46.5 120q0 82 63 120t170 38h60v23q0 51 -21 75.5t-72 24.5q-61 0 -141 -25l-25 93q91 31 166 31q100 0 154.5 -53t54.5 -139v-339q-76 -60 -76 -104 q0 -27 27 -27q14 0 32 6zM336 132v92h-52q-58 0 -90.5 -15.5t-32.5 -57.5q0 -65 73 -65q59 0 102 46z" />
<glyph unicode="&#x106;" horiz-adv-x="564" d="M204 753l-26 70l206 77l32 -86zM58 245v207q0 124 68 191.5t188 67.5q98 0 198 -30l-21 -97q-88 26 -163 26q-76 0 -112 -41t-36 -128v-185q0 -86 36 -127t112 -41q71 0 163 25l21 -96q-100 -30 -198 -30q-120 0 -188 67t-68 191z" />
<glyph unicode="&#x107;" horiz-adv-x="483" d="M169 588l-26 70l206 77l31 -86zM52 223v73q0 106 57 170.5t166 64.5q74 0 166 -29l-26 -94q-72 24 -134 24q-111 0 -111 -145v-54q0 -147 111 -147q62 0 134 25l26 -95q-92 -29 -166 -29q-109 0 -166 65t-57 171z" />
<glyph unicode="&#x108;" horiz-adv-x="564" d="M216 752l-48 71l143 77l143 -77l-49 -71l-94 55zM58 245v207q0 124 68 191.5t188 67.5q98 0 198 -30l-21 -97q-88 26 -163 26q-76 0 -112 -41t-36 -128v-185q0 -86 36 -127t112 -41q71 0 163 25l21 -96q-100 -30 -198 -30q-120 0 -188 67t-68 191z" />
<glyph unicode="&#x109;" horiz-adv-x="483" d="M173 587l-48 71l143 77l143 -77l-49 -71l-94 55zM52 223v73q0 106 57 170.5t166 64.5q74 0 166 -29l-26 -94q-72 24 -134 24q-111 0 -111 -145v-54q0 -147 111 -147q62 0 134 25l26 -95q-92 -29 -166 -29q-109 0 -166 65t-57 171z" />
<glyph unicode="&#x10a;" horiz-adv-x="564" d="M236 825q0 24 17.5 42t41.5 18q23 0 41 -18.5t18 -41.5q0 -24 -18 -41.5t-41 -17.5q-24 0 -41.5 17.5t-17.5 41.5zM58 245v207q0 124 68 191.5t188 67.5q98 0 198 -30l-21 -97q-88 26 -163 26q-76 0 -112 -41t-36 -128v-185q0 -86 36 -127t112 -41q71 0 163 25l21 -96 q-100 -30 -198 -30q-120 0 -188 67t-68 191z" />
<glyph unicode="&#x10b;" horiz-adv-x="483" d="M195 660q0 24 17.5 42t41.5 18q23 0 41 -18.5t18 -41.5q0 -24 -18 -41.5t-41 -17.5q-24 0 -41.5 17.5t-17.5 41.5zM52 223v73q0 106 57 170.5t166 64.5q74 0 166 -29l-26 -94q-72 24 -134 24q-111 0 -111 -145v-54q0 -147 111 -147q62 0 134 25l26 -95q-92 -29 -166 -29 q-109 0 -166 65t-57 171z" />
<glyph unicode="&#x10c;" horiz-adv-x="564" d="M161 829l49 70l94 -54l94 54l49 -70l-143 -78zM58 245v207q0 124 68 191.5t188 67.5q98 0 198 -30l-21 -97q-88 26 -163 26q-76 0 -112 -41t-36 -128v-185q0 -86 36 -127t112 -41q71 0 163 25l21 -96q-100 -30 -198 -30q-120 0 -188 67t-68 191z" />
<glyph unicode="&#x10d;" horiz-adv-x="483" d="M121 664l49 70l94 -54l94 54l49 -70l-143 -78zM52 223v73q0 106 57 170.5t166 64.5q74 0 166 -29l-26 -94q-72 24 -134 24q-111 0 -111 -145v-54q0 -147 111 -147q62 0 134 25l26 -95q-92 -29 -166 -29q-109 0 -166 65t-57 171z" />
<glyph unicode="&#x10e;" horiz-adv-x="654" d="M180 829l49 70l94 -54l94 54l49 -70l-143 -78zM83 0v698h253q133 0 196.5 -62.5t63.5 -193.5v-187q0 -130 -63.5 -192.5t-196.5 -62.5h-253zM202 101h131q85 0 113 40t28 125v165q0 85 -28 125.5t-113 40.5h-131v-496z" />
<glyph unicode="&#x10f;" horiz-adv-x="550" d="M527 570l24 156h103l-42 -156h-85zM52 200v118q0 101 50.5 157t138.5 56q64 0 124 -50v245h116v-726h-98l-6 46q-68 -59 -136 -59q-88 0 -138.5 56.5t-50.5 156.5zM170 302v-86q0 -68 21 -99t68 -31t106 50v244q-56 52 -106 52q-47 0 -68 -31t-21 -99z" />
<glyph unicode="&#x110;" horiz-adv-x="654" d="M83 0v307h-72v84h72v307h253q133 0 196.5 -62.5t63.5 -193.5v-187q0 -130 -63.5 -192.5t-196.5 -62.5h-253zM202 101h131q85 0 113 40t28 125v165q0 85 -28 125.5t-113 40.5h-131v-206h122v-84h-122v-206z" />
<glyph unicode="&#x111;" horiz-adv-x="550" d="M52 200v118q0 101 50.5 157t138.5 56q64 0 124 -50v115h-145v77h145v53h116v-53h49v-77h-49v-596h-98l-6 46q-68 -59 -136 -59q-88 0 -138.5 56.5t-50.5 156.5zM170 302v-86q0 -68 21 -99t68 -31t106 50v244q-56 52 -106 52q-47 0 -68 -31t-21 -99z" />
<glyph unicode="&#x112;" horiz-adv-x="520" d="M162 784v85h229v-85h-229zM63 185v327q0 86 54 136t158 50h189v-101h-187q-53 0 -74 -23t-21 -70v-96h252v-100h-252v-115q0 -48 21 -70t74 -22h191v-77q0 -24 -24 -24h-169q-103 0 -157.5 49.5t-54.5 135.5z" />
<glyph unicode="&#x113;" horiz-adv-x="526" d="M146 619v85h229v-85h-229zM52 202v114q0 89 57.5 152t155.5 63t156 -64.5t58 -150.5v-67q0 -10 -7 -17t-16 -7h-288v-23q0 -116 111 -116q59 0 151 26l24 -92q-104 -33 -175 -33q-111 0 -169 62.5t-58 152.5zM168 307h195v17q0 45 -23 76.5t-74 31.5q-50 0 -74 -31.5 t-24 -76.5v-17z" />
<glyph unicode="&#x114;" horiz-adv-x="520" d="M150 892h80q0 -55 50 -55t50 55h80q0 -60 -34.5 -96.5t-95.5 -36.5t-95.5 36.5t-34.5 96.5zM63 185v327q0 86 54 136t158 50h189v-101h-187q-53 0 -74 -23t-21 -70v-96h252v-100h-252v-115q0 -48 21 -70t74 -22h191v-77q0 -24 -24 -24h-169q-103 0 -157.5 49.5 t-54.5 135.5z" />
<glyph unicode="&#x115;" horiz-adv-x="526" d="M130 727h80q0 -55 50 -55q23 0 36.5 14t13.5 41h80q0 -60 -34.5 -96.5t-95.5 -36.5q-62 0 -96 36.5t-34 96.5zM52 202v114q0 89 57.5 152t155.5 63t156 -64.5t58 -150.5v-67q0 -10 -7 -17t-16 -7h-288v-23q0 -116 111 -116q59 0 151 26l24 -92q-104 -33 -175 -33 q-111 0 -169 62.5t-58 152.5zM168 307h195v17q0 45 -23 76.5t-74 31.5q-50 0 -74 -31.5t-24 -76.5v-17z" />
<glyph unicode="&#x116;" horiz-adv-x="520" d="M231 825q0 23 18 41.5t42 18.5q22 0 40 -18.5t18 -41.5q0 -24 -17.5 -41.5t-40.5 -17.5q-24 0 -42 17.5t-18 41.5zM63 185v327q0 86 54 136t158 50h189v-101h-187q-53 0 -74 -23t-21 -70v-96h252v-100h-252v-115q0 -48 21 -70t74 -22h191v-77q0 -24 -24 -24h-169 q-103 0 -157.5 49.5t-54.5 135.5z" />
<glyph unicode="&#x117;" horiz-adv-x="526" d="M201 660q0 24 17.5 42t41.5 18q23 0 41 -18.5t18 -41.5q0 -24 -18 -41.5t-41 -17.5q-24 0 -41.5 17.5t-17.5 41.5zM52 202v114q0 89 57.5 152t155.5 63t156 -64.5t58 -150.5v-67q0 -10 -7 -17t-16 -7h-288v-23q0 -116 111 -116q59 0 151 26l24 -92q-104 -33 -175 -33 q-111 0 -169 62.5t-58 152.5zM168 307h195v17q0 45 -23 76.5t-74 31.5q-50 0 -74 -31.5t-24 -76.5v-17z" />
<glyph unicode="&#x118;" horiz-adv-x="520" d="M452 -125l10 -79q-30 -10 -66 -10q-42 0 -69.5 25.5t-27.5 65.5q0 65 68 123h-92q-103 0 -157.5 49.5t-54.5 135.5v327q0 86 54 136t158 50h189v-101h-187q-55 0 -75 -24.5t-20 -68.5v-96h252v-100h-252v-115q0 -45 20 -68.5t75 -23.5h191v-101q-76 -60 -76 -104 q0 -27 28 -27q12 0 32 6z" />
<glyph unicode="&#x119;" horiz-adv-x="526" d="M52 202v114q0 89 57.5 152t155.5 63t156 -64.5t58 -150.5v-67q0 -10 -7 -17t-16 -7h-288v-23q0 -116 111 -116q59 0 151 26l24 -92q-29 -23 -52.5 -59.5t-23.5 -62.5q0 -29 28 -29q12 0 32 6l10 -79q-30 -10 -66 -10q-42 0 -69.5 25.5t-27.5 67.5q0 57 47 113 q-28 -5 -53 -5q-111 0 -169 62.5t-58 152.5zM168 307h195v17q0 45 -23 76.5t-74 31.5q-50 0 -74 -31.5t-24 -76.5v-17z" />
<glyph unicode="&#x11a;" horiz-adv-x="520" d="M139 829l49 70l94 -54l94 54l49 -70l-143 -78zM63 185v327q0 86 54 136t158 50h189v-101h-187q-53 0 -74 -23t-21 -70v-96h252v-100h-252v-115q0 -48 21 -70t74 -22h191v-77q0 -24 -24 -24h-169q-103 0 -157.5 49.5t-54.5 135.5z" />
<glyph unicode="&#x11b;" horiz-adv-x="526" d="M117 664l48 70l95 -54l94 54l49 -70l-143 -78zM52 202v114q0 89 57.5 152t155.5 63t156 -64.5t58 -150.5v-67q0 -10 -7 -17t-16 -7h-288v-23q0 -116 111 -116q59 0 151 26l24 -92q-104 -33 -175 -33q-111 0 -169 62.5t-58 152.5zM168 307h195v17q0 45 -23 76.5t-74 31.5 q-50 0 -74 -31.5t-24 -76.5v-17z" />
<glyph unicode="&#x11c;" horiz-adv-x="632" d="M221 752l-48 71l143 77l143 -77l-49 -71l-94 55zM58 245v207q0 124 68 191.5t188 67.5q98 0 198 -30l-21 -96q-92 25 -163 25q-76 0 -112 -41t-36 -128v-185q0 -86 36 -127t112 -41q49 0 121 17v237l115 9v-322q-150 -42 -250 -42q-120 0 -188 67t-68 191z" />
<glyph unicode="&#x11d;" horiz-adv-x="551" d="M176 587l-48 71l143 77l143 -77l-49 -71l-94 55zM148 -201l-13 97h162q32 0 50 20.5t18 53.5v78q-58 -48 -124 -48q-88 0 -138.5 56t-50.5 157v105q0 101 50.5 157t138.5 56q69 0 136 -60l6 47h98v-545q0 -81 -47.5 -127.5t-136.5 -46.5h-149zM170 302v-73 q0 -68 20.5 -99t68.5 -31q46 0 106 47v234q-59 52 -106 52t-68 -31t-21 -99z" />
<glyph unicode="&#x11e;" horiz-adv-x="632" d="M178 892h80q0 -55 50 -55t50 55h80q0 -60 -34.5 -96.5t-95.5 -36.5t-95.5 36.5t-34.5 96.5zM58 245v207q0 124 68 191.5t188 67.5q98 0 198 -30l-21 -96q-92 25 -163 25q-76 0 -112 -41t-36 -128v-185q0 -86 36 -127t112 -41q49 0 121 17v237l115 9v-322 q-150 -42 -250 -42q-120 0 -188 67t-68 191z" />
<glyph unicode="&#x11f;" horiz-adv-x="551" d="M136 727h80q0 -55 50 -55t50 55h80q0 -60 -34.5 -96.5t-95.5 -36.5t-95.5 36.5t-34.5 96.5zM148 -201l-13 97h162q32 0 50 20.5t18 53.5v78q-58 -48 -124 -48q-88 0 -138.5 56t-50.5 157v105q0 101 50.5 157t138.5 56q69 0 136 -60l6 47h98v-545q0 -81 -47.5 -127.5 t-136.5 -46.5h-149zM170 302v-73q0 -68 20.5 -99t68.5 -31q46 0 106 47v234q-59 52 -106 52t-68 -31t-21 -99z" />
<glyph unicode="&#x120;" horiz-adv-x="632" d="M257 825q0 24 17.5 42t41.5 18q23 0 41 -18.5t18 -41.5q0 -24 -18 -41.5t-41 -17.5q-24 0 -41.5 17.5t-17.5 41.5zM58 245v207q0 124 68 191.5t188 67.5q98 0 198 -30l-21 -96q-92 25 -163 25q-76 0 -112 -41t-36 -128v-185q0 -86 36 -127t112 -41q49 0 121 17v237l115 9 v-322q-150 -42 -250 -42q-120 0 -188 67t-68 191z" />
<glyph unicode="&#x121;" horiz-adv-x="551" d="M201 660q0 23 18 41.5t41 18.5t41 -18.5t18 -41.5q0 -24 -18 -41.5t-41 -17.5t-41 17.5t-18 41.5zM148 -201l-13 97h162q32 0 50 20.5t18 53.5v78q-58 -48 -124 -48q-88 0 -138.5 56t-50.5 157v105q0 101 50.5 157t138.5 56q69 0 136 -60l6 47h98v-545 q0 -81 -47.5 -127.5t-136.5 -46.5h-149zM170 302v-73q0 -68 20.5 -99t68.5 -31q46 0 106 47v234q-59 52 -106 52t-68 -31t-21 -99z" />
<glyph unicode="&#x122;" horiz-adv-x="632" d="M58 245v207q0 124 68 191.5t188 67.5q98 0 198 -30l-21 -96q-92 25 -163 25q-76 0 -112 -41t-36 -128v-185q0 -86 36 -127t112 -41q49 0 121 17v237l115 9v-322q-150 -42 -250 -42q-120 0 -188 67t-68 191zM267 -214l22 150h103l-41 -150h-84z" />
<glyph unicode="&#x123;" horiz-adv-x="551" d="M215 583l38 150h88l-26 -150h-100zM148 -201l-13 98h162q32 0 50 20t18 53v78q-58 -48 -124 -48q-88 0 -138.5 56t-50.5 157v105q0 101 50.5 157t138.5 56q69 0 136 -60l6 47h98v-545q0 -81 -47.5 -127.5t-136.5 -46.5h-149zM170 302v-73q0 -68 20.5 -99t68.5 -31 q46 0 106 48v232q-60 53 -106 53q-47 0 -68 -31t-21 -99z" />
<glyph unicode="&#x124;" horiz-adv-x="674" d="M242 752l-49 71l143 77l143 -77l-48 -71l-95 55zM83 0v698h119v-290h269v290h120v-674q0 -24 -24 -24h-96v309h-269v-309h-119z" />
<glyph unicode="&#x125;" horiz-adv-x="549" d="M34 752l-49 71l143 77l143 -77l-49 -71l-94 54zM69 0v726h116v-246q65 51 132 51q81 0 124.5 -46.5t43.5 -129.5v-331q0 -24 -24 -24h-92v339q0 49 -17 71t-58 22q-52 0 -109 -51v-381h-116z" />
<glyph unicode="&#x126;" horiz-adv-x="674" d="M83 0v515h-57v84h57v99h119v-99h269v99h120v-99h56v-84h-56v-491q0 -24 -24 -24h-96v309h-269v-309h-119zM202 408h269v107h-269v-107z" />
<glyph unicode="&#x127;" horiz-adv-x="549" d="M69 0v598h-50v77h50v51h116v-51h144v-77h-144v-118q65 51 132 51q81 0 124.5 -46.5t43.5 -129.5v-331q0 -24 -24 -24h-92v339q0 49 -17 71t-58 22q-52 0 -109 -51v-381h-116z" />
<glyph unicode="&#x128;" horiz-adv-x="285" d="M47 771l-44 52q43 61 95 61q23 0 52 -16.5t38 -16.5q24 0 51 30l45 -52q-25 -33 -46.5 -46.5t-49.5 -13.5q-22 0 -51 15.5t-39 15.5q-26 0 -51 -29zM83 0v698h119v-674q0 -24 -24 -24h-95z" />
<glyph unicode="&#x129;" horiz-adv-x="255" d="M32 606l-45 52q44 61 96 61q23 0 52 -16.5t38 -16.5q24 0 50 30l45 -52q-24 -33 -45.5 -46.5t-49.5 -13.5q-23 0 -51.5 15.5t-38.5 15.5q-26 0 -51 -29zM69 0v518h116v-494q0 -24 -24 -24h-92z" />
<glyph unicode="&#x12a;" horiz-adv-x="285" d="M29 784v85h229v-85h-229zM83 0v698h119v-674q0 -24 -24 -24h-95z" />
<glyph unicode="&#x12b;" horiz-adv-x="255" d="M13 619v85h229v-85h-229zM69 0v518h116v-494q0 -24 -24 -24h-92z" />
<glyph unicode="&#x12c;" horiz-adv-x="285" d="M13 881h80q0 -55 50 -55q23 0 36.5 14t13.5 41h80q0 -60 -34.5 -96.5t-95.5 -36.5q-62 0 -96 36.5t-34 96.5zM83 0v698h119v-674q0 -24 -24 -24h-95z" />
<glyph unicode="&#x12d;" horiz-adv-x="255" d="M-3 727h80q0 -55 50 -55q23 0 37 14t14 41h80q0 -60 -35 -96.5t-96 -36.5t-95.5 36.5t-34.5 96.5zM69 0v518h116v-494q0 -24 -24 -24h-92z" />
<glyph unicode="&#x12e;" horiz-adv-x="285" d="M83 0v698h119v-698q-75 -60 -75 -104q0 -27 27 -27q12 0 32 6l11 -79q-30 -10 -67 -10q-42 0 -69 25.5t-27 65.5q0 67 68 123h-19z" />
<glyph unicode="&#x12f;" horiz-adv-x="255" d="M127 597q-28 0 -47.5 19t-19.5 47t19 46.5t48 18.5t48.5 -18.5t19.5 -46.5t-19.5 -47t-48.5 -19zM69 0v518h116v-518q-75 -60 -75 -104q0 -27 27 -27q12 0 32 6l11 -79q-30 -10 -67 -10q-42 0 -69 25.5t-27 65.5q0 67 68 123h-16z" />
<glyph unicode="&#x130;" horiz-adv-x="285" d="M84 825q0 24 17.5 42t41.5 18q23 0 41 -18.5t18 -41.5q0 -24 -18 -41.5t-41 -17.5q-24 0 -41.5 17.5t-17.5 41.5zM83 0v698h119v-674q0 -24 -24 -24h-95z" />
<glyph unicode="&#x131;" horiz-adv-x="255" d="M69 0v518h116v-494q0 -24 -24 -24h-92z" />
<glyph unicode="&#x132;" horiz-adv-x="771" d="M314 14l24 96q66 -22 125 -22q65 0 88 36.5t23 107.5v466h119v-476q0 -107 -54.5 -171t-173.5 -64q-71 0 -151 27zM83 0v698h119v-674q0 -24 -24 -24h-95z" />
<glyph unicode="&#x133;" horiz-adv-x="510" d="M382 597q-28 0 -47.5 19t-19.5 47t19 46.5t48 18.5t48.5 -18.5t19.5 -46.5t-19.5 -47t-48.5 -19zM127 597q-28 0 -47.5 19t-19.5 47t19 46.5t48 18.5t48.5 -18.5t19.5 -46.5t-19.5 -47t-48.5 -19zM182 -199l18 94q42 -10 70 -10q29 0 41.5 15t12.5 53v565h116v-570 q0 -76 -42.5 -119t-124.5 -43q-38 0 -91 15zM69 0v518h116v-494q0 -24 -24 -24h-92z" />
<glyph unicode="&#x134;" horiz-adv-x="485" d="M251 752l-49 71l143 77l143 -77l-49 -71l-94 55zM28 14l25 96q65 -22 125 -22q65 0 87.5 36.5t22.5 107.5v466h119v-476q0 -107 -54.5 -171t-173.5 -64q-71 0 -151 27z" />
<glyph unicode="&#x135;" horiz-adv-x="255" d="M33 600l-49 71l143 77l143 -77l-48 -71l-95 54zM-73 -199l18 94q42 -10 70 -10q29 0 41.5 15t12.5 53v565h116v-570q0 -76 -42.5 -119t-124.5 -43q-38 0 -91 15z" />
<glyph unicode="&#x136;" horiz-adv-x="604" d="M83 0v698h119v-293l72 5l131 288h132l-145 -299q55 -22 81 -95l103 -304h-125l-93 273q-14 42 -54 39l-102 -7v-281q0 -24 -24 -24h-95zM238 -214l23 150h103l-41 -150h-85z" />
<glyph unicode="&#x137;" horiz-adv-x="501" d="M69 0v726h116v-403l63 18q26 8 36 34l60 143h121l-80 -187q-20 -44 -54 -64l153 -267h-127l-126 232l-46 -12v-196q0 -24 -24 -24h-92zM190 -214l23 150h103l-41 -150h-85z" />
<glyph unicode="&#x139;" horiz-adv-x="547" d="M48 753l-26 70l206 77l32 -86zM83 0v698h119v-597h307v-77q0 -24 -24 -24h-402z" />
<glyph unicode="&#x13a;" horiz-adv-x="258" d="M35 753l-27 70l207 76l31 -85zM69 110v616h116v-604q0 -22 7 -30t25 -10l-24 -92q-59 5 -91.5 32t-32.5 88z" />
<glyph unicode="&#x13b;" horiz-adv-x="547" d="M83 0v698h119v-597h307v-77q0 -24 -24 -24h-402zM231 -214l22 150h104l-42 -150h-84z" />
<glyph unicode="&#x13c;" horiz-adv-x="258" d="M69 110v616h116v-604q0 -22 7 -30t25 -10l-24 -92q-59 5 -91.5 32t-32.5 88zM66 -214l22 150h103l-41 -150h-84z" />
<glyph unicode="&#x13d;" horiz-adv-x="547" d="M83 0v698h119v-597h307v-77q0 -24 -24 -24h-402zM333 542l24 156h103l-43 -156h-84z" />
<glyph unicode="&#x13e;" horiz-adv-x="258" d="M234 570l24 156h104l-43 -156h-85zM69 110v616h116v-604q0 -22 7 -30t25 -10l-24 -92q-59 5 -91.5 32t-32.5 88z" />
<glyph unicode="&#x13f;" horiz-adv-x="547" d="M83 0v698h119v-597h307v-77q0 -24 -24 -24h-402zM308 303q0 25 17.5 42.5t42.5 17.5q26 0 43 -17.5t17 -42.5t-17 -42t-43 -17q-25 0 -42.5 17t-17.5 42z" />
<glyph unicode="&#x140;" horiz-adv-x="341" d="M69 110v616h116v-604q0 -22 7 -30t25 -10l-24 -92q-59 5 -91.5 32t-32.5 88zM238 303q0 25 17 42.5t42 17.5t42.5 -17.5t17.5 -42.5t-17 -42t-43 -17q-25 0 -42 17t-17 42z" />
<glyph unicode="&#x141;" horiz-adv-x="547" d="M83 0v245l-48 -17l-30 81l78 28v361h119v-318l92 33l29 -80l-121 -44v-188h307v-77q0 -24 -24 -24h-402z" />
<glyph unicode="&#x142;" horiz-adv-x="258" d="M69 110v143l-46 -17l-29 81l75 28v381h116v-339l49 18l30 -81l-79 -28v-174q0 -22 7 -30t25 -10l-24 -92q-59 5 -91.5 32t-32.5 88z" />
<glyph unicode="&#x143;" horiz-adv-x="662" d="M238 753l-26 70l206 77l32 -86zM83 0v698h109l277 -482q-7 66 -7 132v350h117v-698h-109l-276 481q7 -84 7 -131v-350h-118z" />
<glyph unicode="&#x144;" horiz-adv-x="549" d="M182 588l-26 70l206 77l32 -86zM69 0v518h98l6 -48q69 61 144 61q81 0 124.5 -46.5t43.5 -129.5v-331q0 -24 -24 -24h-92v339q0 49 -17 71t-58 22q-52 0 -109 -51v-381h-116z" />
<glyph unicode="&#x145;" horiz-adv-x="662" d="M83 0v698h109l277 -482q-7 66 -7 132v350h117v-698h-109l-276 481q7 -84 7 -131v-350h-118zM266 -214l23 150h103l-41 -150h-85z" />
<glyph unicode="&#x146;" horiz-adv-x="549" d="M69 0v518h98l6 -48q69 61 144 61q81 0 124.5 -46.5t43.5 -129.5v-331q0 -24 -24 -24h-92v339q0 49 -17 71t-58 22q-52 0 -109 -51v-381h-116zM213 -214l22 150h103l-41 -150h-84z" />
<glyph unicode="&#x147;" horiz-adv-x="662" d="M188 829l49 70l94 -54l94 54l49 -70l-143 -78zM83 0v698h109l277 -482q-7 66 -7 132v350h117v-698h-109l-276 481q7 -84 7 -131v-350h-118z" />
<glyph unicode="&#x148;" horiz-adv-x="549" d="M131 664l49 70l94 -54l95 54l48 -70l-143 -78zM69 0v518h98l6 -48q69 61 144 61q81 0 124.5 -46.5t43.5 -129.5v-331q0 -24 -24 -24h-92v339q0 49 -17 71t-58 22q-52 0 -109 -51v-381h-116z" />
<glyph unicode="&#x14a;" horiz-adv-x="662" d="M83 0v698h109l277 -482q-7 66 -7 132v350h117v-745q0 -76 -42.5 -119t-124.5 -43q-38 0 -91 15l18 94q42 -10 70 -10q29 0 41.5 15t12.5 53v54l-269 469q7 -84 7 -131v-350h-118z" />
<glyph unicode="&#x14b;" horiz-adv-x="549" d="M226 -196l19 95q36 -10 69 -10q29 0 42 15.5t13 52.5v382q0 49 -17 71t-58 22q-52 0 -109 -51v-381h-116v518h98l6 -48q69 61 144 61q81 0 124.5 -46.5t43.5 -129.5v-404q0 -75 -43 -118t-125 -43q-41 0 -91 14z" />
<glyph unicode="&#x14c;" horiz-adv-x="664" d="M217 784v85h229v-85h-229zM58 280v138q0 131 73.5 212t200.5 81t200.5 -81t73.5 -212v-138q0 -131 -73 -212t-201 -81t-201 81t-73 212zM180 407v-116q0 -203 152 -203t152 203v116q0 203 -152 203t-152 -203z" />
<glyph unicode="&#x14d;" horiz-adv-x="548" d="M160 619v85h229v-85h-229zM52 220v79q0 106 59 169t163 63t163 -63t59 -169v-79q0 -108 -59 -170.5t-163 -62.5t-163 62.5t-59 170.5zM170 290v-62q0 -71 23.5 -106.5t80.5 -35.5q58 0 81.5 35.5t23.5 106.5v62q0 70 -24 106t-81 36t-80.5 -36t-23.5 -106z" />
<glyph unicode="&#x14e;" horiz-adv-x="664" d="M202 892h80q0 -55 50 -55q23 0 36.5 14t13.5 41h80q0 -60 -34.5 -96.5t-95.5 -36.5q-62 0 -96 36.5t-34 96.5zM58 280v138q0 131 73.5 212t200.5 81t200.5 -81t73.5 -212v-138q0 -131 -73 -212t-201 -81t-201 81t-73 212zM180 407v-116q0 -203 152 -203t152 203v116 q0 203 -152 203t-152 -203z" />
<glyph unicode="&#x14f;" horiz-adv-x="548" d="M144 727h80q0 -55 50 -55t50 55h80q0 -60 -34.5 -96.5t-95.5 -36.5t-95.5 36.5t-34.5 96.5zM52 220v79q0 106 59 169t163 63t163 -63t59 -169v-79q0 -108 -59 -170.5t-163 -62.5t-163 62.5t-59 170.5zM170 290v-62q0 -71 23.5 -106.5t80.5 -35.5q58 0 81.5 35.5 t23.5 106.5v62q0 70 -24 106t-81 36t-80.5 -36t-23.5 -106z" />
<glyph unicode="&#x150;" horiz-adv-x="664" d="M351 791l102 122l71 -63l-114 -111zM171 791l102 122l71 -63l-114 -111zM58 280v138q0 131 73.5 212t200.5 81t200.5 -81t73.5 -212v-138q0 -131 -73 -212t-201 -81t-201 81t-73 212zM180 407v-116q0 -203 152 -203t152 203v116q0 203 -152 203t-152 -203z" />
<glyph unicode="&#x151;" horiz-adv-x="548" d="M299 626l102 122l71 -63l-114 -111zM119 626l102 122l71 -63l-114 -111zM52 220v79q0 106 59 169t163 63t163 -63t59 -169v-79q0 -108 -59 -170.5t-163 -62.5t-163 62.5t-59 170.5zM170 290v-62q0 -71 23.5 -106.5t80.5 -35.5q58 0 81.5 35.5t23.5 106.5v62q0 70 -24 106 t-81 36t-80.5 -36t-23.5 -106z" />
<glyph unicode="&#x152;" horiz-adv-x="931" d="M58 280v138q0 131 73.5 212t200.5 81q44 0 90 -13h453v-101h-320q51 -71 51 -168v-21h239v-100h-239v-28q0 -108 -51 -179h324v-77q0 -24 -24 -24h-431q-46 -13 -92 -13q-128 0 -201 81t-73 212zM180 407v-116q0 -203 152 -203t152 203v116q0 203 -152 203t-152 -203z " />
<glyph unicode="&#x153;" horiz-adv-x="854" d="M52 220v79q0 106 59 169t163 63q106 0 162 -69q59 69 157 69t156 -64.5t58 -150.5v-67q0 -10 -7 -17t-17 -7h-287v-23q0 -116 110 -116q60 0 152 26l24 -92q-106 -33 -175 -33q-111 0 -171 68q-57 -68 -162 -68q-104 0 -163 62.5t-59 170.5zM496 307h195v17 q0 45 -23 76.5t-74 31.5t-74.5 -31.5t-23.5 -76.5v-17zM170 290v-62q0 -71 23.5 -106.5t80.5 -35.5q58 0 81.5 35.5t23.5 106.5v62q0 70 -24 106t-81 36t-80.5 -36t-23.5 -106z" />
<glyph unicode="&#x154;" horiz-adv-x="580" d="M197 753l-26 70l206 77l32 -86zM83 0v671q129 40 221 40q109 0 171 -66.5t62 -160.5q0 -37 -13 -74.5t-46.5 -75t-82.5 -54.5l133 -280h-130l-121 263h-75v-263h-119zM202 359h91q57 0 88 35t31 90t-26.5 90.5t-81.5 35.5q-56 0 -102 -15v-236z" />
<glyph unicode="&#x155;" horiz-adv-x="372" d="M93 588l-26 70l206 77l32 -86zM69 0v518h95l10 -67q24 34 59 56.5t72 22.5q26 0 50 -6l-16 -98q-16 4 -39 4q-53 0 -115 -73v-357h-116z" />
<glyph unicode="&#x156;" horiz-adv-x="580" d="M83 0v671q129 40 221 40q109 0 171 -66.5t62 -160.5q0 -37 -13 -74.5t-46.5 -75t-82.5 -54.5l133 -280h-130l-121 263h-75v-263h-119zM202 359h91q57 0 88 35t31 90t-26.5 90.5t-81.5 35.5q-56 0 -102 -15v-236zM226 -214l22 150h104l-42 -150h-84z" />
<glyph unicode="&#x157;" horiz-adv-x="372" d="M69 0v518h95l10 -67q24 34 59 56.5t72 22.5q26 0 50 -6l-16 -98q-16 4 -39 4q-53 0 -115 -73v-357h-116zM54 -214l22 150h103l-41 -150h-84z" />
<glyph unicode="&#x158;" horiz-adv-x="580" d="M146 829l49 70l94 -54l95 54l48 -70l-143 -78zM83 0v671q129 40 221 40q109 0 171 -66.5t62 -160.5q0 -37 -13 -74.5t-46.5 -75t-82.5 -54.5l133 -280h-130l-121 263h-75v-263h-119zM202 359h91q57 0 88 35t31 90t-26.5 90.5t-81.5 35.5q-56 0 -102 -15v-236z" />
<glyph unicode="&#x159;" horiz-adv-x="372" d="M58 664l49 70l94 -54l94 54l49 -70l-143 -78zM69 0v518h95l10 -67q24 34 59 56.5t72 22.5q26 0 50 -6l-16 -98q-16 4 -39 4q-53 0 -115 -73v-357h-116z" />
<glyph unicode="&#x15a;" horiz-adv-x="525" d="M170 753l-27 70l207 77l31 -86zM42 26l21 98q113 -36 179 -36q58 0 86 26.5t28 72.5q0 30 -16.5 52.5t-43.5 37.5t-59 29t-64 31.5t-59 39.5t-43.5 58.5t-16.5 83.5q0 89 64.5 140.5t167.5 51.5q72 0 173 -37l-30 -94q-85 30 -143 30q-52 0 -79.5 -24t-27.5 -67 q0 -30 22.5 -53.5t56 -38.5t72.5 -35.5t72.5 -43.5t56 -64.5t22.5 -96.5q0 -91 -65.5 -145.5t-173.5 -54.5q-78 0 -200 39z" />
<glyph unicode="&#x15b;" horiz-adv-x="442" d="M129 588l-26 70l206 77l32 -86zM44 19l24 97q78 -30 134 -30q74 0 74 59q0 21 -16.5 36t-40.5 24t-53 22.5t-53 29.5t-40.5 47.5t-16.5 74.5q0 69 53 110.5t134 41.5q70 0 134 -27l-28 -92q-61 21 -103 21q-33 0 -50.5 -14.5t-17.5 -39.5q0 -22 22.5 -38t55 -29.5t65 -31 t55 -52t22.5 -83.5q0 -71 -54 -114.5t-140 -43.5q-77 0 -160 32z" />
<glyph unicode="&#x15c;" horiz-adv-x="525" d="M168 752l-49 71l143 77l143 -77l-49 -71l-94 55zM42 26l21 98q113 -36 179 -36q58 0 86 26.5t28 72.5q0 30 -16.5 52.5t-43.5 37.5t-59 29t-64 31.5t-59 39.5t-43.5 58.5t-16.5 83.5q0 89 64.5 140.5t167.5 51.5q72 0 173 -37l-30 -94q-85 30 -143 30q-52 0 -79.5 -24 t-27.5 -67q0 -30 22.5 -53.5t56 -38.5t72.5 -35.5t72.5 -43.5t56 -64.5t22.5 -96.5q0 -91 -65.5 -145.5t-173.5 -54.5q-78 0 -200 39z" />
<glyph unicode="&#x15d;" horiz-adv-x="442" d="M127 587l-48 71l143 77l143 -77l-49 -71l-94 55zM44 19l24 97q78 -30 134 -30q74 0 74 59q0 21 -16.5 36t-40.5 24t-53 22.5t-53 29.5t-40.5 47.5t-16.5 74.5q0 69 53 110.5t134 41.5q70 0 134 -27l-28 -92q-61 21 -103 21q-33 0 -50.5 -14.5t-17.5 -39.5q0 -22 22.5 -38 t55 -29.5t65 -31t55 -52t22.5 -83.5q0 -71 -54 -114.5t-140 -43.5q-77 0 -160 32z" />
<glyph unicode="&#x15e;" horiz-adv-x="525" d="M113 -204l13 77q25 -5 44 -5q18 0 29.5 12.5t11.5 33.5v74q-67 5 -169 38l21 98q113 -36 179 -36q58 0 86 26.5t28 72.5q0 30 -16.5 52.5t-43.5 37.5t-59 29t-64 31.5t-59 39.5t-43.5 58.5t-16.5 83.5q0 89 64.5 140.5t167.5 51.5q72 0 173 -37l-30 -94q-85 30 -143 30 q-52 0 -79.5 -24t-27.5 -67q0 -30 22.5 -53.5t56 -38.5t72.5 -35.5t72.5 -43.5t56 -64.5t22.5 -96.5q0 -77 -47 -128.5t-129 -65.5v-96q0 -58 -36.5 -84t-85.5 -26q-34 0 -70 9z" />
<glyph unicode="&#x15f;" horiz-adv-x="442" d="M80 -204l12 77q25 -5 44 -5t30 12t11 34v74q-65 4 -133 31l24 97q78 -30 134 -30q74 0 74 59q0 21 -16.5 36t-40.5 24t-53 22.5t-53 29.5t-40.5 47.5t-16.5 74.5q0 69 53 110.5t134 41.5q70 0 134 -27l-28 -92q-61 21 -103 21q-33 0 -50.5 -14.5t-17.5 -39.5 q0 -22 22.5 -38t55 -29.5t65 -31t55 -52t22.5 -83.5q0 -56 -34 -95.5t-92 -54.5v-98q0 -58 -36.5 -84t-85.5 -26q-34 0 -70 9z" />
<glyph unicode="&#x160;" horiz-adv-x="525" d="M119 829l49 70l94 -54l94 54l49 -70l-143 -78zM42 26l21 98q113 -36 179 -36q58 0 86 26.5t28 72.5q0 30 -16.5 52.5t-43.5 37.5t-59 29t-64 31.5t-59 39.5t-43.5 58.5t-16.5 83.5q0 89 64.5 140.5t167.5 51.5q72 0 173 -37l-30 -94q-85 30 -143 30q-52 0 -79.5 -24 t-27.5 -67q0 -30 22.5 -53.5t56 -38.5t72.5 -35.5t72.5 -43.5t56 -64.5t22.5 -96.5q0 -91 -65.5 -145.5t-173.5 -54.5q-78 0 -200 39z" />
<glyph unicode="&#x161;" horiz-adv-x="442" d="M79 664l48 70l95 -54l94 54l49 -70l-143 -78zM44 19l24 97q78 -30 134 -30q74 0 74 59q0 21 -16.5 36t-40.5 24t-53 22.5t-53 29.5t-40.5 47.5t-16.5 74.5q0 69 53 110.5t134 41.5q70 0 134 -27l-28 -92q-61 21 -103 21q-33 0 -50.5 -14.5t-17.5 -39.5q0 -22 22.5 -38 t55 -29.5t65 -31t55 -52t22.5 -83.5q0 -71 -54 -114.5t-140 -43.5q-77 0 -160 32z" />
<glyph unicode="&#x162;" horiz-adv-x="529" d="M205 0v597h-172v101h463v-101h-172v-597h-119zM192 -214l23 150h103l-41 -150h-85z" />
<glyph unicode="&#x163;" horiz-adv-x="381" d="M95 145v288l-83 10v75h83v162h116v-162h120v-85h-120v-275q0 -72 64 -72q36 0 75 11l19 -95q-55 -15 -100 -15q-83 0 -128.5 42t-45.5 116zM147 -214l23 150h103l-41 -150h-85z" />
<glyph unicode="&#x164;" horiz-adv-x="529" d="M122 829l48 70l95 -54l94 54l49 -70l-143 -78zM205 0v597h-172v101h463v-101h-172v-597h-119z" />
<glyph unicode="&#x165;" horiz-adv-x="381" d="M291 570l24 156h103l-42 -156h-85zM95 145v288l-83 10v75h83v162h116v-162h120v-85h-120v-275q0 -72 64 -72q36 0 75 11l19 -95q-55 -15 -100 -15q-83 0 -128.5 42t-45.5 116z" />
<glyph unicode="&#x166;" horiz-adv-x="529" d="M205 0v305h-99v85h99v207h-172v101h463v-101h-172v-207h99v-85h-99v-305h-119z" />
<glyph unicode="&#x167;" horiz-adv-x="381" d="M95 145v85h-78v84h78v119l-83 10v75h83v162h116v-162h120v-85h-120v-119h120v-84h-120v-72q0 -72 64 -72q36 0 75 11l19 -95q-55 -15 -100 -15q-83 0 -128.5 42t-45.5 116z" />
<glyph unicode="&#x168;" horiz-adv-x="660" d="M234 771l-45 52q44 61 96 61q23 0 52 -16.5t38 -16.5q24 0 50 30l45 -52q-24 -33 -45.5 -46.5t-49.5 -13.5q-23 0 -51.5 15.5t-38.5 15.5q-26 0 -51 -29zM68 260v438h119v-455q0 -64 35.5 -109.5t107.5 -45.5q71 0 106.5 45.5t35.5 109.5v455h120v-438q0 -129 -68 -201 t-194 -72q-125 0 -193.5 72t-68.5 201z" />
<glyph unicode="&#x169;" horiz-adv-x="549" d="M179 606l-44 52q43 61 95 61q23 0 52 -16.5t38 -16.5q24 0 51 30l45 -52q-25 -33 -46.5 -46.5t-49.5 -13.5q-22 0 -51 15.5t-39 15.5q-26 0 -51 -29zM64 163v331q0 24 24 24h92v-339q0 -49 17 -71t58 -22q52 0 109 51v381h116v-518h-98l-6 48q-69 -61 -144 -61 q-81 0 -124.5 46.5t-43.5 129.5z" />
<glyph unicode="&#x16a;" horiz-adv-x="660" d="M215 784v85h229v-85h-229zM68 260v438h119v-455q0 -64 35.5 -109.5t107.5 -45.5q71 0 106.5 45.5t35.5 109.5v455h120v-438q0 -129 -68 -201t-194 -72q-125 0 -193.5 72t-68.5 201z" />
<glyph unicode="&#x16b;" horiz-adv-x="549" d="M161 619v85h229v-85h-229zM64 163v331q0 24 24 24h92v-339q0 -49 17 -71t58 -22q52 0 109 51v381h116v-518h-98l-6 48q-69 -61 -144 -61q-81 0 -124.5 46.5t-43.5 129.5z" />
<glyph unicode="&#x16c;" horiz-adv-x="660" d="M199 892h80q0 -55 50 -55q23 0 37 14t14 41h80q0 -60 -35 -96.5t-96 -36.5t-95.5 36.5t-34.5 96.5zM68 260v438h119v-455q0 -64 35.5 -109.5t107.5 -45.5q71 0 106.5 45.5t35.5 109.5v455h120v-438q0 -129 -68 -201t-194 -72q-125 0 -193.5 72t-68.5 201z" />
<glyph unicode="&#x16d;" horiz-adv-x="549" d="M145 727h80q0 -55 50 -55q23 0 36.5 14t13.5 41h80q0 -60 -34.5 -96.5t-95.5 -36.5q-62 0 -96 36.5t-34 96.5zM64 163v331q0 24 24 24h92v-339q0 -49 17 -71t58 -22q52 0 109 51v381h116v-518h-98l-6 48q-69 -61 -144 -61q-81 0 -124.5 46.5t-43.5 129.5z" />
<glyph unicode="&#x16e;" horiz-adv-x="660" d="M233 824q0 39 28 64t68 25q42 0 70 -25t28 -64q0 -38 -28 -62.5t-70 -24.5q-40 0 -68 24.5t-28 62.5zM306 824q0 -9 6 -16t15 -7q11 0 18.5 7.5t7.5 16.5t-6.5 16t-16.5 7q-9 0 -16.5 -7t-7.5 -17zM68 260v438h119v-455q0 -64 35.5 -109.5t107.5 -45.5q71 0 106.5 45.5 t35.5 109.5v455h120v-438q0 -129 -68 -201t-194 -72q-125 0 -193.5 72t-68.5 201z" />
<glyph unicode="&#x16f;" horiz-adv-x="549" d="M178 663q0 39 27.5 63.5t68.5 24.5q43 0 70.5 -24.5t27.5 -63.5q0 -38 -28 -62.5t-70 -24.5q-40 0 -68 24.5t-28 62.5zM251 662q0 -9 6.5 -15.5t15.5 -6.5q10 0 17.5 7t7.5 17q0 9 -6.5 16t-15.5 7t-17 -7.5t-8 -17.5zM64 163v331q0 24 24 24h92v-339q0 -49 17 -71 t58 -22q52 0 109 51v381h116v-518h-98l-6 48q-69 -61 -144 -61q-81 0 -124.5 46.5t-43.5 129.5z" />
<glyph unicode="&#x170;" horiz-adv-x="660" d="M349 791l102 122l71 -63l-115 -111zM169 791l102 122l71 -63l-115 -111zM68 260v438h119v-455q0 -64 35.5 -109.5t107.5 -45.5q71 0 106.5 45.5t35.5 109.5v455h120v-438q0 -129 -68 -201t-194 -72q-125 0 -193.5 72t-68.5 201z" />
<glyph unicode="&#x171;" horiz-adv-x="549" d="M289 626l102 122l71 -63l-114 -111zM109 626l102 122l71 -63l-114 -111zM64 163v331q0 24 24 24h92v-339q0 -49 17 -71t58 -22q52 0 109 51v381h116v-518h-98l-6 48q-69 -61 -144 -61q-81 0 -124.5 46.5t-43.5 129.5z" />
<glyph unicode="&#x172;" horiz-adv-x="660" d="M375 -125l11 -79q-30 -10 -67 -10q-42 0 -69 25.5t-27 65.5q0 63 56 114q-101 13 -156 83t-55 186v438h119v-455q0 -64 35.5 -109.5t107.5 -45.5q71 0 106.5 45.5t35.5 109.5v455h120v-438q0 -116 -55 -186.5t-158 -83.5q-63 -53 -63 -94q0 -27 27 -27q12 0 32 6z" />
<glyph unicode="&#x173;" horiz-adv-x="549" d="M463 -125l11 -79q-30 -10 -67 -10q-42 0 -69 25.5t-27 65.5q0 70 70 126l-5 45q-69 -61 -144 -61q-81 0 -124.5 46.5t-43.5 129.5v331q0 24 24 24h92v-339q0 -49 17 -71t58 -22q52 0 109 51v381h116v-518q-76 -60 -76 -104q0 -27 27 -27q14 0 32 6z" />
<glyph unicode="&#x174;" horiz-adv-x="903" d="M357 752l-49 71l143 77l143 -77l-49 -71l-94 55zM182 0l-142 698h121l66 -356q7 -36 25 -181q13 120 27 181l45 194q27 117 127 117q102 0 127 -117l44 -194q11 -50 28 -184q13 115 25 184l66 356h122l-142 -698h-135l-118 522q-4 22 -17 22q-14 0 -18 -22l-117 -522 h-134z" />
<glyph unicode="&#x175;" horiz-adv-x="751" d="M281 587l-49 71l143 77l143 -77l-49 -71l-94 55zM159 0l-137 518h123l51 -228q9 -41 28 -153q16 83 34 153l55 199h124l55 -199q14 -55 35 -156q23 135 27 156l51 228h124l-137 -518h-126l-91 337l-91 -337h-125z" />
<glyph unicode="&#x176;" d="M199 752l-49 71l143 77l143 -77l-49 -71l-94 55zM234 0v282q-120 26 -152 184l-47 232h119l43 -216q11 -54 31.5 -81t64.5 -27t64.5 27t31.5 82l43 215h119l-47 -232q-32 -158 -152 -184v-282h-118z" />
<glyph unicode="&#x177;" horiz-adv-x="525" d="M166 587l-49 71l143 77l143 -77l-49 -71l-94 55zM81 174l-46 344h114l44 -329q6 -43 23 -66t55 -23q35 0 71 14l21 404h112l-28 -549q-4 -81 -50.5 -125.5t-135.5 -44.5h-100l-7 98h110q38 0 53.5 20t17.5 58l2 40q-43 -15 -76 -15q-156 0 -180 174z" />
<glyph unicode="&#x178;" d="M322 825q0 24 17.5 42t41.5 18q23 0 41 -18.5t18 -41.5q0 -24 -18 -41.5t-41 -17.5q-24 0 -41.5 17.5t-17.5 41.5zM146 825q0 23 18 41.5t41 18.5q24 0 41 -18t17 -42t-17 -41.5t-41 -17.5q-23 0 -41 17.5t-18 41.5zM234 0v282q-120 26 -152 184l-47 232h119l43 -216 q11 -54 31.5 -81t64.5 -27t64.5 27t31.5 82l43 215h119l-47 -232q-32 -158 -152 -184v-282h-118z" />
<glyph unicode="&#x179;" horiz-adv-x="567" d="M190 753l-26 70l206 77l32 -86zM50 0v92l314 505h-303v101h441v-93l-314 -504h329v-101h-467z" />
<glyph unicode="&#x17a;" horiz-adv-x="478" d="M147 588l-27 70l207 77l31 -86zM47 0v69l226 351h-215v98h362v-70l-226 -351h237v-97h-384z" />
<glyph unicode="&#x17b;" horiz-adv-x="567" d="M224 825q0 23 18 41.5t42 18.5q22 0 40 -18.5t18 -41.5q0 -24 -17.5 -41.5t-40.5 -17.5q-24 0 -42 17.5t-18 41.5zM50 0v92l314 505h-303v101h441v-93l-314 -504h329v-101h-467z" />
<glyph unicode="&#x17c;" horiz-adv-x="478" d="M180 660q0 24 17.5 42t41.5 18q23 0 41 -18.5t18 -41.5q0 -24 -18 -41.5t-41 -17.5q-24 0 -41.5 17.5t-17.5 41.5zM47 0v69l226 351h-215v98h362v-70l-226 -351h237v-97h-384z" />
<glyph unicode="&#x17d;" horiz-adv-x="567" d="M140 829l49 70l94 -54l95 54l48 -70l-143 -78zM50 0v92l314 505h-303v101h441v-93l-314 -504h329v-101h-467z" />
<glyph unicode="&#x17e;" horiz-adv-x="478" d="M96 664l49 70l94 -54l94 54l49 -70l-143 -78zM47 0v69l226 351h-215v98h362v-70l-226 -351h237v-97h-384z" />
<glyph unicode="&#x192;" horiz-adv-x="472" d="M-42 -191l23 97q45 -15 80 -15q27 0 42.5 17.5t19.5 59.5l33 387h-90v77h97l12 141q6 76 52.5 121t121.5 45q54 0 105 -19l-28 -95q-46 13 -75 13q-59 0 -66 -77l-12 -129h127v-77h-133l-34 -399q-6 -75 -52.5 -120t-121.5 -45q-40 0 -101 18z" />
<glyph unicode="&#x218;" horiz-adv-x="525" d="M42 26l21 98q113 -36 179 -36q58 0 86 26.5t28 72.5q0 30 -16.5 52.5t-43.5 37.5t-59 29t-64 31.5t-59 39.5t-43.5 58.5t-16.5 83.5q0 89 64.5 140.5t167.5 51.5q72 0 173 -37l-30 -94q-85 30 -143 30q-52 0 -79.5 -24t-27.5 -67q0 -30 22.5 -53.5t56 -38.5t72.5 -35.5 t72.5 -43.5t56 -64.5t22.5 -96.5q0 -91 -65.5 -145.5t-173.5 -54.5q-78 0 -200 39zM191 -214l23 150h103l-41 -150h-85z" />
<glyph unicode="&#x219;" horiz-adv-x="442" d="M44 19l24 97q78 -30 134 -30q74 0 74 59q0 21 -16.5 36t-40.5 24t-53 22.5t-53 29.5t-40.5 47.5t-16.5 74.5q0 69 53 110.5t134 41.5q70 0 134 -27l-28 -92q-61 21 -103 21q-33 0 -50.5 -14.5t-17.5 -39.5q0 -22 22.5 -38t55 -29.5t65 -31t55 -52t22.5 -83.5 q0 -71 -54 -114.5t-140 -43.5q-77 0 -160 32zM154 -214l22 150h104l-42 -150h-84z" />
<glyph unicode="&#x2c6;" horiz-adv-x="413" d="M112 587l-49 71l143 77l143 -77l-48 -71l-95 55z" />
<glyph unicode="&#x2c7;" horiz-adv-x="413" d="M63 664l49 70l94 -54l95 54l48 -70l-143 -78z" />
<glyph unicode="&#x2d8;" horiz-adv-x="362" d="M51 727h80q0 -55 50 -55t50 55h80q0 -60 -34.5 -96.5t-95.5 -36.5q-62 0 -96 36.5t-34 96.5z" />
<glyph unicode="&#x2d9;" horiz-adv-x="209" d="M46 660q0 24 17.5 42t41.5 18q23 0 41 -18.5t18 -41.5q0 -24 -18 -41.5t-41 -17.5q-24 0 -41.5 17.5t-17.5 41.5z" />
<glyph unicode="&#x2da;" horiz-adv-x="281" d="M43 663q0 39 28 63.5t68 24.5q43 0 71 -24.5t28 -63.5q0 -38 -28.5 -62.5t-70.5 -24.5q-40 0 -68 24.5t-28 62.5zM117 662q0 -22 22 -22q10 0 17.5 7t7.5 17q0 8 -7.5 15.5t-17.5 7.5q-8 0 -15 -7.5t-7 -17.5z" />
<glyph unicode="&#x2db;" horiz-adv-x="242" d="M197 -125l11 -79q-31 -10 -67 -10q-42 0 -69.5 25.5t-27.5 65.5q0 65 68 123h101q-75 -59 -75 -104q0 -27 27 -27q12 0 32 6z" />
<glyph unicode="&#x2dc;" horiz-adv-x="408" d="M108 606l-45 52q44 61 96 61q23 0 52 -16.5t38 -16.5q24 0 50 30l45 -52q-24 -33 -45.5 -46.5t-49.5 -13.5q-23 0 -51.5 15.5t-38.5 15.5q-26 0 -51 -29z" />
<glyph unicode="&#x2dd;" horiz-adv-x="442" d="M223 626l102 122l71 -63l-115 -111zM43 626l102 122l71 -63l-115 -111z" />
<glyph unicode="&#x3a9;" horiz-adv-x="702" d="M53 0v89h126v56q-61 37 -93.5 96.5t-32.5 130.5v60q0 119 81 199t215 80t215.5 -82t81.5 -197v-60q0 -72 -33 -132t-93 -96v-55h126v-89h-228v212q53 23 79.5 69.5t26.5 99.5v44q0 45 -16.5 84.5t-57.5 68.5t-101 29t-101 -28t-57 -67.5t-16 -86.5v-44q0 -53 26.5 -100 t79.5 -69v-212h-228z" />
<glyph unicode="&#x3c0;" horiz-adv-x="674" d="M126 0v420h-84v98h590v-98h-84v-420h-111v420h-200v-420h-111z" />
<glyph unicode="&#x1e80;" horiz-adv-x="903" d="M332 814l32 86l206 -77l-26 -70zM182 0l-142 698h121l66 -356q7 -36 25 -181q13 120 27 181l45 194q27 117 127 117q102 0 127 -117l44 -194q11 -50 28 -184q13 115 25 184l66 356h122l-142 -698h-135l-118 522q-4 22 -17 22q-14 0 -18 -22l-117 -522h-134z" />
<glyph unicode="&#x1e81;" horiz-adv-x="751" d="M257 649l31 86l206 -77l-26 -70zM159 0l-137 518h123l51 -228q9 -41 28 -153q16 83 34 153l55 199h124l55 -199q14 -55 35 -156q23 135 27 156l51 228h124l-137 -518h-126l-91 337l-91 -337h-125z" />
<glyph unicode="&#x1e82;" horiz-adv-x="903" d="M359 753l-27 70l207 77l31 -86zM182 0l-142 698h121l66 -356q7 -36 25 -181q13 120 27 181l45 194q27 117 127 117q102 0 127 -117l44 -194q11 -50 28 -184q13 115 25 184l66 356h122l-142 -698h-135l-118 522q-4 22 -17 22q-14 0 -18 -22l-117 -522h-134z" />
<glyph unicode="&#x1e83;" horiz-adv-x="751" d="M283 588l-26 70l206 77l31 -86zM159 0l-137 518h123l51 -228q9 -41 28 -153q16 83 34 153l55 199h124l55 -199q14 -55 35 -156q23 135 27 156l51 228h124l-137 -518h-126l-91 337l-91 -337h-125z" />
<glyph unicode="&#x1e84;" horiz-adv-x="903" d="M480 825q0 24 17.5 42t41.5 18q23 0 41 -18.5t18 -41.5q0 -24 -18 -41.5t-41 -17.5q-24 0 -41.5 17.5t-17.5 41.5zM304 825q0 23 18 41.5t41 18.5q24 0 41 -18t17 -42t-17 -41.5t-41 -17.5q-23 0 -41 17.5t-18 41.5zM182 0l-142 698h121l66 -356q7 -36 25 -181 q13 120 27 181l45 194q27 117 127 117q102 0 127 -117l44 -194q11 -50 28 -184q13 115 25 184l66 356h122l-142 -698h-135l-118 522q-4 22 -17 22q-14 0 -18 -22l-117 -522h-134z" />
<glyph unicode="&#x1e85;" horiz-adv-x="751" d="M404 660q0 24 17.5 42t41.5 18q23 0 41 -18.5t18 -41.5q0 -24 -18 -41.5t-41 -17.5q-24 0 -41.5 17.5t-17.5 41.5zM228 660q0 23 18 41.5t41 18.5q24 0 41.5 -18t17.5 -42t-17.5 -41.5t-41.5 -17.5q-23 0 -41 17.5t-18 41.5zM159 0l-137 518h123l51 -228q9 -41 28 -153 q16 83 34 153l55 199h124l55 -199q14 -55 35 -156q23 135 27 156l51 228h124l-137 -518h-126l-91 337l-91 -337h-125z" />
<glyph unicode="&#x1ef2;" d="M174 814l31 86l206 -77l-26 -70zM234 0v282q-120 26 -152 184l-47 232h119l43 -216q11 -54 31.5 -81t64.5 -27t64.5 27t31.5 82l43 215h119l-47 -232q-32 -158 -152 -184v-282h-118z" />
<glyph unicode="&#x1ef3;" horiz-adv-x="525" d="M142 649l31 86l206 -77l-26 -70zM81 174l-46 344h114l44 -329q6 -43 23 -66t55 -23q35 0 71 14l21 404h112l-28 -549q-4 -81 -50.5 -125.5t-135.5 -44.5h-100l-7 98h110q38 0 53.5 20t17.5 58l2 40q-43 -15 -76 -15q-156 0 -180 174z" />
<glyph unicode="&#x2013;" horiz-adv-x="500" d="M0 237v94h500v-94h-500z" />
<glyph unicode="&#x2014;" horiz-adv-x="1000" d="M0 237v94h1000v-94h-1000z" />
<glyph unicode="&#x2018;" horiz-adv-x="260" d="M60 458l76 240h83l-54 -240h-105z" />
<glyph unicode="&#x2019;" horiz-adv-x="261" d="M58 458l54 240h106l-77 -240h-83z" />
<glyph unicode="&#x201a;" horiz-adv-x="260" d="M49 -115l54 240h106l-77 -240h-83z" />
<glyph unicode="&#x201c;" horiz-adv-x="438" d="M235 458l77 240h83l-54 -240h-106zM59 458l77 240h83l-55 -240h-105z" />
<glyph unicode="&#x201d;" horiz-adv-x="437" d="M231 458l54 240h105l-76 -240h-83zM54 458l55 240h105l-77 -240h-83z" />
<glyph unicode="&#x201e;" horiz-adv-x="445" d="M239 -115l54 240h105l-76 -240h-83zM54 -115l55 240h105l-77 -240h-83z" />
<glyph unicode="&#x2020;" horiz-adv-x="479" d="M183 0v402h-110v93h110v161h113v-161h109v-93h-109v-402h-113z" />
<glyph unicode="&#x2021;" horiz-adv-x="480" d="M184 0v172h-111v94h111v126h-111v93h111v172h112v-172h111v-93h-111v-126h111v-94h-111v-172h-112z" />
<glyph unicode="&#x2022;" horiz-adv-x="508" d="M98 286q0 64 45.5 109.5t109.5 45.5q65 0 110.5 -45.5t45.5 -109.5t-45.5 -109t-110.5 -45q-64 0 -109.5 45t-45.5 109z" />
<glyph unicode="&#x2026;" horiz-adv-x="845" d="M657 59q0 29 20.5 50t48.5 21t48.5 -21t20.5 -50t-20 -49.5t-49 -20.5t-49 20.5t-20 49.5zM422 -11q-29 0 -49 20.5t-20 49.5t20.5 50t48.5 21q29 0 49.5 -21t20.5 -50t-20.5 -49.5t-49.5 -20.5zM49 59q0 29 20.5 50t48.5 21t48.5 -21t20.5 -50t-20 -49.5t-49 -20.5 t-49 20.5t-20 49.5z" />
<glyph unicode="&#x2030;" horiz-adv-x="1241" d="M66 479v58q0 64 42 111t112 47t112.5 -46.5t42.5 -111.5v-58q0 -65 -42 -111t-111 -46q-71 0 -113.5 46t-42.5 111zM263 0l272 688h83l-273 -688h-82zM150 531v-46q0 -39 18.5 -63.5t53.5 -24.5q34 0 52 24.5t18 63.5v46q0 40 -18.5 64.5t-53.5 24.5q-34 0 -52 -24.5 t-18 -64.5zM866 148v58q0 64 42 110.5t112 46.5t112.5 -46.5t42.5 -110.5v-58q0 -65 -42 -111t-111 -46q-71 0 -113.5 46t-42.5 111zM504 148v58q0 64 42 110.5t112 46.5t112.5 -46.5t42.5 -110.5v-58q0 -65 -42 -111t-111 -46q-71 0 -113.5 46t-42.5 111zM949 200v-46 q0 -39 19 -63.5t54 -24.5q33 0 51 24.5t18 63.5v46q0 39 -18 63.5t-53 24.5q-34 0 -52.5 -24.5t-18.5 -63.5zM588 200v-46q0 -39 18.5 -63.5t53.5 -24.5q34 0 52 24.5t18 63.5v46q0 39 -18.5 63.5t-53.5 24.5q-34 0 -52 -24.5t-18 -63.5z" />
<glyph unicode="&#x2039;" horiz-adv-x="375" d="M202 73l-139 198l139 199l90 -60l-103 -139l103 -140z" />
<glyph unicode="&#x203a;" horiz-adv-x="376" d="M83 131l104 140l-103 139l90 60l138 -199l-138 -198z" />
<glyph unicode="&#x20ac;" horiz-adv-x="553" d="M43 236v74h48v76h-48v76h48q5 114 69.5 181.5t188.5 67.5q84 0 169 -29l-27 -94q-83 23 -141 23q-72 0 -104 -38t-36 -111h196l-10 -76h-187v-76h197l-10 -74h-186q4 -73 36 -111t104 -38q55 0 141 22l27 -93q-85 -29 -169 -29q-124 0 -188.5 67.5t-69.5 181.5h-48z" />
<glyph unicode="&#x2122;" horiz-adv-x="766" d="M333 358l37 340h77l81 -218l80 218h76l39 -340h-77l-18 198l-61 -167h-79l-60 164l-18 -195h-77zM141 358v275h-91v65h259v-65h-91v-275h-77z" />
<glyph unicode="&#x2206;" horiz-adv-x="739" d="M16 0l293 706h122l292 -706h-707zM173 98h393l-195 475z" />
<glyph unicode="&#x220f;" horiz-adv-x="731" d="M126 -101v699h-84v100h647v-100h-85v-699h-111v699h-255v-699h-112z" />
<glyph unicode="&#x2211;" horiz-adv-x="616" d="M57 -85v95l270 298l-270 294v96h501v-101h-348l264 -289l-264 -292h348v-101h-501z" />
<glyph unicode="&#x221a;" horiz-adv-x="643" d="M264 0l-150 418h-102v100h184l128 -375l193 598h116l-250 -741h-119z" />
<glyph unicode="&#x222b;" horiz-adv-x="356" d="M-48 -190l16 97q52 -16 82 -16q56 0 56 77v604q0 77 43.5 121.5t119.5 44.5q45 0 103 -17l-14 -96q-46 13 -77 13q-59 0 -59 -77v-603q0 -76 -45 -121.5t-121 -45.5q-39 0 -104 19z" />
<glyph unicode="&#x2248;" horiz-adv-x="578" d="M149 304l-60 63q63 77 140 77q38 0 84 -26t65 -26q41 0 80 42l61 -63q-63 -77 -141 -77q-38 0 -83.5 26.5t-65.5 26.5q-38 0 -80 -43zM149 115l-60 62q62 78 140 78q38 0 84 -26.5t65 -26.5q40 0 80 42l61 -62q-62 -78 -141 -78q-38 0 -83.5 27t-65.5 27q-37 0 -80 -43z " />
<glyph unicode="&#x2260;" horiz-adv-x="637" d="M83 152v102h161l44 116h-205v103h244l43 116l80 -28l-33 -88h136v-103h-175l-44 -116h219v-102h-258l-43 -115l-79 28l33 87h-123z" />
<glyph unicode="&#x2264;" horiz-adv-x="567" d="M83 239v79l363 189l35 -100l-261 -129l261 -129l-35 -99zM84 -95v100h397v-100h-397z" />
<glyph unicode="&#x2265;" horiz-adv-x="567" d="M120 50l-35 99l261 129l-261 129l35 100l363 -189v-79zM85 -95v100h397v-100h-397z" />
<glyph unicode="&#x25ca;" horiz-adv-x="716" d="M359 -5l-306 334l305 333l304 -334zM358 154l150 174l-150 175l-150 -174z" />
<glyph unicode="&#x25fc;" horiz-adv-x="520" d="M0 520h520v-520h-520v520z" />
<glyph unicode="&#xf8ff;" horiz-adv-x="0" />
<glyph horiz-adv-x="210" />
<glyph horiz-adv-x="253" d="M63 -214l22 150h103l-41 -150h-84z" />
<glyph d="M54 265v39q0 130 62.5 203.5t176.5 73.5q115 0 177 -74.5t62 -202.5v-39q0 -131 -61.5 -204.5t-177.5 -73.5q-114 0 -176.5 74.5t-62.5 203.5zM172 304v-39q0 -179 121 -179t121 179v39q0 178 -121 178t-121 -178z" />
<glyph horiz-adv-x="486" d="M70 0v97h145v352l-138 -55l-42 92l208 81h88v-470h121v-97h-382z" />
<glyph horiz-adv-x="503" d="M44 0v59q0 61 29.5 107.5t71 74t83.5 50.5t71.5 50t29.5 60q0 36 -25.5 58.5t-75.5 22.5q-54 0 -139 -40l-38 90q105 49 178 49q95 0 156.5 -49t61.5 -131q0 -47 -27.5 -85.5t-67 -64.5t-79 -49.5t-67 -50t-27.5 -54.5h272v-73q0 -24 -24 -24h-383z" />
<glyph horiz-adv-x="470" d="M19 -113l27 94q63 -25 131 -25q64 0 96 32t32 82q0 118 -138 118h-51v95h45q65 0 95 29.5t30 74.5q0 40 -27.5 67.5t-79.5 27.5q-58 0 -121 -26l-33 89q81 36 154 36q98 0 161.5 -50t63.5 -140q0 -41 -25.5 -83t-74.5 -69q59 -25 89 -70t30 -99q0 -92 -64 -152.5 t-182 -60.5q-81 0 -158 30z" />
<glyph horiz-adv-x="572" d="M54 149l91 419h109l-87 -419q-8 -36 23 -36h109v251l113 19v-270h124v-97h-124v-146h-113v146h-138q-69 0 -95.5 32t-11.5 101z" />
<glyph horiz-adv-x="525" d="M35 -103l24 96q105 -37 163 -37q68 0 104.5 41t36.5 100q0 56 -30.5 93t-93.5 37q-67 0 -137 -31l-42 67v305h389l-7 -98h-275v-156q39 9 78 9q111 0 173.5 -61.5t62.5 -164.5q0 -109 -74 -174.5t-187 -65.5q-81 0 -185 40z" />
<glyph horiz-adv-x="560" d="M52 223v252q0 102 60.5 169t180.5 67q84 0 171 -32l-28 -94q-78 27 -140 27q-71 0 -99.5 -40t-28.5 -97v-46q61 34 120 34q100 0 163 -63t63 -177q0 -110 -65.5 -173t-165.5 -63q-99 0 -165 63t-66 173zM168 335v-114q0 -60 28.5 -97.5t86.5 -37.5t85.5 38t27.5 98 q0 64 -29 104.5t-87 40.5q-54 0 -112 -32z" />
<glyph horiz-adv-x="504" d="M280 -130h-122q1 93 20.5 179.5t41.5 139t63 140.5t62 140h-321v99h450v-77q-23 -66 -62.5 -151.5t-65 -141.5t-46 -143.5t-20.5 -184.5z" />
<glyph horiz-adv-x="557" d="M162 358q-100 59 -100 165q0 83 63.5 135.5t153.5 52.5q88 0 152 -52.5t64 -135.5q0 -55 -26 -91t-73 -63q55 -32 86.5 -75.5t31.5 -113.5q0 -85 -66.5 -139t-168.5 -54q-101 0 -168 54t-67 139q0 65 31.5 106.5t86.5 71.5zM288 418q43 21 66 45t23 60q0 37 -27 63 t-71 26q-45 0 -72 -26.5t-27 -62.5q0 -37 27 -59.5t81 -45.5zM269 308q-52 -25 -79.5 -53.5t-27.5 -74.5q0 -39 30.5 -66.5t86.5 -27.5q57 0 87 27.5t30 66.5q0 47 -32.5 74.5t-94.5 53.5z" />
<glyph horiz-adv-x="565" d="M100 -107l28 94q89 -31 140 -31q71 0 100 40t29 97v48q-60 -33 -121 -33q-100 0 -163.5 61.5t-63.5 175.5q0 110 66 173t166 63q99 0 165.5 -63.5t66.5 -172.5v-252q0 -102 -61 -169t-181 -67q-78 0 -171 36zM397 236v110q0 60 -29 98t-87 38t-86 -38.5t-28 -98.5 q0 -63 29 -102.5t88 -39.5q53 0 113 33z" />
<glyph horiz-adv-x="529" d="M40 26l21 98q110 -36 180 -36q57 0 85 26.5t28 72.5q0 30 -16.5 51.5t-43.5 34.5t-59 25t-64 27t-59 35.5t-43.5 56t-16.5 82.5q0 75 46.5 123.5t125.5 62.5v117h90v-113q57 -4 143 -35l-30 -94q-84 30 -143 30q-52 0 -79.5 -24t-27.5 -67q0 -26 16.5 -45.5t43.5 -32 t59 -24.5t64 -28.5t59 -38t43.5 -58.5t16.5 -85q0 -75 -46 -127t-126 -67v-117h-90v112q-66 3 -177 38z" />
<glyph horiz-adv-x="489" d="M227 -124v116q-86 13 -130.5 75t-44.5 156v73q0 93 44.5 154.5t130.5 75.5v116h90v-114q57 -4 124 -26l-26 -94q-72 24 -134 24q-111 0 -111 -145v-54q0 -147 111 -147q62 0 134 25l26 -95q-73 -22 -124 -27v-113h-90z" />
<glyph horiz-adv-x="528" d="M59 0v88q54 77 54 149v54h-62v78h62v136q0 99 60 152.5t156 53.5q73 0 157 -35l-31 -90q-63 25 -120 25q-55 0 -79.5 -27t-24.5 -92v-123h197v-78h-197v-52q0 -76 -54 -144h293v-71q0 -24 -24 -24h-387z" />
<glyph horiz-adv-x="556" d="M45 236v74h48v76h-48v76h48q5 114 70 181.5t188 67.5q83 0 170 -29l-28 -94q-83 23 -141 23q-72 0 -104 -38t-36 -111h196l-9 -76h-188v-76h197l-9 -74h-187q4 -73 36 -111t104 -38q55 0 141 22l28 -93q-87 -29 -170 -29q-123 0 -188 67.5t-70 181.5h-48z" />
<glyph horiz-adv-x="534" d="M73 127v78h135v85h-135v78h97l-164 330h117l143 -294l145 294h117l-167 -330h98v-78h-135v-85h135v-78h-135v-127h-116v127h-135z" />
<glyph horiz-adv-x="529" d="M122 157v126h-65v101h65v87h-65v101h65v126h101v-126h82v126h101v-126h66v-101h-66v-87h66v-101h-66v-126h-101v126h-82v-126h-101zM223 384h82v87h-82v-87z" />
<glyph d="M51 270v159q0 133 63.5 207.5t178.5 74.5t178.5 -76t63.5 -206v-159q0 -133 -63 -208t-179 -75q-114 0 -178 76.5t-64 206.5zM168 414v-129q0 -199 125 -199q124 0 124 199v129q0 198 -124 198q-125 0 -125 -198z" />
<glyph d="M122 0v97h145v483l-137 -57l-42 91l208 84h87v-601h122v-97h-383z" />
<glyph d="M78 0v80q0 63 23 114.5t57 84t74 63t74 53.5t57 54t23 65q0 41 -25 69.5t-82 28.5q-61 0 -150 -39l-36 90q104 48 187 48q102 0 163 -55.5t61 -141.5q0 -49 -23 -91.5t-57 -70.5t-74 -58.5t-74 -56t-57 -62t-23 -78.5h311v-73q0 -24 -24 -24h-405z" />
<glyph d="M88 17l27 94q63 -25 131 -25q64 0 96 32t32 82q0 118 -138 118h-51v95h45q65 0 95 29.5t30 74.5q0 40 -27.5 67.5t-79.5 27.5q-58 0 -121 -26l-33 89q81 36 154 36q98 0 161.5 -50t63.5 -140q0 -41 -25.5 -83t-74.5 -69q59 -25 89 -70t30 -99q0 -92 -64 -152.5 t-182 -60.5q-81 0 -158 30z" />
<glyph d="M62 279l91 419h109l-87 -419q-8 -36 23 -36h109v251l113 19v-270h124v-97h-124v-146h-113v146h-138q-69 0 -95.5 32t-11.5 101z" />
<glyph d="M68 27l25 96q104 -37 163 -37q67 0 103.5 41.5t36.5 99.5q0 56 -30.5 93t-93.5 37q-66 0 -136 -31l-43 67v305h390l-8 -98h-275v-156q39 9 78 9q111 0 173.5 -61.5t62.5 -164.5q0 -109 -73.5 -174.5t-186.5 -65.5q-80 0 -186 40z" />
<glyph d="M69 223v252q0 102 60.5 169t180.5 67q86 0 171 -32l-28 -94q-78 27 -140 27q-37 0 -63.5 -12.5t-40 -33.5t-19 -43t-5.5 -48v-46q61 34 120 34q100 0 163.5 -63t63.5 -177q0 -110 -66 -173t-166 -63q-99 0 -165 63t-66 173zM185 335v-114q0 -59 29 -97t86 -38q58 0 86 38 t28 98q0 64 -29 104.5t-88 40.5q-54 0 -112 -32z" />
<glyph d="M331 0h-122q1 93 20.5 179.5t41.5 139t63 140.5t62 140h-321v99h450v-77q-23 -66 -62.5 -151.5t-65 -141.5t-46 -143.5t-20.5 -184.5z" />
<glyph d="M176 358q-99 58 -99 165q0 83 63 135.5t153 52.5q88 0 152 -52.5t64 -135.5q0 -55 -26 -91t-73 -63q55 -32 86.5 -75.5t31.5 -113.5q0 -85 -66.5 -139t-168.5 -54q-101 0 -168 54t-67 139q0 65 31.5 106.5t86.5 71.5zM302 418q43 21 66 44.5t23 60.5t-27 63t-71 26 q-45 0 -71.5 -26t-26.5 -63t27 -59.5t80 -45.5zM283 308q-52 -25 -79.5 -53.5t-27.5 -74.5q0 -38 30.5 -66t86.5 -28q57 0 87 27.5t30 66.5q0 47 -32.5 74.5t-94.5 53.5z" />
<glyph d="M111 23l28 94q88 -31 140 -31q37 0 63.5 12.5t40 33.5t19.5 43t6 48v48q-60 -33 -121 -33q-100 0 -163.5 61.5t-63.5 175.5q0 110 66 173t166 63q99 0 165.5 -63.5t66.5 -172.5v-252q0 -102 -61 -169t-181 -67q-79 0 -171 36zM408 366v110q0 59 -29.5 97.5t-86.5 38.5 q-58 0 -86 -38.5t-28 -98.5q0 -63 29 -102.5t88 -39.5q52 0 113 33z" />
<glyph d="M68 26l22 98q110 -36 179 -36q58 0 85.5 26.5t27.5 72.5q0 30 -16.5 51.5t-43 34.5t-58.5 25t-64.5 27t-59 35.5t-43 56t-16.5 82.5q0 75 46.5 123.5t124.5 62.5v117h90v-113q56 -3 144 -35l-31 -94q-84 30 -143 30q-52 0 -79 -24t-27 -67q0 -35 31 -58.5t75 -40 t88.5 -37.5t75.5 -65.5t31 -110.5q0 -75 -46 -127t-126 -67v-117h-90v112q-66 3 -177 38z" />
<glyph d="M273 -124v116q-85 13 -130 75t-45 156v73q0 93 45 154.5t130 75.5v116h90v-114q58 -4 125 -26l-26 -94q-72 24 -134 24q-112 0 -112 -145v-54q0 -147 112 -147q62 0 134 25l26 -95q-73 -22 -125 -27v-113h-90z" />
<glyph d="M90 0v88q54 77 54 149v54h-62v78h62v136q0 99 60.5 152.5t155.5 53.5q74 0 158 -35l-32 -90q-63 25 -119 25q-55 0 -79.5 -27t-24.5 -92v-123h196v-78h-196v-52q0 -75 -55 -144h293v-71q0 -24 -24 -24h-387z" />
<glyph d="M66 236v74h47v76h-47v76h47q5 114 70 181.5t189 67.5q84 0 169 -29l-27 -94q-83 23 -141 23q-72 0 -104 -38t-36 -111h196l-10 -76h-187v-76h197l-10 -74h-186q4 -73 36 -111t104 -38q55 0 141 22l27 -93q-85 -29 -169 -29q-124 0 -189 67.5t-70 181.5h-47z" />
<glyph d="M99 127v78h135v85h-135v78h97l-164 330h117l143 -294l145 294h117l-167 -330h98v-78h-135v-85h135v-78h-135v-127h-116v127h-135z" />
<glyph d="M150 157v126h-65v101h65v87h-65v101h65v126h101v-126h82v126h101v-126h66v-101h-66v-87h66v-101h-66v-126h-101v126h-82v-126h-101zM251 384h82v87h-82v-87z" />
<glyph d="M54 265v39q0 130 62.5 203.5t176.5 73.5q115 0 177 -74.5t62 -202.5v-39q0 -131 -61.5 -204.5t-177.5 -73.5q-114 0 -176.5 74.5t-62.5 203.5zM172 304v-39q0 -179 121 -179t121 179v39q0 178 -121 178t-121 -178z" />
<glyph d="M119 0v97h145v353l-138 -55l-42 91l208 82h88v-471h121v-97h-382z" />
<glyph d="M88 0v59q0 61 29.5 107.5t71 74t83.5 50.5t71.5 50t29.5 60q0 36 -25.5 58.5t-75.5 22.5q-54 0 -139 -40l-38 90q105 49 178 49q95 0 156.5 -49t61.5 -131q0 -47 -27.5 -85.5t-67 -64.5t-79 -49.5t-67 -50t-27.5 -54.5h272v-73q0 -24 -24 -24h-383z" />
<glyph d="M86 -113l26 94q65 -25 131 -25q64 0 96 32t32 82q0 118 -137 118h-52v95h46q64 0 94 29.5t30 74.5q0 40 -27.5 67.5t-79.5 27.5q-57 0 -120 -26l-33 89q81 36 153 36q98 0 161.5 -50t63.5 -140q0 -41 -25.5 -83t-74.5 -69q59 -25 89 -70t30 -99q0 -92 -64 -152.5 t-182 -60.5q-81 0 -157 30z" />
<glyph d="M65 149l91 419h110l-87 -419q-8 -36 22 -36h110v251l113 19v-270h124v-97h-124v-146h-113v146h-138q-69 0 -96 32t-12 101z" />
<glyph d="M68 -103l25 96q104 -37 163 -37q67 0 103.5 41.5t36.5 99.5q0 56 -30.5 93t-93.5 37q-66 0 -136 -31l-43 67v305h390l-8 -98h-275v-156q39 9 78 9q111 0 173.5 -61.5t62.5 -164.5q0 -109 -73.5 -174.5t-186.5 -65.5q-80 0 -186 40z" />
<glyph d="M62 223v252q0 102 60.5 169t179.5 67q86 0 171 -32l-28 -94q-76 27 -140 27q-70 0 -98.5 -40t-28.5 -97v-46q61 34 120 34q100 0 163 -63t63 -177q0 -110 -65.5 -173t-165.5 -63q-99 0 -165 63t-66 173zM178 335v-114q0 -60 28.5 -97.5t86.5 -37.5q57 0 85 38t28 98 q0 64 -29 104.5t-87 40.5q-54 0 -112 -32z" />
<glyph d="M323 -130h-121q1 93 20.5 179.5t41.5 139t63 140.5t62 140h-321v99h450v-77q-23 -66 -63 -151.5t-65.5 -141.5t-45.5 -143.5t-21 -184.5z" />
<glyph d="M176 358q-99 58 -99 165q0 83 63 135.5t153 52.5q88 0 152 -52.5t64 -135.5q0 -55 -26 -91t-73 -63q55 -32 86.5 -75.5t31.5 -113.5q0 -85 -66.5 -139t-168.5 -54q-101 0 -168 54t-67 139q0 65 31.5 106.5t86.5 71.5zM302 418q43 21 66 44.5t23 60.5t-27 63t-71 26 q-45 0 -71.5 -26t-26.5 -63t27 -59.5t80 -45.5zM283 308q-52 -25 -79.5 -53.5t-27.5 -74.5q0 -38 30.5 -66t86.5 -28q57 0 87 27.5t30 66.5q0 47 -32.5 74.5t-94.5 53.5z" />
<glyph d="M111 -107l28 94q88 -31 140 -31q37 0 63.5 12.5t40 33.5t19.5 43t6 48v48q-60 -33 -121 -33q-100 0 -163.5 61.5t-63.5 175.5q0 110 66 173t166 63q99 0 165.5 -63.5t66.5 -172.5v-252q0 -102 -61 -169t-181 -67q-79 0 -171 36zM408 236v110q0 59 -29.5 97.5t-86.5 38.5 q-58 0 -86 -38.5t-28 -98.5q0 -63 29 -102.5t88 -39.5q52 0 113 33z" />
<glyph d="M73 26l21 98q110 -36 179 -36q58 0 86 26.5t28 72.5q0 30 -16.5 51.5t-43.5 34.5t-59 25t-64 27t-59 35.5t-43.5 56t-16.5 82.5q0 75 46.5 123.5t125.5 62.5v117h90v-113q55 -3 143 -35l-30 -94q-85 30 -143 30q-52 0 -79.5 -24t-27.5 -67q0 -26 16.5 -45.5t43.5 -32 t59 -24.5t64 -28.5t59 -38t43.5 -58.5t16.5 -85q0 -76 -46.5 -127.5t-126.5 -66.5v-117h-90v112q-64 3 -176 38z" />
<glyph d="M273 -124v116q-86 13 -130.5 75t-44.5 156v73q0 93 44.5 154.5t130.5 75.5v116h90v-114q57 -4 124 -26l-26 -94q-72 24 -134 24q-112 0 -112 -145v-54q0 -147 112 -147q62 0 134 25l26 -95q-73 -22 -124 -27v-113h-90z" />
<glyph d="M90 0v88q54 77 54 149v54h-62v78h62v136q0 99 60.5 152.5t155.5 53.5q74 0 158 -35l-32 -90q-63 25 -119 25q-55 0 -79.5 -27t-24.5 -92v-123h196v-78h-196v-52q0 -75 -55 -144h293v-71q0 -24 -24 -24h-387z" />
<glyph d="M69 236v74h47v76h-47v76h47q5 114 70 181.5t189 67.5q82 0 169 -29l-28 -94q-81 23 -141 23q-71 0 -103 -37.5t-37 -111.5h196l-9 -76h-187v-76h196l-9 -74h-187q5 -73 36.5 -111t103.5 -38q57 0 141 22l28 -93q-87 -29 -169 -29q-124 0 -189 67.5t-70 181.5h-47z" />
<glyph d="M99 127v78h135v85h-135v78h97l-164 330h117l143 -294l145 294h117l-167 -330h98v-78h-135v-85h135v-78h-135v-127h-116v127h-135z" />
<glyph d="M150 157v126h-65v101h65v87h-65v101h65v126h101v-126h82v126h101v-126h66v-101h-66v-87h66v-101h-66v-126h-101v126h-82v-126h-101zM251 384h82v87h-82v-87z" />
<glyph horiz-adv-x="571" d="M34 0l127 480q12 45 43.5 73t80.5 28q47 0 79 -29t43 -72l130 -480h-119l-36 147h-194l-36 -147h-118zM211 241h148l-53 213q-5 23 -21 23q-15 0 -21 -23z" />
<glyph horiz-adv-x="513" d="M72 0v543q109 38 176 38q88 0 141 -48t53 -119q0 -76 -62 -111q92 -37 92 -131q0 -73 -57.5 -122.5t-154.5 -49.5h-188zM188 340h58q35 0 54.5 21.5t19.5 52.5q0 32 -18.5 51t-54.5 19q-32 0 -59 -10v-134zM188 97h68q44 0 69 20.5t25 54.5q0 79 -93 79h-69v-154z" />
<glyph horiz-adv-x="483" d="M53 198v172q0 100 57.5 155.5t157.5 55.5q86 0 167 -25l-20 -95q-71 21 -132 21q-62 0 -87.5 -30.5t-25.5 -90.5v-153q0 -61 25.5 -91.5t87.5 -30.5q57 0 132 20l20 -94q-82 -25 -167 -25q-100 0 -157.5 55t-57.5 156z" />
<glyph horiz-adv-x="562" d="M72 0v568h217q112 0 166 -52t54 -160v-145q0 -108 -54 -159.5t-166 -51.5h-217zM188 99h98q59 0 82 27t23 93v129q0 66 -23 93.5t-82 27.5h-98v-370z" />
<glyph horiz-adv-x="450" d="M56 155v257q0 72 46.5 114t135.5 42h160v-99h-158q-37 0 -52.5 -16.5t-15.5 -49.5v-65h201v-95h-201v-79q0 -33 15 -49t53 -16h161v-78q0 -21 -21 -21h-142q-89 0 -135.5 41.5t-46.5 113.5z" />
<glyph horiz-adv-x="455" d="M72 0v568h343v-99h-227v-140h202v-96h-202v-233h-116z" />
<glyph horiz-adv-x="543" d="M53 199v171q0 100 57.5 155.5t157.5 55.5q85 0 167 -25l-20 -93q-78 19 -132 19q-59 0 -86 -29.5t-27 -91.5v-153q0 -63 26.5 -92.5t86.5 -29.5q47 0 93 14v187l107 8v-272q-128 -36 -215 -36q-100 0 -157.5 55t-57.5 157z" />
<glyph horiz-adv-x="576" d="M72 0v568h116v-229h200v229h116v-547q0 -21 -22 -21h-94v245h-200v-245h-116z" />
<glyph horiz-adv-x="260" d="M72 0v568h116v-547q0 -21 -22 -21h-94z" />
<glyph horiz-adv-x="421" d="M27 11l23 94q62 -19 107 -19t62.5 25t17.5 75v382h116v-385q0 -87 -49.5 -141.5t-151.5 -54.5q-56 0 -125 24z" />
<glyph horiz-adv-x="521" d="M72 0v568h116v-230l45 4l106 226h124l-120 -238q42 -18 63 -76l88 -254h-121l-78 224q-9 27 -38 24l-69 -6v-221q0 -21 -22 -21h-94z" />
<glyph horiz-adv-x="472" d="M72 0v568h116v-469h249v-78q0 -21 -22 -21h-343z" />
<glyph horiz-adv-x="746" d="M43 0l70 568h125l119 -402q7 -20 16 -20q10 0 17 20l119 402h124l70 -568h-114l-29 259q-7 59 -5 137q-15 -92 -27 -135l-38 -128q-30 -98 -117 -98q-86 0 -116 98l-38 128q-17 57 -27 136q-2 -101 -6 -138l-28 -259h-115z" />
<glyph horiz-adv-x="568" d="M72 0v568h104l209 -357q-4 36 -4 87v270h115v-568h-105l-208 354q4 -47 4 -84v-270h-115z" />
<glyph horiz-adv-x="571" d="M53 231v106q0 108 61.5 176t170.5 68q108 0 170.5 -68t62.5 -176v-106q0 -108 -62.5 -176t-170.5 -68q-109 0 -170.5 68t-61.5 176zM170 328v-88q0 -154 115 -154t115 154v88q0 154 -115 154t-115 -154z" />
<glyph horiz-adv-x="485" d="M72 0v568h169q97 0 153 -53.5t56 -132.5q0 -80 -56 -133t-153 -53h-53v-196h-116zM188 291h51q44 0 68 26t24 65q0 37 -24 62t-69 25h-50v-178z" />
<glyph horiz-adv-x="571" d="M363 -155l-56 143q-7 -1 -22 -1q-109 0 -170.5 68t-61.5 176v106q0 108 61.5 176t170.5 68q108 0 170.5 -68t62.5 -176v-106q0 -74 -30.5 -130.5t-86.5 -85.5l54 -138zM170 328v-88q0 -154 115 -154t115 154v88q0 154 -115 154t-115 -154z" />
<glyph horiz-adv-x="498" d="M72 0v547q121 34 188 34q92 0 145.5 -55.5t53.5 -133.5q0 -51 -28 -97.5t-84 -68.5l108 -226h-125l-93 209h-49v-209h-116zM188 299h63q42 0 64 25t22 67q0 40 -19 65.5t-59 25.5q-37 0 -71 -10v-173z" />
<glyph horiz-adv-x="452" d="M37 21l21 96q91 -31 151 -31q41 0 61.5 19t20.5 49q0 31 -25 51.5t-60.5 35.5t-71 33t-60.5 55t-25 91q0 75 55.5 118t142.5 43q59 0 149 -31l-30 -93q-70 25 -119 25q-37 0 -57 -17t-20 -45q0 -26 25 -45.5t60.5 -35t71.5 -35.5t61 -58t25 -92q0 -75 -56.5 -121 t-147.5 -46q-70 0 -172 34z" />
<glyph horiz-adv-x="451" d="M167 0v469h-136v99h389v-99h-137v-469h-116z" />
<glyph horiz-adv-x="564" d="M60 213v355h116v-369q0 -47 26 -80t81 -33q53 0 79 33t26 80v369h116v-355q0 -106 -57 -166t-164 -60t-165 60t-58 166z" />
<glyph horiz-adv-x="554" d="M212 0l-182 568h121l94 -319q2 -6 32 -127q17 73 32 127l94 319h121l-182 -568h-130z" />
<glyph horiz-adv-x="772" d="M155 0l-117 568h120l44 -249q6 -34 20 -171q8 96 26 171l28 116q24 98 110 98q88 0 111 -98l27 -116q18 -75 26 -170q14 134 20 170l44 249h120l-117 -568h-128l-87 412q-4 19 -16 19t-16 -19l-86 -412h-129z" />
<glyph horiz-adv-x="569" d="M49 568h132l104 -171l106 171h129l-168 -266l188 -302h-132l-125 204l-125 -204h-129l187 299z" />
<glyph horiz-adv-x="508" d="M197 0v225q-96 26 -122 146l-41 197h115l35 -172q9 -42 23.5 -62.5t46.5 -20.5t46 20t23 63l36 172h115l-41 -197q-26 -120 -121 -146v-225h-115z" />
<glyph horiz-adv-x="494" d="M48 0v88l249 381h-240v99h375v-89l-249 -380h263v-99h-398z" />
<glyph horiz-adv-x="520" d="M283 345h212v-85h-46v-235q-95 -38 -177 -38q-103 0 -161 50.5t-58 130.5q0 101 93 138q-72 42 -72 123q0 75 58.5 124.5t149.5 49.5q54 0 119 -17l-20 -96q-46 14 -98 14q-43 0 -66 -19.5t-23 -55.5q0 -40 23 -62t66 -22zM355 97v163h-81q-101 0 -101 -91q0 -83 100 -83 q46 0 82 11z" />
<glyph horiz-adv-x="414" d="M249 181l-107 -11q0 55 11 96.5t27 64t32 39.5t27 34t11 36t-13 31.5t-36 12.5q-40 0 -103 -35l-43 84q70 48 146 48q72 0 115 -38.5t43 -95.5q0 -32 -17 -62t-38 -51.5t-38 -61.5t-17 -91zM129 52q0 28 19 47t47 19q27 0 46.5 -19t19.5 -47q0 -27 -19.5 -46t-46.5 -19 q-28 0 -47 19t-19 46z" />
<glyph horiz-adv-x="333" d="M119 186l-16 382h129l-16 -368zM101 55q0 28 19.5 47t46.5 19q28 0 47 -19t19 -47q0 -27 -19 -46t-47 -19q-27 0 -46.5 19t-19.5 46z" />
<glyph horiz-adv-x="414" d="M153 431q0 27 19.5 46t46.5 19q28 0 47 -19t19 -46q0 -28 -19 -47t-47 -19q-27 0 -46.5 19t-19.5 47zM316 34l43 -84q-70 -48 -146 -48q-72 0 -115 38t-43 96q0 32 17 62t38 51.5t38 61.5t17 91l107 11q0 -55 -11 -96.5t-27 -64t-32 -39.5t-27 -34t-11 -36t13 -31.5 t36 -12.5q43 0 103 35z" />
<glyph horiz-adv-x="333" d="M101 430q0 27 19 46.5t47 19.5q26 0 45.5 -19.5t19.5 -46.5t-19.5 -46.5t-45.5 -19.5q-28 0 -47 19.5t-19 46.5zM101 -82l16 368l97 15l16 -383h-129z" />
<glyph horiz-adv-x="817" d="M513 -41l18 -76q-60 -22 -139 -22q-66 0 -126 21t-108.5 61.5t-77.5 106.5t-29 150q0 159 100 252.5t258 93.5q156 0 256.5 -96.5t100.5 -251.5q0 -82 -38.5 -140t-120.5 -58q-88 0 -122 47q-47 -47 -106 -47t-94 32.5t-35 87.5q0 117 176 117h33v16q0 34 -13 49.5 t-46 15.5q-49 0 -104 -16l-23 77q69 22 127 22q75 0 116 -39.5t41 -104.5v-111q0 -64 50 -64q34 0 54 31.5t20 84.5q0 120 -76 194t-196 74q-123 0 -198 -70.5t-75 -195.5t73 -192t183 -67q61 0 121 18zM459 145v28h-27q-43 0 -62.5 -11t-19.5 -36q0 -43 47 -43q34 0 64 28 q-2 11 -2 34z" />
<glyph horiz-adv-x="491" d="M38 222v125q0 109 54.5 171.5t153.5 62.5t153 -63.5t54 -170.5v-125q0 -110 -54 -172.5t-153 -62.5q-98 0 -153 64t-55 171zM156 331v-92q0 -74 20.5 -113.5t69.5 -39.5q89 0 89 153v92q0 151 -89 151q-49 0 -69.5 -39t-20.5 -112z" />
<glyph horiz-adv-x="491" d="M95 0v92h118v358l-107 -43l-42 91l182 70h83v-476h98v-92h-332z" />
<glyph horiz-adv-x="491" d="M63 0v73q0 59 25.5 106.5t61.5 76.5t72 53.5t61.5 51.5t25.5 56q0 65 -78 65q-51 0 -122 -32l-36 88q84 43 160 43q89 0 141.5 -46t52.5 -118q0 -46 -25.5 -85.5t-61.5 -66.5t-72 -52.5t-61.5 -55.5t-25.5 -62h247v-74q0 -21 -22 -21h-343z" />
<glyph horiz-adv-x="491" d="M72 13l27 93q54 -21 107 -21q46 0 70 21.5t24 59.5q0 87 -103 87h-47v89h42q92 0 92 75q0 30 -20.5 48t-55.5 18q-51 0 -99 -21l-32 87q69 32 131 32q84 0 139 -41.5t55 -117.5q0 -31 -19.5 -65.5t-60.5 -56.5q50 -20 73 -56.5t23 -77.5q0 -77 -55 -128t-157 -51 q-68 0 -134 26z" />
<glyph horiz-adv-x="491" d="M52 235l69 333h110l-65 -330q-6 -30 19 -30h72v194l105 16v-210h99v-97h-99v-111h-105v111h-104q-65 0 -90 30t-11 94z" />
<glyph horiz-adv-x="491" d="M57 21l24 96q88 -31 136 -31t76 28t28 73q0 39 -22 65t-68 26q-55 0 -113 -25l-41 64v251h338l-7 -96h-225v-104q29 6 55 6q95 0 148 -51t53 -136q0 -91 -62.5 -145.5t-161.5 -54.5q-66 0 -158 34z" />
<glyph horiz-adv-x="491" d="M55 184v200q0 85 52 141t155 56q78 0 150 -28l-28 -94q-64 23 -118 23q-95 0 -95 -91v-33q45 24 89 24q85 0 138.5 -51.5t53.5 -146.5q0 -91 -56.5 -144t-141.5 -53t-142 53t-57 144zM171 270v-87q0 -42 20.5 -69.5t62.5 -27.5q80 0 80 97q0 110 -83 110q-38 0 -80 -23z " />
<glyph horiz-adv-x="491" d="M288 0h-121q1 77 16.5 146t32.5 108t51.5 108t51.5 108h-258v98h386v-73q-19 -54 -51.5 -121t-53.5 -111t-37.5 -114t-16.5 -149z" />
<glyph horiz-adv-x="491" d="M137 289q-77 48 -77 132q0 70 54 115t132 45q75 0 130 -44.5t55 -115.5q0 -77 -80 -123q96 -54 96 -148q0 -72 -57 -117.5t-144 -45.5q-86 0 -144 46t-58 117q0 88 93 139zM253 345q30 17 45 34t15 42q0 27 -19 44.5t-48 17.5q-30 0 -49 -17t-19 -45q0 -25 18.5 -41.5 t56.5 -34.5zM236 243q-36 -19 -55 -40t-19 -53q0 -28 22.5 -46.5t61.5 -18.5t61 18t22 47q0 33 -23.5 53t-69.5 40z" />
<glyph horiz-adv-x="491" d="M88 19l27 94q76 -27 119 -27q94 0 94 91v36q-44 -24 -89 -24q-86 0 -138.5 50.5t-52.5 144.5q0 92 56 144.5t142 52.5q85 0 141.5 -53t56.5 -144v-200q0 -85 -51.5 -141t-154.5 -56q-67 0 -150 32zM328 301v84q0 42 -20.5 69.5t-61.5 27.5t-60.5 -27t-19.5 -70 q0 -107 82 -107q37 0 80 23z" />
<glyph horiz-adv-x="491" d="M59 23l20 92q92 -30 151 -30q42 0 62.5 19t20.5 51q0 30 -25 49t-60.5 31t-71.5 28t-61 51t-25 89q0 56 36 98t106 55v96h85v-92q48 -3 121 -29l-30 -89q-72 24 -119 24q-38 0 -58 -17t-20 -46q0 -26 25 -43t60.5 -29.5t71.5 -29.5t61 -54t25 -92q0 -57 -36 -101 t-106 -58v-97h-85v91q-62 4 -148 33z" />
<glyph horiz-adv-x="491" d="M224 -101v96q-77 15 -111 67t-34 123v54q0 71 34.5 123t110.5 66v96h86v-92q47 -4 102 -22l-25 -90q-55 20 -109 20q-85 0 -85 -109v-39q0 -108 85 -108q52 0 109 20l25 -90q-59 -18 -102 -23v-92h-86z" />
<glyph horiz-adv-x="491" d="M76 0v84q45 61 45 117v39h-52v71h52v101q0 81 52 125t132 44q64 0 137 -31l-30 -89q-53 21 -97 21t-61.5 -21.5t-17.5 -69.5v-80h155v-71h-155v-38q0 -59 -47 -111h242v-70q0 -21 -21 -21h-334z" />
<glyph horiz-adv-x="491" d="M57 184v67h35v64h-35v69h35q5 88 62.5 142.5t157.5 54.5q70 0 145 -26l-28 -87q-65 17 -115 17q-98 0 -106 -101h151l-8 -69h-144v-64h152l-8 -67h-143q3 -45 28.5 -73t77.5 -28q49 0 115 19l28 -89q-75 -26 -145 -26q-100 0 -157.5 54.5t-62.5 142.5h-35z" />
<glyph horiz-adv-x="491" d="M81 98v70h107v57h-107v70h76l-137 273h113l112 -227l112 227h114l-140 -273h77v-70h-108v-57h108v-70h-108v-98h-112v98h-107z" />
<glyph horiz-adv-x="491" d="M121 127v97h-49v95h49v58h-49v95h49v96h95v-96h57v96h96v-96h48v-95h-48v-58h48v-95h-48v-97h-96v97h-57v-97h-95zM216 319h57v58h-57v-58z" />
<glyph horiz-adv-x="512" d="M48 222v125q0 109 55 171.5t153 62.5q99 0 153 -63.5t54 -170.5v-125q0 -110 -54 -172.5t-153 -62.5q-98 0 -153 64t-55 171zM166 331v-92q0 -74 20.5 -113.5t69.5 -39.5q89 0 89 153v92q0 151 -89 151q-49 0 -69.5 -39t-20.5 -112z" />
<glyph horiz-adv-x="434" d="M63 0v92h119v358l-108 -43l-41 91l181 70h84v-476h97v-92h-332z" />
<glyph horiz-adv-x="455" d="M42 0v73q0 59 25.5 106.5t61.5 76.5t72 53.5t61.5 51.5t25.5 56q0 65 -77 65q-52 0 -123 -32l-36 88q84 43 160 43q89 0 141.5 -46t52.5 -118q0 -39 -18 -73.5t-45.5 -58t-59 -47.5t-59 -43.5t-45.5 -45.5t-18 -54h246v-74q0 -21 -22 -21h-343z" />
<glyph horiz-adv-x="408" d="M19 13l27 93q54 -21 107 -21q46 0 70 21.5t24 59.5q0 87 -103 87h-47v89h42q92 0 92 75q0 30 -20.5 48t-55.5 18q-51 0 -99 -21l-32 87q69 32 131 32q84 0 139 -41.5t55 -117.5q0 -31 -19.5 -65.5t-60.5 -56.5q50 -20 73 -56.5t23 -77.5q0 -77 -55 -128t-157 -51 q-68 0 -134 26z" />
<glyph horiz-adv-x="488" d="M45 235l70 333h109l-64 -330q-6 -30 18 -30h73v194l105 16v-210h98v-97h-98v-111h-105v111h-104q-65 0 -90.5 30t-11.5 94z" />
<glyph horiz-adv-x="458" d="M35 21l24 96q88 -31 136 -31q49 0 77 28t28 73q0 39 -22.5 65t-68.5 26q-55 0 -113 -25l-40 64v251h337l-6 -96h-225v-104q27 6 54 6q95 0 148.5 -51t53.5 -136q0 -91 -63 -145.5t-161 -54.5q-67 0 -159 34z" />
<glyph horiz-adv-x="485" d="M46 184v200q0 85 52 141t155 56q76 0 150 -28l-28 -94q-64 23 -119 23q-94 0 -94 -91v-33q44 24 89 24q85 0 138.5 -51.5t53.5 -146.5q0 -91 -56.5 -144t-141.5 -53t-142 53t-57 144zM162 270v-87q0 -42 20.5 -69.5t62.5 -27.5q80 0 80 97q0 49 -20 79.5t-63 30.5 q-40 0 -80 -23z" />
<glyph horiz-adv-x="445" d="M254 0h-120q1 77 16.5 146t32.5 108.5t51 107.5t51 108h-258v98h386v-73q-19 -54 -51.5 -121t-53.5 -111t-37.5 -114t-16.5 -149z" />
<glyph horiz-adv-x="484" d="M133 289q-77 48 -77 132q0 70 54 115t132 45q76 0 131 -45t55 -115q0 -76 -81 -123q97 -53 97 -148q0 -71 -57.5 -117t-144.5 -46q-86 0 -143.5 46t-57.5 117q0 50 24.5 82.5t67.5 56.5zM250 345q30 17 45 34t15 42q0 27 -19.5 44.5t-48.5 17.5q-30 0 -49 -17.5 t-19 -44.5q0 -25 19 -41.5t57 -34.5zM232 243q-35 -19 -54 -40t-19 -53q0 -29 22 -47t61 -18t61.5 18t22.5 47q0 33 -23.5 53t-70.5 40z" />
<glyph horiz-adv-x="490" d="M87 19l27 94q76 -27 119 -27q94 0 94 91v36q-44 -24 -88 -24q-86 0 -139 50.5t-53 144.5q0 92 56 144.5t142 52.5q85 0 141.5 -53t56.5 -144v-200q0 -85 -51.5 -141t-154.5 -56q-67 0 -150 32zM327 301v84q0 42 -20 69.5t-62 27.5q-41 0 -60.5 -27t-19.5 -70 q0 -107 83 -107q36 0 79 23z" />
<glyph horiz-adv-x="456" d="M36 23l20 92q92 -30 151 -30q42 0 62.5 19t20.5 51q0 30 -25 49t-60.5 31t-71.5 28t-61 51t-25 89q0 56 36 98t106 55v96h85v-92q48 -3 121 -29l-30 -89q-72 24 -119 24q-38 0 -58 -17t-20 -46q0 -26 25 -43t60.5 -29.5t71.5 -29.5t61 -54t25 -92q0 -57 -36 -101 t-106 -58v-97h-85v91q-62 4 -148 33z" />
<glyph horiz-adv-x="425" d="M192 -101v96q-77 15 -111 67t-34 123v54q0 71 34.5 123t110.5 66v96h86v-92q49 -4 102 -22l-25 -90q-55 20 -109 20q-85 0 -85 -109v-39q0 -108 85 -108q52 0 109 20l25 -90q-59 -18 -102 -23v-92h-86z" />
<glyph horiz-adv-x="460" d="M56 0v84q44 60 44 117v39h-51v71h51v101q0 81 52.5 125t132.5 44q62 0 137 -31l-31 -89q-52 21 -97 21q-44 0 -61.5 -22t-17.5 -69v-80h156v-71h-156v-38q0 -60 -46 -111h242v-70q0 -21 -22 -21h-333z" />
<glyph horiz-adv-x="479" d="M42 184v67h36v64h-36v69h36q5 88 62.5 142.5t156.5 54.5q72 0 145 -26l-28 -87q-65 17 -115 17q-98 0 -106 -101h152l-9 -69h-144v-64h153l-9 -67h-143q3 -45 28.5 -73t77.5 -28q49 0 115 19l28 -89q-73 -26 -145 -26q-99 0 -156.5 54.5t-62.5 142.5h-36z" />
<glyph horiz-adv-x="470" d="M71 98v70h107v57h-107v70h76l-137 273h113l112 -227l112 227h114l-140 -273h77v-70h-108v-57h108v-70h-108v-98h-112v98h-107z" />
<glyph horiz-adv-x="449" d="M100 127v97h-48v95h48v58h-48v95h48v96h96v-96h57v96h96v-96h48v-95h-48v-58h48v-95h-48v-97h-96v97h-57v-97h-96zM196 319h57v58h-57v-58z" />
<glyph horiz-adv-x="365" d="M64 699l31 86l206 -76l-26 -71z" />
<glyph horiz-adv-x="365" d="M90 638l-27 71l207 76l31 -86z" />
<glyph horiz-adv-x="425" d="M241 710q0 23 18 41.5t41 18.5t41 -18.5t18 -41.5q0 -24 -17.5 -41t-41.5 -17t-41.5 17t-17.5 41zM66 710q0 24 17.5 42t41.5 18q23 0 40.5 -18.5t17.5 -41.5q0 -24 -17.5 -41t-40.5 -17q-24 0 -41.5 17t-17.5 41z" />
<glyph horiz-adv-x="413" d="M112 637l-49 71l143 77l143 -77l-48 -71l-95 55z" />
<glyph horiz-adv-x="408" d="M108 656l-45 53q45 60 96 60q23 0 52 -16t38 -16q25 0 50 30l45 -53q-24 -33 -45.5 -46.5t-49.5 -13.5q-23 0 -51.5 16t-38.5 16q-25 0 -51 -30z" />
<glyph horiz-adv-x="356" d="M63 670v84h229v-84h-229z" />
<glyph horiz-adv-x="362" d="M51 777h80q0 -54 50 -54t50 54h80q0 -60 -34.5 -96.5t-95.5 -36.5q-62 0 -96 36.5t-34 96.5z" />
<glyph horiz-adv-x="209" d="M46 710q0 24 17.5 42t41.5 18q23 0 41 -18.5t18 -41.5q0 -24 -18 -41t-41 -17q-24 0 -41.5 17t-17.5 41z" />
<glyph horiz-adv-x="281" d="M43 713q0 39 28 63.5t68 24.5q43 0 71 -24.5t28 -63.5q0 -38 -28.5 -62.5t-70.5 -24.5q-40 0 -68 24.5t-28 62.5zM117 713q0 -9 6 -16t16 -7t17.5 7t7.5 17q0 9 -7 16t-17 7q-9 0 -16 -6.5t-7 -17.5z" />
<glyph horiz-adv-x="258" d="M33 -204l13 77q25 -5 44 -5q18 0 29.5 12.5t11.5 33.5v86h94v-103q0 -58 -36.5 -84t-85.5 -26q-34 0 -70 9z" />
<glyph horiz-adv-x="432" d="M223 680l102 122l71 -63l-114 -111zM46 680l102 122l71 -63l-115 -111z" />
<glyph horiz-adv-x="242" d="M197 -125l11 -79q-31 -10 -67 -10q-42 0 -69.5 25.5t-27.5 65.5q0 65 68 123h101q-75 -59 -75 -104q0 -27 27 -27q12 0 32 6z" />
<glyph horiz-adv-x="413" d="M63 714l49 70l94 -54l95 54l48 -70l-143 -77z" />
<glyph horiz-adv-x="238" d="M63 -214l22 150h103l-41 -150h-84z" />
<glyph horiz-adv-x="571" d="M193 638l-27 71l207 76l31 -86zM34 0l127 480q12 45 43.5 73t80.5 28q47 0 79 -29t43 -72l130 -480h-119l-36 147h-194l-36 -147h-118zM211 241h148l-53 213q-5 23 -21 23q-15 0 -21 -23z" />
<glyph horiz-adv-x="571" d="M166 699l32 86l206 -76l-26 -71zM34 0l127 480q12 45 43.5 73t80.5 28q47 0 79 -29t43 -72l130 -480h-119l-36 147h-194l-36 -147h-118zM211 241h148l-53 213q-5 23 -21 23q-15 0 -21 -23z" />
<glyph horiz-adv-x="571" d="M191 637l-49 71l143 77l143 -77l-49 -71l-94 55zM34 0l127 480q12 45 43.5 73t80.5 28q47 0 79 -29t43 -72l130 -480h-119l-36 147h-194l-36 -147h-118zM211 241h148l-53 213q-5 23 -21 23q-15 0 -21 -23z" />
<glyph horiz-adv-x="571" d="M314 710q0 24 17.5 42t41.5 18q23 0 41 -18.5t18 -41.5q0 -24 -18 -41t-41 -17q-24 0 -41.5 17t-17.5 41zM138 710q0 23 18 41.5t41 18.5q24 0 41 -18t17 -42t-17 -41t-41 -17t-41.5 17t-17.5 41zM34 0l127 480q12 45 43.5 73t80.5 28q47 0 79 -29t43 -72l130 -480h-119 l-36 147h-194l-36 -147h-118zM211 241h148l-53 213q-5 23 -21 23q-15 0 -21 -23z" />
<glyph horiz-adv-x="571" d="M189 656l-44 53q43 60 95 60q24 0 53 -16t38 -16q25 0 50 30l45 -53q-45 -60 -95 -60q-23 0 -52 16t-39 16q-25 0 -51 -30zM34 0l127 480q12 45 43.5 73t80.5 28q47 0 79 -29t43 -72l130 -480h-119l-36 147h-194l-36 -147h-118zM211 241h148l-53 213q-5 23 -21 23 q-15 0 -21 -23z" />
<glyph horiz-adv-x="571" d="M188 713q0 39 27.5 63.5t68.5 24.5q43 0 71 -24.5t28 -63.5q0 -38 -28.5 -62.5t-70.5 -24.5q-40 0 -68 24.5t-28 62.5zM262 713q0 -9 6 -16t15 -7q10 0 18 7t8 16q0 10 -6.5 17t-17.5 7q-9 0 -16 -6.5t-7 -17.5zM34 0l127 480q12 45 43.5 73t80.5 28q47 0 79 -29t43 -72 l130 -480h-119l-36 147h-194l-36 -147h-118zM211 241h148l-53 213q-5 23 -21 23q-15 0 -21 -23z" />
<glyph horiz-adv-x="571" d="M171 670v84h229v-84h-229zM34 0l127 480q12 45 43.5 73t80.5 28q47 0 79 -29t43 -72l130 -480h-119l-36 147h-194l-36 -147h-118zM211 241h148l-53 213q-5 23 -21 23q-15 0 -21 -23z" />
<glyph horiz-adv-x="571" d="M155 777h80q0 -54 50 -54t50 54h80q0 -60 -34.5 -96.5t-95.5 -36.5q-62 0 -96 36.5t-34 96.5zM34 0l127 480q12 45 43.5 73t80.5 28q47 0 79 -29t43 -72l130 -480h-119l-36 147h-194l-36 -147h-118zM211 241h148l-53 213q-5 23 -21 23q-15 0 -21 -23z" />
<glyph horiz-adv-x="571" d="M34 0l127 480q12 45 43.5 73t80.5 28q47 0 79 -29t43 -72l130 -480q-76 -60 -76 -104q0 -27 27 -27q14 0 32 6l11 -79q-30 -10 -67 -10q-42 0 -69 25.5t-27 65.5q0 67 68 123h-18l-36 147h-194l-36 -147h-118zM211 241h148l-53 213q-5 23 -21 23q-15 0 -21 -23z" />
<glyph horiz-adv-x="796" d="M592 0q-88 0 -134.5 39.5t-46.5 107.5h-185l-65 -147h-122l217 476q41 92 138 92h358v-99h-228v-131h202v-95h-202v-76q0 -34 14 -51t56 -17h162v-78q0 -8 -7 -14.5t-15 -6.5h-142zM357 441l-89 -200h143v229h-13q-27 0 -41 -29z" />
<glyph horiz-adv-x="483" d="M154 638l-26 71l206 76l32 -86zM53 198v172q0 100 57.5 155.5t157.5 55.5q86 0 167 -25l-20 -95q-71 21 -132 21q-62 0 -87.5 -30.5t-25.5 -90.5v-153q0 -61 25.5 -91.5t87.5 -30.5q57 0 132 20l20 -94q-82 -25 -167 -25q-100 0 -157.5 55t-57.5 156z" />
<glyph horiz-adv-x="483" d="M162 637l-49 71l143 77l143 -77l-49 -71l-94 55zM53 198v172q0 100 57.5 155.5t157.5 55.5q86 0 167 -25l-20 -95q-71 21 -132 21q-62 0 -87.5 -30.5t-25.5 -90.5v-153q0 -61 25.5 -91.5t87.5 -30.5q57 0 132 20l20 -94q-82 -25 -167 -25q-100 0 -157.5 55t-57.5 156z " />
<glyph horiz-adv-x="483" d="M114 714l49 70l94 -54l94 54l49 -70l-143 -77zM53 198v172q0 100 57.5 155.5t157.5 55.5q86 0 167 -25l-20 -95q-71 21 -132 21q-62 0 -87.5 -30.5t-25.5 -90.5v-153q0 -61 25.5 -91.5t87.5 -30.5q57 0 132 20l20 -94q-82 -25 -167 -25q-100 0 -157.5 55t-57.5 156z" />
<glyph horiz-adv-x="483" d="M140 -204l12 77q25 -5 44 -5t30 12t11 34v75q-87 8 -135.5 62t-48.5 147v172q0 100 57.5 155.5t157.5 55.5q86 0 167 -25l-20 -95q-71 21 -132 21q-62 0 -87.5 -30.5t-25.5 -90.5v-153q0 -61 25.5 -91.5t87.5 -30.5q57 0 132 20l20 -94q-56 -17 -104 -22v-93 q0 -58 -36 -84t-85 -26q-36 0 -70 9z" />
<glyph horiz-adv-x="562" d="M134 714l49 70l94 -54l94 54l49 -70l-143 -77zM72 0v568h217q112 0 166 -52t54 -160v-145q0 -108 -54 -159.5t-166 -51.5h-217zM188 99h98q59 0 82 27t23 93v129q0 66 -23 93.5t-82 27.5h-98v-370z" />
<glyph horiz-adv-x="562" d="M72 0v244h-62v80h62v244h217q112 0 166 -52t54 -160v-145q0 -108 -54 -159.5t-166 -51.5h-217zM188 99h98q59 0 82 27t23 93v129q0 66 -23 93.5t-82 27.5h-98v-145h89v-80h-89v-145z" />
<glyph horiz-adv-x="562" d="M72 0v244h-62v80h62v244h217q112 0 166 -52t54 -160v-145q0 -108 -54 -159.5t-166 -51.5h-217zM188 99h98q59 0 82 27t23 93v129q0 66 -23 93.5t-82 27.5h-98v-145h89v-80h-89v-145z" />
<glyph horiz-adv-x="450" d="M140 638l-26 71l206 76l32 -86zM56 155v257q0 72 46.5 114t135.5 42h160v-99h-158q-37 0 -52.5 -16.5t-15.5 -49.5v-65h201v-95h-201v-79q0 -33 15 -49t53 -16h161v-78q0 -21 -21 -21h-142q-89 0 -135.5 41.5t-46.5 113.5z" />
<glyph horiz-adv-x="450" d="M121 699l31 86l207 -76l-27 -71zM56 155v257q0 72 46.5 114t135.5 42h160v-99h-158q-37 0 -52.5 -16.5t-15.5 -49.5v-65h201v-95h-201v-79q0 -33 15 -49t53 -16h161v-78q0 -21 -21 -21h-142q-89 0 -135.5 41.5t-46.5 113.5z" />
<glyph horiz-adv-x="450" d="M138 637l-49 71l143 77l143 -77l-48 -71l-95 55zM56 155v257q0 72 46.5 114t135.5 42h160v-99h-158q-37 0 -52.5 -16.5t-15.5 -49.5v-65h201v-95h-201v-79q0 -33 15 -49t53 -16h161v-78q0 -21 -21 -21h-142q-89 0 -135.5 41.5t-46.5 113.5z" />
<glyph horiz-adv-x="450" d="M263 710q0 24 17.5 42t41.5 18q23 0 41 -18.5t18 -41.5q0 -24 -18 -41t-41 -17q-24 0 -41.5 17t-17.5 41zM87 710q0 23 18 41.5t41 18.5q24 0 41 -18t17 -42t-17 -41t-41 -17t-41.5 17t-17.5 41zM56 155v257q0 72 46.5 114t135.5 42h160v-99h-158q-37 0 -52.5 -16.5 t-15.5 -49.5v-65h201v-95h-201v-79q0 -33 15 -49t53 -16h161v-78q0 -21 -21 -21h-142q-89 0 -135.5 41.5t-46.5 113.5z" />
<glyph horiz-adv-x="450" d="M82 714l49 70l94 -54l95 54l48 -70l-143 -77zM56 155v257q0 72 46.5 114t135.5 42h160v-99h-158q-37 0 -52.5 -16.5t-15.5 -49.5v-65h201v-95h-201v-79q0 -33 15 -49t53 -16h161v-78q0 -21 -21 -21h-142q-89 0 -135.5 41.5t-46.5 113.5z" />
<glyph horiz-adv-x="450" d="M120 670v84h229v-84h-229zM56 155v257q0 72 46.5 114t135.5 42h160v-99h-158q-37 0 -52.5 -16.5t-15.5 -49.5v-65h201v-95h-201v-79q0 -33 15 -49t53 -16h161v-78q0 -21 -21 -21h-142q-89 0 -135.5 41.5t-46.5 113.5z" />
<glyph horiz-adv-x="450" d="M98 777h80q0 -54 50 -54q23 0 37 14t14 40h80q0 -60 -35 -96.5t-96 -36.5t-95.5 36.5t-34.5 96.5zM56 155v257q0 72 46.5 114t135.5 42h160v-99h-158q-37 0 -52.5 -16.5t-15.5 -49.5v-65h201v-95h-201v-79q0 -33 15 -49t53 -16h161v-78q0 -21 -21 -21h-142 q-89 0 -135.5 41.5t-46.5 113.5z" />
<glyph horiz-adv-x="450" d="M386 -125l11 -79q-31 -10 -67 -10q-42 0 -69.5 25.5t-27.5 65.5q0 65 68 123h-63q-89 0 -135.5 41.5t-46.5 113.5v257q0 72 46.5 114t135.5 42h160v-99h-158q-37 0 -52.5 -16.5t-15.5 -49.5v-65h201v-95h-201v-79q0 -33 15 -49t53 -16h161v-99q-74 -58 -74 -104 q0 -27 27 -27q12 0 32 6z" />
<glyph horiz-adv-x="450" d="M170 710q0 24 17.5 42t41.5 18q23 0 41 -18.5t18 -41.5q0 -24 -18 -41t-41 -17q-24 0 -41.5 17t-17.5 41zM56 155v257q0 72 46.5 114t135.5 42h160v-99h-158q-37 0 -52.5 -16.5t-15.5 -49.5v-65h201v-95h-201v-79q0 -33 15 -49t53 -16h161v-78q0 -21 -21 -21h-142 q-89 0 -135.5 41.5t-46.5 113.5z" />
<glyph horiz-adv-x="543" d="M175 637l-49 71l143 77l143 -77l-49 -71l-94 55zM53 199v171q0 100 57.5 155.5t157.5 55.5q85 0 167 -25l-20 -93q-78 19 -132 19q-59 0 -86 -29.5t-27 -91.5v-153q0 -63 26.5 -92.5t86.5 -29.5q47 0 93 14v187l107 8v-272q-128 -36 -215 -36q-100 0 -157.5 55t-57.5 157 z" />
<glyph horiz-adv-x="543" d="M138 777h80q0 -54 50 -54t50 54h80q0 -60 -34.5 -96.5t-95.5 -36.5q-62 0 -96 36.5t-34 96.5zM53 199v171q0 100 57.5 155.5t157.5 55.5q85 0 167 -25l-20 -93q-78 19 -132 19q-59 0 -86 -29.5t-27 -91.5v-153q0 -63 26.5 -92.5t86.5 -29.5q47 0 93 14v187l107 8v-272 q-128 -36 -215 -36q-100 0 -157.5 55t-57.5 157z" />
<glyph horiz-adv-x="543" d="M211 710q0 24 17.5 42t41.5 18q23 0 41 -18.5t18 -41.5q0 -24 -18 -41t-41 -17q-24 0 -41.5 17t-17.5 41zM53 199v171q0 100 57.5 155.5t157.5 55.5q85 0 167 -25l-20 -93q-78 19 -132 19q-59 0 -86 -29.5t-27 -91.5v-153q0 -63 26.5 -92.5t86.5 -29.5q47 0 93 14v187 l107 8v-272q-128 -36 -215 -36q-100 0 -157.5 55t-57.5 157z" />
<glyph horiz-adv-x="543" d="M53 199v171q0 100 57.5 155.5t157.5 55.5q85 0 167 -25l-20 -93q-78 19 -132 19q-59 0 -86 -29.5t-27 -91.5v-153q0 -63 26.5 -92.5t86.5 -29.5q47 0 93 14v187l107 8v-272q-128 -36 -215 -36q-100 0 -157.5 55t-57.5 157zM202 -214l22 150h104l-42 -150h-84z" />
<glyph horiz-adv-x="576" d="M194 637l-49 71l143 77l143 -77l-48 -71l-95 55zM72 0v568h116v-229h200v229h116v-547q0 -21 -22 -21h-94v245h-200v-245h-116z" />
<glyph horiz-adv-x="576" d="M72 0v413h-47v81h47v74h116v-74h200v74h116v-74h46v-81h-46v-392q0 -21 -22 -21h-94v245h-200v-245h-116zM188 339h200v74h-200v-74z" />
<glyph horiz-adv-x="260" d="M38 638l-26 71l206 76l32 -86zM72 0v568h116v-547q0 -21 -22 -21h-94z" />
<glyph horiz-adv-x="260" d="M12 699l31 86l207 -76l-27 -71zM72 0v568h116v-547q0 -21 -22 -21h-94z" />
<glyph horiz-adv-x="260" d="M36 637l-49 71l143 77l143 -77l-48 -71l-95 55zM72 0v568h116v-547q0 -21 -22 -21h-94z" />
<glyph horiz-adv-x="260" d="M159 710q0 23 18 41.5t41 18.5t41 -18.5t18 -41.5q0 -24 -17.5 -41t-41.5 -17t-41.5 17t-17.5 41zM-16 710q0 24 17.5 42t41.5 18q23 0 40.5 -18.5t17.5 -41.5q0 -24 -17.5 -41t-40.5 -17q-24 0 -41.5 17t-17.5 41zM72 0v568h116v-547q0 -21 -22 -21h-94z" />
<glyph horiz-adv-x="260" d="M35 656l-45 53q45 60 96 60q23 0 52 -16t38 -16q25 0 50 30l45 -53q-24 -33 -45.5 -46.5t-49.5 -13.5q-23 0 -51.5 16t-38.5 16q-25 0 -51 -30zM72 0v568h116v-547q0 -21 -22 -21h-94z" />
<glyph horiz-adv-x="260" d="M16 670v84h229v-84h-229zM72 0v568h116v-547q0 -21 -22 -21h-94z" />
<glyph horiz-adv-x="260" d="M0 777h80q0 -54 50 -54q23 0 37 14t14 40h80q0 -60 -35 -96.5t-96 -36.5t-95.5 36.5t-34.5 96.5zM72 0v568h116v-547q0 -21 -22 -21h-94z" />
<glyph horiz-adv-x="260" d="M72 0v568h116v-568q-75 -59 -75 -104q0 -27 27 -27q12 0 32 6l11 -79q-31 -10 -67 -10q-42 0 -69.5 25.5t-27.5 65.5q0 65 68 123h-15z" />
<glyph horiz-adv-x="665" d="M271 13l23 91q62 -19 107 -19q48 0 64 27t16 80v376h116v-384q0 -88 -46.5 -141.5t-148.5 -53.5q-66 0 -131 24zM72 0v568h116v-547q0 -21 -22 -21h-94z" />
<glyph horiz-adv-x="421" d="M200 637l-49 71l143 77l143 -77l-49 -71l-94 55zM27 11l23 94q62 -19 107 -19t62.5 25t17.5 75v382h116v-385q0 -88 -47 -142t-149 -54q-61 0 -130 24z" />
<glyph horiz-adv-x="521" d="M72 0v568h116v-230l45 4l106 226h124l-120 -238q42 -18 63 -76l88 -254h-121l-78 224q-9 27 -38 24l-69 -6v-221q0 -21 -22 -21h-94zM194 -214l23 150h103l-41 -150h-85z" />
<glyph horiz-adv-x="472" d="M36 638l-26 71l206 76l32 -86zM72 0v568h116v-469h249v-78q0 -21 -22 -21h-343z" />
<glyph horiz-adv-x="472" d="M72 0v568h116v-469h249v-78q0 -21 -22 -21h-343zM274 412l24 156h104l-43 -156h-85z" />
<glyph horiz-adv-x="472" d="M72 0v568h116v-469h249v-78q0 -21 -22 -21h-343zM183 -214l22 150h103l-41 -150h-84z" />
<glyph horiz-adv-x="472" d="M72 0v568h116v-469h249v-78q0 -21 -22 -21h-343zM266 257q0 26 17.5 43.5t42.5 17.5q26 0 43 -17.5t17 -43.5q0 -25 -17.5 -42t-42.5 -17t-42.5 17t-17.5 42z" />
<glyph horiz-adv-x="472" d="M72 0v191l-36 -13l-29 77l65 23v290h116v-249l71 25l28 -77l-99 -35v-133h249v-78q0 -21 -22 -21h-343z" />
<glyph horiz-adv-x="568" d="M191 638l-26 71l206 76l32 -86zM72 0v568h104l209 -357q-4 36 -4 87v270h115v-568h-105l-208 354q4 -47 4 -84v-270h-115z" />
<glyph horiz-adv-x="568" d="M188 656l-45 53q45 60 96 60q23 0 52 -16t38 -16q25 0 50 30l45 -53q-24 -33 -45.5 -46.5t-49.5 -13.5q-23 0 -51.5 16t-38.5 16q-25 0 -51 -30zM72 0v568h104l209 -357q-4 36 -4 87v270h115v-568h-105l-208 354q4 -47 4 -84v-270h-115z" />
<glyph horiz-adv-x="568" d="M140 714l49 70l94 -54l95 54l48 -70l-143 -77zM72 0v568h104l209 -357q-4 36 -4 87v270h115v-568h-105l-208 354q4 -47 4 -84v-270h-115z" />
<glyph horiz-adv-x="568" d="M72 0v568h104l209 -357q-4 36 -4 87v270h115v-568h-105l-208 354q4 -47 4 -84v-270h-115zM217 -214l23 150h103l-41 -150h-85z" />
<glyph horiz-adv-x="568" d="M72 0v568h104l209 -357q-4 36 -4 87v270h115v-603q0 -63 -37.5 -99t-111.5 -36q-39 0 -80 14l19 89q29 -8 58 -8q22 0 30.5 9.5t8.5 35.5v44l-200 340q4 -47 4 -84v-270h-115z" />
<glyph horiz-adv-x="571" d="M193 638l-27 71l207 76l31 -86zM53 231v106q0 108 61.5 176t170.5 68q108 0 170.5 -68t62.5 -176v-106q0 -108 -62.5 -176t-170.5 -68q-109 0 -170.5 68t-61.5 176zM170 328v-88q0 -154 115 -154t115 154v88q0 154 -115 154t-115 -154z" />
<glyph horiz-adv-x="571" d="M166 699l32 86l206 -76l-26 -71zM53 231v106q0 108 61.5 176t170.5 68q108 0 170.5 -68t62.5 -176v-106q0 -108 -62.5 -176t-170.5 -68q-109 0 -170.5 68t-61.5 176zM170 328v-88q0 -154 115 -154t115 154v88q0 154 -115 154t-115 -154z" />
<glyph horiz-adv-x="571" d="M191 637l-49 71l143 77l143 -77l-49 -71l-94 55zM53 231v106q0 108 61.5 176t170.5 68q108 0 170.5 -68t62.5 -176v-106q0 -108 -62.5 -176t-170.5 -68q-109 0 -170.5 68t-61.5 176zM170 328v-88q0 -154 115 -154t115 154v88q0 154 -115 154t-115 -154z" />
<glyph horiz-adv-x="571" d="M314 710q0 24 17.5 42t41.5 18q23 0 41 -18.5t18 -41.5q0 -24 -18 -41t-41 -17q-24 0 -41.5 17t-17.5 41zM138 710q0 23 18 41.5t41 18.5q24 0 41 -18t17 -42t-17 -41t-41 -17t-41.5 17t-17.5 41zM53 231v106q0 108 61.5 176t170.5 68q108 0 170.5 -68t62.5 -176v-106 q0 -108 -62.5 -176t-170.5 -68q-109 0 -170.5 68t-61.5 176zM170 328v-88q0 -154 115 -154t115 154v88q0 154 -115 154t-115 -154z" />
<glyph horiz-adv-x="571" d="M189 656l-44 53q43 60 95 60q24 0 53 -16t38 -16q25 0 50 30l45 -53q-45 -60 -95 -60q-23 0 -52 16t-39 16q-25 0 -51 -30zM53 231v106q0 108 61.5 176t170.5 68q108 0 170.5 -68t62.5 -176v-106q0 -108 -62.5 -176t-170.5 -68q-109 0 -170.5 68t-61.5 176zM170 328v-88 q0 -154 115 -154t115 154v88q0 154 -115 154t-115 -154z" />
<glyph horiz-adv-x="571" d="M155 777h80q0 -54 50 -54t50 54h80q0 -60 -34.5 -96.5t-95.5 -36.5q-62 0 -96 36.5t-34 96.5zM53 231v106q0 108 61.5 176t170.5 68q108 0 170.5 -68t62.5 -176v-106q0 -108 -62.5 -176t-170.5 -68q-109 0 -170.5 68t-61.5 176zM170 328v-88q0 -154 115 -154t115 154v88 q0 154 -115 154t-115 -154z" />
<glyph horiz-adv-x="571" d="M171 670v84h229v-84h-229zM53 231v106q0 108 61.5 176t170.5 68q108 0 170.5 -68t62.5 -176v-106q0 -108 -62.5 -176t-170.5 -68q-109 0 -170.5 68t-61.5 176zM170 328v-88q0 -154 115 -154t115 154v88q0 154 -115 154t-115 -154z" />
<glyph horiz-adv-x="571" d="M319 680l102 122l71 -63l-114 -111zM142 680l102 122l71 -63l-115 -111zM53 231v106q0 108 61.5 176t170.5 68q108 0 170.5 -68t62.5 -176v-106q0 -108 -62.5 -176t-170.5 -68q-109 0 -170.5 68t-61.5 176zM170 328v-88q0 -154 115 -154t115 154v88q0 154 -115 154 t-115 -154z" />
<glyph horiz-adv-x="572" d="M96 -41l36 79q-79 68 -79 193v106q0 108 62 176t171 68q40 0 86 -14l32 72l69 -30l-35 -79q81 -67 81 -193v-106q0 -108 -62.5 -176t-170.5 -68q-48 0 -87 15l-33 -73zM186 159l144 316q-23 7 -44 7q-115 0 -115 -154v-88q0 -51 15 -81zM401 240v88q0 51 -17 82 l-144 -317q18 -7 46 -7q115 0 115 154z" />
<glyph horiz-adv-x="792" d="M53 231v106q0 108 61.5 176t170.5 68q42 0 83 -13h373v-99h-255q32 -50 32 -114v-17h198v-94h-198v-21q0 -71 -33 -124h259v-78q0 -21 -21 -21h-355q-41 -13 -83 -13q-109 0 -170.5 68t-61.5 176zM170 328v-88q0 -154 115 -154t115 154v88q0 154 -115 154t-115 -154z" />
<glyph horiz-adv-x="485" d="M72 0v568h116v-89h53q97 0 153 -53.5t56 -132.5q0 -80 -56 -132.5t-153 -52.5h-53v-108h-116zM188 203h49q44 0 68 26t24 64q0 40 -24 65t-69 25h-48v-180z" />
<glyph horiz-adv-x="498" d="M156 638l-26 71l206 76l32 -86zM72 0v547q121 34 188 34q92 0 145.5 -55.5t53.5 -133.5q0 -51 -28 -97.5t-84 -68.5l108 -226h-125l-93 209h-49v-209h-116zM188 299h63q42 0 64 25t22 67q0 40 -19 65.5t-59 25.5q-37 0 -71 -10v-173z" />
<glyph horiz-adv-x="498" d="M105 714l49 70l94 -54l95 54l48 -70l-143 -77zM72 0v547q121 34 188 34q92 0 145.5 -55.5t53.5 -133.5q0 -51 -28 -97.5t-84 -68.5l108 -226h-125l-93 209h-49v-209h-116zM188 299h63q42 0 64 25t22 67q0 40 -19 65.5t-59 25.5q-37 0 -71 -10v-173z" />
<glyph horiz-adv-x="498" d="M72 0v547q121 34 188 34q92 0 145.5 -55.5t53.5 -133.5q0 -51 -28 -97.5t-84 -68.5l108 -226h-125l-93 209h-49v-209h-116zM188 299h63q42 0 64 25t22 67q0 40 -19 65.5t-59 25.5q-37 0 -71 -10v-173zM182 -214l23 150h103l-41 -150h-85z" />
<glyph horiz-adv-x="452" d="M134 638l-27 71l207 76l31 -86zM37 21l21 96q91 -31 151 -31q41 0 61.5 19t20.5 49q0 31 -25 51.5t-60.5 35.5t-71 33t-60.5 55t-25 91q0 75 55.5 118t142.5 43q59 0 149 -31l-30 -93q-70 25 -119 25q-37 0 -57 -17t-20 -45q0 -26 25 -45.5t60.5 -35t71.5 -35.5t61 -58 t25 -92q0 -75 -56.5 -121t-147.5 -46q-70 0 -172 34z" />
<glyph horiz-adv-x="452" d="M132 637l-49 71l143 77l143 -77l-49 -71l-94 55zM37 21l21 96q91 -31 151 -31q41 0 61.5 19t20.5 49q0 31 -25 51.5t-60.5 35.5t-71 33t-60.5 55t-25 91q0 75 55.5 118t142.5 43q59 0 149 -31l-30 -93q-70 25 -119 25q-37 0 -57 -17t-20 -45q0 -26 25 -45.5t60.5 -35 t71.5 -35.5t61 -58t25 -92q0 -75 -56.5 -121t-147.5 -46q-70 0 -172 34z" />
<glyph horiz-adv-x="452" d="M83 714l49 70l94 -54l94 54l49 -70l-143 -77zM37 21l21 96q91 -31 151 -31q41 0 61.5 19t20.5 49q0 31 -25 51.5t-60.5 35.5t-71 33t-60.5 55t-25 91q0 75 55.5 118t142.5 43q59 0 149 -31l-30 -93q-70 25 -119 25q-37 0 -57 -17t-20 -45q0 -26 25 -45.5t60.5 -35 t71.5 -35.5t61 -58t25 -92q0 -75 -56.5 -121t-147.5 -46q-70 0 -172 34z" />
<glyph horiz-adv-x="452" d="M86 -204l12 77q25 -5 44 -5t30 12t11 34v74q-57 3 -146 33l21 96q91 -31 151 -31q41 0 61.5 19t20.5 49q0 31 -25 51.5t-60.5 35.5t-71 33t-60.5 55t-25 91q0 75 55.5 118t142.5 43q59 0 149 -31l-30 -93q-70 25 -119 25q-37 0 -57 -17t-20 -45q0 -26 25 -45.5t60.5 -35 t71.5 -35.5t61 -58t25 -92q0 -60 -36.5 -102.5t-99.5 -56.5v-98q0 -58 -36 -84t-85 -26q-36 0 -70 9z" />
<glyph horiz-adv-x="452" d="M37 21l21 96q91 -31 151 -31q41 0 61.5 19t20.5 49q0 31 -25 51.5t-60.5 35.5t-71 33t-60.5 55t-25 91q0 75 55.5 118t142.5 43q59 0 149 -31l-30 -93q-70 25 -119 25q-37 0 -57 -17t-20 -45q0 -26 25 -45.5t60.5 -35t71.5 -35.5t61 -58t25 -92q0 -75 -56.5 -121 t-147.5 -46q-70 0 -172 34zM160 -214l22 150h104l-42 -150h-84z" />
<glyph horiz-adv-x="902" d="M487 21l21 96q91 -31 151 -31q41 0 61.5 19t20.5 49q0 31 -25 51.5t-60.5 35.5t-71 33t-60.5 55t-25 91q0 75 55.5 118t142.5 43q59 0 149 -31l-30 -93q-70 25 -119 25q-37 0 -57 -17t-20 -45q0 -26 25 -45.5t60.5 -35t71.5 -35.5t61 -58t25 -92q0 -75 -56.5 -121 t-147.5 -46q-70 0 -172 34zM37 21l21 96q91 -31 151 -31q41 0 61.5 19t20.5 49q0 31 -25 51.5t-60.5 35.5t-71 33t-60.5 55t-25 91q0 75 55.5 118t142.5 43q59 0 149 -31l-30 -93q-70 25 -119 25q-37 0 -57 -17t-20 -45q0 -26 25 -45.5t60.5 -35t71.5 -35.5t61 -58t25 -92 q0 -75 -56.5 -121t-147.5 -46q-70 0 -172 34z" />
<glyph horiz-adv-x="451" d="M81 714l49 70l94 -54l94 54l49 -70l-143 -77zM167 0v469h-136v99h389v-99h-137v-469h-116z" />
<glyph horiz-adv-x="451" d="M167 0v469h-136v99h389v-99h-137v-469h-116zM153 -214l23 150h103l-41 -150h-85z" />
<glyph horiz-adv-x="451" d="M167 0v242h-79v80h79v147h-136v99h389v-99h-137v-147h79v-80h-79v-242h-116z" />
<glyph horiz-adv-x="564" d="M190 638l-26 71l206 76l31 -86zM60 213v355h116v-369q0 -47 26 -80t81 -33q53 0 79 33t26 80v369h116v-355q0 -106 -57 -166t-164 -60t-165 60t-58 166z" />
<glyph horiz-adv-x="564" d="M164 699l32 86l206 -76l-26 -71zM60 213v355h116v-369q0 -47 26 -80t81 -33q53 0 79 33t26 80v369h116v-355q0 -106 -57 -166t-164 -60t-165 60t-58 166z" />
<glyph horiz-adv-x="564" d="M188 637l-49 71l143 77l143 -77l-49 -71l-94 55zM60 213v355h116v-369q0 -47 26 -80t81 -33q53 0 79 33t26 80v369h116v-355q0 -106 -57 -166t-164 -60t-165 60t-58 166z" />
<glyph horiz-adv-x="564" d="M311 710q0 24 17.5 42t41.5 18q23 0 41 -18.5t18 -41.5q0 -24 -17.5 -41t-41.5 -17t-41.5 17t-17.5 41zM135 710q0 23 18 41.5t41 18.5q24 0 41.5 -18t17.5 -42t-17.5 -41t-41.5 -17t-41.5 17t-17.5 41zM60 213v355h116v-369q0 -47 26 -80t81 -33q53 0 79 33t26 80v369 h116v-355q0 -106 -57 -166t-164 -60t-165 60t-58 166z" />
<glyph horiz-adv-x="564" d="M186 656l-44 53q45 60 95 60q23 0 53 -16t38 -16q25 0 50 30l45 -53q-44 -60 -95 -60q-22 0 -51 16t-40 16q-25 0 -51 -30zM60 213v355h116v-369q0 -47 26 -80t81 -33q53 0 79 33t26 80v369h116v-355q0 -106 -57 -166t-164 -60t-165 60t-58 166z" />
<glyph horiz-adv-x="564" d="M185 713q0 39 28 63.5t68 24.5q43 0 71 -24.5t28 -63.5q0 -38 -28.5 -62.5t-70.5 -24.5q-40 0 -68 24.5t-28 62.5zM259 713q0 -9 6 -16t16 -7t17.5 7t7.5 17q0 9 -7 16t-17 7q-9 0 -16 -6.5t-7 -17.5zM60 213v355h116v-369q0 -47 26 -80t81 -33q53 0 79 33t26 80v369h116 v-355q0 -106 -57 -166t-164 -60t-165 60t-58 166z" />
<glyph horiz-adv-x="564" d="M152 777h80q0 -54 50 -54t50 54h80q0 -60 -34.5 -96.5t-95.5 -36.5t-95.5 36.5t-34.5 96.5zM60 213v355h116v-369q0 -47 26 -80t81 -33q53 0 79 33t26 80v369h116v-355q0 -106 -57 -166t-164 -60t-165 60t-58 166z" />
<glyph horiz-adv-x="564" d="M168 670v84h229v-84h-229zM60 213v355h116v-369q0 -47 26 -80t81 -33q53 0 79 33t26 80v369h116v-355q0 -106 -57 -166t-164 -60t-165 60t-58 166z" />
<glyph horiz-adv-x="564" d="M294 680l102 122l71 -63l-114 -111zM117 680l102 122l71 -63l-115 -111zM60 213v355h116v-369q0 -47 26 -80t81 -33q53 0 79 33t26 80v369h116v-355q0 -106 -57 -166t-164 -60t-165 60t-58 166z" />
<glyph horiz-adv-x="564" d="M329 -125l10 -79q-30 -10 -66 -10q-42 0 -69.5 25.5t-27.5 65.5q0 60 57 114q-83 13 -128 71t-45 151v355h116v-369q0 -47 26 -80t81 -33q53 0 79 33t26 80v369h116v-355q0 -93 -44 -151t-127 -71q-64 -52 -64 -95q0 -27 28 -27q12 0 32 6z" />
<glyph horiz-adv-x="772" d="M294 638l-26 71l206 76l31 -86zM155 0l-117 568h120l44 -249q6 -34 20 -171q8 96 26 171l28 116q24 98 110 98q88 0 111 -98l27 -116q18 -75 26 -170q14 134 20 170l44 249h120l-117 -568h-128l-87 412q-4 19 -16 19t-16 -19l-86 -412h-129z" />
<glyph horiz-adv-x="772" d="M268 699l31 86l206 -76l-26 -71zM155 0l-117 568h120l44 -249q6 -34 20 -171q8 96 26 171l28 116q24 98 110 98q88 0 111 -98l27 -116q18 -75 26 -170q14 134 20 170l44 249h120l-117 -568h-128l-87 412q-4 19 -16 19t-16 -19l-86 -412h-129z" />
<glyph horiz-adv-x="772" d="M292 637l-49 71l143 77l143 -77l-49 -71l-94 55zM155 0l-117 568h120l44 -249q6 -34 20 -171q8 96 26 171l28 116q24 98 110 98q88 0 111 -98l27 -116q18 -75 26 -170q14 134 20 170l44 249h120l-117 -568h-128l-87 412q-4 19 -16 19t-16 -19l-86 -412h-129z" />
<glyph horiz-adv-x="772" d="M415 710q0 24 17.5 42t41.5 18q23 0 41 -18.5t18 -41.5q0 -24 -17.5 -41t-41.5 -17t-41.5 17t-17.5 41zM239 710q0 23 18 41.5t41 18.5q24 0 41.5 -18t17.5 -42t-17.5 -41t-41.5 -17t-41.5 17t-17.5 41zM155 0l-117 568h120l44 -249q6 -34 20 -171q8 96 26 171l28 116 q24 98 110 98q88 0 111 -98l27 -116q18 -75 26 -170q14 134 20 170l44 249h120l-117 -568h-128l-87 412q-4 19 -16 19t-16 -19l-86 -412h-129z" />
<glyph horiz-adv-x="508" d="M161 638l-26 71l206 76l32 -86zM197 0v225q-96 26 -122 146l-41 197h115l35 -172q9 -42 23.5 -62.5t46.5 -20.5t46 20t23 63l36 172h115l-41 -197q-26 -120 -121 -146v-225h-115z" />
<glyph horiz-adv-x="508" d="M135 699l32 86l206 -76l-26 -71zM197 0v225q-96 26 -122 146l-41 197h115l35 -172q9 -42 23.5 -62.5t46.5 -20.5t46 20t23 63l36 172h115l-41 -197q-26 -120 -121 -146v-225h-115z" />
<glyph horiz-adv-x="508" d="M159 637l-48 71l143 77l143 -77l-49 -71l-94 55zM197 0v225q-96 26 -122 146l-41 197h115l35 -172q9 -42 23.5 -62.5t46.5 -20.5t46 20t23 63l36 172h115l-41 -197q-26 -120 -121 -146v-225h-115z" />
<glyph horiz-adv-x="508" d="M282 710q0 23 18 41.5t42 18.5q22 0 40 -18.5t18 -41.5q0 -24 -17.5 -41t-40.5 -17q-24 0 -42 17t-18 41zM107 710q0 24 17.5 42t41.5 18q23 0 40.5 -18.5t17.5 -41.5q0 -24 -17.5 -41t-40.5 -17q-24 0 -41.5 17t-17.5 41zM197 0v225q-96 26 -122 146l-41 197h115 l35 -172q9 -42 23.5 -62.5t46.5 -20.5t46 20t23 63l36 172h115l-41 -197q-26 -120 -121 -146v-225h-115z" />
<glyph horiz-adv-x="494" d="M154 638l-26 71l206 76l32 -86zM48 0v88l249 381h-240v99h375v-89l-249 -380h263v-99h-398z" />
<glyph horiz-adv-x="494" d="M103 714l49 70l94 -54l95 54l48 -70l-143 -77zM48 0v88l249 381h-240v99h375v-89l-249 -380h263v-99h-398z" />
<glyph horiz-adv-x="494" d="M187 710q0 23 18 41.5t42 18.5q22 0 40 -18.5t18 -41.5q0 -24 -17.5 -41t-40.5 -17q-24 0 -42 17t-18 41zM48 0v88l249 381h-240v99h375v-89l-249 -380h263v-99h-398z" />
<glyph horiz-adv-x="483" d="M195 710q0 24 17.5 42t41.5 18q23 0 41 -18.5t18 -41.5q0 -24 -18 -41t-41 -17q-24 0 -41.5 17t-17.5 41zM53 198v172q0 100 57.5 155.5t157.5 55.5q86 0 167 -25l-20 -95q-71 21 -132 21q-62 0 -87.5 -30.5t-25.5 -90.5v-153q0 -61 25.5 -91.5t87.5 -30.5q57 0 132 20 l20 -94q-82 -25 -167 -25q-100 0 -157.5 55t-57.5 156z" />
</font>
</defs>
</svg>
