<?xml version="1.0" standalone="no"?>
<!DOCTYPE svg PUBLIC "-//W3C//DTD SVG 1.1//EN" "http://www.w3.org/Graphics/SVG/1.1/DTD/svg11.dtd" >
<svg>
<metadata>
Created by FontForge 20090914 at Wed Aug  1 21:19:22 2012
 By www-data
Digitized data copyright &#194;&#169; 2007, Google Corporation.
</metadata>
<defs>
<font id="DroidSerif-Bold" horiz-adv-x="1145" >
  <font-face 
    font-family="Droid Serif"
    font-weight="700"
    font-stretch="normal"
    units-per-em="2048"
    panose-1="2 2 8 0 6 5 0 2 2 0"
    ascent="1638"
    descent="-410"
    x-height="1098"
    cap-height="1462"
    bbox="-381 -492.002 2185 1907"
    underline-thickness="102"
    underline-position="-103"
    unicode-range="U+0020-U+2044"
  />
<missing-glyph horiz-adv-x="2048" 
 />
    <glyph glyph-name=".notdef" horiz-adv-x="2048" 
 />
    <glyph glyph-name="space" unicode=" " horiz-adv-x="532" 
 />
    <glyph glyph-name="exclam" unicode="!" horiz-adv-x="782" 
d="M213 1462h356l-120 -995h-115zM225 147c0 31.333 4.33301 57.5 13 78.5s20.5 37.833 35.5 50.5s32.833 21.667 53.5 27s42.667 8 66 8c22.667 0 44.167 -2.66699 64.5 -8s38.166 -14.333 53.499 -27s27.5 -29.5 36.5 -50.5s13.5 -47.167 13.5 -78.5
c0 -30.667 -4.5 -56.334 -13.5 -77.001s-21.167 -37.334 -36.5 -50.001s-33.166 -21.834 -53.499 -27.501s-41.833 -8.5 -64.5 -8.5c-23.333 0 -45.333 2.83301 -66 8.5s-38.5 14.834 -53.5 27.501s-26.833 29.334 -35.5 50.001s-13 46.334 -13 77.001z" />
    <glyph glyph-name="quotedbl" unicode="&#x22;" horiz-adv-x="1040" 
d="M584 1462h319l-72 -563h-135zM137 1462h320l-92 -563h-136z" />
    <glyph glyph-name="numbersign" unicode="#" 
d="M1022 551v-141h-256l-76 -410h-145l76 410h-213l-78 -410h-146l78 410h-205v141h232l71 371h-237v143h264l72 397h147l-74 -397h213l76 397h146l-76 -397h196v-143h-223l-69 -371h227zM434 551h215l72 371h-215z" />
    <glyph glyph-name="dollar" unicode="$" 
d="M639 1556l0.000976562 -155.004c60.667 -2 113 -8.66699 157 -20s80.333 -26.166 109 -44.499s49.834 -39.5 63.501 -63.5s20.5 -49.667 20.5 -77c0 -43.333 -18.667 -79 -56 -107s-93.666 -42 -168.999 -42c0 20 -2.33301 41.667 -7 65s-12 45.833 -22 67.5
s-22.833 41.334 -38.5 59.001s-34.834 31.5 -57.501 41.5v-399c4 -2 11.667 -5.16699 23 -9.5s20.666 -8.16602 27.999 -11.499c62.667 -24.667 116.334 -50 161.001 -76s81.167 -54.333 109.5 -85s49 -63.834 62 -99.501s19.5 -75.167 19.5 -118.5
c0 -52 -9.16699 -100.167 -27.5 -144.5s-44.666 -83.5 -78.999 -117.5s-76.5 -61.833 -126.5 -83.5s-106.667 -36.167 -170 -43.5v-254h-115v250c-78 2 -144 12 -198 30s-97.833 40.667 -131.5 68s-57.834 57.666 -72.501 90.999s-22 66 -22 98c0 30 5.5 55.333 16.5 76
s25.5 37.5 43.5 50.5s38.5 22.5 61.5 28.5s46.833 9 71.5 9c0 -51.333 5.5 -97 16.5 -137s26.667 -74.167 47 -102.5s44.666 -51.166 72.999 -68.499s59.833 -28.666 94.5 -33.999v442l-35 14c-65.333 26.667 -119.833 53.667 -163.5 81s-79 56.5 -106 87.5
s-46.167 64.5 -57.5 100.5s-17 76 -17 120c0 49.333 9.33301 94.5 28 135.5s44.667 76.833 78 107.5s73.166 55.834 119.499 75.501s97.5 32.5 153.5 38.5v157h115zM799.001 388.996c0 43.333 -13.333 80.333 -40 111s-66.667 60 -120 88v-387
c51.333 11.333 90.833 34 118.5 68s41.5 74 41.5 120zM385.001 1128c0 -18 2 -35.332 6 -51.999s11.333 -32.834 22 -48.501s25 -31 43 -46s40.667 -30.167 68 -45.5v354c-40 -7.33301 -73.167 -24.5 -99.5 -51.5s-39.5 -63.833 -39.5 -110.5z" />
    <glyph glyph-name="percent" unicode="%" horiz-adv-x="1855" 
d="M807 1030c0 -68.667 -7.66699 -131 -23 -187s-38.166 -104 -68.499 -144s-68.666 -71 -114.999 -93s-100.5 -33 -162.5 -33c-64.667 0 -120.334 11 -167.001 33s-84.834 53 -114.501 93s-51.5 88 -65.5 144s-21 118.333 -21 187s7 130.834 21 186.501
s36 103.334 66 143.001s68.333 70.167 115 91.5s102.667 32 168 32c61.333 0 115 -10.667 161 -32s84.333 -51.833 115 -91.5s53.5 -87.334 68.5 -143.001s22.5 -117.834 22.5 -186.501zM301 1030c0 -56 2.49707 -105.833 7.49707 -149.5s12.833 -80.667 23.5 -111
s24.834 -53.5 42.501 -69.5s38.834 -24 63.501 -24c26 0 47.5 8 64.5 24s30.833 39.167 41.5 69.5s18.167 67.333 22.5 111s6.5 93.5 6.5 149.5c0 54.667 -2.16699 103.5 -6.5 146.5s-11.666 79.5 -21.999 109.5s-24 52.833 -41 68.5s-38.167 23.5 -63.5 23.5
s-46.833 -7.83301 -64.5 -23.5s-32 -38.5 -43 -68.5s-19 -66.5 -24 -109.5s-7.5 -91.833 -7.5 -146.5zM650.997 0h-159l706 1462h158zM1786 436c0 -68.667 -7.66699 -131 -23 -187s-38.166 -104 -68.499 -144s-68.666 -70.833 -114.999 -92.5s-100.5 -32.5 -162.5 -32.5
c-64.667 0 -120.334 10.833 -167.001 32.5s-84.834 52.5 -114.501 92.5s-51.5 88 -65.5 144s-21 118.333 -21 187s7 130.834 21 186.501s36 103.334 66 143.001s68.333 70.167 115 91.5s102.667 32 168 32c61.333 0 115 -10.667 161 -32s84.333 -51.833 115 -91.5
s53.5 -87.334 68.5 -143.001s22.5 -117.834 22.5 -186.501zM1280 436c0 -56 2.49707 -105.833 7.49707 -149.5s12.833 -80.667 23.5 -111s24.834 -53.5 42.501 -69.5s38.834 -24 63.501 -24c26 0 47.5 8 64.5 24s30.833 39.167 41.5 69.5s18.167 67.333 22.5 111
s6.5 93.5 6.5 149.5c0 54.667 -2.16699 103.5 -6.5 146.5s-11.666 79.5 -21.999 109.5s-24 52.833 -41 68.5s-38.167 23.5 -63.5 23.5s-46.833 -7.83301 -64.5 -23.5s-32 -38.5 -43 -68.5s-19 -66.5 -24 -109.5s-7.5 -91.833 -7.5 -146.5z" />
    <glyph glyph-name="ampersand" unicode="&#x26;" horiz-adv-x="1640" 
d="M1208 0l-140.993 149.998c-25.333 -25.333 -53.5 -48.333 -84.5 -69s-65.167 -38.5 -102.5 -53.5s-77.833 -26.667 -121.5 -35s-91.167 -12.5 -142.5 -12.5c-84 0 -158.333 9.83301 -223 29.5s-119 48.167 -163 85.5s-77.333 83 -100 137s-34 115.333 -34 184
c0 60 9.5 111.167 28.5 153.5s44.5 79 76.5 110s69.167 57.333 111.5 79s86.833 41.834 133.5 60.501c-26.667 32 -49.834 62.5 -69.501 91.5s-35.834 57.833 -48.501 86.5s-22 58 -28 88s-9 62.333 -9 97c0 45.333 8.66699 86.333 26 123s43.166 68.334 77.499 95.001
s77.166 47.167 128.499 61.5s111 21.5 179 21.5c66 0 123.5 -7.66699 172.5 -23s89.667 -36.333 122 -63s56.666 -57.667 72.999 -93s24.5 -72.666 24.5 -111.999c0 -41.333 -6.33301 -78.666 -19 -111.999s-31.834 -64.166 -57.501 -92.499s-58 -54.833 -97 -79.5
s-85.167 -49.334 -138.5 -74.001c3.33301 -5.33301 8.33301 -10.333 15 -15l290 -305c8.66699 47.333 14.334 94.166 17.001 140.499s4 88.833 4 127.5v90h448v-108h-32c-22.667 0 -44.834 -1.33301 -66.501 -4s-41.834 -8.83398 -60.501 -18.501s-35.167 -23.667 -49.5 -42
s-25.833 -43.166 -34.5 -74.499c-10.667 -38 -23.167 -78.5 -37.5 -121.5s-31.833 -86.5 -52.5 -130.5l204 -213c19.333 -20.667 43 -34.334 71 -41.001s60.333 -10 97 -10h19v-109h-406zM397.007 405.998c0 -40.667 6.49902 -78.501 19.499 -113.501
s31.167 -65.5 54.5 -91.5s51.833 -46.5 85.5 -61.5s70.834 -22.5 111.501 -22.5c72.667 0 134 11.833 184 35.5s91.667 55.5 125 95.5l-438 467c-28.667 -20.667 -52.167 -42.5 -70.5 -65.5s-32.833 -47.333 -43.5 -73s-18 -52.667 -22 -81s-6 -58.166 -6 -89.499z
M846.006 1190c0 24 -2.16309 46.333 -6.49609 67s-11.833 38.667 -22.5 54s-25.334 27.333 -44.001 36s-42.334 13 -71.001 13c-22.667 0 -42.5 -4.33301 -59.5 -13s-30.833 -20.667 -41.5 -36s-18.667 -33.5 -24 -54.5s-8 -43.833 -8 -68.5
c0 -23.333 2.66699 -45.666 8 -66.999s13.166 -42.5 23.499 -63.5s23.5 -42.167 39.5 -63.5s34.667 -44 56 -68c28.667 16 52.667 33 72 51s34.666 37.5 45.999 58.5s19.5 44.167 24.5 69.5s7.5 53.666 7.5 84.999z" />
    <glyph glyph-name="quotesingle" unicode="'" horiz-adv-x="594" 
d="M137 1462h320l-92 -563h-136z" />
    <glyph glyph-name="parenleft" unicode="(" horiz-adv-x="819" 
d="M446 651c0 -81.333 4.16699 -161.165 12.5 -239.498s23.833 -152.333 46.5 -222s54 -133.834 94 -192.501s91.667 -109 155 -151v-131c-114 46 -211.333 99.833 -292 161.5s-146.5 131.5 -197.5 209.5s-88.333 164 -112 258s-35.5 196.333 -35.5 307
c0 110 11.833 211.833 35.5 305.5s61 179.167 112 256.5s116.833 146.666 197.5 207.999s178 114.666 292 159.999v-129c-63.333 -42 -115 -92.167 -155 -150.5s-71.333 -122.166 -94 -191.499s-38.167 -142.833 -46.5 -220.5s-12.5 -157.167 -12.5 -238.5z" />
    <glyph glyph-name="parenright" unicode=")" horiz-adv-x="819" 
d="M373 651c0 81.333 -4.16699 160.832 -12.5 238.499s-23.666 151.167 -45.999 220.5s-53.5 133.166 -93.5 191.499s-91.667 108.5 -155 150.5v129c114 -45.333 211.333 -98.666 292 -159.999s146.5 -130.666 197.5 -207.999s88.167 -162.833 111.5 -256.5
s35 -195.5 35 -305.5c0 -110.667 -11.667 -213 -35 -307s-60.5 -180 -111.5 -258s-116.833 -147.833 -197.5 -209.5s-178 -115.5 -292 -161.5v131c63.333 42 115 92.333 155 151s71.167 122.834 93.5 192.501s37.666 143.667 45.999 222s12.5 158.166 12.5 239.499z" />
    <glyph glyph-name="asterisk" unicode="*" horiz-adv-x="1028" 
d="M72 1237l92 207l305 -221l-68 333h230l-74 -329l307 213l92 -205l-319 -80l319 -82l-92 -203l-307 213l72 -331h-228l66 333l-303 -217l-92 203l319 84z" />
    <glyph glyph-name="plus" unicode="+" 
d="M645 659v-366h-147v366h-365v146h365v366h147v-366h367v-146h-367z" />
    <glyph glyph-name="comma" unicode="," horiz-adv-x="602" 
d="M459 86c0 -43.333 -6.66895 -85.3311 -20.002 -125.998s-34.666 -78.334 -63.999 -113.001s-67.166 -65.834 -113.499 -93.501s-102.833 -50.5 -169.5 -68.5v106c30 10.667 56.167 21.334 78.5 32.001s41 22.167 56 34.5s26.333 26 34 41s11.5 32.5 11.5 52.5
c0 12.667 -3.66699 23.167 -11 31.5s-16.5 16.166 -27.5 23.499s-23 14.833 -36 22.5s-25 17.5 -36 29.5s-20.167 26.833 -27.5 44.5s-11 40.167 -11 67.5c0 46 14 81 42 105s63 36 105 36c58 0 104 -20 138 -60s51 -95 51 -165z" />
    <glyph glyph-name="hyphen" unicode="-" horiz-adv-x="635" 
d="M51 451v215h533v-215h-533z" />
    <glyph glyph-name="period" unicode="." horiz-adv-x="623" 
d="M143 147c0 31.333 4.33301 57.5 13 78.5s20.5 37.833 35.5 50.5s32.833 21.667 53.5 27s42.667 8 66 8c22.667 0 44.167 -2.66699 64.5 -8s38.166 -14.333 53.499 -27s27.5 -29.5 36.5 -50.5s13.5 -47.167 13.5 -78.5c0 -30.667 -4.5 -56.334 -13.5 -77.001
s-21.167 -37.334 -36.5 -50.001s-33.166 -21.834 -53.499 -27.501s-41.833 -8.5 -64.5 -8.5c-23.333 0 -45.333 2.83301 -66 8.5s-38.5 14.834 -53.5 27.501s-26.833 29.334 -35.5 50.001s-13 46.334 -13 77.001z" />
    <glyph glyph-name="slash" unicode="/" horiz-adv-x="590" 
d="M147 -250l-147 2l446 1804h144z" />
    <glyph glyph-name="zero" unicode="0" 
d="M1075 733c0 -112.667 -9.33203 -215.334 -27.999 -308.001s-48.334 -172 -89.001 -238s-92.667 -117 -156 -153s-139.666 -54 -228.999 -54c-93.333 0 -172 18 -236 54s-115.833 87 -155.5 153s-68.167 145.5 -85.5 238.5s-26 196.167 -26 309.5s8.66699 216 26 308
s45.833 170.667 85.5 236s91.667 115.666 156 150.999s143.5 53 237.5 53c88.667 0 164.667 -17.667 228 -53s115.166 -85.666 155.499 -150.999s69.833 -144.166 88.5 -236.499s28 -195.5 28 -309.5zM387.001 733c0 -98 2.66699 -185.333 8 -262s14.833 -141.5 28.5 -194.5
s32.5 -93.5 56.5 -121.5s55 -42 93 -42s69 14 93 42s42.833 68.5 56.5 121.5s23 117.833 28 194.5s7.5 164 7.5 262s-2.5 185.167 -7.5 261.5s-14.167 140.833 -27.5 193.5s-32 92.834 -56 120.501s-54.667 41.5 -92 41.5c-38 0 -69.167 -13.833 -93.5 -41.5
s-43.5 -67.834 -57.5 -120.501s-23.667 -117.167 -29 -193.5s-8 -163.5 -8 -261.5z" />
    <glyph glyph-name="one" unicode="1" 
d="M199 0l-0.00488281 108.998h168c17.333 0 32.333 2.16699 45 6.5s23.334 11.5 32.001 21.5s15 23.5 19 40.5s6 38.5 6 64.5v1026l-73.5 -87c-23 -26 -45.167 -48.333 -66.5 -67s-42.166 -33.167 -62.499 -43.5s-40.833 -15.5 -61.5 -15.5
c-16.667 0 -32.167 3.5 -46.5 10.5s-26.833 17.167 -37.5 30.5s-19.167 29.333 -25.5 48s-9.5 39.334 -9.5 62.001c20.667 5.33301 42.334 11.833 65.001 19.5s46.834 17.667 72.501 30s53.167 27.333 82.5 45s61 38.834 95 63.501l144 106h229v-1228
c0 -21.333 1.5 -40.333 4.5 -57s8.33301 -30.667 16 -42s18.334 -19.833 32.001 -25.5s31.167 -8.5 52.5 -8.5h165v-109h-845z" />
    <glyph glyph-name="two" unicode="2" 
d="M999 1143c0 -32 -3.49902 -62.9971 -10.499 -92.9971s-18.667 -61 -35 -93s-37.833 -65.833 -64.5 -101.5s-59.667 -75 -99 -118s-85.166 -90.5 -137.499 -142.5l-181.5 -175l-205 -195h477c42 0 77.833 12.167 107.5 36.5s50.5 59.5 62.5 105.5l17 63h121l-11 -430h-968
v211l303 309c63.333 64.667 115.333 123 156 175s72.667 101.667 96 149s39.666 94.166 48.999 140.499s14 95.833 14 148.5c0 78 -14.167 135 -42.5 171s-67.5 54 -117.5 54c-69.333 0 -118 -29.833 -146 -89.5s-42 -147.834 -42 -264.501
c-38.667 0 -74.167 3.66699 -106.5 11s-60 19 -83 35s-40.833 36.833 -53.5 62.5s-19 56.834 -19 93.501c0 37.333 9.5 72.666 28.5 105.999s47.167 62.666 84.5 87.999s84.166 45.5 140.499 60.5s121.833 22.5 196.5 22.5c76.667 0 144.167 -7.83301 202.5 -23.5
s107.333 -38.167 147 -67.5s69.5 -65 89.5 -107s30 -89.333 30 -142z" />
    <glyph glyph-name="three" unicode="3" 
d="M498 -20c-77.333 0 -143.83 6.66211 -199.497 19.9951s-101.334 31.333 -137.001 54s-62 48.834 -79 78.501s-25.5 60.5 -25.5 92.5c0 26 4.66699 49 14 69s22 36.833 38 50.5s34.5 23.834 55.5 30.501s43.167 10 66.5 10c0 -43.333 6.16699 -81.333 18.5 -114
s29.5 -60 51.5 -82s48.5 -38.5 79.5 -49.5s65.167 -16.5 102.5 -16.5c33.333 0 65.166 4.66699 95.499 14s57.166 25.333 80.499 48s41.833 53.5 55.5 92.5s20.5 87.833 20.5 146.5c0 39.333 -6.83301 75.333 -20.5 108s-34 60.834 -61 84.501s-60.167 42.167 -99.5 55.5
s-84.666 20 -135.999 20h-127v127h135c44 0 82.333 7.16699 115 21.5s59.667 34.833 81 61.5s37.333 58.5 48 95.5s16 77.833 16 122.5c0 74.667 -14.333 133 -43 175s-71 63 -127 63c-36.667 0 -66.5 -9 -89.5 -27s-40.833 -42 -53.5 -72s-21.334 -64 -26.001 -102
s-7 -77 -7 -117c-85.333 0 -151 14.833 -197 44.5s-69 75.834 -69 138.501c0 36 9.5 69.833 28.5 101.5s47.5 59.334 85.5 83.001s85.167 42.167 141.5 55.5s121.833 20 196.5 20c72.667 0 138.167 -7.33301 196.5 -22s108 -36.334 149 -65.001s72.5 -63.667 94.5 -105
s33 -88.666 33 -141.999c0 -46 -8 -88.333 -24 -127s-38 -73.334 -66 -104.001s-61 -57.5 -99 -80.5s-79.333 -42.167 -124 -57.5c41.333 -7.33301 83.5 -19.166 126.5 -35.499s82.167 -38.5 117.5 -66.5s64.333 -63 87 -105s34 -92.333 34 -151
c0 -83.333 -15.5 -153.333 -46.5 -210s-72.333 -102.167 -124 -136.5s-110.667 -58.833 -177 -73.5s-134.833 -22 -205.5 -22z" />
    <glyph glyph-name="four" unicode="4" 
d="M893 381v-125c0 -32 4.5 -57.667 13.5 -77s21 -34.166 36 -44.499s32.833 -17.166 53.5 -20.499s42.334 -5 65.001 -5h26v-109h-718v109h57c23.333 0 45.166 1.66699 65.499 5s38 10.166 53 20.499s27 25.166 36 44.499s13.5 45 13.5 77v125h-567v125l581 956h285v-946
h213v-135h-213zM594 874c0 60 1.00098 124.667 3.00098 194s5.66699 136 11 200c-6.66699 -16 -17.334 -38 -32.001 -66l-47 -86.5l-48 -84c-15.333 -26.333 -27 -45.833 -35 -58.5l-276 -457h424v358z" />
    <glyph glyph-name="five" unicode="5" 
d="M471 123c34 0 66.165 5.3291 96.498 15.9961s57 28.5 80 53.5s41.333 58.667 55 101s20.5 94.833 20.5 157.5c0 102 -24.333 178 -73 228s-117.334 75 -206.001 75c-26 0 -49.5 -1 -70.5 -3s-40.5 -4.83301 -58.5 -8.5s-35 -7.66699 -51 -12s-31.667 -8.83301 -47 -13.5
l-94 37l65 708h775l10 -372h-117l-16 69c-3.33301 12 -7 22.833 -11 32.5s-9.5 17.834 -16.5 24.501s-15.833 11.834 -26.5 15.501s-24.334 5.5 -41.001 5.5h-426c0 -0.666992 -0.5 -6.5 -1.5 -17.5s-2.16699 -25.5 -3.5 -43.5s-3 -38.333 -5 -61l-6 -69l-16 -188
c10.667 4 24.5 7.83301 41.5 11.5s35.5 7 55.5 10s41.167 5.33301 63.5 7s43.833 2.5 64.5 2.5c79.333 0 151.166 -9.16699 215.499 -27.5s119.333 -45.666 165 -81.999s81 -81.833 106 -136.5s37.5 -118.667 37.5 -192c0 -88.667 -16.167 -163.167 -48.5 -223.5
s-74.166 -108.833 -125.499 -145.5s-108.666 -62.834 -171.999 -78.501s-126 -23.5 -188 -23.5c-76.667 0 -141.667 6.83301 -195 20.5s-96.666 32 -129.999 55s-57.5 49.333 -72.5 79s-22.5 60.5 -22.5 92.5c0 48 14.833 83.667 44.5 107s69.5 35 119.5 35
c0 -29.333 3.83301 -58.666 11.5 -87.999s20.334 -55.666 38.001 -78.999s40.834 -42.333 69.501 -57s64 -22 106 -22z" />
    <glyph glyph-name="six" unicode="6" 
d="M657 1362c-40 0 -76.167 -11.999 -108.5 -35.999s-60.333 -59 -84 -105s-42.5 -102.5 -56.5 -169.5s-23 -143.833 -27 -230.5c14 9.33301 30 18.5 48 27.5s38.5 17.167 61.5 24.5s49 13.166 78 17.499s60.833 6.5 95.5 6.5c62 0 118.167 -9.66699 168.5 -29
s93.333 -47.166 129 -83.499s63.167 -80.666 82.5 -132.999s29 -111.833 29 -178.5c0 -73.333 -10 -140.166 -30 -200.499s-49.833 -112.166 -89.5 -155.499s-89 -77 -148 -101s-127.5 -36 -205.5 -36c-76 0 -145.167 13.833 -207.5 41.5s-115.666 70.167 -159.999 127.5
s-78.833 129.666 -103.5 216.999s-37 190.666 -37 309.999c0 112.667 11.833 218 35.5 316s59.667 183.333 108 256s109.166 130 182.499 172s159.333 63 258 63c66 0 122 -6.33301 168 -19s83.333 -29.5 112 -50.5s49.5 -45 62.5 -72s19.5 -55.167 19.5 -84.5
c0 -20.667 -4.33301 -40.667 -13 -60s-22.667 -36.333 -42 -51s-44.5 -26.334 -75.5 -35.001s-69.167 -13 -114.5 -13c0 30.667 -2 61.667 -6 93s-11 59.666 -21 84.999s-23.833 46 -41.5 62s-40.167 24 -67.5 24zM588 772.001c-18.667 0 -38.333 -2.83398 -59 -8.50098
s-40.5 -13.167 -59.5 -22.5s-36.333 -19.833 -52 -31.5s-27.834 -23.5 -36.501 -35.5c0.666992 -98 6.83398 -182.333 18.501 -253s27.667 -128.667 48 -174s44 -78.666 71 -99.999s56.167 -32 87.5 -32c52.667 0 94.167 26.833 124.5 80.5s45.5 139.5 45.5 257.5
c0 110.667 -16.667 191.5 -50 242.5s-79.333 76.5 -138 76.5z" />
    <glyph glyph-name="seven" unicode="7" 
d="M338 0l545 1239h-539c-37.333 0 -65.5 -8.83301 -84.5 -26.5s-30.5 -43.5 -34.5 -77.5l-12 -103h-123l10 430h977v-100l-565 -1362h-174z" />
    <glyph glyph-name="eight" unicode="8" 
d="M61 373c0 44 7.16992 83.666 21.5029 118.999s34.833 67.5 61.5 96.5s58.5 55.667 95.5 80s77.833 47.833 122.5 70.5c-81.333 47.333 -143.833 101 -187.5 161s-65.5 130 -65.5 210c0 47.333 8.16699 93.5 24.5 138.5s43.166 84.833 80.499 119.5s86.333 62.5 147 83.5
s135 31.5 223 31.5c72 0 135.167 -9 189.5 -27s99.833 -43 136.5 -75s64.167 -69.833 82.5 -113.5s27.5 -91.5 27.5 -143.5c0 -40.667 -6.5 -76.667 -19.5 -108s-31.5 -59.833 -55.5 -85.5s-53 -49.5 -87 -71.5s-72.333 -44 -115 -66
c61.333 -30 113.666 -60.167 156.999 -90.5s78.5 -62 105.5 -95s46.667 -67.667 59 -104s18.5 -75.166 18.5 -116.499c0 -64.667 -11.833 -122.167 -35.5 -172.5s-58 -92.833 -103 -127.5s-99.833 -61.167 -164.5 -79.5s-138.334 -27.5 -221.001 -27.5
c-85.333 0 -159.333 10.333 -222 31s-114.5 48.667 -155.5 84s-71.333 77 -91 125s-29.5 99 -29.5 153zM569.003 95.999c35.333 0 67.167 6.33301 95.5 19s52.5 30.334 72.5 53.001s35.333 49.667 46 81s16 65.666 16 102.999c0 33.333 -5.66699 63.5 -17 90.5
s-29.166 52.333 -53.499 76s-55.333 46.667 -93 69s-82.834 45.5 -135.501 69.5c-22.667 -14.667 -44 -31.5 -64 -50.5s-37.167 -40.333 -51.5 -64s-25.666 -50.167 -33.999 -79.5s-12.5 -62 -12.5 -98c0 -40 5.5 -76.5 16.5 -109.5s26.667 -61.333 47 -85
s44.666 -42 72.999 -55s59.833 -19.5 94.5 -19.5zM762.004 1128c0 29.333 -4.16699 58.167 -12.5 86.5s-20.5 53.5 -36.5 75.5s-35.833 39.833 -59.5 53.5s-51.167 20.5 -82.5 20.5c-28 0 -52.833 -5.83301 -74.5 -17.5s-39.834 -27.667 -54.501 -48
s-25.834 -44.5 -33.501 -72.5s-11.5 -58.333 -11.5 -91c0 -35.333 4.83301 -66.333 14.5 -93s23.834 -50.667 42.501 -72s41.667 -40.5 69 -57.5s59 -33.833 95 -50.5c25.333 14.667 47 30.334 65 47.001s32.833 35.667 44.5 57s20.334 45.166 26.001 71.499
s8.5 56.5 8.5 90.5z" />
    <glyph glyph-name="nine" unicode="9" 
d="M465 -20c-62 0 -114.33 6.50293 -156.997 19.5029s-77.334 30.333 -104.001 52s-45.834 46.334 -57.501 74.001s-17.5 56.167 -17.5 85.5c0 30 8 55.167 24 75.5s41.333 34.166 76 41.499c10 -30.667 22 -59.334 36 -86.001s30.833 -49.834 50.5 -69.501
s42.667 -35.167 69 -46.5s56.5 -17 90.5 -17c92 0 162.833 49.667 212.5 149s77.834 247.333 84.501 444c-16 -20 -33.833 -38.333 -53.5 -55s-41.834 -31.334 -66.501 -44.001s-51.834 -22.5 -81.501 -29.5s-62.167 -10.5 -97.5 -10.5
c-58.667 0 -112.5 9.16699 -161.5 27.5s-91.333 45.333 -127 81s-63.334 80 -83.001 133s-29.5 113.833 -29.5 182.5c0 74 10.667 141.333 32 202s52.166 112.834 92.499 156.501s89.5 77.5 147.5 101.5s123.667 36 197 36c74 0 142.333 -13.333 205 -40
s116.834 -68 162.501 -124s81.167 -127.333 106.5 -214s38 -190 38 -310c0 -112.667 -11 -218.5 -33 -317.5s-56.5 -185.333 -103.5 -259s-107.667 -131.834 -182 -174.501s-164.166 -64 -269.499 -64zM561.003 711.003c49.333 0 91.667 12.502 127 37.502
s63.333 58.167 84 99.5c-0.666992 87.333 -6.5 162.333 -17.5 225s-26 114.167 -45 154.5s-41.833 70.166 -68.5 89.499s-56 29 -88 29c-58.667 0 -104 -28.833 -136 -86.5s-48 -144.5 -48 -260.5c0 -94.667 16 -166.334 48 -215.001s80 -73 144 -73z" />
    <glyph glyph-name="colon" unicode=":" horiz-adv-x="623" 
d="M143 147c0 31.333 4.33301 57.5 13 78.5s20.5 37.833 35.5 50.5s32.833 21.667 53.5 27s42.667 8 66 8c22.667 0 44.167 -2.66699 64.5 -8s38.166 -14.333 53.499 -27s27.5 -29.5 36.5 -50.5s13.5 -47.167 13.5 -78.5c0 -30.667 -4.5 -56.334 -13.5 -77.001
s-21.167 -37.334 -36.5 -50.001s-33.166 -21.834 -53.499 -27.501s-41.833 -8.5 -64.5 -8.5c-23.333 0 -45.333 2.83301 -66 8.5s-38.5 14.834 -53.5 27.501s-26.833 29.334 -35.5 50.001s-13 46.334 -13 77.001zM143 952c0 31.333 4.33301 57.5 13 78.5
s20.5 37.833 35.5 50.5s32.833 21.667 53.5 27s42.667 8 66 8c22.667 0 44.167 -2.66699 64.5 -8s38.166 -14.333 53.499 -27s27.5 -29.5 36.5 -50.5s13.5 -47.167 13.5 -78.5c0 -30.667 -4.5 -56.5 -13.5 -77.5s-21.167 -37.833 -36.5 -50.5
s-33.166 -21.834 -53.499 -27.501s-41.833 -8.5 -64.5 -8.5c-23.333 0 -45.333 2.83301 -66 8.5s-38.5 14.834 -53.5 27.501s-26.833 29.5 -35.5 50.5s-13 46.833 -13 77.5z" />
    <glyph glyph-name="semicolon" unicode=";" horiz-adv-x="602" 
d="M459 86c0 -43.333 -6.66895 -85.3311 -20.002 -125.998s-34.666 -78.334 -63.999 -113.001s-67.166 -65.834 -113.499 -93.501s-102.833 -50.5 -169.5 -68.5v106c30 10.667 56.167 21.334 78.5 32.001s41 22.167 56 34.5s26.333 26 34 41s11.5 32.5 11.5 52.5
c0 12.667 -3.66699 23.167 -11 31.5s-16.5 16.166 -27.5 23.499s-23 14.833 -36 22.5s-25 17.5 -36 29.5s-20.167 26.833 -27.5 44.5s-11 40.167 -11 67.5c0 46 14 81 42 105s63 36 105 36c58 0 104 -20 138 -60s51 -95 51 -165zM142.998 952.002
c0 31.333 4.33301 57.5 13 78.5s20.5 37.833 35.5 50.5s32.833 21.667 53.5 27s42.667 8 66 8c22.667 0 44.167 -2.66699 64.5 -8s38.166 -14.333 53.499 -27s27.5 -29.5 36.5 -50.5s13.5 -47.167 13.5 -78.5c0 -30.667 -4.5 -56.5 -13.5 -77.5s-21.167 -37.833 -36.5 -50.5
s-33.166 -21.834 -53.499 -27.501s-41.833 -8.5 -64.5 -8.5c-23.333 0 -45.333 2.83301 -66 8.5s-38.5 14.834 -53.5 27.501s-26.833 29.5 -35.5 50.5s-13 46.833 -13 77.5z" />
    <glyph glyph-name="less" unicode="&#x3c;" 
d="M133 690v84l879 479v-161l-660 -361l660 -356v-162z" />
    <glyph glyph-name="equal" unicode="=" 
d="M1016 604v-143h-887v143h887zM1016 1001v-143h-887v143h887z" />
    <glyph glyph-name="greater" unicode="&#x3e;" 
d="M133 213v162l660 356l-660 361v161l879 -479v-84z" />
    <glyph glyph-name="question" unicode="?" horiz-adv-x="1126" 
d="M1014 1106c0 -54.667 -8.49805 -103.668 -25.498 -147.001s-42.5 -83 -76.5 -119s-76.5 -69.167 -127.5 -99.5s-110.5 -59.5 -178.5 -87.5l-41 -186h-125l-41 252c58.667 23.333 106.667 50.833 144 82.5s66.833 65.667 88.5 102s36.5 74.5 44.5 114.5s12 80.333 12 121
c0 32.667 -3 62.5 -9 89.5s-15.5 50.333 -28.5 70s-29.667 34.834 -50 45.501s-44.5 16 -72.5 16c-30.667 0 -56.334 -7 -77.001 -21s-37.334 -32.667 -50.001 -56s-21.834 -50.666 -27.501 -81.999s-8.5 -64.333 -8.5 -99c-42 0 -80.667 3 -116 9
s-65.833 14.833 -91.5 26.5s-45.667 26.5 -60 44.5s-21.5 39 -21.5 63c0 33.333 8.66699 64.5 26 93.5s43.833 54.167 79.5 75.5s80.834 38.166 135.501 50.499s119.667 18.5 195 18.5c72 0 138.667 -8.5 200 -25.5s114.333 -41.667 159 -74s79.667 -71.833 105 -118.5
s38 -99.667 38 -159zM332.002 146.999c0 31.333 4.33301 57.5 13 78.5s20.5 37.833 35.5 50.5s32.833 21.667 53.5 27s42.667 8 66 8c22.667 0 44.167 -2.66699 64.5 -8s38.166 -14.333 53.499 -27s27.5 -29.5 36.5 -50.5s13.5 -47.167 13.5 -78.5
c0 -30.667 -4.5 -56.334 -13.5 -77.001s-21.167 -37.334 -36.5 -50.001s-33.166 -21.834 -53.499 -27.501s-41.833 -8.5 -64.5 -8.5c-23.333 0 -45.333 2.83301 -66 8.5s-38.5 14.834 -53.5 27.501s-26.833 29.334 -35.5 50.001s-13 46.334 -13 77.001z" />
    <glyph glyph-name="at" unicode="@" horiz-adv-x="1886" 
d="M1806 803c0 -102 -12.3359 -193.004 -37.0029 -273.004s-57 -147.5 -97 -202.5s-85.167 -97 -135.5 -126s-101.166 -43.5 -152.499 -43.5c-60.667 0 -112 14.833 -154 44.5s-74.333 78.834 -97 147.501h-13c-14 -26.667 -30 -51.667 -48 -75s-38.333 -43.666 -61 -60.999
s-48.167 -31 -76.5 -41s-60.5 -15 -96.5 -15c-42.667 0 -83.5 7 -122.5 21s-73.333 35.333 -103 64s-53.167 65 -70.5 109s-26 96 -26 156c0 36.667 4.33301 76.334 13 119.001s22.5 85.167 41.5 127.5s43 83.333 72 123s64 74.667 105 105s88 54.666 141 72.999
s112.5 27.5 178.5 27.5c47.333 0 88 -6 122 -18s61.667 -26.333 83 -43l86 43h49l-86 -512c-1.33301 -8 -2.83301 -18.333 -4.5 -31s-3.16699 -25.667 -4.5 -39s-2.5 -26.166 -3.5 -38.499s-1.5 -22.5 -1.5 -30.5c0 -28 3 -51 9 -69s13.667 -32.167 23 -42.5
s19.833 -17.333 31.5 -21s23.167 -5.5 34.5 -5.5c27.333 0 54.833 11.333 82.5 34s52.834 55.834 75.501 99.501s41.167 97.834 55.5 162.501s21.5 139 21.5 223c0 93.333 -14.167 175.166 -42.5 245.499s-67.666 129 -117.999 176s-110.333 82.333 -180 106
s-145.834 35.5 -228.501 35.5c-64.667 0 -128.5 -9 -191.5 -27s-123 -44.333 -180 -79s-109.5 -77.167 -157.5 -127.5s-89.667 -107.666 -125 -171.999s-62.833 -135.5 -82.5 -213.5s-29.5 -162 -29.5 -252c0 -120.667 18 -223.667 54 -309s84.833 -155 146.5 -209
s133.667 -93.333 216 -118s169.5 -37 261.5 -37c55.333 0 109.333 5 162 15s102.667 23 150 39s91.333 34.333 132 55s77 41.667 109 63l49 -78c-36 -27.333 -76.833 -53 -122.5 -77s-95.334 -45 -149.001 -63s-110.667 -32.333 -171 -43s-123.166 -16 -188.499 -16
c-78 0 -153 7.16699 -225 21.5s-139.5 36.166 -202.5 65.499s-120.5 65.833 -172.5 109.5s-96.5 94.834 -133.5 153.501s-65.667 124.667 -86 198s-30.5 154.333 -30.5 243c0 91.333 11.167 178.666 33.5 261.999s54 160.5 95 231.5s90.833 135.333 149.5 193
s124.334 107 197.001 148s151.5 72.5 236.5 94.5s174.833 33 269.5 33c118.667 0 223 -17 313 -51s165.167 -80.5 225.5 -139.5s105.833 -128.667 136.5 -209s46 -166.833 46 -259.5zM767.997 486.996c0 -68 12.0029 -120.17 36.0029 -156.503s55.667 -54.5 95 -54.5
c29.333 0 54.5 7 75.5 21s38.667 32.5 53 55.5s26.166 48.833 35.499 77.5s16.666 58 21.999 88l82 418c-4 9.33301 -9.83301 17.5 -17.5 24.5s-16.5 13 -26.5 18s-20.5 8.66699 -31.5 11s-21.833 3.5 -32.5 3.5c-34.667 0 -65.834 -8.66699 -93.501 -26
s-52.334 -40.166 -74.001 -68.499s-40.167 -60.666 -55.5 -96.999s-28.166 -73.166 -38.499 -110.499s-17.833 -73.833 -22.5 -109.5s-7 -67.167 -7 -94.5z" />
    <glyph glyph-name="A" unicode="A" horiz-adv-x="1542" 
d="M446 481l-58.999 -176c-5.33301 -16.667 -10.833 -36.167 -16.5 -58.5s-8.5 -41.833 -8.5 -58.5c0 -13.333 2.66699 -25 8 -35s12.333 -18.167 21 -24.5s18.5 -11.166 29.5 -14.499s22.5 -5 34.5 -5h86v-109h-533v109h25c18 0 34.5 2 49.5 6s29 11.5 42 22.5
s25.333 26.167 37 45.5s23.5 44.333 35.5 75l444 1204h281l428 -1206c10 -28.667 20.5 -52.5 31.5 -71.5s23 -34 36 -45s26.833 -18.833 41.5 -23.5s30 -7 46 -7h37v-109h-676v109h80c10 0 20.333 1.5 31 4.5s20.167 7.66699 28.5 14s15.166 14.5 20.499 24.5s8 22 8 36
c0 16.667 -2 32.667 -6 48s-8 28.666 -12 39.999l-72 205h-498zM795.001 942l-22.5 73.501l-23 78.5l-22 79.5c-7 26.333 -13.167 51.5 -18.5 75.5c-6 -20.667 -13 -43.334 -21 -68.001l-25.5 -76l-27 -78l-25.5 -75l-121 -346h414z" />
    <glyph glyph-name="B" unicode="B" horiz-adv-x="1376" 
d="M1241 1090c0 -45.333 -6.16406 -84.832 -18.4971 -118.499s-29.833 -62.667 -52.5 -87s-49.834 -45.166 -81.501 -62.499s-66.834 -32 -105.501 -44v-10c47.333 -12 90.5 -28.5 129.5 -49.5s72.667 -46.667 101 -77s50.333 -65.5 66 -105.5s23.5 -85 23.5 -135
c0 -134.667 -49 -235.167 -147 -301.5s-244.333 -99.5 -439 -99.5h-660v109h84c15.333 0 29.5 1.5 42.5 4.5s24.167 9.16699 33.5 18.5s16.833 22.666 22.5 39.999s8.5 40.666 8.5 69.999v981c0 27.333 -2.83301 49.5 -8.5 66.5s-13.334 30.167 -23.001 39.5
s-21 15.833 -34 19.5s-26.833 5.5 -41.5 5.5h-84v108h598c194.667 0 341 -30 439 -90s147 -154 147 -282zM571.003 125.001h135.998c45.333 0 84 5 116 15s58 26.167 78 48.5s34.5 51.5 43.5 87.5s13.5 80 13.5 132c0 50 -4 93.5 -12 130.5s-21.667 67.5 -41 91.5
s-44.666 42 -75.999 54s-70.666 18 -117.999 18h-140v-577zM571.001 827.001l78 0.00195312c48 0 87.833 5 119.5 15s57 25.5 76 46.5s32.5 48.167 40.5 81.5s12 73.333 12 120s-4.5 85.667 -13.5 117s-23.5 56.666 -43.5 75.999s-46 33.166 -78 41.499s-71 12.5 -117 12.5
h-74v-510z" />
    <glyph glyph-name="C" unicode="C" horiz-adv-x="1368" 
d="M870 143c50 0 94.5029 5.83203 133.503 17.499s73.833 26.834 104.5 45.501s57.5 39.667 80.5 63s43.167 46.333 60.5 69c10.667 -8 19.167 -20.333 25.5 -37s9.5 -33.667 9.5 -51c0 -28.667 -7.66699 -58.834 -23 -90.501s-41 -60.834 -77 -87.501
s-83.667 -48.667 -143 -66s-132.666 -26 -219.999 -26c-118.667 0 -222.334 18 -311.001 54s-162.334 87 -221.001 153s-102.667 145.333 -132 238s-44 195.334 -44 308.001c0 110.667 15 212 45 304s74.5 171 133.5 237s132.667 117.333 221 154s190.5 55 306.5 55
c78.667 0 147.167 -6.16699 205.5 -18.5s106.833 -29.166 145.5 -50.499s67.667 -46.5 87 -75.5s29 -60.167 29 -93.5c0 -25.333 -5.5 -48.833 -16.5 -70.5s-27.333 -40.5 -49 -56.5s-48.5 -28.5 -80.5 -37.5s-68.667 -13.5 -110 -13.5c0 34 -3.66699 67.833 -11 101.5
s-19.833 64.167 -37.5 91.5s-40.834 49.5 -69.501 66.5s-64.334 25.5 -107.001 25.5c-64.667 0 -119.334 -13.667 -164.001 -41s-80.5 -67.333 -107.5 -120s-46.5 -117.5 -58.5 -194.5s-18 -164.833 -18 -263.5s7.33301 -185 22 -259s38.334 -135.5 71.001 -184.5
s75.167 -85.667 127.5 -110s116.5 -36.5 192.5 -36.5z" />
    <glyph glyph-name="D" unicode="D" horiz-adv-x="1571" 
d="M1458 758c0 -112 -15.3311 -214.497 -45.998 -307.497s-76.5 -172.833 -137.5 -239.5s-136.667 -118.5 -227 -155.5s-195.166 -55.5 -314.499 -55.5h-676v109h86c15.333 0 29.333 1.5 42 4.5s23.667 9.16699 33 18.5s16.666 22.666 21.999 39.999s8 40.666 8 69.999v987
c0 27.333 -2.66699 49.166 -8 65.499s-12.833 28.833 -22.5 37.5s-20.834 14.5 -33.501 17.5s-26.334 4.5 -41.001 4.5h-86v108h676c113.333 0 214.833 -14.833 304.5 -44.5s165.667 -74 228 -133s110 -132.5 143 -220.5s49.5 -190 49.5 -306zM1112 758.003
c0 195.333 -35.833 340.666 -107.5 435.999s-177.167 143 -316.5 143h-117v-1210h115c70 0 131.667 14.5 185 43.5s97.833 70.833 133.5 125.5s62.5 120.834 80.5 198.501s27 165.5 27 263.5z" />
    <glyph glyph-name="E" unicode="E" horiz-adv-x="1337" 
d="M573 125l409.996 0.00292969c20.667 0 38.334 3.83301 53.001 11.5s27.334 18.5 38.001 32.5s19.167 30.5 25.5 49.5s11.166 39.833 14.499 62.5l16 96h142l-15 -377h-1200v109h86c14.667 0 28.334 1.33301 41.001 4s23.834 8.16699 33.501 16.5
s17.167 20.666 22.5 36.999s8 37.833 8 64.5v990c0 29.333 -2.66699 52.666 -8 69.999s-12.666 30.666 -21.999 39.999s-20.333 15.5 -33 18.5s-26.667 4.5 -42 4.5h-86v108h1137l8 -377h-143l-10 97c-5.33301 50 -18 88.333 -38 115s-51 40 -93 40h-345v-512h486v-123h-486
v-577z" />
    <glyph glyph-name="F" unicode="F" horiz-adv-x="1272" 
d="M1059 1085l-9.99902 99c-6.66699 54 -23.167 93 -49.5 117s-60.5 36 -102.5 36h-326v-559h486v-121h-486v-415c0 -29.333 2.83301 -52.666 8.5 -69.999s13.167 -30.666 22.5 -39.999s20.666 -15.5 33.999 -18.5s27.333 -4.5 42 -4.5h127v-109h-748v109h86
c14.667 0 28.334 1.33301 41.001 4s23.834 8.16699 33.501 16.5s17.167 20.666 22.5 36.999s8 37.833 8 64.5v998c0 27.333 -2.66699 49.166 -8 65.499s-12.833 28.833 -22.5 37.5s-20.834 14.5 -33.501 17.5s-26.334 4.5 -41.001 4.5h-86v108h1135l10 -377h-143z" />
    <glyph glyph-name="G" unicode="G" horiz-adv-x="1575" 
d="M866 -20c-126.667 0 -237.165 17.9961 -331.498 53.9961s-172.833 87 -235.5 153s-109.334 145.333 -140.001 238s-46 195.334 -46 308.001c0 110.667 16.333 212 49 304s81 171 145 237s143.667 117.333 239 154s205.666 55 330.999 55
c85.333 0 159.833 -6.16699 223.5 -18.5s117 -29.166 160 -50.499s75.167 -46.5 96.5 -75.5s32 -60.167 32 -93.5c0 -24 -5.66699 -46.5 -17 -67.5s-28.333 -39.5 -51 -55.5s-50.334 -28.5 -83.001 -37.5s-70.667 -13.5 -114 -13.5c0 41.333 -5 79.333 -15 114
s-25.5 64.334 -46.5 89.001s-47.5 43.834 -79.5 57.501s-69.667 20.5 -113 20.5c-74.667 0 -138.167 -13.667 -190.5 -41s-95 -67.333 -128 -120s-57 -117.5 -72 -194.5s-22.5 -164.833 -22.5 -263.5s7.83301 -186.167 23.5 -262.5s41 -140.5 76 -192.5
s80.333 -91.5 136 -118.5s123.834 -40.5 204.501 -40.5c25.333 0 50.666 1 75.999 3s50 5.66699 74 11v301c0 54.667 -12.333 92.667 -37 114s-61 32 -109 32h-27v108h644v-108h-27c-20.667 0 -38.667 -2.5 -54 -7.5s-28 -13.5 -38 -25.5s-17.333 -27.833 -22 -47.5
s-7 -44.167 -7 -73.5v-336c-80 -36.667 -160.667 -64.167 -242 -82.5s-168.666 -27.5 -261.999 -27.5z" />
    <glyph glyph-name="H" unicode="H" horiz-adv-x="1677" 
d="M913 0v109h88c14.667 0 28.334 1.5 41.001 4.5s23.834 9.16699 33.501 18.5s17.167 22.666 22.5 39.999s8 40.666 8 69.999v458h-535v-458c0 -29.333 2.83301 -52.666 8.5 -69.999s13.167 -30.666 22.5 -39.999s20.333 -15.5 33 -18.5s26.334 -4.5 41.001 -4.5h88v-109
h-707v109h86c14.667 0 28.334 1.5 41.001 4.5s23.834 9.16699 33.501 18.5s17.167 22.666 22.5 39.999s8 40.666 8 69.999v986c0 27.333 -2.83301 49.166 -8.5 65.499s-13.334 28.833 -23.001 37.5s-20.834 14.5 -33.501 17.5s-26 4.5 -40 4.5h-86v109h707v-109h-88
c-14.667 0 -28.334 -1.5 -41.001 -4.5s-23.667 -9.16699 -33 -18.5s-16.833 -22.666 -22.5 -39.999s-8.5 -40.666 -8.5 -69.999v-395h535v395c0 29.333 -2.66699 52.666 -8 69.999s-12.833 30.666 -22.5 39.999s-20.834 15.5 -33.501 18.5s-26.334 4.5 -41.001 4.5h-88v109
h707v-109h-86c-14 0 -27.333 -1.5 -40 -4.5s-23.834 -9.16699 -33.501 -18.5s-17.167 -22.666 -22.5 -39.999s-8 -40.666 -8 -69.999v-989c0 -26.667 2.83301 -48.167 8.5 -64.5s13.334 -28.666 23.001 -36.999s20.667 -13.833 33 -16.5s25.5 -4 39.5 -4h86v-109h-707z" />
    <glyph glyph-name="I" unicode="I" horiz-adv-x="821" 
d="M57 0v109h86c15.333 0 29.333 1.5 42 4.5s23.667 9.16699 33 18.5s16.666 22.666 21.999 39.999s8 40.666 8 69.999v978c0 29.333 -2.66699 52.666 -8 69.999s-12.666 30.666 -21.999 39.999s-20.333 15.5 -33 18.5s-26.667 4.5 -42 4.5h-86v109h707v-109h-86
c-14.667 0 -28.5 -1.5 -41.5 -4.5s-24.167 -9.16699 -33.5 -18.5s-16.666 -22.666 -21.999 -39.999s-8 -40.666 -8 -69.999v-978c0 -29.333 2.66699 -52.666 8 -69.999s12.666 -30.666 21.999 -39.999s20.5 -15.5 33.5 -18.5s26.833 -4.5 41.5 -4.5h86v-109h-707z" />
    <glyph glyph-name="J" unicode="J" horiz-adv-x="754" 
d="M731 1354l-86 -0.000976562c-14.667 0 -28.5 -1.5 -41.5 -4.5s-24.167 -9.16699 -33.5 -18.5s-16.833 -22.666 -22.5 -39.999s-8.5 -40.666 -8.5 -69.999v-1225c0 -62 -7 -117 -21 -165s-33.333 -90.167 -58 -126.5s-54.167 -67 -88.5 -92
s-71.666 -45.167 -111.999 -60.5s-83 -26.5 -128 -33.5s-90.833 -10.5 -137.5 -10.5h-74v119h37c32.667 0 64.5 6.16699 95.5 18.5s58.5 32.833 82.5 61.5s43.333 66.5 58 113.5s22 104.833 22 173.5v1235c0 27.333 -2.66699 49.166 -8 65.499s-12.833 28.833 -22.5 37.5
s-20.834 14.5 -33.501 17.5s-26 4.5 -40 4.5h-86v108h706v-108z" />
    <glyph glyph-name="K" unicode="K" horiz-adv-x="1503" 
d="M889 1090c22 23.333 40.5 44.4971 55.5 63.4971s27 36.667 36 53s15.5 31.833 19.5 46.5s6 29 6 43c0 22.667 -8.66699 38.334 -26 47.001s-47 13 -89 13v106h555v-106c-28 0 -54.5 -4.33301 -79.5 -13s-49.5 -21 -73.5 -37s-47.667 -35 -71 -57s-47 -46.333 -71 -73
l-270 -297l381 -605c20 -32 39.167 -58.5 57.5 -79.5s36.833 -37.833 55.5 -50.5s37.667 -21.667 57 -27s40.333 -8 63 -8h8v-109h-110c-52 0 -97.667 1.66699 -137 5s-73.833 8.33301 -103.5 15s-55.167 15.167 -76.5 25.5s-40 22.5 -56 36.5s-30.5 29.833 -43.5 47.5
s-25.833 37.167 -38.5 58.5l-276 471l-91 -71v-346c0 -29.333 2.83301 -52.666 8.5 -69.999s13.167 -30.666 22.5 -39.999s20.666 -15.5 33.999 -18.5s27.333 -4.5 42 -4.5h86v-109h-707v109h86c14.667 0 28.334 1.33301 41.001 4s23.834 8.16699 33.501 16.5
s17.167 20.666 22.5 36.999s8 37.833 8 64.5v998c0 27.333 -2.66699 49.166 -8 65.499s-12.833 28.833 -22.5 37.5s-20.834 14.5 -33.501 17.5s-26.334 4.5 -41.001 4.5h-86v108h707v-108h-86c-14.667 0 -28.667 -1.5 -42 -4.5s-24.666 -9.16699 -33.999 -18.5
s-16.833 -22.666 -22.5 -39.999s-8.5 -40.666 -8.5 -69.999v-478z" />
    <glyph glyph-name="L" unicode="L" horiz-adv-x="1339" 
d="M57 0v109.003h86c15.333 0 29.333 1.5 42 4.5s23.667 9.16699 33 18.5s16.666 22.666 21.999 39.999s8 40.666 8 69.999v979c0 29.333 -2.66699 52.666 -8 69.999s-12.666 30.666 -21.999 39.999s-20.333 15.5 -33 18.5s-26.667 4.5 -42 4.5h-86v108h707v-108h-86
c-14 0 -27.5 -1.5 -40.5 -4.5s-24.167 -8.83301 -33.5 -17.5s-16.833 -21.167 -22.5 -37.5s-8.5 -38.166 -8.5 -65.499v-1104h381c48 0 85.333 15.167 112 45.5s46 74.5 58 132.5l33 154h115l-15 -457h-1200z" />
    <glyph glyph-name="M" unicode="M" horiz-adv-x="1950" 
d="M1237 0l0.000976562 108.996h20c21.333 0 40.166 1.33301 56.499 4s29.833 8 40.5 16s18.667 19.5 24 34.5s8 34.833 8 59.5v1037l-413 -1260h-139l-433 1260v-1018c0 -29.333 3.5 -52.666 10.5 -69.999s17 -30.666 30 -39.999s28.833 -15.5 47.5 -18.5s40 -4.5 64 -4.5
h12v-109h-508v109h86c14.667 0 28.334 1.33301 41.001 4s23.834 8.16699 33.501 16.5s17.167 20.666 22.5 36.999s8 37.833 8 64.5v998c0 27.333 -2.66699 49.166 -8 65.499s-12.833 28.833 -22.5 37.5s-20.834 14.5 -33.501 17.5s-26.334 4.5 -41.001 4.5h-86v108h590
l340 -989l326 989h579v-108h-86c-14.667 0 -28.334 -1.5 -41.001 -4.5s-23.667 -9.16699 -33 -18.5s-16.666 -22.666 -21.999 -39.999s-8 -40.666 -8 -69.999v-979c0 -29.333 2.66699 -52.666 8 -69.999s12.666 -30.666 21.999 -39.999s20.333 -15.5 33 -18.5
s26.334 -4.5 41.001 -4.5h86v-109h-655z" />
    <glyph glyph-name="N" unicode="N" horiz-adv-x="1614" 
d="M1200 0l-798.997 1128v-886c0 -29.333 2.83301 -52.666 8.5 -69.999s13.167 -30.666 22.5 -39.999s20.5 -15.5 33.5 -18.5s26.5 -4.5 40.5 -4.5h86v-109h-535v109h86c14.667 0 28.334 1.5 41.001 4.5s23.834 9.16699 33.501 18.5s17.167 22.666 22.5 39.999
s8 40.666 8 69.999v987c0 27.333 -2.83301 49.166 -8.5 65.499s-13.334 28.833 -23.001 37.5s-20.834 14.5 -33.501 17.5s-26 4.5 -40 4.5h-86v108h455l723 -1022v789c0 27.333 -2.83301 49.166 -8.5 65.499s-13.334 28.833 -23.001 37.5s-20.834 14.5 -33.501 17.5
s-26 4.5 -40 4.5h-86v108h535v-108h-86c-14 0 -27.333 -1.5 -40 -4.5s-23.834 -9.16699 -33.501 -18.5s-17.167 -22.666 -22.5 -39.999s-8 -40.666 -8 -69.999v-1221h-189z" />
    <glyph glyph-name="O" unicode="O" horiz-adv-x="1612" 
d="M1499 733c0 -112.667 -15.1699 -215.33 -45.5029 -307.997s-75 -172 -134 -238s-131.333 -117 -217 -153s-184.167 -54 -295.5 -54c-116.667 0 -218.5 18 -305.5 54s-159.167 87 -216.5 153s-100.333 145.5 -129 238.5s-43 196.167 -43 309.5s14.333 216.166 43 308.499
s71.834 171.166 129.501 236.499s130 115.833 217 151.5s189.167 53.5 306.5 53.5c110.667 0 208.834 -17.833 294.501 -53.5s157.834 -86.334 216.501 -152.001s103.167 -144.667 133.5 -237s45.5 -195.5 45.5 -309.5zM456.997 733.004c0 -98 6.33496 -185.333 19.002 -262
s33 -141.5 61 -194.5s64.167 -93.5 108.5 -121.5s98.166 -42 161.499 -42c64 0 118.167 14 162.5 42s80.166 68.5 107.499 121.5s47.166 117.833 59.499 194.5s18.5 164 18.5 262s-6.16699 185.333 -18.5 262s-32.166 141.5 -59.499 194.5s-63 93.333 -107 121
s-97.667 41.5 -161 41.5c-64 0 -118.333 -13.833 -163 -41.5s-81 -68 -109 -121s-48.333 -117.833 -61 -194.5s-19 -164 -19 -262z" />
    <glyph glyph-name="P" unicode="P" horiz-adv-x="1307" 
d="M1245 1028c0 -61.333 -10.6631 -120.332 -31.9961 -176.999s-56 -106.667 -104 -150s-110.333 -77.833 -187 -103.5s-170.334 -38.5 -281.001 -38.5h-70v-328c0 -26.667 3 -48.167 9 -64.5s14 -28.666 24 -36.999s21.667 -13.833 35 -16.5s27 -4 41 -4h125v-109h-748v109
h86c15.333 0 29.333 1.5 42 4.5s23.667 9.16699 33 18.5s16.666 22.666 21.999 39.999s8 40.666 8 69.999v987c0 27.333 -2.66699 49.166 -8 65.499s-12.833 28.833 -22.5 37.5s-20.834 14.5 -33.501 17.5s-26.334 4.5 -41.001 4.5h-86v108h629c94.667 0 177 -10 247 -30
s128.167 -48.833 174.5 -86.5s80.833 -83.167 103.5 -136.5s34 -113.666 34 -180.999zM571.004 678.001l50.0029 0.00292969c50.667 0 93.667 6.33301 129 19s64.166 32.667 86.499 60s38.666 62.666 48.999 105.999s15.5 95.666 15.5 156.999
c0 54.667 -4.5 102.167 -13.5 142.5s-23.333 73.666 -43 99.999s-45.334 46 -77.001 59s-70.5 19.5 -116.5 19.5h-80v-663z" />
    <glyph glyph-name="Q" unicode="Q" horiz-adv-x="1612" 
d="M1499 733c0 -96 -10.8389 -184.498 -32.5059 -265.498s-53.5 -152.833 -95.5 -215.5s-94 -115.5 -156 -158.5s-133.333 -74.167 -214 -93.5c6 -75.333 18.333 -137.166 37 -185.499s41.5 -86.333 68.5 -114s56.833 -46.834 89.5 -57.501s66 -16 100 -16h33v-119h-147
c-61.333 0 -121.833 9 -181.5 27s-113.667 46.5 -162 85.5s-88.666 89 -120.999 150s-51.833 134.833 -58.5 221.5c-92 14 -172.167 41.833 -240.5 83.5s-125.166 94.5 -170.499 158.5s-79.166 138.333 -101.499 223s-33.5 177.334 -33.5 278.001
c0 113.333 14.333 216.166 43 308.499s71.834 171.166 129.501 236.499s130 115.833 217 151.5s189.167 53.5 306.5 53.5c110.667 0 208.834 -17.833 294.501 -53.5s157.834 -86.334 216.501 -152.001s103.167 -144.667 133.5 -237s45.5 -195.5 45.5 -309.5z
M456.994 733.002c0 -98 6.33496 -185.333 19.002 -262s33 -141.5 61 -194.5s64.167 -93.5 108.5 -121.5s98.166 -42 161.499 -42c64 0 118.167 14 162.5 42s80.166 68.5 107.499 121.5s47.166 117.833 59.499 194.5s18.5 164 18.5 262s-6.16699 185.333 -18.5 262
s-32.166 141.5 -59.499 194.5s-63 93.333 -107 121s-97.667 41.5 -161 41.5c-64 0 -118.333 -13.833 -163 -41.5s-81 -68 -109 -121s-48.333 -117.833 -61 -194.5s-19 -164 -19 -262z" />
    <glyph glyph-name="R" unicode="R" horiz-adv-x="1448" 
d="M57 109h86.002c14 0 27.333 1.33301 40 4s23.834 8.16699 33.501 16.5s17.334 20.666 23.001 36.999s8.5 37.833 8.5 64.5v998c0 27.333 -2.83301 49.166 -8.5 65.499s-13.334 28.833 -23.001 37.5s-20.834 14.5 -33.501 17.5s-26 4.5 -40 4.5h-86v108h660
c193.333 0 335.166 -32.333 425.499 -97s135.5 -158.667 135.5 -282c0 -54 -8 -102 -24 -144s-37.167 -78.667 -63.5 -110s-56.166 -57.833 -89.499 -79.5s-67.333 -39.5 -102 -53.5l244 -420c17.333 -29.333 34.166 -54.5 50.499 -75.5s32.666 -38.333 48.999 -52
s33.166 -23.667 50.499 -30s35.666 -9.5 54.999 -9.5h8v-109h-67c-61.333 0 -114.833 2.33301 -160.5 7s-85.667 13.834 -120 27.501s-64 32.5 -89 56.5s-48.167 55 -69.5 93l-243 451h-136v-404c0 -26.667 2.83301 -48.167 8.5 -64.5s13.334 -28.666 23.001 -36.999
s20.834 -13.833 33.501 -16.5s26 -4 40 -4h88v-109h-707v109zM571.002 754h115c47.333 0 86.833 6.33301 118.5 19s57 31.5 76 56.5s32.667 56.333 41 94s12.5 81.5 12.5 131.5c0 52 -4.66699 96 -14 132s-24 65.5 -44 88.5s-46 39.667 -78 50s-70.667 15.5 -116 15.5h-111
v-587z" />
    <glyph glyph-name="S" unicode="S" horiz-adv-x="1200" 
d="M541 -20c-92 0 -168.67 8.66504 -230.003 25.998s-110.5 39.666 -147.5 66.999s-63.333 58 -79 92s-23.5 67.667 -23.5 101c0 35.333 6.5 65 19.5 89s30.333 43.667 52 59s46.334 26.333 74.001 33s56.5 10 86.5 10c0 -58.667 7 -110.167 21 -154.5
s33.333 -81.333 58 -111s54.167 -52 88.5 -67s71.833 -22.5 112.5 -22.5c40 0 75.667 5.66699 107 17s58 27 80 47s38.667 43.5 50 70.5s17 56.167 17 87.5c0 34.667 -7 65.5 -21 92.5s-35.167 52 -63.5 75s-64 45 -107 66s-93.167 43.5 -150.5 67.5
c-71.333 29.333 -131.5 59.5 -180.5 90.5s-88.5 64.5 -118.5 100.5s-51.5 75 -64.5 117s-19.5 88 -19.5 138c0 62.667 12.667 119.334 38 170.001s60.333 94 105 130s97.667 63.667 159 83s128 29 200 29c75.333 0 140.333 -6.16699 195 -18.5
s99.834 -29.166 135.501 -50.499s62.167 -46.5 79.5 -75.5s26 -60.167 26 -93.5c0 -24 -5.16699 -46.333 -15.5 -67s-26 -38.667 -47 -54s-47.333 -27.333 -79 -36s-68.5 -13 -110.5 -13c0 28.667 -3.83301 59.5 -11.5 92.5s-20.167 63.667 -37.5 92
s-39.833 51.833 -67.5 70.5s-61.167 28 -100.5 28c-27.333 0 -53.333 -4 -78 -12s-46.167 -20 -64.5 -36s-32.833 -35.833 -43.5 -59.5s-16 -50.834 -16 -81.501c0 -28.667 4.66699 -55.667 14 -81s26.5 -50.166 51.5 -74.499s59.333 -48.666 103 -72.999
s100.167 -50.5 169.5 -78.5c70 -28.667 129.667 -58 179 -88s89.833 -62.167 121.5 -96.5s54.667 -72 69 -113s21.5 -86.5 21.5 -136.5c0 -66 -13 -126.5 -39 -181.5s-63.333 -102.167 -112 -141.5s-107.167 -70 -175.5 -92s-145.166 -33 -230.499 -33z" />
    <glyph glyph-name="T" unicode="T" horiz-adv-x="1337" 
d="M831 242c0 -29.333 2.66797 -52.666 8.00098 -69.999s12.833 -30.666 22.5 -39.999s20.834 -15.5 33.501 -18.5s26.334 -4.5 41.001 -4.5h86v-109h-707v109h86c15.333 0 29.333 1.5 42 4.5s23.667 9.16699 33 18.5s16.666 22.666 21.999 39.999s8 40.666 8 69.999v1095
h-164c-30.667 0 -56.334 -3.33301 -77.001 -10s-37.5 -16.167 -50.5 -28.5s-22.667 -27.5 -29 -45.5s-10.833 -38.333 -13.5 -61l-14 -127h-138l11 397h1276l10 -397h-137l-15 127c-2.66699 22.667 -7.16699 43 -13.5 61s-16 33.167 -29 45.5s-29.833 21.833 -50.5 28.5
s-46.334 10 -77.001 10h-164v-1095z" />
    <glyph glyph-name="U" unicode="U" horiz-adv-x="1530" 
d="M1497 1354l-87.9951 -0.00195312c-14 0 -27.333 -1.5 -40 -4.5s-23.834 -9.16699 -33.501 -18.5s-17.167 -22.666 -22.5 -39.999s-8 -40.666 -8 -69.999v-799c0 -68.667 -9.83301 -130.334 -29.5 -185.001s-50.334 -101 -92.001 -139s-94.834 -67.167 -159.501 -87.5
s-141.667 -30.5 -231 -30.5s-169.166 8.5 -239.499 25.5s-129.833 44.167 -178.5 81.5s-85.834 85.5 -111.501 144.5s-38.5 130.5 -38.5 214.5v783c0 27.333 -2.83301 49.166 -8.5 65.499s-13.334 28.833 -23.001 37.5s-20.667 14.5 -33 17.5s-25.5 4.5 -39.5 4.5h-88v108
h706v-108h-86c-14 0 -27.333 -1.5 -40 -4.5s-23.834 -9.16699 -33.501 -18.5s-17.167 -22.666 -22.5 -39.999s-8 -40.666 -8 -69.999v-791c0 -57.333 7.16699 -105.5 21.5 -144.5s34.833 -70.333 61.5 -94s58.667 -40.667 96 -51s79.333 -15.5 126 -15.5
c45.333 0 86.333 5.83301 123 17.5s67.834 29.834 93.501 54.501s45.5 56 59.5 94s21 83 21 135v803c0 27.333 -2.66699 49.166 -8 65.499s-12.833 28.833 -22.5 37.5s-20.834 14.5 -33.501 17.5s-26 4.5 -40 4.5h-86v108h536v-108z" />
    <glyph glyph-name="V" unicode="V" horiz-adv-x="1430" 
d="M1430 1354h-99c-9.33301 0 -17.666 -2 -24.999 -6s-14.666 -11.5 -21.999 -22.5s-15 -26.167 -23 -45.5s-17.333 -44.666 -28 -75.999l-418 -1204h-205l-436 1255c-6.66699 19.333 -15.167 35.5 -25.5 48.5s-21.333 23.167 -33 30.5s-23.5 12.5 -35.5 15.5
s-23 4.5 -33 4.5h-47v108h676v-108h-94c-10 0 -19.667 -1.16699 -29 -3.5s-17.833 -6.16602 -25.5 -11.499s-13.834 -12.333 -18.501 -21s-7 -19.334 -7 -32.001c0 -13.333 2 -28.5 6 -45.5s8 -31.167 12 -42.5l209 -631c5.33301 -15.333 10.833 -33.333 16.5 -54
s11.167 -42.334 16.5 -65.001s10.166 -45.167 14.499 -67.5s7.5 -42.833 9.5 -61.5c2 11.333 5.5 26.833 10.5 46.5s10.833 41 17.5 64l20.5 69l19.5 62.5l211 623l8.5 24.5c3 9 5.66699 18.167 8 27.5s4.33301 18.333 6 27s2.5 15.667 2.5 21c0 22.667 -7.5 40 -22.5 52
s-34.833 18 -59.5 18h-107v108h529v-108z" />
    <glyph glyph-name="W" unicode="W" horiz-adv-x="2185" 
d="M1237 1448l283.001 -781.998c12 -32 23.167 -64.5 33.5 -97.5l28.5 -94.5c8.66699 -30 16.334 -57.667 23.001 -83s11.667 -47 15 -65l17 82l19.5 94.5l22 101.5c7.66699 34.667 15.5 68.334 23.5 101.001l108 442c2 8 4.16699 17.333 6.5 28s4.5 21.167 6.5 31.5
s3.5 20 4.5 29s1.5 16.167 1.5 21.5c0 35.333 -10.5 60.333 -31.5 75s-54.167 22 -99.5 22h-47v108h534v-108h-39c-20 0 -37.667 -2 -53 -6s-29 -11.833 -41 -23.5s-22.833 -27.834 -32.5 -48.501s-19.167 -48 -28.5 -82l-318 -1194h-233l-344 961l-295 -961h-254l-375 1245
c-6 21.333 -13.333 39 -22 53s-18.834 25.167 -30.501 33.5s-25 14.166 -40 17.499s-32.5 5 -52.5 5h-27v108h684v-108h-47c-41.333 0 -72.166 -8 -92.499 -24s-30.5 -41 -30.5 -75c0 -11.333 2.16699 -27.833 6.5 -49.5s9.16602 -41.834 14.499 -60.501l137 -473
l23.5 -84.5c8.33301 -30.333 16.166 -61 23.499 -92s14 -60.833 20 -89.5s10.333 -54 13 -76c9.33301 44 19.5 85.167 30.5 123.5l34.5 117.5l270 877h150z" />
    <glyph glyph-name="X" unicode="X" horiz-adv-x="1499" 
d="M1071 1294c0 12 -2.99902 21.999 -8.99902 29.999s-14.167 14.167 -24.5 18.5s-22.5 7.33301 -36.5 9s-29 2.5 -45 2.5h-6v108h480v-108h-19c-20 0 -38 -2.5 -54 -7.5s-31.833 -13.333 -47.5 -25s-31.5 -26.834 -47.5 -45.501s-34 -42 -54 -70l-297 -405l377 -584
c26.667 -42 54.334 -70.5 83.001 -85.5s55.667 -22.5 81 -22.5h27v-109h-676v109h10c82 0 123 22.333 123 67c0 8 -0.666992 15.667 -2 23s-4.5 16 -9.5 26s-11.833 22.333 -20.5 37s-20.667 33 -36 55l-188 285l-221 -299c-12.667 -17.333 -24.667 -37.166 -36 -59.499
s-17 -44.166 -17 -65.499c0 -22.667 9.33301 -39.834 28 -51.501s50.667 -17.5 96 -17.5h7v-109h-517v109h13c24.667 0 46.334 3.33301 65.001 10s36.167 16.167 52.5 28.5s32.166 27.333 47.499 45s31.333 37.5 48 59.5l358 467l-338 526
c-11.333 18 -22.5 33.833 -33.5 47.5s-23.333 25 -37 34s-28.834 15.833 -45.501 20.5s-36.667 7 -60 7h-27v108h678v-108h-6c-23.333 0 -42.833 -1.5 -58.5 -4.5s-28.167 -7.33301 -37.5 -13s-15.833 -12.167 -19.5 -19.5s-5.5 -15 -5.5 -23
c0 -14 5.16699 -31.667 15.5 -53s23.166 -43.666 38.499 -66.999l170 -254l178 249c12 18.667 24.167 39.5 36.5 62.5s18.5 43.833 18.5 62.5z" />
    <glyph glyph-name="Y" unicode="Y" horiz-adv-x="1419" 
d="M336 0l-0.00195312 108.998h96c16.667 0 32.167 1 46.5 3s26.833 7.16699 37.5 15.5s19.167 20.833 25.5 37.5s9.5 39.334 9.5 68.001v285l-379 727c-10 20 -19.5 37 -28.5 51s-18.833 25.167 -29.5 33.5s-22.834 14.5 -36.501 18.5s-30.5 6 -50.5 6h-27v108h686v-108
h-35c-41.333 0 -72.166 -8.33301 -92.499 -25s-30.5 -39 -30.5 -67c0 -17.333 3.16699 -36.166 9.5 -56.499s13.5 -39.166 21.5 -56.499l152 -301c21.333 -43.333 38.833 -81.666 52.5 -114.999s26.167 -66 37.5 -98c14 36 30.167 75.167 48.5 117.5s38.833 86.5 61.5 132.5
l119 245c14.667 30 24.167 55.167 28.5 75.5s6.5 36.166 6.5 47.499c0 35.333 -11.167 61 -33.5 77s-56.166 24 -101.499 24h-47v108h536v-108h-39c-17.333 0 -32.166 -2.33301 -44.499 -7s-24 -13 -35 -25s-22.333 -28.333 -34 -49s-25.5 -47 -41.5 -79l-348 -678v-280
c0 -30 3 -53.333 9 -70s14.167 -29.334 24.5 -38.001s22.333 -14 36 -16s28.5 -3 44.5 -3h101v-109h-756z" />
    <glyph glyph-name="Z" unicode="Z" horiz-adv-x="1364" 
d="M1229 1358l-770 -1233h442c42 0 76.333 5.83301 103 17.5s47.834 27.167 63.501 46.5s27 41.166 34 65.499s11.833 49.5 14.5 75.5l10 92h148l-10 -422h-1178v102l768 1235h-403c-32 0 -58.333 -4.33301 -79 -13s-37.167 -21.167 -49.5 -37.5s-21.333 -36 -27 -59
s-9.83398 -48.5 -12.501 -76.5l-11 -111h-147l10 422h1094v-104z" />
    <glyph glyph-name="bracketleft" unicode="[" horiz-adv-x="848" 
d="M205 -262v1818h567v-108h-88c-22.667 0 -44.334 -1.66699 -65.001 -5s-38.5 -10.166 -53.5 -20.499s-27 -25.166 -36 -44.499s-13.5 -45.333 -13.5 -78v-1306c0 -32 4.5 -57.833 13.5 -77.5s21 -34.667 36 -45s32.833 -17.166 53.5 -20.499s42.334 -5 65.001 -5h88v-108
h-567z" />
    <glyph glyph-name="backslash" unicode="\" horiz-adv-x="590" 
d="M0 1556h145l445 -1804h-148z" />
    <glyph glyph-name="bracketright" unicode="]" horiz-adv-x="848" 
d="M643 1556v-1818h-567v108h88c23.333 0 45.166 1.66699 65.499 5s38 10.166 53 20.499s27 25.333 36 45s13.5 45.5 13.5 77.5v1306c0 32.667 -4.5 58.667 -13.5 78s-21 34.166 -36 44.499s-32.667 17.166 -53 20.499s-42.166 5 -65.499 5h-88v108h567z" />
    <glyph glyph-name="asciicircum" unicode="^" 
d="M526 1462h88l435 -925h-160l-320 702l-315 -702h-160z" />
    <glyph glyph-name="underscore" unicode="_" horiz-adv-x="940" 
d="M950 -291h-960v121h960v-121z" />
    <glyph glyph-name="grave" unicode="`" horiz-adv-x="1182" 
d="M713 1241c-32 18.667 -67.502 41.833 -106.502 69.5s-76.667 56.167 -113 85.5s-69.166 57.5 -98.499 84.5s-50.333 49.5 -63 67.5v21h321c10.667 -22.667 24.334 -47.5 41.001 -74.5l52.5 -81l55.5 -78.5l50 -67v-27h-139z" />
    <glyph glyph-name="a" unicode="a" horiz-adv-x="1227" 
d="M410 305c0 -58.667 9.33301 -102.667 28 -132s48 -44 88 -44c29.333 0 55.833 6.16699 79.5 18.5s44 29.833 61 52.5s30 50.167 39 82.5s13.5 68.5 13.5 108.5v154l-92 -6c-40.667 -2 -75 -8.5 -103 -19.5s-50.333 -26.167 -67 -45.5s-28.667 -43 -36 -71
s-11 -60.667 -11 -98zM592 999c-26 0 -47.8291 -5.50879 -65.4961 -16.5088s-31.834 -26.333 -42.501 -46s-18.167 -43 -22.5 -70s-6.5 -56.5 -6.5 -88.5c-92 0 -161.167 10.333 -207.5 31s-69.5 56 -69.5 106c0 37.333 11.167 69.333 33.5 96s52.666 48.334 90.999 65.001
s83 28.834 134 36.501s105.5 11.5 163.5 11.5c72 0 134.833 -6.16699 188.5 -18.5s98.334 -32.166 134.001 -59.499s62.5 -63.166 80.5 -107.499s27 -98.5 27 -162.5v-522c0 -28 2.16699 -51.333 6.5 -70s11.166 -33.5 20.499 -44.5s22 -18.833 38 -23.5s35.333 -7 58 -7h8
v-109h-381l-43 141h-18c-22.667 -27.333 -44 -51.166 -64 -71.499s-41.333 -37.166 -64 -50.499s-48.167 -23.166 -76.5 -29.499s-61.833 -9.5 -100.5 -9.5c-45.333 0 -87.5 6.66699 -126.5 20s-73 33.833 -102 61.5s-51.833 62.334 -68.5 104.001s-25 90.834 -25 147.501
c0 111.333 38.167 193.666 114.5 246.999s191.166 82.333 344.499 87l168 6v113c0 34 -1.33301 65.333 -4 94s-8.33398 53.334 -17.001 74.001s-21.5 36.667 -38.5 48s-39.5 17 -67.5 17z" />
    <glyph glyph-name="b" unicode="b" horiz-adv-x="1329" 
d="M1233 553c0 -99.333 -9.16602 -185 -27.499 -257s-45.166 -131.5 -80.499 -178.5s-79.166 -81.667 -131.499 -104s-112.5 -33.5 -180.5 -33.5c-39.333 0 -75 4.33301 -107 13s-60.833 21 -86.5 37s-48.334 35 -68.001 57s-36.834 46.333 -51.501 73h-19l-57 -160h-389
v109h14c19.333 0 38.333 1.66699 57 5s35.334 10 50.001 20s26.5 24.333 35.5 43s13.5 43.667 13.5 75v1059c0 29.333 -4.33301 52.833 -13 70.5s-20.334 31.5 -35.001 41.5s-31.834 16.667 -51.501 20s-40.5 5 -62.5 5h-8v108h481v-350
c0 -21.333 -0.833008 -46.333 -2.5 -75s-3.5 -55.667 -5.5 -81l-8 -92h14c29.333 50.667 68.5 90.667 117.5 120s112.167 44 189.5 44c66.667 0 125.5 -11.167 176.5 -33.5s94 -56.666 129 -102.999s61.5 -105.333 79.5 -177s27 -156.834 27 -255.501zM725.001 971
c-40.667 0 -74.333 -8.50098 -101 -25.501s-48 -42.833 -64 -77.5s-27.333 -78.167 -34 -130.5s-10 -113.833 -10 -184.5c0 -67.333 3.33301 -127.166 10 -179.499s18 -96.333 34 -132s37.667 -62.667 65 -81s61.333 -27.5 102 -27.5c67.333 0 116 36.333 146 109
s45 177 45 313c0 139.333 -15 243.5 -45 312.5s-79.333 103.5 -148 103.5z" />
    <glyph glyph-name="c" unicode="c" horiz-adv-x="1079" 
d="M604 -20c-75.333 0 -144.167 9.66992 -206.5 29.0029s-115.833 51.333 -160.5 96s-79.334 103 -104.001 175s-37 160.333 -37 265c0 110.667 12.833 203 38.5 277s61 133.333 106 178s98.167 76.5 159.5 95.5s127.333 28.5 198 28.5c66 0 124.333 -5.5 175 -16.5
s93 -26.167 127 -45.5s59.833 -42.166 77.5 -68.499s26.5 -54.5 26.5 -84.5c0 -22 -3.83301 -43.5 -11.5 -64.5s-21.334 -39.5 -41.001 -55.5s-46.667 -29 -81 -39s-78.166 -15 -131.499 -15c0 35.333 -2.16699 69 -6.5 101s-11.5 60 -21.5 84s-23.5 43.167 -40.5 57.5
s-38.5 21.5 -64.5 21.5c-30 0 -56.833 -7.16699 -80.5 -21.5s-44 -38.833 -61 -73.5s-30 -81 -39 -139s-13.5 -130.667 -13.5 -218c0 -138.667 19 -242.334 57 -311.001s100 -103 186 -103c35.333 0 68.5 4.16699 99.5 12.5s59.167 20 84.5 35s47.5 32.667 66.5 53
s34.5 42.166 46.5 65.499c16.667 -10 29 -23.5 37 -40.5s12 -34.833 12 -53.5c0 -26 -7.66699 -52.333 -23 -79s-39.166 -50.834 -71.499 -72.501s-73.5 -39.334 -123.5 -53.001s-109.667 -20.5 -179 -20.5z" />
    <glyph glyph-name="d" unicode="d" horiz-adv-x="1329" 
d="M1122 252c0 -31.333 4.6709 -56.333 14.0039 -75s21.833 -33 37.5 -43s33.667 -16.667 54 -20s41.833 -5 64.5 -5h8v-109h-397l-57 160h-19c-15.333 -28 -32.833 -53 -52.5 -75s-42.334 -40.833 -68.001 -56.5s-54.5 -27.667 -86.5 -36s-68 -12.5 -108 -12.5
c-66.667 0 -126 11.167 -178 33.5s-95.833 56.666 -131.5 102.999s-62.667 105.166 -81 176.499s-27.5 156 -27.5 254c0 98.667 9.16699 184.167 27.5 256.5s45.166 132 80.499 179s78.666 82 129.999 105s110 34.5 176 34.5c38.667 0 73.5 -4.16699 104.5 -12.5
s59 -19.666 84 -33.999s47.167 -31.5 66.5 -51.5s36 -42 50 -66h14c-2.66699 38 -5.33398 73.667 -8.00098 107c-0.666992 14 -1.5 28.333 -2.5 43s-2 28.5 -3 41.5s-1.66699 24.5 -2 34.5s-0.5 18 -0.5 24v113c0 28 -4.5 50.5 -13.5 67.5s-21 29.833 -36 38.5
s-32.5 14.334 -52.5 17.001s-41.333 4 -64 4h-16v108h493v-1304zM600.004 133c40.667 0 74.5 8.50098 101.5 25.501s48.667 42.833 65 77.5s27.833 78.167 34.5 130.5s10 113.833 10 184.5c0 67.333 -3.33301 127.166 -10 179.499s-18.167 96.333 -34.5 132
s-38 62.667 -65 81s-60.833 27.5 -101.5 27.5c-34 0 -63.167 -9.16699 -87.5 -27.5s-44 -45.5 -59 -81.5s-26 -80.167 -33 -132.5s-10.5 -112.5 -10.5 -180.5c0 -139.333 14.5 -243.5 43.5 -312.5s77.833 -103.5 146.5 -103.5z" />
    <glyph glyph-name="e" unicode="e" horiz-adv-x="1169" 
d="M608 991c-57.333 0 -102.834 -28.333 -136.501 -85s-52.167 -139.667 -55.5 -249h354c0 52 -3 98.667 -9 140s-15.5 76.333 -28.5 105s-29.667 50.667 -50 66s-45.166 23 -74.499 23zM626.999 -20c-86.667 0 -163.166 12.6641 -229.499 37.9971s-121.833 62 -166.5 110
s-78.334 106.833 -101.001 176.5s-34 149.167 -34 238.5c0 96 11.333 180.333 34 253s55.667 133.334 99 182.001s96.5 85.167 159.5 109.5s134.833 36.5 215.5 36.5c74 0 140.667 -10.5 200 -31.5s109.666 -52.167 150.999 -93.5s73 -92.666 95 -153.999
s33 -132.666 33 -213.999v-105h-671c2 -68.667 9.5 -127.667 22.5 -177s31 -90 54 -122s51 -55.667 84 -71s70.833 -23 113.5 -23c35.333 0 68 4.16699 98 12.5s57.167 20 81.5 35s45.666 32.667 63.999 53s33.5 42.166 45.5 65.499c36.667 -20 55 -53.333 55 -100
c0 -29.333 -8 -57.166 -24 -83.499s-40.667 -49.5 -74 -69.5s-75.166 -36 -125.499 -48s-110.166 -18 -179.499 -18z" />
    <glyph glyph-name="f" unicode="f" horiz-adv-x="834" 
d="M39 0l0.00195312 109h45c14.667 0 30.5 1.5 47.5 4.5s32.667 9.16699 47 18.5s26.333 22.666 36 39.999s14.5 40.666 14.5 69.999v716h-182v140h182v76c0 63.333 8.16699 119.833 24.5 169.5s41.666 91.667 75.999 126s77.833 60.5 130.5 78.5s115 27 187 27
c66 0 121 -3.83301 165 -11.5s79 -18.334 105 -32.001s44.5 -29.5 55.5 -47.5s16.5 -37.667 16.5 -59c0 -46 -20.833 -79.667 -62.5 -101s-104.834 -32 -189.501 -32c0 16.667 -1.66699 34.667 -5 54s-9 37.333 -17 54s-18.5 30.5 -31.5 41.5s-29.167 16.5 -48.5 16.5
c-16.667 0 -31 -4.5 -43 -13.5s-21.833 -23.333 -29.5 -43s-13.167 -45.167 -16.5 -76.5s-5 -69.666 -5 -114.999v-112h282v-140h-282v-716c0 -29.333 4.83301 -52.666 14.5 -69.999s21.667 -30.666 36 -39.999s30 -15.5 47 -18.5s32.833 -4.5 47.5 -4.5h96v-109h-743z" />
    <glyph glyph-name="g" unicode="g" horiz-adv-x="1147" 
d="M1137 1059c0 -15.333 -2.33691 -30.166 -7.00391 -44.499s-12.5 -26.833 -23.5 -37.5s-26 -19.167 -45 -25.5s-42.5 -9.5 -70.5 -9.5c0 14 -2.16699 26.333 -6.5 37s-10.166 19.667 -17.499 27s-15.666 12.833 -24.999 16.5s-19 5.5 -29 5.5
c-11.333 0 -23.5 -2.33301 -36.5 -7s-23.167 -9.66699 -30.5 -15c14 -15.333 27 -32.833 39 -52.5s22.5 -40.834 31.5 -63.501s16.167 -46.167 21.5 -70.5s8 -49.166 8 -74.499c0 -51.333 -8.16699 -98.833 -24.5 -142.5s-41.5 -81.5 -75.5 -113.5s-77 -57 -129 -75
s-113.667 -27 -185 -27c-7.33301 0 -16.666 0.166992 -27.999 0.5l-34 1c-11.333 0.333008 -22.166 1 -32.499 2s-18.166 1.83301 -23.499 2.5c-8.66699 -4.66699 -17.5 -10.5 -26.5 -17.5s-17 -14.833 -24 -23.5s-12.667 -18.334 -17 -29.001s-6.5 -22 -6.5 -34
c0 -22.667 8.83301 -39.334 26.5 -50.001s40.834 -16 69.501 -16h248c68 0 126.667 -7.16699 176 -21.5s90.166 -34.833 122.499 -61.5s56.166 -59.5 71.499 -98.5s23 -82.833 23 -131.5c0 -63.333 -12 -119.833 -36 -169.5s-60.5 -91.667 -109.5 -126
s-110.667 -60.666 -185 -78.999s-162.166 -27.5 -263.499 -27.5c-161.333 0 -281.5 24.167 -360.5 72.5s-118.5 119.166 -118.5 212.499c0 73.333 23.667 129.5 71 168.5s116 62.167 206 69.5c-18.667 7.33301 -37 16.333 -55 27s-34 23.5 -48 38.5s-25.333 32.167 -34 51.5
s-13 41 -13 65c0 22.667 4.5 43.667 13.5 63s21.5 37.833 37.5 55.5s35.167 34.334 57.5 50.001s46.833 31.167 73.5 46.5c-30 10.667 -57.833 25.5 -83.5 44.5s-47.667 41.833 -66 68.5s-32.833 57 -43.5 91s-16 71.667 -16 113c0 120 34.833 213.167 104.5 279.5
s177.5 99.5 323.5 99.5c48.667 0 93.834 -6.16699 135.501 -18.5s77.834 -27.166 108.501 -44.499l37.5 38.5c13.667 13.667 29.167 26.167 46.5 37.5s36.666 20.666 57.999 27.999s45 11 71 11c24.667 0 46.167 -3.16699 64.5 -9.5s33.666 -14.833 45.999 -25.5
s21.666 -23 27.999 -37s9.5 -29 9.5 -45zM245.996 -203c0 -56.667 20.499 -98.501 61.499 -125.501s100.833 -40.5 179.5 -40.5c120 0 207.333 17.333 262 52s82 85.667 82 153c0 43.333 -13.667 73.666 -41 90.999s-68.666 26 -123.999 26h-238
c-20.667 0 -41.667 -1.83301 -63 -5.5s-40.833 -11.167 -58.5 -22.5s-32.167 -27.166 -43.5 -47.499s-17 -47.166 -17 -80.499zM382.995 744.999c0 -36 2.5 -68.501 7.5 -97.501s13.167 -53.833 24.5 -74.5s26 -36.667 44 -48s40.333 -17 67 -17c27.333 0 50 5.5 68 16.5
s32.333 27 43 48s18.167 46.333 22.5 76s6.5 62.834 6.5 99.501c0 38 -2.33301 72.5 -7 103.5s-12.5 57.5 -23.5 79.5s-25.5 39.167 -43.5 51.5s-40.667 18.5 -68 18.5c-26.667 0 -49 -6.33301 -67 -19s-32.5 -30.334 -43.5 -53.001s-18.833 -49.667 -23.5 -81
s-7 -65.666 -7 -102.999z" />
    <glyph glyph-name="h" unicode="h" horiz-adv-x="1366" 
d="M858 0l0.00585938 674.003c0 44 -2.83301 83.167 -8.5 117.5s-15 63.166 -28 86.499s-30 41.166 -51 53.499s-46.5 18.5 -76.5 18.5c-34 0 -62.333 -8.66699 -85 -26s-40.834 -40.5 -54.501 -69.5s-23.5 -62.667 -29.5 -101s-9 -78.5 -9 -120.5v-391
c0 -28.667 3.5 -51.667 10.5 -69s16.833 -30.833 29.5 -40.5s28.167 -16 46.5 -19s38.833 -4.5 61.5 -4.5h6v-109h-629v109h4c23.333 0 44.666 1.5 63.999 4.5s36.166 9.5 50.499 19.5s25.5 24.333 33.5 43s12 43.334 12 74.001v1073c0 27.333 -4.83301 49.166 -14.5 65.499
s-21.834 29 -36.501 38s-30.5 14.833 -47.5 17.5s-32.833 4 -47.5 4h-24v108h481v-337c0 -26.667 -0.833008 -55.334 -2.5 -86.001s-3.5 -59 -5.5 -85l-8 -90h18c20.667 38.667 42.5 69 65.5 91s47.5 38.5 73.5 49.5s53.5 18 82.5 21s59.5 4.5 91.5 4.5
c52.667 0 100 -7.66699 142 -23s77.5 -39 106.5 -71s51.167 -72.833 66.5 -122.5s23 -109.167 23 -178.5v-475c0 -32 2.83301 -57.5 8.5 -76.5s14.167 -33.5 25.5 -43.5s25.666 -16.667 42.999 -20s37.666 -5 60.999 -5h6v-109h-455z" />
    <glyph glyph-name="i" unicode="i" horiz-adv-x="721" 
d="M176 1430c0 26 4.5 48.333 13.5 67s21.333 33.834 37 45.501s34 20.334 55 26.001s43.833 8.5 68.5 8.5c23.333 0 45.666 -2.83301 66.999 -8.5s40 -14.334 56 -26.001s28.833 -26.834 38.5 -45.501s14.5 -41 14.5 -67c0 -25.333 -4.83301 -47.333 -14.5 -66
s-22.5 -34 -38.5 -46s-34.667 -21 -56 -27s-43.666 -9 -66.999 -9c-24.667 0 -47.5 3 -68.5 9s-39.333 15 -55 27s-28 27.333 -37 46s-13.5 40.667 -13.5 66zM59 109c15.333 0 31.502 1.50098 48.502 4.50098s32.667 9.16699 47 18.5s26.333 22.666 36 39.999
s14.5 40.666 14.5 69.999v622c0 27.333 -4.83301 49.166 -14.5 65.499s-21.834 29 -36.501 38s-30.5 14.833 -47.5 17.5s-32.833 4 -47.5 4h-24v109h481v-856c0 -29.333 4.83301 -52.666 14.5 -69.999s21.667 -30.666 36 -39.999s30.166 -15.5 47.499 -18.5
s33.333 -4.5 48 -4.5h24v-109h-651v109h24z" />
    <glyph glyph-name="j" unicode="j" horiz-adv-x="707" 
d="M516 1098l0.000976562 -1114c0 -92 -12.833 -168.5 -38.5 -229.5s-61.334 -109.667 -107.001 -146s-100 -62.166 -163 -77.499s-132.167 -23 -207.5 -23h-41v127h14c37.333 0 70.5 6 99.5 18s53.333 32 73 60s34.5 65.333 44.5 112s15 105 15 175v854
c0 29.333 -4.33301 52.833 -13 70.5s-20.5 31.334 -35.5 41.001s-32.5 16 -52.5 19s-41 4.5 -63 4.5h-6v109h481zM178.001 1430c0 26 4.5 48.333 13.5 67s21.333 33.834 37 45.501s34 20.334 55 26.001s43.833 8.5 68.5 8.5c23.333 0 45.666 -2.83301 66.999 -8.5
s40 -14.334 56 -26.001s28.833 -26.834 38.5 -45.501s14.5 -41 14.5 -67c0 -25.333 -4.83301 -47.333 -14.5 -66s-22.5 -34 -38.5 -46s-34.667 -21 -56 -27s-43.666 -9 -66.999 -9c-24.667 0 -47.5 3 -68.5 9s-39.333 15 -55 27s-28 27.333 -37 46s-13.5 40.667 -13.5 66z
" />
    <glyph glyph-name="k" unicode="k" horiz-adv-x="1303" 
d="M1303 0l-28.9951 0.00195312c-74.667 0 -137.334 1.66699 -188.001 5s-94.334 11 -131.001 23s-68.334 30.167 -95.001 54.5s-53.334 57.5 -80.001 99.5l-182 287l-82 -61v-166c0 -29.333 4.83301 -52.666 14.5 -69.999s21.667 -30.666 36 -39.999
s30.166 -15.5 47.499 -18.5s33.333 -4.5 48 -4.5h24v-109h-651v109h24c15.333 0 31.5 1.5 48.5 4.5s32.667 9.16699 47 18.5s26.333 22.666 36 39.999s14.5 40.666 14.5 69.999v1081c0 27.333 -4.83301 49.166 -14.5 65.499s-21.834 29 -36.501 38s-30.5 14.833 -47.5 17.5
s-32.833 4 -47.5 4h-24v108h481v-790c0 -18.667 -0.5 -40.167 -1.5 -64.5s-2.16699 -47.5 -3.5 -69.5c-2 -26 -3.66699 -52.333 -5 -79l258 289c22.667 25.333 37.5 45.5 44.5 60.5s10.5 27.5 10.5 37.5c0 17.333 -9.16699 30.833 -27.5 40.5s-44.5 14.5 -78.5 14.5v103h516
v-103c-47.333 0 -93.833 -13.833 -139.5 -41.5s-95.5 -71.834 -149.5 -132.501l-129 -147l272 -406c36 -54 72.333 -94 109 -120s71.334 -39 104.001 -39h7v-109z" />
    <glyph glyph-name="l" unicode="l" horiz-adv-x="721" 
d="M59 109c15.333 0 31.502 1.50098 48.502 4.50098s32.667 9.16699 47 18.5s26.333 22.666 36 39.999s14.5 40.666 14.5 69.999v1081c0 27.333 -4.83301 49.166 -14.5 65.499s-21.834 29 -36.501 38s-30.5 14.833 -47.5 17.5s-32.833 4 -47.5 4h-24v108h481v-1314
c0 -29.333 4.83301 -52.666 14.5 -69.999s21.667 -30.666 36 -39.999s30.166 -15.5 47.499 -18.5s33.333 -4.5 48 -4.5h24v-109h-651v109h24z" />
    <glyph glyph-name="m" unicode="m" horiz-adv-x="2019" 
d="M858 0l0.00683594 674.001c0 44 -2.83301 83.167 -8.5 117.5s-15 63.166 -28 86.499s-30 41.166 -51 53.499s-46.5 18.5 -76.5 18.5c-34 0 -62.333 -8.66699 -85 -26s-40.834 -40.5 -54.501 -69.5s-23.5 -62.667 -29.5 -101s-9 -78.5 -9 -120.5v-391
c0 -28.667 3.5 -51.667 10.5 -69s16.833 -30.833 29.5 -40.5s28.167 -16 46.5 -19s38.833 -4.5 61.5 -4.5h6v-109h-629v109h4c23.333 0 44.666 1.5 63.999 4.5s36.166 9.5 50.499 19.5s25.5 24.333 33.5 43s12 43.334 12 74.001v612c0 28.667 -3.5 51.667 -10.5 69
s-17 30.833 -30 40.5s-28.5 16 -46.5 19s-38.333 4.5 -61 4.5h-6v103h430l27 -146h10c20.667 38.667 42.5 69.334 65.5 92.001s47.5 40 73.5 52s53.5 19.667 82.5 23s59.5 5 91.5 5c75.333 0 139.666 -13.5 192.999 -40.5s92.333 -70.833 117 -131.5h18
c20.667 38.667 43.167 69.334 67.5 92.001s50.333 40 78 52s56.667 19.667 87 23s61.5 5 93.5 5c52.667 0 100 -7.66699 142 -23s77.5 -39 106.5 -71s51.167 -72.833 66.5 -122.5s23 -109.167 23 -178.5v-475c0 -32 2.83301 -57.5 8.5 -76.5s14.167 -33.5 25.5 -43.5
s25.666 -16.667 42.999 -20s37.333 -5 60 -5h6v-109h-455v674c0 88 -12.167 156 -36.5 204s-66.5 72 -126.5 72c-32 0 -59.333 -7.83301 -82 -23.5s-41.167 -36.834 -55.5 -63.501s-24.833 -57.834 -31.5 -93.501s-10 -73.167 -10 -112.5v-403
c0 -32 2.83301 -57.5 8.5 -76.5s14.167 -33.5 25.5 -43.5s25.666 -16.667 42.999 -20s37.666 -5 60.999 -5h6v-109h-455z" />
    <glyph glyph-name="n" unicode="n" horiz-adv-x="1366" 
d="M858 0l0.00488281 674c0 44 -2.83301 83.167 -8.5 117.5s-15 63.166 -28 86.499s-30 41.166 -51 53.499s-46.5 18.5 -76.5 18.5c-34 0 -62.333 -8.66699 -85 -26s-40.834 -40.5 -54.501 -69.5s-23.5 -62.667 -29.5 -101s-9 -78.5 -9 -120.5v-391
c0 -28.667 3.5 -51.667 10.5 -69s16.833 -30.833 29.5 -40.5s28.167 -16 46.5 -19s38.833 -4.5 61.5 -4.5h6v-109h-629v109h4c23.333 0 44.666 1.5 63.999 4.5s36.166 9.5 50.499 19.5s25.5 24.333 33.5 43s12 43.334 12 74.001v606c0 28.667 -3.5 51.667 -10.5 69
s-17 30.833 -30 40.5s-28.5 16 -46.5 19s-38.333 4.5 -61 4.5h-6v109h430l27 -146h10c20.667 38.667 42.5 69.334 65.5 92.001s47.5 40 73.5 52s53.5 19.667 82.5 23s59.5 5 91.5 5c52.667 0 100 -7.66699 142 -23s77.5 -39 106.5 -71s51.167 -72.833 66.5 -122.5
s23 -109.167 23 -178.5v-475c0 -32 2.83301 -57.5 8.5 -76.5s14.167 -33.5 25.5 -43.5s25.666 -16.667 42.999 -20s37.666 -5 60.999 -5h6v-109h-455z" />
    <glyph glyph-name="o" unicode="o" horiz-adv-x="1255" 
d="M1159 553c0 -192.667 -45.168 -336.334 -135.501 -431.001s-223.166 -142 -398.499 -142c-82 0 -155.667 11.833 -221 35.5s-120.833 59.167 -166.5 106.5s-80.667 107 -105 179s-36.5 156 -36.5 252c0 192.667 45.167 336 135.5 430s223.5 141 399.5 141
c82 0 155.5 -11.667 220.5 -35s120.333 -58.666 166 -105.999s80.667 -106.833 105 -178.5s36.5 -155.5 36.5 -251.5zM413.999 553c0 -72.667 3.83203 -136.667 11.499 -192s20 -101.666 37 -138.999s39.167 -65.5 66.5 -84.5s60.666 -28.5 99.999 -28.5s72.5 9.5 99.5 28.5
s49 47.167 66 84.5s29.167 83.666 36.5 138.999s11 119.333 11 192c0 73.333 -3.83301 137.5 -11.5 192.5s-20 100.833 -37 137.5s-39.167 64.167 -66.5 82.5s-60.666 27.5 -99.999 27.5s-72.666 -9.16699 -99.999 -27.5s-49.333 -45.833 -66 -82.5
s-28.667 -82.5 -36 -137.5s-11 -119.167 -11 -192.5z" />
    <glyph glyph-name="p" unicode="p" horiz-adv-x="1321" 
d="M51 -383c15.333 0 31.5 1.50195 48.5 4.50195s32.667 9.16699 47 18.5s26.333 22.666 36 39.999s14.5 40.666 14.5 69.999v1096c0 31.333 -3.5 56.333 -10.5 75s-16.667 33 -29 43s-27 16.667 -44 20s-35.167 5 -54.5 5h-14v109h401l37 -160h9
c14.667 26.667 31.834 51 51.501 73s42.334 41 68.001 57s54.5 28.333 86.5 37s67.667 13 107 13c68 0 128.167 -11.167 180.5 -33.5s96.166 -57 131.499 -104s62.166 -106.5 80.499 -178.5s27.5 -157.667 27.5 -257c0 -98.667 -9 -183.834 -27 -255.501
s-44.5 -130.834 -79.5 -177.501s-78 -81.167 -129 -103.5s-109.833 -33.5 -176.5 -33.5c-78 0 -141.333 14.833 -190 44.5s-87.667 69.5 -117 119.5h-14l8 -92c2 -25.333 3.83301 -52.333 5.5 -81s2.5 -53.667 2.5 -75v-141c0 -29.333 4.83301 -52.666 14.5 -69.999
s21.667 -30.666 36 -39.999s30 -15.5 47 -18.5s32.833 -4.5 47.5 -4.5h45v-109h-671v109h24zM717 127.002c68.667 0 117.832 34.499 147.499 103.499s44.5 173.167 44.5 312.5c0 136 -14.833 240.333 -44.5 313s-78.167 109 -145.5 109
c-40.667 0 -74.667 -9.16699 -102 -27.5s-49 -45.333 -65 -81s-27.333 -79.667 -34 -132s-10 -112.166 -10 -179.499c0 -70.667 3.33301 -132.167 10 -184.5s18 -95.833 34 -130.5s37.333 -60.5 64 -77.5s60.334 -25.5 101.001 -25.5z" />
    <glyph glyph-name="q" unicode="q" horiz-adv-x="1327" 
d="M608 -492l-0.00390625 109h37c22.667 0 44 1.33301 64 4s37.5 8.33398 52.5 17.001s27 21.5 36 38.5s13.5 39.5 13.5 67.5v150c0 6 0.166992 14 0.5 24s1 21.5 2 34.5l3 41c1 14.333 1.83301 28.5 2.5 42.5c2.66699 32.667 5.33398 68.334 8.00098 107.001h-14
c-14 -23.333 -30.667 -45 -50 -65s-41.5 -37.167 -66.5 -51.5s-53 -25.666 -84 -33.999s-65.833 -12.5 -104.5 -12.5c-66 0 -124.667 11.167 -176 33.5s-94.666 56.833 -129.999 103.5s-62.166 106 -80.499 178s-27.5 157.333 -27.5 256c0 98 9.16699 182.667 27.5 254
s45.333 130.166 81 176.499s79.5 80.666 131.5 102.999s111.333 33.5 178 33.5c40 0 76 -4.16699 108 -12.5s60.833 -20.333 86.5 -36s48.334 -34.5 68.001 -56.5s37.167 -47 52.5 -75h19l41 160h413v-109h-8c-22.667 0 -44.167 -1.66699 -64.5 -5s-38.333 -10 -54 -20
s-28.167 -24.333 -37.5 -43s-14 -43.667 -14 -75v-1102c0 -28 4.5 -50.5 13.5 -67.5s21 -29.833 36 -38.5s32.5 -14.334 52.5 -17.001s41.333 -4 64 -4h37v-109h-717zM599.996 965c-68.667 0 -117.5 -34.5 -146.5 -103.5s-43.5 -173.167 -43.5 -312.5
c0 -136.667 14.5 -240.5 43.5 -311.5s77.833 -106.5 146.5 -106.5c40.667 0 74.5 9 101.5 27s48.667 44.5 65 79.5s27.833 78.333 34.5 130s10 111.5 10 179.5c0 70.667 -3.33301 132.167 -10 184.5s-18.167 95.833 -34.5 130.5s-38 60.5 -65 77.5s-60.833 25.5 -101.5 25.5
z" />
    <glyph glyph-name="r" unicode="r" horiz-adv-x="1071" 
d="M725 0l-684 0.00195312v109h6c23.333 0 44.666 1.66699 63.999 5s36 10.166 50 20.499s24.833 25.166 32.5 44.499s11.5 45 11.5 77v594c0 30 -3.5 54.167 -10.5 72.5s-17 32.5 -30 42.5s-28.5 16.5 -46.5 19.5s-38.333 4.5 -61 4.5h-6v109h414l41 -160h10
c13.333 30.667 28 57.5 44 80.5s35.167 42.167 57.5 57.5s48.666 26.833 78.999 34.5s66.5 11.5 108.5 11.5c80.667 0 140 -14.167 178 -42.5s57 -69.5 57 -123.5c0 -62.667 -22.667 -111.334 -68 -146.001s-109.333 -52 -192 -52c0 28 -1.5 52.667 -4.5 74
s-8.33301 39 -16 53s-18 24.667 -31 32s-29.167 11 -48.5 11c-24 0 -44.667 -6 -62 -18s-32 -27.5 -44 -46.5s-21.833 -40.5 -29.5 -64.5s-13.667 -48.167 -18 -72.5s-7.16602 -47.5 -8.49902 -69.5s-2 -41 -2 -57v-354c0 -30 3.66699 -54.167 11 -72.5
s17.333 -32.166 30 -41.499s27.834 -15.5 45.501 -18.5s36.5 -4.5 56.5 -4.5h66v-109z" />
    <glyph glyph-name="s" unicode="s" horiz-adv-x="999" 
d="M473 -20c-74 0 -137.17 6.00098 -189.503 18.001s-95 28.667 -128 50s-57 46.666 -72 75.999s-22.5 61 -22.5 95c0 33.333 6.5 60.166 19.5 80.499s29.333 36.166 49 47.499s40.5 18.833 62.5 22.5s42 5.5 60 5.5c0 -42.667 5.33301 -81 16 -115s25.667 -62.833 45 -86.5
s42.5 -41.834 69.5 -54.501s57.167 -19 90.5 -19c35.333 0 65.833 3.66699 91.5 11s46.667 17.5 63 30.5s28.5 28 36.5 45s12 34.833 12 53.5c0 22.667 -4.16699 42.834 -12.5 60.501s-22.166 34.334 -41.499 50.001s-45.166 31 -77.499 46s-72.5 30.833 -120.5 47.5
c-55.333 19.333 -104.166 39.833 -146.499 61.5s-78 46.334 -107 74.001s-51 59.334 -66 95.001s-22.5 76.5 -22.5 122.5c0 54.667 10.5 102.334 31.5 143.001s50.833 74.5 89.5 101.5s85 47.167 139 60.5s114 20 180 20c64.667 0 119.667 -5.5 165 -16.5
s82.333 -25.5 111 -43.5s49.667 -38.333 63 -61s20 -45.667 20 -69c0 -46 -16.167 -81 -48.5 -105s-85.833 -36 -160.5 -36c0 68 -15.167 120.833 -45.5 158.5s-75.166 56.5 -134.499 56.5c-22 0 -43.167 -2.66699 -63.5 -8s-38 -13.333 -53 -24s-27 -23.834 -36 -39.501
s-13.5 -34.167 -13.5 -55.5c0 -22 4.16699 -41.667 12.5 -59s23 -33.833 44 -49.5s49.5 -31.5 85.5 -47.5s82 -33.667 138 -53c45.333 -16 87.166 -34.167 125.499 -54.5s71.333 -43.666 99 -69.999s49.167 -56.333 64.5 -90s23 -72.167 23 -115.5
c0 -56.667 -9.83301 -107.334 -29.5 -152.001s-48.5 -82.334 -86.5 -113.001s-84.667 -54.167 -140 -70.5s-118.333 -24.5 -189 -24.5z" />
    <glyph glyph-name="t" unicode="t" horiz-adv-x="829" 
d="M643 145c26.667 0 52.166 1.83301 76.499 5.5s47.166 8.16699 68.499 13.5v-133c-10.667 -5.33301 -25.167 -11 -43.5 -17s-39.666 -11.5 -63.999 -16.5s-51.833 -9.16699 -82.5 -12.5s-64 -5 -100 -5c-46 0 -87.667 5.5 -125 16.5s-69 29.333 -95 55s-46 59 -60 100
s-21 91.5 -21 151.5v655h-154v105c44 0 83.333 8.66699 118 26s62.334 37.333 83.001 60c42 44 73.333 111.667 94 203h170v-254h262v-140h-262v-634c0 -62 10.5 -107.333 31.5 -136s55.5 -43 103.5 -43z" />
    <glyph glyph-name="u" unicode="u" horiz-adv-x="1366" 
d="M907 0l-45.002 145h-10c-20.667 -35.333 -43 -63.833 -67 -85.5s-49.667 -38.334 -77 -50.001s-56.166 -19.5 -86.499 -23.5s-61.5 -6 -93.5 -6c-106.667 0 -188.5 33 -245.5 99s-85.5 168 -85.5 306v459c0 30 -2.66699 54.333 -8 73s-13.666 33.334 -24.999 44.001
s-25.833 18 -43.5 22s-38.834 6 -63.501 6h-4v109h455v-656c0 -44 2.5 -83.667 7.5 -119s13.5 -65.5 25.5 -90.5s28 -44.333 48 -58s45 -20.5 75 -20.5c32.667 0 60.834 7.16699 84.501 21.5s43 35 58 62s26 59.667 33 98s10.5 81.5 10.5 129.5v393c0 30 -4 53.667 -12 71
s-18.667 30.5 -32 39.5s-29 14.667 -47 17s-37 3.5 -57 3.5h-6v109h465v-860c0 -30 3.5 -53.5 10.5 -70.5s16.5 -29.833 28.5 -38.5s26.333 -14.167 43 -16.5s35 -3.5 55 -3.5h17v-109h-408z" />
    <glyph glyph-name="v" unicode="v" horiz-adv-x="1241" 
d="M1241 989h-41c-14 0 -26.5 -1.66699 -37.5 -5s-21.667 -10.166 -32 -20.499s-20.5 -25.333 -30.5 -45s-21 -45.834 -33 -78.501l-297 -840h-270l-336 891c-7.33301 19.333 -15.833 35.333 -25.5 48s-21 22.667 -34 30s-28 12.5 -45 15.5s-36.833 4.5 -59.5 4.5v109h635
v-109h-86c-20.667 0 -37.167 -5.5 -49.5 -16.5s-18.5 -27.167 -18.5 -48.5c0 -16.667 2.16699 -33 6.5 -49s8.5 -29.667 12.5 -41l137 -388c16.667 -43.333 31.167 -87 43.5 -131s21.833 -83.333 28.5 -118c3.33301 16 8 34.667 14 56l18 62.5l16.5 55.5l10.5 35l139 411
c6.66699 18.667 12.167 37.5 16.5 56.5s6.5 37.833 6.5 56.5c0 22.667 -7.5 38.167 -22.5 46.5s-34.167 12.5 -57.5 12.5h-59v109h450v-109z" />
    <glyph glyph-name="w" unicode="w" horiz-adv-x="1753" 
d="M1012 1087l200.001 -604.002c16.667 -49.333 28.667 -91.166 36 -125.499s13.333 -64.166 18 -89.499h6l9.5 49c3 15.333 6.66699 31.333 11 48l14.5 54.5c5.33301 19.667 12 42.167 20 67.5l90 299c5.33301 17.333 9.83301 36 13.5 56s5.5 35.667 5.5 47
c0 34.667 -11.167 60 -33.5 76s-56.5 24 -102.5 24h-14v109h469v-109h-26c-20 0 -37.333 -2 -52 -6s-27.667 -11.833 -39 -23.5s-22 -28 -32 -49s-20.333 -48.167 -31 -81.5l-264 -829h-221l-224 680l-235 -680h-223l-263 881c-7.33301 21.333 -15.333 39 -24 53
s-18.667 25 -30 33s-24.333 13.667 -39 17s-32 5 -52 5h-6v109h600v-109h-27c-41.333 0 -72.166 -5.83301 -92.499 -17.5s-30.5 -34.5 -30.5 -68.5c0 -11.333 1.83301 -25 5.5 -41s7.5 -31.667 11.5 -47l76 -266c6.66699 -24.667 13 -50 19 -76l17 -76
c5.33301 -24.667 10.166 -48 14.499 -70s7.83301 -41.667 10.5 -59h6c6 34 14.167 69.167 24.5 105.5s24.166 79.833 41.499 130.5l209 583h133z" />
    <glyph glyph-name="x" unicode="x" horiz-adv-x="1323" 
d="M891 928c0 24.667 -9.49805 40.999 -28.498 48.999s-44.5 12 -76.5 12h-6v109h473v-109h-18c-20 0 -37.833 -1.83301 -53.5 -5.5s-31.334 -10.334 -47.001 -20.001s-31.834 -23 -48.501 -40s-36 -38.833 -58 -65.5l-211 -258l301 -383
c31.333 -39.333 60.166 -67.166 86.499 -83.499s52.166 -24.5 77.499 -24.5h27v-109h-652v109h11c82 0 123 22.333 123 67c0 8 -1 16 -3 24s-5.66699 17.333 -11 28s-13.166 23.167 -23.499 37.5s-23.833 31.5 -40.5 51.5l-117 142l-143 -178
c-12.667 -16.667 -23 -33.667 -31 -51s-12 -34.666 -12 -51.999c0 -22.667 9.66699 -39.834 29 -51.501s52 -17.5 98 -17.5h6v-109h-520v109h18c24.667 0 46.334 2.16699 65.001 6.5s36.167 11.5 52.5 21.5s32.833 23.333 49.5 40s35.334 37.667 56.001 63l258 311l-258 330
c-28.667 36 -57.334 63 -86.001 81s-58.667 27 -90 27h-27v109h644v-109h-7c-23.333 0 -42.5 -1.5 -57.5 -4.5s-26.833 -7.16699 -35.5 -12.5s-14.667 -11.666 -18 -18.999s-5 -15 -5 -23c0 -14.667 3.66699 -28.834 11 -42.501s19.333 -30.834 36 -51.501l114 -140l97 117
c16 20.667 28.5 40.334 37.5 59.001s13.5 37.334 13.5 56.001z" />
    <glyph glyph-name="y" unicode="y" horiz-adv-x="1186" 
d="M1186 1098l0.000976562 -108.998c-20.667 0 -38.834 -2.33301 -54.501 -7s-29.834 -12.834 -42.501 -24.501s-24.334 -27 -35.001 -46s-21.334 -42.833 -32.001 -71.5l-75 -208l-78.5 -212.5l-79 -212l-76.5 -207.5c-24 -66 -46.667 -124 -68 -174
s-43.833 -93.333 -67.5 -130s-49.834 -67 -78.501 -91s-62 -43.167 -100 -57.5s-82.167 -24.5 -132.5 -30.5s-109.166 -9 -176.499 -9h-35v119c71.333 0 132 8.66699 182 26s92.333 42 127 74s63.167 70.333 85.5 115s41.833 94 58.5 148l-369 901
c-8 19.333 -17 34.666 -27 45.999s-20.667 20 -32 26s-23.666 9.83301 -36.999 11.5s-27.666 2.5 -42.999 2.5v121h584v-109c-40 0 -71.5 -5.16699 -94.5 -15.5s-34.5 -30.5 -34.5 -60.5c0 -11.333 2.33301 -24.833 7 -40.5s9 -28.5 13 -38.5l37.5 -93.5l38 -101l35.5 -97.5
l30 -83c10 -26 18.333 -49.5 25 -70.5s12.167 -40 16.5 -57s7.83301 -32.667 10.5 -47s4.66699 -28.5 6 -42.5c1.33301 14 4 29.5 8 46.5s8.33301 33.333 13 49s9.33398 29.667 14.001 42l10 26.5l135 401c2.66699 6.66699 5.16699 14.5 7.5 23.5s4.5 18.167 6.5 27.5
s3.5 18.333 4.5 27s1.5 16 1.5 22c0 31.333 -13 52.833 -39 64.5s-62.667 17.5 -110 17.5v109h461z" />
    <glyph glyph-name="z" unicode="z" horiz-adv-x="1083" 
d="M754 139c20.667 0 38.166 3 52.499 9s26.666 15.667 36.999 29s19 30.5 26 51.5s13.5 46.5 19.5 76.5l12 66h121l-10 -371h-975v84l604 874h-299c-15.333 0 -28.666 -2.16699 -39.999 -6.5s-21.5 -12 -30.5 -23s-17.167 -25.667 -24.5 -44s-14.666 -41.5 -21.999 -69.5
l-12 -49h-123l25 332h884v-88l-606 -871h361z" />
    <glyph glyph-name="braceleft" unicode="{" horiz-adv-x="905" 
d="M649 -256c-57.333 0 -107.835 7.00391 -151.502 21.0039s-80.167 34.167 -109.5 60.5s-51.5 58.166 -66.5 95.499s-22.5 79.333 -22.5 126v350c0 39.333 -6.16699 71.166 -18.5 95.499s-29.166 43.5 -50.499 57.5s-46.5 23.833 -75.5 29.5s-60.167 9.16699 -93.5 10.5
v125c33.333 1.33301 64.5 4.66602 93.5 9.99902s54.167 15 75.5 29s38.166 33.167 50.499 57.5s18.5 55.5 18.5 93.5v352c0 96 29.5 169.833 88.5 221.5s146.167 77.5 261.5 77.5h195v-108h-80c-29.333 0 -53.333 -4.33301 -72 -13s-33.5 -21.334 -44.5 -38.001
s-18.667 -37.5 -23 -62.5s-6.5 -53.5 -6.5 -85.5v-348c0 -62 -17.667 -112.833 -53 -152.5s-92.666 -68.5 -171.999 -86.5v-17c78.667 -19.333 135.834 -49 171.501 -89s53.5 -91 53.5 -153v-350c0 -32 2.16699 -60.5 6.5 -85.5s12 -46 23 -63s25.833 -29.833 44.5 -38.5
s42.667 -13 72 -13h80v-109h-195z" />
    <glyph glyph-name="bar" unicode="|" 
d="M645 -492h-147v2048h147v-2048z" />
    <glyph glyph-name="braceright" unicode="}" horiz-adv-x="905" 
d="M61 -256l-0.00195312 108.996h80c29.333 0 53.333 4.33301 72 13s33.5 21.5 44.5 38.5s18.667 38 23 63s6.5 53.5 6.5 85.5v350c0 62 17.833 113 53.5 153s92.834 69.667 171.501 89v17c-79.333 18 -136.666 46.833 -171.999 86.5s-53 90.5 -53 152.5v348
c0 32 -2.16699 60.5 -6.5 85.5s-12 45.833 -23 62.5s-25.833 29.334 -44.5 38.001s-42.667 13 -72 13h-80v108h195c115.333 0 202.5 -25.833 261.5 -77.5s88.5 -125.5 88.5 -221.5v-352c0 -38 6.16699 -69.167 18.5 -93.5s29.166 -43.5 50.499 -57.5s46.5 -23.667 75.5 -29
s60.167 -8.66602 93.5 -9.99902v-125c-33.333 -1.33301 -64.5 -4.83301 -93.5 -10.5s-54.167 -15.5 -75.5 -29.5s-38.166 -33.167 -50.499 -57.5s-18.5 -56.166 -18.5 -95.499v-350c0 -46.667 -7.5 -88.667 -22.5 -126s-37.167 -69.166 -66.5 -95.499
s-65.833 -46.5 -109.5 -60.5s-94.167 -21 -151.5 -21h-195z" />
    <glyph glyph-name="asciitilde" unicode="~" horiz-adv-x="1149" 
d="M541 664c-24.667 10.667 -46.3359 19.4971 -65.0029 26.4971s-35.5 12.667 -50.5 17s-29.333 7.33301 -43 9s-27.834 2.5 -42.501 2.5c-18.667 0 -38 -3.16699 -58 -9.5s-39.833 -14.833 -59.5 -25.5s-38.834 -23.334 -57.501 -38.001s-36 -30.667 -52 -48v158
c66 72 148.333 108 247 108c19.333 0 37.333 -0.833008 54 -2.5s34.167 -4.66699 52.5 -9s38.666 -10.666 60.999 -18.999s49.166 -19.166 80.499 -32.499c24.667 -10.667 46.334 -19.667 65.001 -27s35.667 -13.166 51 -17.499s29.833 -7.33301 43.5 -9
s27.5 -2.5 41.5 -2.5c19.333 0 38.833 3.16699 58.5 9.5s39.334 15 59.001 26s38.834 23.833 57.501 38.5s36 30.334 52 47.001v-157c-65.333 -72.667 -148 -109 -248 -109c-19.333 0 -37.166 0.833008 -53.499 2.5s-33.666 4.83398 -51.999 9.50098
s-38.666 11.167 -60.999 19.5s-49.166 19.166 -80.499 32.499z" />
    <glyph glyph-name="nonbreakingspace" unicode="&#xa0;" horiz-adv-x="532" 
 />
    <glyph glyph-name="exclamdown" unicode="&#xa1;" horiz-adv-x="782" 
d="M569 -369h-356l121 996h115zM557 946c0 -31.333 -4.33301 -57.5 -13 -78.5s-20.5 -37.833 -35.5 -50.5s-32.833 -21.667 -53.5 -27s-42.667 -8 -66 -8c-22.667 0 -44.167 2.66699 -64.5 8s-38.166 14.333 -53.499 27s-27.5 29.5 -36.5 50.5s-13.5 47.167 -13.5 78.5
c0 30.667 4.5 56.5 13.5 77.5s21.167 37.833 36.5 50.5s33.166 21.834 53.499 27.501s41.833 8.5 64.5 8.5c23.333 0 45.333 -2.83301 66 -8.5s38.5 -14.834 53.5 -27.501s26.833 -29.5 35.5 -50.5s13 -46.833 13 -77.5z" />
    <glyph glyph-name="cent" unicode="&#xa2;" 
d="M571 170c-68.667 4.66699 -130.829 18.498 -186.496 41.498s-103.334 56.833 -143.001 101.5s-70.334 101.5 -92.001 170.5s-32.5 152.167 -32.5 249.5c0 102 11.333 188.5 34 259.5s54.167 129.167 94.5 174.5s88.333 79.333 144 102s116.167 36.667 181.5 42v151h127
v-151c58.667 -3.33301 110.667 -11.166 156 -23.499s83.333 -28 114 -47s53.834 -40.667 69.501 -65s23.5 -50.166 23.5 -77.499c0 -22 -3.83301 -43.5 -11.5 -64.5s-21.334 -39.5 -41.001 -55.5s-46.5 -29 -80.5 -39s-77.667 -15 -131 -15c0 28.667 -1.66699 56.667 -5 84
s-8.83301 52.333 -16.5 75s-17.834 42.167 -30.501 58.5s-28.334 28.5 -47.001 36.5v-856c34.667 0.666992 67.167 5.5 97.5 14.5s58 20.667 83 35s47 31.333 66 51s34.5 41.167 46.5 64.5c17.333 -10 30.166 -23.5 38.499 -40.5s12.5 -34.833 12.5 -53.5
c0 -23.333 -6.83301 -47.333 -20.5 -72s-34.5 -47.5 -62.5 -68.5s-63.667 -39 -107 -54s-94.666 -24.5 -153.999 -28.5v-170h-127v170zM430.005 734.998c0 -105.333 11.166 -190.332 33.499 -254.999s58.166 -109.334 107.499 -134.001v828c-22 -10 -41.667 -25.5 -59 -46.5
s-32.166 -49 -44.499 -84s-21.666 -77.833 -27.999 -128.5s-9.5 -110.667 -9.5 -180z" />
    <glyph glyph-name="sterling" unicode="&#xa3;" 
d="M553 711l12.499 -42.5c3.66699 -13 6.83398 -26 9.50098 -39s4.83398 -26.333 6.50098 -40s2.5 -29.167 2.5 -46.5c0 -107.333 -61.667 -201 -185 -281l7 -10c4 1.33301 10.167 3 18.5 5s18 4 29 6s22.833 3.66699 35.5 5s25 2 37 2c14 0 27.333 -0.833008 40 -2.5
s25.834 -4.33398 39.501 -8.00098s28.667 -8 45 -13l56.5 -17.5c30 -9.33301 57.167 -16.666 81.5 -21.999s51.5 -8 81.5 -8c46.667 0 87.5 13.833 122.5 41.5s65.833 64.167 92.5 109.5v-229c-26.667 -47.333 -59.334 -82.666 -98.001 -105.999s-85 -35 -139 -35
c-20.667 0 -42.167 1.33301 -64.5 4s-44.166 6 -65.499 10s-41.833 8.66699 -61.5 14s-37.167 11 -52.5 17c-33.333 11.333 -68.5 21.666 -105.5 30.999s-69.5 14 -97.5 14c-23.333 0 -45.166 -1.5 -65.499 -4.5s-39.833 -7.16699 -58.5 -12.5
s-36.834 -11.833 -54.501 -19.5s-35.834 -16.167 -54.501 -25.5l-90 -47v184l65 41c21.333 13.333 43 29.333 65 48s42 40.834 60 66.501s32.833 55 44.5 88s17.5 70.167 17.5 111.5c0 39.333 -4.16699 75.166 -12.5 107.499s-19.166 66.166 -32.499 101.499h-236v125h191
c-7.33301 16.667 -14.833 35.667 -22.5 57s-14.834 44 -21.501 68s-12 49 -16 75s-6 52 -6 78c0 120 39 211.833 117 275.5s190.667 95.5 338 95.5c73.333 0 135.666 -6.16699 186.999 -18.5s93.166 -29.166 125.499 -50.499s55.833 -46.5 70.5 -75.5s22 -60.167 22 -93.5
c0 -48 -21.667 -87.667 -65 -119s-107 -47 -191 -47c0 31.333 -2.33301 63.5 -7 96.5s-13 63 -25 90s-28.667 49.167 -50 66.5s-48.666 26 -81.999 26c-51.333 0 -92.166 -19.5 -122.499 -58.5s-45.5 -98.833 -45.5 -179.5c0 -28 2.16699 -55.5 6.5 -82.5
s9.66602 -52.833 15.999 -77.5s13.5 -47.667 21.5 -69s16 -40.333 24 -57h363v-125z" />
    <glyph glyph-name="currency" unicode="&#xa4;" 
d="M195 729c0 39.333 5.49902 77.167 16.499 113.5s27.167 69.5 48.5 99.5l-123 123l103 102l122 -123c30 19.333 62.333 34.5 97 45.5s71.334 16.5 110.001 16.5c38 0 74.5 -5.5 109.5 -16.5s67.5 -26.833 97.5 -47.5l127 127l103 -104l-125 -127
c20.667 -30 36.667 -62.5 48 -97.5s17 -72.167 17 -111.5s-5.33301 -76.166 -16 -110.499s-25.667 -66.5 -45 -96.5l121 -121l-103 -102l-121 121c-30.667 -20.667 -64 -36.834 -100 -48.501s-73.667 -17.5 -113 -17.5c-38.667 0 -76 5.5 -112 16.5s-69 26.833 -99 47.5
l-118 -119l-105 104l119 119c-39.333 60.667 -59 129.667 -59 207zM333.999 729.001c0 -32.667 6.16699 -63.334 18.5 -92.001s29 -53.834 50 -75.501s45.833 -38.667 74.5 -51s59.334 -18.5 92.001 -18.5c34 0 65.5 6.16699 94.5 18.5s54 29.333 75 51
s37.333 46.834 49 75.501s17.5 59.334 17.5 92.001c0 34 -5.83301 65.5 -17.5 94.5s-28 54.333 -49 76s-46 38.667 -75 51s-60.5 18.5 -94.5 18.5c-32.667 0 -63.334 -6.16699 -92.001 -18.5s-53.5 -29.333 -74.5 -51s-37.667 -47 -50 -76s-18.5 -60.5 -18.5 -94.5z" />
    <glyph glyph-name="yen" unicode="&#xa5;" horiz-adv-x="1104" 
d="M195 0l-0.00292969 109.001h47c22.667 0 44 0.333008 64 1s37.5 4.5 52.5 11.5s27.167 18.5 36.5 34.5s14.333 39 15 69v113h-287v121h287v119h-287v120h252l-242 547c-9.33301 20.667 -18.166 38 -26.499 52s-17.5 25.167 -27.5 33.5s-21.333 14.333 -34 18
s-27.667 5.5 -45 5.5h-6v108h586v-108h-15c-41.333 0 -71 -6.33301 -89 -19s-27 -33 -27 -61c0 -16.667 2.83301 -34.834 8.5 -54.501s13.5 -41.834 23.5 -66.501l78 -195c17.333 -43.333 32.333 -85 45 -125s21.667 -74 27 -102c4 18.667 11 41 21 67l32 83l86 225
c8.66699 23.333 15.667 43.333 21 60s9.5 31.5 12.5 44.5s5 24.333 6 34s1.5 18.834 1.5 27.501c0 28 -9.5 48.667 -28.5 62s-51.167 20 -96.5 20h-6v108h426v-108h-6c-17.333 0 -32.666 -2.33301 -45.999 -7s-25.833 -13 -37.5 -25s-23.167 -28.333 -34.5 -49
s-24 -47 -38 -79l-211 -496h268v-120h-286v-119h286v-121h-286v-102c0 -32.667 4.5 -57.667 13.5 -75s21 -29.833 36 -37.5s32.833 -12 53.5 -13s42.334 -1.5 65.001 -1.5h47v-109h-735z" />
    <glyph glyph-name="brokenbar" unicode="&#xa6;" 
d="M645 737h-147v819h147v-819zM645 -492h-147v820h147v-820z" />
    <glyph glyph-name="section" unicode="&#xa7;" horiz-adv-x="1114" 
d="M565 -231c-76.667 0 -140.504 7.83203 -191.504 23.499s-91.667 36 -122 61s-51.833 53 -64.5 84s-19 62.167 -19 93.5c0 26.667 4.5 50 13.5 70s21.5 36.833 37.5 50.5s35.167 24 57.5 31s46.833 10.5 73.5 10.5c0 -45.333 5.16699 -87.166 15.5 -125.499
s25.5 -71.5 45.5 -99.5s45.167 -49.833 75.5 -65.5s65.5 -23.5 105.5 -23.5c66 0 117.333 18 154 54s55 84.333 55 145c0 28 -4.16699 52.833 -12.5 74.5s-25 43.667 -50 66s-60.5 46.666 -106.5 72.999s-107 58.166 -183 95.499c-56.667 28 -105.167 56.333 -145.5 85
s-73 58.5 -98 89.5s-43.333 63.667 -55 98s-17.5 71.833 -17.5 112.5c0 46 12.333 87.5 37 124.5s56.667 65.833 96 86.5c-23.333 24.667 -43.833 57.5 -61.5 98.5s-26.5 89.5 -26.5 145.5c0 52 10 98.5 30 139.5s48 75.5 84 103.5s78.667 49.333 128 64s103.333 22 162 22
c60 0 112.833 -5.83301 158.5 -17.5s83.834 -27.834 114.501 -48.501s53.834 -45.167 69.501 -73.5s23.5 -59.5 23.5 -93.5c0 -42 -16.667 -77 -50 -105s-81.333 -42 -144 -42c0 30 -2.66699 60.833 -8 92.5s-14.833 60.5 -28.5 86.5s-32.167 47.333 -55.5 64s-53 25 -89 25
c-57.333 0 -103.333 -16.667 -138 -50s-52 -81 -52 -143c0 -32.667 5.5 -60.167 16.5 -82.5s27 -42.166 48 -59.499s46.5 -33.666 76.5 -48.999s64.333 -32 103 -50c72 -34.667 133.833 -67.334 185.5 -98.001s94 -62 127 -94s57.333 -65.667 73 -101s23.5 -75 23.5 -119
c0 -24.667 -3.5 -49 -10.5 -73s-16.333 -46.667 -28 -68s-25.5 -40.666 -41.5 -57.999s-33 -31.666 -51 -42.999c22.667 -28.667 40.334 -62.334 53.001 -101.001s19 -78 19 -118c0 -54 -8.66699 -103.667 -26 -149s-43.166 -84.166 -77.499 -116.499
s-77.333 -57.5 -129 -75.5s-111.5 -27 -179.5 -27zM835.996 525.999c0 23.333 -3.66602 45.3311 -10.999 65.998s-20.333 41.5 -39 62.5s-44.167 42.333 -76.5 64s-73.5 44.834 -123.5 69.501l-128 62.5c-40 20.333 -76.667 41.833 -110 64.5
c-10 -11.333 -18 -24.833 -24 -40.5s-9 -32.167 -9 -49.5c0 -28 4.83301 -53 14.5 -75s25.667 -43.167 48 -63.5s52 -41 89 -62s82.833 -44.833 137.5 -71.5l115.5 -60.5c33 -17.667 62.833 -35.834 89.5 -54.501c7.33301 10.667 13.666 23.334 18.999 38.001
s8 31.334 8 50.001z" />
    <glyph glyph-name="dieresis" unicode="&#xa8;" horiz-adv-x="1182" 
d="M258 1409c0 23.333 3.33301 43.166 10 59.499s15.5 29.5 26.5 39.5s23.833 17.167 38.5 21.5s30 6.5 46 6.5s31.333 -2.16699 46 -6.5s27.667 -11.5 39 -21.5s20.5 -23.167 27.5 -39.5s10.5 -36.166 10.5 -59.499c0 -22.667 -3.5 -42.167 -10.5 -58.5
s-16.167 -29.5 -27.5 -39.5s-24.333 -17.333 -39 -22s-30 -7 -46 -7s-31.333 2.33301 -46 7s-27.5 12 -38.5 22s-19.833 23.167 -26.5 39.5s-10 35.833 -10 58.5zM678 1409c0 23.333 3.33301 43.166 10 59.499s15.667 29.5 27 39.5s24.333 17.167 39 21.5
s30.334 6.5 47.001 6.5c15.333 0 30.166 -2.16699 44.499 -6.5s27.166 -11.5 38.499 -21.5s20.5 -23.167 27.5 -39.5s10.5 -36.166 10.5 -59.499c0 -22.667 -3.5 -42.167 -10.5 -58.5s-16.167 -29.5 -27.5 -39.5s-24.166 -17.333 -38.499 -22s-29.166 -7 -44.499 -7
c-16.667 0 -32.334 2.33301 -47.001 7s-27.667 12 -39 22s-20.333 23.167 -27 39.5s-10 35.833 -10 58.5z" />
    <glyph glyph-name="copyright" unicode="&#xa9;" horiz-adv-x="1731" 
d="M113 731c0 69.333 9 136.166 27 200.499s43.167 124.333 75.5 180s71.333 106.5 117 152.5s96.334 85.333 152.001 118s115.5 58 179.5 76s130.667 27 200 27s136.166 -9 200.499 -27s124.333 -43.333 180 -76s106.5 -72 152.5 -118s85.333 -96.833 118 -152.5
s58 -115.667 76 -180s27 -131.166 27 -200.499s-9 -136 -27 -200s-43.333 -123.833 -76 -179.5s-72 -106.334 -118 -152.001s-96.833 -84.834 -152.5 -117.501s-115.667 -57.834 -180 -75.501s-131.166 -26.5 -200.499 -26.5s-136 8.83301 -200 26.5
s-123.833 42.834 -179.5 75.501s-106.334 71.834 -152.001 117.501s-84.667 96.334 -117 152.001s-57.5 115.5 -75.5 179.5s-27 130.667 -27 200zM225 731c0 -58.667 7.66699 -115.17 23 -169.503s36.833 -105.166 64.5 -152.499s61 -90.5 100 -129.5
s82.167 -72.333 129.5 -100s98.166 -49.167 152.499 -64.5s110.833 -23 169.5 -23c59.333 0 116.333 7.66699 171 23s105.667 36.833 153 64.5s90.5 61 129.5 100s72.333 82.167 100 129.5s49.167 98.166 64.5 152.499s23 110.833 23 169.5s-7.66699 115.334 -23 170.001
s-36.833 105.834 -64.5 153.501s-61 91 -100 130s-82.167 72.333 -129.5 100s-98.333 49.167 -153 64.5s-111.667 23 -171 23c-58.667 0 -115.167 -7.66699 -169.5 -23s-105.166 -36.833 -152.499 -64.5s-90.5 -61 -129.5 -100s-72.333 -82.333 -100 -130
s-49.167 -98.667 -64.5 -153s-23 -111.166 -23 -170.499zM901 364.997c31.333 0 60.3301 3.99805 86.9971 11.998s50.667 18.667 72 32s39.833 28.333 55.5 45s28.167 33.334 37.5 50.001c8 -6 14.833 -14.5 20.5 -25.5s8.5 -23.833 8.5 -38.5
c0 -18.667 -6.5 -37.667 -19.5 -57s-32.333 -37 -58 -53s-57.667 -29 -96 -39s-83.166 -15 -134.499 -15c-68 0 -127.5 11 -178.5 33s-93.667 53 -128 93s-60 88 -77 144s-25.5 118.333 -25.5 187c0 66.667 9.33301 127.667 28 183s46.5 103 83.5 143
s82.667 71.167 137 93.5s117.5 33.5 189.5 33.5c47.333 0 88.5 -3.83301 123.5 -11.5s64.167 -18 87.5 -31s40.833 -28.333 52.5 -46s17.5 -36.834 17.5 -57.501c0 -14.667 -3.66699 -28 -11 -40s-17.333 -22.167 -30 -30.5s-27.5 -14.666 -44.5 -18.999
s-35.167 -6.5 -54.5 -6.5c0 19.333 -2.5 38.166 -7.5 56.499s-13.167 35 -24.5 50s-26.166 27 -44.499 36s-41.166 13.5 -68.499 13.5c-48 0 -88.833 -8 -122.5 -24s-61.167 -39.667 -82.5 -71s-36.833 -69.666 -46.5 -114.999s-14.5 -97.666 -14.5 -156.999
c0 -118 23 -208.833 69 -272.5s112.333 -95.5 199 -95.5z" />
    <glyph glyph-name="ordfeminine" unicode="&#xaa;" horiz-adv-x="860" 
d="M295 991c0 -36 7.66895 -61.332 23.002 -75.999s33.666 -22 54.999 -22c42 0 73.333 13.167 94 39.5s31 60.166 31 101.499v84l-47 -2c-56.667 -2 -96.834 -13.5 -120.501 -34.5s-35.5 -51.167 -35.5 -90.5zM416.002 1384c-16.667 0 -29.998 -3.16211 -39.998 -9.49512
s-17.833 -15.333 -23.5 -27s-9.5 -25.167 -11.5 -40.5s-3 -32 -3 -50c-70.667 0 -125.5 6.83301 -164.5 20.5s-58.5 36.5 -58.5 68.5c0 23.333 8 43 24 59s37.833 29 65.5 39s60 17.333 97 22s76.5 7 118.5 7c103.333 0 180.666 -16.167 231.999 -48.5
s77 -87.166 77 -164.499v-302c0 -30 6.5 -50.333 19.5 -61s35.833 -16 68.5 -16v-90h-239l-50 100h-14c-12 -14.667 -25.667 -28.834 -41 -42.501s-32.5 -25.834 -51.5 -36.501s-40 -19 -63 -25s-48.167 -9 -75.5 -9c-69.333 0 -124 17.667 -164 53s-60 87.333 -60 156
c0 68 28.667 118.167 86 150.5s144.333 51.166 261 56.499l92 4v55c0 19.333 -1 37.166 -3 53.499s-5.83301 30.166 -11.5 41.499s-13.834 20.166 -24.501 26.499s-25 9.5 -43 9.5z" />
    <glyph glyph-name="guillemotleft" unicode="&#xab;" horiz-adv-x="1135" 
d="M133 606l313 357h144l-207 -410l207 -410h-144l-313 357v106zM545 606l313 357h143l-206 -410l206 -410h-143l-313 357v106z" />
    <glyph glyph-name="logicalnot" unicode="&#xac;" 
d="M1012 805v-512h-148v366h-731v146h879z" />
    <glyph glyph-name="uni00AD" unicode="&#xad;" horiz-adv-x="635" 
d="M51 451v215h533v-215h-533z" />
    <glyph glyph-name="registered" unicode="&#xae;" horiz-adv-x="1731" 
d="M477 358h26.9971c13.333 0 26 0.833008 38 2.5s22.667 5 32 10s16.666 12.167 21.999 21.5s8 22 8 38v600c0 16 -2.66699 28.833 -8 38.5s-12.666 17 -21.999 22s-20 8.16699 -32 9.5s-24.667 2 -38 2h-27v72h369c234.667 0 352 -81.333 352 -244
c0 -32.667 -5.33301 -61.334 -16 -86.001s-24.667 -46 -42 -64s-37.166 -33.167 -59.499 -45.5s-45.166 -22.166 -68.499 -29.499l182 -293c6.66699 -11.333 13.167 -20.5 19.5 -27.5s13.833 -12.5 22.5 -16.5s18.834 -6.66699 30.501 -8s25.834 -2 42.501 -2v-69h-217
l-226 381h-108v-240c1.33301 -16 4.66602 -28.667 9.99902 -38s12.5 -16.5 21.5 -21.5s19.333 -8.33301 31 -10s24.167 -2.5 37.5 -2.5h29v-69h-410v69zM757.997 748l85.998 -0.00195312c36.667 0 67.334 3.66699 92.001 11s44.334 18.333 59.001 33
s25.167 33.334 31.5 56.001s9.5 49.334 9.5 80.001c0 30 -3.66699 55.667 -11 77s-18.833 38.5 -34.5 51.5s-36 22.5 -61 28.5s-55.5 9 -91.5 9h-80v-346zM112.995 730.998c0 69.333 9 136.166 27 200.499s43.167 124.333 75.5 180s71.333 106.5 117 152.5
s96.334 85.333 152.001 118s115.5 58 179.5 76s130.667 27 200 27s136.166 -9 200.499 -27s124.333 -43.333 180 -76s106.5 -72 152.5 -118s85.333 -96.833 118 -152.5s58 -115.667 76 -180s27 -131.166 27 -200.499s-9 -136 -27 -200s-43.333 -123.833 -76 -179.5
s-72 -106.334 -118 -152.001s-96.833 -84.834 -152.5 -117.501s-115.667 -57.834 -180 -75.501s-131.166 -26.5 -200.499 -26.5s-136 8.83301 -200 26.5s-123.833 42.834 -179.5 75.501s-106.334 71.834 -152.001 117.501s-84.667 96.334 -117 152.001
s-57.5 115.5 -75.5 179.5s-27 130.667 -27 200zM224.995 730.998c0 -58.667 7.66699 -115.17 23 -169.503s36.833 -105.166 64.5 -152.499s61 -90.5 100 -129.5s82.167 -72.333 129.5 -100s98.166 -49.167 152.499 -64.5s110.833 -23 169.5 -23
c59.333 0 116.333 7.66699 171 23s105.667 36.833 153 64.5s90.5 61 129.5 100s72.333 82.167 100 129.5s49.167 98.166 64.5 152.499s23 110.833 23 169.5s-7.66699 115.334 -23 170.001s-36.833 105.834 -64.5 153.501s-61 91 -100 130s-82.167 72.333 -129.5 100
s-98.333 49.167 -153 64.5s-111.667 23 -171 23c-58.667 0 -115.167 -7.66699 -169.5 -23s-105.166 -36.833 -152.499 -64.5s-90.5 -61 -129.5 -100s-72.333 -82.333 -100 -130s-49.167 -98.667 -64.5 -153s-23 -111.166 -23 -170.499z" />
    <glyph glyph-name="overscore" unicode="&#xaf;" horiz-adv-x="940" 
d="M950 1556h-960v121h960v-121z" />
    <glyph glyph-name="degree" unicode="&#xb0;" horiz-adv-x="819" 
d="M98 1151c0 43.333 8.16699 83.833 24.5 121.5s38.5 70.5 66.5 98.5s60.833 50.167 98.5 66.5s77.834 24.5 120.501 24.5c43.333 0 83.833 -8.16699 121.5 -24.5s70.5 -38.5 98.5 -66.5s50.167 -60.833 66.5 -98.5s24.5 -78.167 24.5 -121.5
c0 -42.667 -8.16699 -82.834 -24.5 -120.501s-38.5 -70.5 -66.5 -98.5s-60.833 -50 -98.5 -66s-78.167 -24 -121.5 -24c-42.667 0 -82.834 8 -120.501 24s-70.5 38 -98.5 66s-50.167 60.833 -66.5 98.5s-24.5 77.834 -24.5 120.501zM240 1151
c0 -22.667 4.33301 -44.334 13 -65.001s20.667 -38.834 36 -54.501s33.166 -28 53.499 -37s42.166 -13.5 65.499 -13.5c24 0 46.333 4.5 67 13.5s38.667 21.333 54 37s27.333 33.834 36 54.501s13 42.334 13 65.001c0 24 -4.33301 46.5 -13 67.5s-20.667 39.167 -36 54.5
s-33.333 27.5 -54 36.5s-43 13.5 -67 13.5c-23.333 0 -45.166 -4.5 -65.499 -13.5s-38.166 -21.167 -53.499 -36.5s-27.333 -33.5 -36 -54.5s-13 -43.5 -13 -67.5z" />
    <glyph glyph-name="plusminus" unicode="&#xb1;" 
d="M1012 0h-879v145h879v-145zM645 659v-366h-147v366h-365v146h365v366h147v-366h367v-146h-367z" />
    <glyph glyph-name="twosuperior" unicode="&#xb2;" horiz-adv-x="819" 
d="M698 1264c0 -30 -4.16992 -58.3389 -12.5029 -85.0059s-23.5 -54.667 -45.5 -84s-52.167 -61.333 -90.5 -96s-87.166 -75.334 -146.499 -122.001l-167 -132h327c29.333 0 50 6.5 62 19.5s20 29.167 24 48.5l10 55h76l-8 -282h-651v147l225 189
c35.333 29.333 64.5 57.833 87.5 85.5s41.167 54.834 54.5 81.501s22.666 53.334 27.999 80.001s8 54 8 82c0 44 -7.16699 78.333 -21.5 103s-39.166 37 -74.499 37c-23.333 0 -42 -6.16699 -56 -18.5s-24.833 -28.166 -32.5 -47.499s-12.667 -41.166 -15 -65.499
s-3.5 -48.166 -3.5 -71.499c-22.667 0 -45 2.33301 -67 7s-41.667 11.834 -59 21.501s-31.333 22.334 -42 38.001s-16 34.5 -16 56.5c0 24.667 6.33301 47.5 19 68.5s31.334 39.167 56.001 54.5s55.167 27.333 91.5 36s77.833 13 124.5 13
c55.333 0 102.833 -5.16699 142.5 -15.5s72.334 -25 98.001 -44s44.5 -42 56.5 -69s18 -57.167 18 -90.5z" />
    <glyph glyph-name="threesuperior" unicode="&#xb3;" horiz-adv-x="819" 
d="M479 1260c0 42 -7.16797 74.3389 -21.501 97.0059s-39.166 34 -74.499 34c-21.333 0 -39.166 -4.83301 -53.499 -14.5s-25.666 -22.834 -33.999 -39.501s-14.333 -35.667 -18 -57s-5.5 -44 -5.5 -68c-27.333 0 -52 1.33301 -74 4s-40.667 7.16699 -56 13.5
s-27.166 15.166 -35.499 26.499s-12.5 26 -12.5 44c0 25.333 6.33301 49.166 19 71.499s31.334 41.666 56.001 57.999s55.334 29.333 92.001 39s78.667 14.5 126 14.5s90 -4.66699 128 -14s70.667 -22.666 98 -39.999s48.333 -38.5 63 -63.5s22 -53.5 22 -85.5
c0 -60 -18.667 -108.833 -56 -146.5s-88.333 -64.5 -153 -80.5v-11c30.667 -4.66699 60.667 -10.667 90 -18s55.333 -18.333 78 -33s41 -33.834 55 -57.501s21 -54.167 21 -91.5c0 -50 -12.667 -92.167 -38 -126.5s-57.5 -62 -96.5 -83s-81.667 -36.167 -128 -45.5
s-90.5 -14 -132.5 -14c-56 0 -106.333 5 -151 15s-80.334 21.667 -107.001 35v106c14.667 -6 31.334 -12 50.001 -18s38.167 -11.5 58.5 -16.5s41.166 -9 62.499 -12s42 -4.5 62 -4.5c65.333 0 116.166 13.167 152.499 39.5s54.5 69.166 54.5 128.499
c0 46 -18.5 81.333 -55.5 106s-92.833 37 -167.5 37h-68v96h68c25.333 0 49.166 4.16699 71.499 12.5s41.666 20.166 57.999 35.499s29.166 33.833 38.499 55.5s14 45.5 14 71.5z" />
    <glyph glyph-name="acute" unicode="&#xb4;" horiz-adv-x="1182" 
d="M330 1268l49.499 67.001l55.5 78.5c18.667 27 36.167 54 52.5 81s29.833 51.833 40.5 74.5h322v-21c-12.667 -18 -33.667 -40.5 -63 -67.5s-62.166 -55.167 -98.499 -84.5s-74 -57.833 -113 -85.5s-74.5 -50.834 -106.5 -69.501h-139v27z" />
    <glyph glyph-name="mu" unicode="&#xb5;" horiz-adv-x="1362" 
d="M573 -20c-56.667 0 -105.004 10.502 -145.004 31.502s-73.333 50.5 -100 88.5c0 -56.667 2.33301 -109 7 -157s14.667 -90 30 -126s37.5 -65.167 66.5 -87.5s67.5 -36.5 115.5 -42.5c0 -26 -4.33301 -49.833 -13 -71.5s-21.167 -40.5 -37.5 -56.5
s-36.166 -28.5 -59.499 -37.5s-49.666 -13.5 -78.999 -13.5c-25.333 0 -49.666 4.66699 -72.999 14s-43.833 24.5 -61.5 45.5s-31.667 48.667 -42 83s-15.5 76.5 -15.5 126.5c0 40.667 1 83.167 3 127.5s4.5 93.5 7.5 147.5s5.83301 114.333 8.5 181
s4.33398 142.667 5.00098 228v637h312v-676c0 -36.667 2.5 -71.334 7.5 -104.001s13.333 -61.167 25 -85.5s27.5 -43.5 47.5 -57.5s45 -21 75 -21c28.667 0 54.5 7.66699 77.5 23s42.667 36.833 59 64.5s28.833 61 37.5 100s13 82.167 13 129.5v627h311v-815
c0 -62.667 11.333 -107.334 34 -134.001s57.667 -40 105 -40h15v-109h-179c-70 -0 -127.5 16.333 -172.5 49s-76.167 75.667 -93.5 129h-10c-16 -30 -32.833 -57.333 -50.5 -82s-37.5 -45.5 -59.5 -62.5s-47 -30.167 -75 -39.5s-60 -14 -96 -14z" />
    <glyph glyph-name="paragraph" unicode="&#xb6;" horiz-adv-x="1284" 
d="M860 1430l-171.998 -0.00195312v-1657h-342v108h27c23.333 0 45.166 1.5 65.499 4.5s38 9.66699 53 20s27 25.166 36 44.499s13.5 45 13.5 77v764h-146c-60 0 -110 10.833 -150 32.5s-72 51 -96 88s-41.167 79.667 -51.5 128s-15.5 99.166 -15.5 152.499
c0 54.667 5.66699 104.334 17 149.001s29.666 83 54.999 115s58 56.667 98 74s89 26 147 26h803v-108h-26c-23.333 0 -45.166 -1.66699 -65.499 -5s-38.166 -10.166 -53.499 -20.499s-27.333 -25.166 -36 -44.499s-13 -45.333 -13 -78v-1273c0 -32 4.33301 -57.667 13 -77
s20.667 -34.166 36 -44.499s33.166 -17 53.499 -20s42.166 -4.5 65.499 -4.5h26v-108h-342v1657z" />
    <glyph glyph-name="periodcentered" unicode="&#xb7;" horiz-adv-x="623" 
d="M143 727c0 31.333 4.33301 57.5 13 78.5s20.5 37.833 35.5 50.5s32.833 21.667 53.5 27s42.667 8 66 8c22.667 0 44.167 -2.66699 64.5 -8s38.166 -14.333 53.499 -27s27.5 -29.5 36.5 -50.5s13.5 -47.167 13.5 -78.5c0 -30.667 -4.5 -56.5 -13.5 -77.5
s-21.167 -37.833 -36.5 -50.5s-33.166 -21.834 -53.499 -27.501s-41.833 -8.5 -64.5 -8.5c-23.333 0 -45.333 2.83301 -66 8.5s-38.5 14.834 -53.5 27.501s-26.833 29.5 -35.5 50.5s-13 46.833 -13 77.5z" />
    <glyph glyph-name="cedilla" unicode="&#xb8;" horiz-adv-x="682" 
d="M571 -258c0 -36 -7.00098 -68.501 -21.001 -97.501s-33.667 -53.667 -59 -74s-55.833 -35.833 -91.5 -46.5s-75.167 -16 -118.5 -16c-10.667 0 -23.667 0.5 -39 1.5s-31.333 2.5 -48 4.5s-33 4.5 -49 7.5s-30.333 6.16699 -43 9.5v125
c25.333 -5.33301 50.333 -9.33301 75 -12s46.334 -4 65.001 -4c38.667 0 69.167 6.83301 91.5 20.5s33.5 38.167 33.5 73.5c0 20 -3.83301 36.333 -11.5 49s-18.5 22.834 -32.5 30.501s-30.333 13.334 -49 17.001s-39 6.16699 -61 7.5l43 180h117l-21 -88
c33.333 -2.66699 63.5 -8.83398 90.5 -18.501s50 -22.5 69 -38.5s33.667 -35.167 44 -57.5s15.5 -46.833 15.5 -73.5z" />
    <glyph glyph-name="onesuperior" unicode="&#xb9;" horiz-adv-x="819" 
d="M528 1473l-0.00292969 -717c0 -17.333 2.5 -31.166 7.5 -41.499s11.833 -18.166 20.5 -23.499s18.834 -8.83301 30.501 -10.5s23.834 -2.5 36.501 -2.5h84v-90h-578v90h104c13.333 0 25.5 0.833008 36.5 2.5s20.833 5.16699 29.5 10.5s15.334 13.166 20.001 23.499
s7 24.166 7 41.499v581c-32 -38 -60.5 -68.667 -85.5 -92s-49.833 -35 -74.5 -35c-19.333 0 -35.833 9.83301 -49.5 29.5s-20.5 43.5 -20.5 71.5c24.667 6 52.167 15.833 82.5 29.5s65.833 35.167 106.5 64.5l92 68h151z" />
    <glyph glyph-name="ordmasculine" unicode="&#xba;" horiz-adv-x="895" 
d="M311 1126c0 -80.667 10.168 -141.667 30.501 -183s56.166 -62 107.499 -62c50 0 85.333 20.667 106 62s31 102.333 31 183s-10.667 140.834 -32 180.501s-57.333 59.5 -108 59.5c-50 0 -85 -19.833 -105 -59.5s-30 -99.834 -30 -180.501zM823.001 1126
c0 -117.333 -31.833 -204.668 -95.5 -262.001s-157.5 -86 -281.5 -86c-118.667 0 -210.667 28.833 -276 86.5s-98 144.834 -98 261.501c0 117.333 32 204.5 96 261.5s158.333 85.5 283 85.5c57.333 0 109 -7.16699 155 -21.5s85 -35.833 117 -64.5s56.667 -64.667 74 -108
s26 -94.333 26 -153z" />
    <glyph glyph-name="guillemotright" unicode="&#xbb;" horiz-adv-x="1135" 
d="M1001 500l-313 -357h-143l207 410l-207 410h143l313 -357v-106zM590 500l-314 -357h-143l207 410l-207 410h143l314 -357v-106z" />
    <glyph glyph-name="onequarter" unicode="&#xbc;" horiz-adv-x="1720" 
d="M443 1473l-0.00292969 -717c0 -17.333 2.5 -31.166 7.5 -41.499s11.833 -18.166 20.5 -23.499s18.834 -8.83301 30.501 -10.5s23.834 -2.5 36.501 -2.5h84v-90h-578v90h104c13.333 0 25.5 0.833008 36.5 2.5s20.833 5.16699 29.5 10.5s15.334 13.166 20.001 23.499
s7 24.166 7 41.499v581c-32 -38 -60.5 -68.667 -85.5 -92s-49.833 -35 -74.5 -35c-19.333 0 -35.833 9.83301 -49.5 29.5s-20.5 43.5 -20.5 71.5c24.667 6 52.167 15.833 82.5 29.5s65.833 35.167 106.5 64.5l92 68h151zM577.997 0h-160l731 1462h158zM1522 240v-71
c0 -17.333 2.33301 -31.166 7 -41.499s11 -18.166 19 -23.499s17.167 -8.83301 27.5 -10.5s21.166 -2.5 32.499 -2.5h41v-90h-471v90h57c11.333 0 22 0.833008 32 2.5s18.833 5.16699 26.5 10.5s13.834 13.166 18.501 23.499s7 24.166 7 41.499v71h-389v82l407 564h185v-537
h159v-109h-159zM1319 595c0 21.333 0.833008 42.5 2.5 63.5s4.16699 44.167 7.5 69.5c-5.33301 -11.333 -11 -22.5 -17 -33.5s-10.667 -19.167 -14 -24.5l-233 -321h254v246z" />
    <glyph glyph-name="onehalf" unicode="&#xbd;" horiz-adv-x="1720" 
d="M443 1473l-0.00292969 -717c0 -17.333 2.5 -31.166 7.5 -41.499s11.833 -18.166 20.5 -23.499s18.834 -8.83301 30.501 -10.5s23.834 -2.5 36.501 -2.5h84v-90h-578v90h104c13.333 0 25.5 0.833008 36.5 2.5s20.833 5.16699 29.5 10.5s15.334 13.166 20.001 23.499
s7 24.166 7 41.499v581c-32 -38 -60.5 -68.667 -85.5 -92s-49.833 -35 -74.5 -35c-19.333 0 -35.833 9.83301 -49.5 29.5s-20.5 43.5 -20.5 71.5c24.667 6 52.167 15.833 82.5 29.5s65.833 35.167 106.5 64.5l92 68h151zM536.997 0h-160l731 1462h158zM1628 679
c0 -30 -4.16992 -58.3389 -12.5029 -85.0059s-23.5 -54.667 -45.5 -84s-52.167 -61.333 -90.5 -96s-87.166 -75.334 -146.499 -122.001l-167 -132h327c29.333 0 50 6.5 62 19.5s20 29.167 24 48.5l10 55h76l-8 -282h-651v147l225 189c35.333 29.333 64.5 57.833 87.5 85.5
s41.167 54.834 54.5 81.501s22.666 53.334 27.999 80.001s8 54 8 82c0 44 -7.16699 78.333 -21.5 103s-39.166 37 -74.499 37c-23.333 0 -42 -6.16699 -56 -18.5s-24.833 -28.166 -32.5 -47.499s-12.667 -41.166 -15 -65.499s-3.5 -48.166 -3.5 -71.499
c-22.667 0 -45 2.33301 -67 7s-41.667 11.834 -59 21.501s-31.333 22.334 -42 38.001s-16 34.5 -16 56.5c0 24.667 6.33301 47.5 19 68.5s31.334 39.167 56.001 54.5s55.167 27.333 91.5 36s77.833 13 124.5 13c55.333 0 102.833 -5.16699 142.5 -15.5
s72.334 -25 98.001 -44s44.5 -42 56.5 -69s18 -57.167 18 -90.5z" />
    <glyph glyph-name="threequarters" unicode="&#xbe;" horiz-adv-x="1720" 
d="M479 1260c0 42 -7.16797 74.3389 -21.501 97.0059s-39.166 34 -74.499 34c-21.333 0 -39.166 -4.83301 -53.499 -14.5s-25.666 -22.834 -33.999 -39.501s-14.333 -35.667 -18 -57s-5.5 -44 -5.5 -68c-27.333 0 -52 1.33301 -74 4s-40.667 7.16699 -56 13.5
s-27.166 15.166 -35.499 26.499s-12.5 26 -12.5 44c0 25.333 6.33301 49.166 19 71.499s31.334 41.666 56.001 57.999s55.334 29.333 92.001 39s78.667 14.5 126 14.5s90 -4.66699 128 -14s70.667 -22.666 98 -39.999s48.333 -38.5 63 -63.5s22 -53.5 22 -85.5
c0 -60 -18.667 -108.833 -56 -146.5s-88.333 -64.5 -153 -80.5v-11c30.667 -4.66699 60.667 -10.667 90 -18s55.333 -18.333 78 -33s41 -33.834 55 -57.501s21 -54.167 21 -91.5c0 -50 -12.667 -92.167 -38 -126.5s-57.5 -62 -96.5 -83s-81.667 -36.167 -128 -45.5
s-90.5 -14 -132.5 -14c-56 0 -106.333 5 -151 15s-80.334 21.667 -107.001 35v106c14.667 -6 31.334 -12 50.001 -18s38.167 -11.5 58.5 -16.5s41.166 -9 62.499 -12s42 -4.5 62 -4.5c65.333 0 116.166 13.167 152.499 39.5s54.5 69.166 54.5 128.499
c0 46 -18.5 81.333 -55.5 106s-92.833 37 -167.5 37h-68v96h68c25.333 0 49.166 4.16699 71.499 12.5s41.666 20.166 57.999 35.499s29.166 33.833 38.499 55.5s14 45.5 14 71.5zM618.999 0.00585938h-160l731 1462h158zM1522 240.006v-71
c0 -17.333 2.33301 -31.166 7 -41.499s11 -18.166 19 -23.499s17.167 -8.83301 27.5 -10.5s21.166 -2.5 32.499 -2.5h41v-90h-471v90h57c11.333 0 22 0.833008 32 2.5s18.833 5.16699 26.5 10.5s13.834 13.166 18.501 23.499s7 24.166 7 41.499v71h-389v82l407 564h185v-537
h159v-109h-159zM1319 595.006c0 21.333 0.833008 42.5 2.5 63.5s4.16699 44.167 7.5 69.5c-5.33301 -11.333 -11 -22.5 -17 -33.5s-10.667 -19.167 -14 -24.5l-233 -321h254v246z" />
    <glyph glyph-name="questiondown" unicode="&#xbf;" horiz-adv-x="1126" 
d="M113 -14c0 54.667 8.49609 103.666 25.4961 146.999s42.333 83 76 119s76 69 127 99s110.5 59 178.5 87l41 187h125l41 -252c-58 -23.333 -105.833 -50.833 -143.5 -82.5s-67.167 -65.667 -88.5 -102s-36.166 -74.5 -44.499 -114.5s-12.5 -80.333 -12.5 -121
c0 -32.667 3 -62.5 9 -89.5s15.5 -50.333 28.5 -70s29.667 -34.834 50 -45.501s44.5 -16 72.5 -16c30.667 0 56.5 6.83301 77.5 20.5s37.833 32.334 50.5 56.001s21.834 51 27.501 82s8.5 64.167 8.5 99.5c42 0 80.667 -3 116 -9s65.833 -15 91.5 -27s45.667 -27 60 -45
s21.5 -39 21.5 -63c0 -33.333 -8.66699 -64.333 -26 -93s-43.833 -53.667 -79.5 -75s-81 -38.166 -136 -50.499s-120.167 -18.5 -195.5 -18.5c-72 0 -138.667 8.5 -200 25.5s-114.166 41.667 -158.499 74s-79.166 71.833 -104.499 118.5s-38 99.667 -38 159z
M794.996 943.999c0 -31.333 -4.33301 -57.5 -13 -78.5s-20.5 -37.833 -35.5 -50.5s-32.833 -21.667 -53.5 -27s-42.667 -8 -66 -8c-22.667 0 -44.167 2.66699 -64.5 8s-38.166 14.333 -53.499 27s-27.5 29.5 -36.5 50.5s-13.5 47.167 -13.5 78.5
c0 30.667 4.5 56.5 13.5 77.5s21.167 37.833 36.5 50.5s33.166 21.834 53.499 27.501s41.833 8.5 64.5 8.5c23.333 0 45.333 -2.83301 66 -8.5s38.5 -14.834 53.5 -27.501s26.833 -29.5 35.5 -50.5s13 -46.833 13 -77.5z" />
    <glyph glyph-name="Agrave" unicode="&#xc0;" horiz-adv-x="1542" 
d="M446 481l-58.999 -176c-5.33301 -16.667 -10.833 -36.167 -16.5 -58.5s-8.5 -41.833 -8.5 -58.5c0 -13.333 2.66699 -25 8 -35s12.333 -18.167 21 -24.5s18.5 -11.166 29.5 -14.499s22.5 -5 34.5 -5h86v-109h-533v109h25c18 0 34.5 2 49.5 6s29 11.5 42 22.5
s25.333 26.167 37 45.5s23.5 44.333 35.5 75l444 1204h281l428 -1206c10 -28.667 20.5 -52.5 31.5 -71.5s23 -34 36 -45s26.833 -18.833 41.5 -23.5s30 -7 46 -7h37v-109h-676v109h80c10 0 20.333 1.5 31 4.5s20.167 7.66699 28.5 14s15.166 14.5 20.499 24.5s8 22 8 36
c0 16.667 -2 32.667 -6 48s-8 28.666 -12 39.999l-72 205h-498zM795.001 942l-22.5 73.501l-23 78.5l-22 79.5c-7 26.333 -13.167 51.5 -18.5 75.5c-6 -20.667 -13 -43.334 -21 -68.001l-25.5 -76l-27 -78l-25.5 -75l-121 -346h414zM758.001 1579
c-32 18.667 -67.502 41.833 -106.502 69.5s-76.667 56.167 -113 85.5s-69.166 57.5 -98.499 84.5s-50.333 49.5 -63 67.5v21h321c10.667 -22.667 24.334 -47.5 41.001 -74.5l52.5 -81l55.5 -78.5l50 -67v-27h-139z" />
    <glyph glyph-name="Aacute" unicode="&#xc1;" horiz-adv-x="1542" 
d="M446 481l-58.999 -176c-5.33301 -16.667 -10.833 -36.167 -16.5 -58.5s-8.5 -41.833 -8.5 -58.5c0 -13.333 2.66699 -25 8 -35s12.333 -18.167 21 -24.5s18.5 -11.166 29.5 -14.499s22.5 -5 34.5 -5h86v-109h-533v109h25c18 0 34.5 2 49.5 6s29 11.5 42 22.5
s25.333 26.167 37 45.5s23.5 44.333 35.5 75l444 1204h281l428 -1206c10 -28.667 20.5 -52.5 31.5 -71.5s23 -34 36 -45s26.833 -18.833 41.5 -23.5s30 -7 46 -7h37v-109h-676v109h80c10 0 20.333 1.5 31 4.5s20.167 7.66699 28.5 14s15.166 14.5 20.499 24.5s8 22 8 36
c0 16.667 -2 32.667 -6 48s-8 28.666 -12 39.999l-72 205h-498zM795.001 942l-22.5 73.501l-23 78.5l-22 79.5c-7 26.333 -13.167 51.5 -18.5 75.5c-6 -20.667 -13 -43.334 -21 -68.001l-25.5 -76l-27 -78l-25.5 -75l-121 -346h414zM641.001 1606l49.499 67.001l55.5 78.5
c18.667 27 36.167 54 52.5 81s29.833 51.833 40.5 74.5h322v-21c-12.667 -18 -33.667 -40.5 -63 -67.5s-62.166 -55.167 -98.499 -84.5s-74 -57.833 -113 -85.5s-74.5 -50.834 -106.5 -69.501h-139v27z" />
    <glyph glyph-name="Acircumflex" unicode="&#xc2;" horiz-adv-x="1542" 
d="M446 481l-58.999 -176c-5.33301 -16.667 -10.833 -36.167 -16.5 -58.5s-8.5 -41.833 -8.5 -58.5c0 -13.333 2.66699 -25 8 -35s12.333 -18.167 21 -24.5s18.5 -11.166 29.5 -14.499s22.5 -5 34.5 -5h86v-109h-533v109h25c18 0 34.5 2 49.5 6s29 11.5 42 22.5
s25.333 26.167 37 45.5s23.5 44.333 35.5 75l444 1204h281l428 -1206c10 -28.667 20.5 -52.5 31.5 -71.5s23 -34 36 -45s26.833 -18.833 41.5 -23.5s30 -7 46 -7h37v-109h-676v109h80c10 0 20.333 1.5 31 4.5s20.167 7.66699 28.5 14s15.166 14.5 20.499 24.5s8 22 8 36
c0 16.667 -2 32.667 -6 48s-8 28.666 -12 39.999l-72 205h-498zM795.001 942l-22.5 73.501l-23 78.5l-22 79.5c-7 26.333 -13.167 51.5 -18.5 75.5c-6 -20.667 -13 -43.334 -21 -68.001l-25.5 -76l-27 -78l-25.5 -75l-121 -346h414zM415.001 1606l56.5 67l64.5 78.5
c21.333 27 41.5 54 60.5 81s33.833 51.833 44.5 74.5h276c10.667 -22.667 25.5 -47.5 44.5 -74.5s39.167 -54 60.5 -81l64 -78.5l56 -67v-27h-141l-50 40l-60 48l-60.5 50l-52.5 46l-52.5 -46l-60 -50l-59 -48l-49.5 -40h-142v27z" />
    <glyph glyph-name="Atilde" unicode="&#xc3;" horiz-adv-x="1542" 
d="M446 481l-58.999 -176c-5.33301 -16.667 -10.833 -36.167 -16.5 -58.5s-8.5 -41.833 -8.5 -58.5c0 -13.333 2.66699 -25 8 -35s12.333 -18.167 21 -24.5s18.5 -11.166 29.5 -14.499s22.5 -5 34.5 -5h86v-109h-533v109h25c18 0 34.5 2 49.5 6s29 11.5 42 22.5
s25.333 26.167 37 45.5s23.5 44.333 35.5 75l444 1204h281l428 -1206c10 -28.667 20.5 -52.5 31.5 -71.5s23 -34 36 -45s26.833 -18.833 41.5 -23.5s30 -7 46 -7h37v-109h-676v109h80c10 0 20.333 1.5 31 4.5s20.167 7.66699 28.5 14s15.166 14.5 20.499 24.5s8 22 8 36
c0 16.667 -2 32.667 -6 48s-8 28.666 -12 39.999l-72 205h-498zM795.001 942l-22.5 73.501l-23 78.5l-22 79.5c-7 26.333 -13.167 51.5 -18.5 75.5c-6 -20.667 -13 -43.334 -21 -68.001l-25.5 -76l-27 -78l-25.5 -75l-121 -346h414zM942.001 1774
c14.667 0 27.8311 3 39.498 9s21.667 14 30 24s15 21.5 20 34.5s8.5 26.5 10.5 40.5h133c-2 -41.333 -9.66699 -80.333 -23 -117s-31.166 -68.834 -53.499 -96.501s-48.666 -49.5 -78.999 -65.5s-63.833 -24 -100.5 -24s-69.834 6.66699 -99.501 20
s-57.334 28.166 -83.001 44.499l-72 44.5c-22.333 13.333 -44.5 20 -66.5 20c-15.333 0 -28.833 -3 -40.5 -9s-21.667 -14 -30 -24s-15 -21.5 -20 -34.5s-8.5 -26.5 -10.5 -40.5h-133c2 41.333 9.83301 80.333 23.5 117s31.667 68.834 54 96.501s48.833 49.5 79.5 65.5
s64.334 24 101.001 24s69.834 -6.66699 99.501 -20s57.334 -28.166 83.001 -44.499l72 -44.5c22.333 -13.333 44.166 -20 65.499 -20z" />
    <glyph glyph-name="Adieresis" unicode="&#xc4;" horiz-adv-x="1542" 
d="M446 481l-58.999 -176c-5.33301 -16.667 -10.833 -36.167 -16.5 -58.5s-8.5 -41.833 -8.5 -58.5c0 -13.333 2.66699 -25 8 -35s12.333 -18.167 21 -24.5s18.5 -11.166 29.5 -14.499s22.5 -5 34.5 -5h86v-109h-533v109h25c18 0 34.5 2 49.5 6s29 11.5 42 22.5
s25.333 26.167 37 45.5s23.5 44.333 35.5 75l444 1204h281l428 -1206c10 -28.667 20.5 -52.5 31.5 -71.5s23 -34 36 -45s26.833 -18.833 41.5 -23.5s30 -7 46 -7h37v-109h-676v109h80c10 0 20.333 1.5 31 4.5s20.167 7.66699 28.5 14s15.166 14.5 20.499 24.5s8 22 8 36
c0 16.667 -2 32.667 -6 48s-8 28.666 -12 39.999l-72 205h-498zM795.001 942l-22.5 73.501l-23 78.5l-22 79.5c-7 26.333 -13.167 51.5 -18.5 75.5c-6 -20.667 -13 -43.334 -21 -68.001l-25.5 -76l-27 -78l-25.5 -75l-121 -346h414zM436.001 1747
c0 23.333 3.33301 43.166 10 59.499s15.5 29.5 26.5 39.5s23.833 17.167 38.5 21.5s30 6.5 46 6.5s31.333 -2.16699 46 -6.5s27.667 -11.5 39 -21.5s20.5 -23.167 27.5 -39.5s10.5 -36.166 10.5 -59.499c0 -22.667 -3.5 -42.167 -10.5 -58.5s-16.167 -29.5 -27.5 -39.5
s-24.333 -17.333 -39 -22s-30 -7 -46 -7s-31.333 2.33301 -46 7s-27.5 12 -38.5 22s-19.833 23.167 -26.5 39.5s-10 35.833 -10 58.5zM856.001 1747c0 23.333 3.33301 43.166 10 59.499s15.667 29.5 27 39.5s24.333 17.167 39 21.5s30.334 6.5 47.001 6.5
c15.333 0 30.166 -2.16699 44.499 -6.5s27.166 -11.5 38.499 -21.5s20.5 -23.167 27.5 -39.5s10.5 -36.166 10.5 -59.499c0 -22.667 -3.5 -42.167 -10.5 -58.5s-16.167 -29.5 -27.5 -39.5s-24.166 -17.333 -38.499 -22s-29.166 -7 -44.499 -7
c-16.667 0 -32.334 2.33301 -47.001 7s-27.667 12 -39 22s-20.333 23.167 -27 39.5s-10 35.833 -10 58.5z" />
    <glyph glyph-name="Aring" unicode="&#xc5;" horiz-adv-x="1542" 
d="M446 481l-58.999 -176c-5.33301 -16.667 -10.833 -36.167 -16.5 -58.5s-8.5 -41.833 -8.5 -58.5c0 -13.333 2.66699 -25 8 -35s12.333 -18.167 21 -24.5s18.5 -11.166 29.5 -14.499s22.5 -5 34.5 -5h86v-109h-533v109h25c18 0 34.5 2 49.5 6s29 11.5 42 22.5
s25.333 26.167 37 45.5s23.5 44.333 35.5 75l444 1204h281l428 -1206c10 -28.667 20.5 -52.5 31.5 -71.5s23 -34 36 -45s26.833 -18.833 41.5 -23.5s30 -7 46 -7h37v-109h-676v109h80c10 0 20.333 1.5 31 4.5s20.167 7.66699 28.5 14s15.166 14.5 20.499 24.5s8 22 8 36
c0 16.667 -2 32.667 -6 48s-8 28.666 -12 39.999l-72 205h-498zM795.001 942l-22.5 73.501l-23 78.5l-22 79.5c-7 26.333 -13.167 51.5 -18.5 75.5c-6 -20.667 -13 -43.334 -21 -68.001l-25.5 -76l-27 -78l-25.5 -75l-121 -346h414zM1024 1573
c0 -36.667 -6.33301 -68.834 -19 -96.501s-30.167 -50.834 -52.5 -69.501s-48.5 -32.834 -78.5 -42.501s-62 -14.5 -96 -14.5s-66 4.83301 -96 14.5s-56.167 23.834 -78.5 42.501s-39.833 41.834 -52.5 69.501s-19 59.834 -19 96.501c0 36 6.33301 68 19 96
s30.167 51.333 52.5 70s48.5 32.834 78.5 42.501s62 14.5 96 14.5s66 -4.83301 96 -14.5s56.167 -23.834 78.5 -42.501s39.833 -42 52.5 -70s19 -60 19 -96zM899.001 1573c0 20 -3.16699 37 -9.5 51s-15 25.333 -26 34s-23.833 15 -38.5 19s-30.334 6 -47.001 6
s-32.334 -2 -47.001 -6s-27.5 -10.333 -38.5 -19s-19.667 -20 -26 -34s-9.5 -31 -9.5 -51s3.16699 -37 9.5 -51s15 -25.5 26 -34.5s23.833 -15.5 38.5 -19.5s30.334 -6 47.001 -6s32.334 2 47.001 6s27.5 10.5 38.5 19.5s19.667 20.5 26 34.5s9.5 31 9.5 51z" />
    <glyph glyph-name="AE" unicode="&#xc6;" horiz-adv-x="2034" 
d="M1270 125l408.998 -0.00195312c20.667 0 38.334 3.83301 53.001 11.5s27.334 18.5 38.001 32.5s19.167 30.5 25.5 49.5s11.166 39.833 14.499 62.5l17 96h141l-14 -377h-1200v109h86c37.333 0 64 11.5 80 34.5s24 52.167 24 87.5v238h-471l-86 -172
c-11.333 -21.333 -19.666 -41.666 -24.999 -60.999s-8 -35.333 -8 -48c0 -28 10.5 -48.167 31.5 -60.5s51.5 -18.5 91.5 -18.5h35v-109h-512v109h25c35.333 0 67 12.833 95 38.5s57 65.834 87 120.501l575 1075l-135 11v108h1243l8 -377h-143l-10 97
c-5.33301 50 -18 88.333 -38 115s-51 40 -93 40h-344v-512h485v-123h-485v-577zM923.998 1337l-385 -745h405v745h-20z" />
    <glyph glyph-name="Ccedilla" unicode="&#xc7;" horiz-adv-x="1368" 
d="M870 143c50 0 94.5029 5.83203 133.503 17.499s73.833 26.834 104.5 45.501s57.5 39.667 80.5 63s43.167 46.333 60.5 69c10.667 -8 19.167 -20.333 25.5 -37s9.5 -33.667 9.5 -51c0 -28.667 -7.66699 -58.834 -23 -90.501s-41 -60.834 -77 -87.501
s-83.667 -48.667 -143 -66s-132.666 -26 -219.999 -26c-118.667 0 -222.334 18 -311.001 54s-162.334 87 -221.001 153s-102.667 145.333 -132 238s-44 195.334 -44 308.001c0 110.667 15 212 45 304s74.5 171 133.5 237s132.667 117.333 221 154s190.5 55 306.5 55
c78.667 0 147.167 -6.16699 205.5 -18.5s106.833 -29.166 145.5 -50.499s67.667 -46.5 87 -75.5s29 -60.167 29 -93.5c0 -25.333 -5.5 -48.833 -16.5 -70.5s-27.333 -40.5 -49 -56.5s-48.5 -28.5 -80.5 -37.5s-68.667 -13.5 -110 -13.5c0 34 -3.66699 67.833 -11 101.5
s-19.833 64.167 -37.5 91.5s-40.834 49.5 -69.501 66.5s-64.334 25.5 -107.001 25.5c-64.667 0 -119.334 -13.667 -164.001 -41s-80.5 -67.333 -107.5 -120s-46.5 -117.5 -58.5 -194.5s-18 -164.833 -18 -263.5s7.33301 -185 22 -259s38.334 -135.5 71.001 -184.5
s75.167 -85.667 127.5 -110s116.5 -36.5 192.5 -36.5zM962.003 -258.001c0 -36 -7.00098 -68.501 -21.001 -97.501s-33.667 -53.667 -59 -74s-55.833 -35.833 -91.5 -46.5s-75.167 -16 -118.5 -16c-10.667 0 -23.667 0.5 -39 1.5s-31.333 2.5 -48 4.5s-33 4.5 -49 7.5
s-30.333 6.16699 -43 9.5v125c25.333 -5.33301 50.333 -9.33301 75 -12s46.334 -4 65.001 -4c38.667 0 69.167 6.83301 91.5 20.5s33.5 38.167 33.5 73.5c0 20 -3.83301 36.333 -11.5 49s-18.5 22.834 -32.5 30.501s-30.333 13.334 -49 17.001s-39 6.16699 -61 7.5l43 180
h117l-21 -88c33.333 -2.66699 63.5 -8.83398 90.5 -18.501s50 -22.5 69 -38.5s33.667 -35.167 44 -57.5s15.5 -46.833 15.5 -73.5z" />
    <glyph glyph-name="Egrave" unicode="&#xc8;" horiz-adv-x="1337" 
d="M573 125l409.996 0.00292969c20.667 0 38.334 3.83301 53.001 11.5s27.334 18.5 38.001 32.5s19.167 30.5 25.5 49.5s11.166 39.833 14.499 62.5l16 96h142l-15 -377h-1200v109h86c14.667 0 28.334 1.33301 41.001 4s23.834 8.16699 33.501 16.5
s17.167 20.666 22.5 36.999s8 37.833 8 64.5v990c0 29.333 -2.66699 52.666 -8 69.999s-12.666 30.666 -21.999 39.999s-20.333 15.5 -33 18.5s-26.667 4.5 -42 4.5h-86v108h1137l8 -377h-143l-10 97c-5.33301 50 -18 88.333 -38 115s-51 40 -93 40h-345v-512h486v-123h-486
v-577zM688.996 1579c-32 18.667 -67.502 41.833 -106.502 69.5s-76.667 56.167 -113 85.5s-69.166 57.5 -98.499 84.5s-50.333 49.5 -63 67.5v21h321c10.667 -22.667 24.334 -47.5 41.001 -74.5l52.5 -81l55.5 -78.5l50 -67v-27h-139z" />
    <glyph glyph-name="Eacute" unicode="&#xc9;" horiz-adv-x="1337" 
d="M573 125l409.996 0.00292969c20.667 0 38.334 3.83301 53.001 11.5s27.334 18.5 38.001 32.5s19.167 30.5 25.5 49.5s11.166 39.833 14.499 62.5l16 96h142l-15 -377h-1200v109h86c14.667 0 28.334 1.33301 41.001 4s23.834 8.16699 33.501 16.5
s17.167 20.666 22.5 36.999s8 37.833 8 64.5v990c0 29.333 -2.66699 52.666 -8 69.999s-12.666 30.666 -21.999 39.999s-20.333 15.5 -33 18.5s-26.667 4.5 -42 4.5h-86v108h1137l8 -377h-143l-10 97c-5.33301 50 -18 88.333 -38 115s-51 40 -93 40h-345v-512h486v-123h-486
v-577zM522.996 1606l49.499 67.001l55.5 78.5c18.667 27 36.167 54 52.5 81s29.833 51.833 40.5 74.5h322v-21c-12.667 -18 -33.667 -40.5 -63 -67.5s-62.166 -55.167 -98.499 -84.5s-74 -57.833 -113 -85.5s-74.5 -50.834 -106.5 -69.501h-139v27z" />
    <glyph glyph-name="Ecircumflex" unicode="&#xca;" horiz-adv-x="1337" 
d="M573 125l409.996 0.00292969c20.667 0 38.334 3.83301 53.001 11.5s27.334 18.5 38.001 32.5s19.167 30.5 25.5 49.5s11.166 39.833 14.499 62.5l16 96h142l-15 -377h-1200v109h86c14.667 0 28.334 1.33301 41.001 4s23.834 8.16699 33.501 16.5
s17.167 20.666 22.5 36.999s8 37.833 8 64.5v990c0 29.333 -2.66699 52.666 -8 69.999s-12.666 30.666 -21.999 39.999s-20.333 15.5 -33 18.5s-26.667 4.5 -42 4.5h-86v108h1137l8 -377h-143l-10 97c-5.33301 50 -18 88.333 -38 115s-51 40 -93 40h-345v-512h486v-123h-486
v-577zM287.996 1606l56.5 67l64.5 78.5c21.333 27 41.5 54 60.5 81s33.833 51.833 44.5 74.5h276c10.667 -22.667 25.5 -47.5 44.5 -74.5s39.167 -54 60.5 -81l64 -78.5l56 -67v-27h-141l-50 40l-60 48l-60.5 50l-52.5 46l-52.5 -46l-60 -50l-59 -48l-49.5 -40h-142v27z" />
    <glyph glyph-name="Edieresis" unicode="&#xcb;" horiz-adv-x="1337" 
d="M573 125l409.996 0.00292969c20.667 0 38.334 3.83301 53.001 11.5s27.334 18.5 38.001 32.5s19.167 30.5 25.5 49.5s11.166 39.833 14.499 62.5l16 96h142l-15 -377h-1200v109h86c14.667 0 28.334 1.33301 41.001 4s23.834 8.16699 33.501 16.5
s17.167 20.666 22.5 36.999s8 37.833 8 64.5v990c0 29.333 -2.66699 52.666 -8 69.999s-12.666 30.666 -21.999 39.999s-20.333 15.5 -33 18.5s-26.667 4.5 -42 4.5h-86v108h1137l8 -377h-143l-10 97c-5.33301 50 -18 88.333 -38 115s-51 40 -93 40h-345v-512h486v-123h-486
v-577zM355.996 1747c0 23.333 3.33301 43.166 10 59.499s15.5 29.5 26.5 39.5s23.833 17.167 38.5 21.5s30 6.5 46 6.5s31.333 -2.16699 46 -6.5s27.667 -11.5 39 -21.5s20.5 -23.167 27.5 -39.5s10.5 -36.166 10.5 -59.499c0 -22.667 -3.5 -42.167 -10.5 -58.5
s-16.167 -29.5 -27.5 -39.5s-24.333 -17.333 -39 -22s-30 -7 -46 -7s-31.333 2.33301 -46 7s-27.5 12 -38.5 22s-19.833 23.167 -26.5 39.5s-10 35.833 -10 58.5zM775.996 1747c0 23.333 3.33301 43.166 10 59.499s15.667 29.5 27 39.5s24.333 17.167 39 21.5
s30.334 6.5 47.001 6.5c15.333 0 30.166 -2.16699 44.499 -6.5s27.166 -11.5 38.499 -21.5s20.5 -23.167 27.5 -39.5s10.5 -36.166 10.5 -59.499c0 -22.667 -3.5 -42.167 -10.5 -58.5s-16.167 -29.5 -27.5 -39.5s-24.166 -17.333 -38.499 -22s-29.166 -7 -44.499 -7
c-16.667 0 -32.334 2.33301 -47.001 7s-27.667 12 -39 22s-20.333 23.167 -27 39.5s-10 35.833 -10 58.5z" />
    <glyph glyph-name="Igrave" unicode="&#xcc;" horiz-adv-x="821" 
d="M57 0v109h86c15.333 0 29.333 1.5 42 4.5s23.667 9.16699 33 18.5s16.666 22.666 21.999 39.999s8 40.666 8 69.999v978c0 29.333 -2.66699 52.666 -8 69.999s-12.666 30.666 -21.999 39.999s-20.333 15.5 -33 18.5s-26.667 4.5 -42 4.5h-86v109h707v-109h-86
c-14.667 0 -28.5 -1.5 -41.5 -4.5s-24.167 -9.16699 -33.5 -18.5s-16.666 -22.666 -21.999 -39.999s-8 -40.666 -8 -69.999v-978c0 -29.333 2.66699 -52.666 8 -69.999s12.666 -30.666 21.999 -39.999s20.5 -15.5 33.5 -18.5s26.833 -4.5 41.5 -4.5h86v-109h-707zM429 1579
c-32 18.667 -67.502 41.833 -106.502 69.5s-76.667 56.167 -113 85.5s-69.166 57.5 -98.499 84.5s-50.333 49.5 -63 67.5v21h321c10.667 -22.667 24.334 -47.5 41.001 -74.5l52.5 -81l55.5 -78.5l50 -67v-27h-139z" />
    <glyph glyph-name="Iacute" unicode="&#xcd;" horiz-adv-x="821" 
d="M57 0v109h86c15.333 0 29.333 1.5 42 4.5s23.667 9.16699 33 18.5s16.666 22.666 21.999 39.999s8 40.666 8 69.999v978c0 29.333 -2.66699 52.666 -8 69.999s-12.666 30.666 -21.999 39.999s-20.333 15.5 -33 18.5s-26.667 4.5 -42 4.5h-86v109h707v-109h-86
c-14.667 0 -28.5 -1.5 -41.5 -4.5s-24.167 -9.16699 -33.5 -18.5s-16.666 -22.666 -21.999 -39.999s-8 -40.666 -8 -69.999v-978c0 -29.333 2.66699 -52.666 8 -69.999s12.666 -30.666 21.999 -39.999s20.5 -15.5 33.5 -18.5s26.833 -4.5 41.5 -4.5h86v-109h-707zM253 1606
l49.499 67.001l55.5 78.5c18.667 27 36.167 54 52.5 81s29.833 51.833 40.5 74.5h322v-21c-12.667 -18 -33.667 -40.5 -63 -67.5s-62.166 -55.167 -98.499 -84.5s-74 -57.833 -113 -85.5s-74.5 -50.834 -106.5 -69.501h-139v27z" />
    <glyph glyph-name="Icircumflex" unicode="&#xce;" horiz-adv-x="821" 
d="M57 0v109h86c15.333 0 29.333 1.5 42 4.5s23.667 9.16699 33 18.5s16.666 22.666 21.999 39.999s8 40.666 8 69.999v978c0 29.333 -2.66699 52.666 -8 69.999s-12.666 30.666 -21.999 39.999s-20.333 15.5 -33 18.5s-26.667 4.5 -42 4.5h-86v109h707v-109h-86
c-14.667 0 -28.5 -1.5 -41.5 -4.5s-24.167 -9.16699 -33.5 -18.5s-16.666 -22.666 -21.999 -39.999s-8 -40.666 -8 -69.999v-978c0 -29.333 2.66699 -52.666 8 -69.999s12.666 -30.666 21.999 -39.999s20.5 -15.5 33.5 -18.5s26.833 -4.5 41.5 -4.5h86v-109h-707zM48 1606
l56.5 67l64.5 78.5c21.333 27 41.5 54 60.5 81s33.833 51.833 44.5 74.5h276c10.667 -22.667 25.5 -47.5 44.5 -74.5s39.167 -54 60.5 -81l64 -78.5l56 -67v-27h-141l-50 40l-60 48l-60.5 50l-52.5 46l-52.5 -46l-60 -50l-59 -48l-49.5 -40h-142v27z" />
    <glyph glyph-name="Idieresis" unicode="&#xcf;" horiz-adv-x="821" 
d="M57 0v109h86c15.333 0 29.333 1.5 42 4.5s23.667 9.16699 33 18.5s16.666 22.666 21.999 39.999s8 40.666 8 69.999v978c0 29.333 -2.66699 52.666 -8 69.999s-12.666 30.666 -21.999 39.999s-20.333 15.5 -33 18.5s-26.667 4.5 -42 4.5h-86v109h707v-109h-86
c-14.667 0 -28.5 -1.5 -41.5 -4.5s-24.167 -9.16699 -33.5 -18.5s-16.666 -22.666 -21.999 -39.999s-8 -40.666 -8 -69.999v-978c0 -29.333 2.66699 -52.666 8 -69.999s12.666 -30.666 21.999 -39.999s20.5 -15.5 33.5 -18.5s26.833 -4.5 41.5 -4.5h86v-109h-707zM79 1747
c0 23.333 3.33301 43.166 10 59.499s15.5 29.5 26.5 39.5s23.833 17.167 38.5 21.5s30 6.5 46 6.5s31.333 -2.16699 46 -6.5s27.667 -11.5 39 -21.5s20.5 -23.167 27.5 -39.5s10.5 -36.166 10.5 -59.499c0 -22.667 -3.5 -42.167 -10.5 -58.5s-16.167 -29.5 -27.5 -39.5
s-24.333 -17.333 -39 -22s-30 -7 -46 -7s-31.333 2.33301 -46 7s-27.5 12 -38.5 22s-19.833 23.167 -26.5 39.5s-10 35.833 -10 58.5zM499 1747c0 23.333 3.33301 43.166 10 59.499s15.667 29.5 27 39.5s24.333 17.167 39 21.5s30.334 6.5 47.001 6.5
c15.333 0 30.166 -2.16699 44.499 -6.5s27.166 -11.5 38.499 -21.5s20.5 -23.167 27.5 -39.5s10.5 -36.166 10.5 -59.499c0 -22.667 -3.5 -42.167 -10.5 -58.5s-16.167 -29.5 -27.5 -39.5s-24.166 -17.333 -38.499 -22s-29.166 -7 -44.499 -7
c-16.667 0 -32.334 2.33301 -47.001 7s-27.667 12 -39 22s-20.333 23.167 -27 39.5s-10 35.833 -10 58.5z" />
    <glyph glyph-name="Eth" unicode="&#xd0;" horiz-adv-x="1571" 
d="M1458 758c0 -112 -15.3311 -214.497 -45.998 -307.497s-76.5 -172.833 -137.5 -239.5s-136.667 -118.5 -227 -155.5s-195.166 -55.5 -314.499 -55.5h-676v109h86c15.333 0 29.333 1.5 42 4.5s23.667 9.16699 33 18.5s16.666 22.666 21.999 39.999s8 40.666 8 69.999v460
h-170v125h170v402c0 27.333 -2.66699 49.166 -8 65.499s-12.833 28.833 -22.5 37.5s-20.834 14.5 -33.501 17.5s-26.334 4.5 -41.001 4.5h-86v108h676c113.333 0 214.833 -14.833 304.5 -44.5s165.667 -74 228 -133s110 -132.5 143 -220.5s49.5 -190 49.5 -306z
M1112 758.003c0 195.333 -35.833 340.666 -107.5 435.999s-177.167 143 -316.5 143h-117v-510h256v-125h-256v-575h115c70 0 131.667 14.5 185 43.5s97.833 70.833 133.5 125.5s62.5 120.834 80.5 198.501s27 165.5 27 263.5z" />
    <glyph glyph-name="Ntilde" unicode="&#xd1;" horiz-adv-x="1614" 
d="M1200 0l-798.997 1128v-886c0 -29.333 2.83301 -52.666 8.5 -69.999s13.167 -30.666 22.5 -39.999s20.5 -15.5 33.5 -18.5s26.5 -4.5 40.5 -4.5h86v-109h-535v109h86c14.667 0 28.334 1.5 41.001 4.5s23.834 9.16699 33.501 18.5s17.167 22.666 22.5 39.999
s8 40.666 8 69.999v987c0 27.333 -2.83301 49.166 -8.5 65.499s-13.334 28.833 -23.001 37.5s-20.834 14.5 -33.501 17.5s-26 4.5 -40 4.5h-86v108h455l723 -1022v789c0 27.333 -2.83301 49.166 -8.5 65.499s-13.334 28.833 -23.001 37.5s-20.834 14.5 -33.501 17.5
s-26 4.5 -40 4.5h-86v108h535v-108h-86c-14 0 -27.333 -1.5 -40 -4.5s-23.834 -9.16699 -33.501 -18.5s-17.167 -22.666 -22.5 -39.999s-8 -40.666 -8 -69.999v-1221h-189zM998.003 1774c14.667 0 27.8311 3 39.498 9s21.667 14 30 24s15 21.5 20 34.5s8.5 26.5 10.5 40.5
h133c-2 -41.333 -9.66699 -80.333 -23 -117s-31.166 -68.834 -53.499 -96.501s-48.666 -49.5 -78.999 -65.5s-63.833 -24 -100.5 -24s-69.834 6.66699 -99.501 20s-57.334 28.166 -83.001 44.499l-72 44.5c-22.333 13.333 -44.5 20 -66.5 20c-15.333 0 -28.833 -3 -40.5 -9
s-21.667 -14 -30 -24s-15 -21.5 -20 -34.5s-8.5 -26.5 -10.5 -40.5h-133c2 41.333 9.83301 80.333 23.5 117s31.667 68.834 54 96.501s48.833 49.5 79.5 65.5s64.334 24 101.001 24s69.834 -6.66699 99.501 -20s57.334 -28.166 83.001 -44.499l72 -44.5
c22.333 -13.333 44.166 -20 65.499 -20z" />
    <glyph glyph-name="Ograve" unicode="&#xd2;" horiz-adv-x="1612" 
d="M1499 733c0 -112.667 -15.1699 -215.33 -45.5029 -307.997s-75 -172 -134 -238s-131.333 -117 -217 -153s-184.167 -54 -295.5 -54c-116.667 0 -218.5 18 -305.5 54s-159.167 87 -216.5 153s-100.333 145.5 -129 238.5s-43 196.167 -43 309.5s14.333 216.166 43 308.499
s71.834 171.166 129.501 236.499s130 115.833 217 151.5s189.167 53.5 306.5 53.5c110.667 0 208.834 -17.833 294.501 -53.5s157.834 -86.334 216.501 -152.001s103.167 -144.667 133.5 -237s45.5 -195.5 45.5 -309.5zM456.997 733.004c0 -98 6.33496 -185.333 19.002 -262
s33 -141.5 61 -194.5s64.167 -93.5 108.5 -121.5s98.166 -42 161.499 -42c64 0 118.167 14 162.5 42s80.166 68.5 107.499 121.5s47.166 117.833 59.499 194.5s18.5 164 18.5 262s-6.16699 185.333 -18.5 262s-32.166 141.5 -59.499 194.5s-63 93.333 -107 121
s-97.667 41.5 -161 41.5c-64 0 -118.333 -13.833 -163 -41.5s-81 -68 -109 -121s-48.333 -117.833 -61 -194.5s-19 -164 -19 -262zM812.999 1579c-32 18.667 -67.502 41.833 -106.502 69.5s-76.667 56.167 -113 85.5s-69.166 57.5 -98.499 84.5s-50.333 49.5 -63 67.5v21
h321c10.667 -22.667 24.334 -47.5 41.001 -74.5l52.5 -81l55.5 -78.5l50 -67v-27h-139z" />
    <glyph glyph-name="Oacute" unicode="&#xd3;" horiz-adv-x="1612" 
d="M1499 733c0 -112.667 -15.1699 -215.33 -45.5029 -307.997s-75 -172 -134 -238s-131.333 -117 -217 -153s-184.167 -54 -295.5 -54c-116.667 0 -218.5 18 -305.5 54s-159.167 87 -216.5 153s-100.333 145.5 -129 238.5s-43 196.167 -43 309.5s14.333 216.166 43 308.499
s71.834 171.166 129.501 236.499s130 115.833 217 151.5s189.167 53.5 306.5 53.5c110.667 0 208.834 -17.833 294.501 -53.5s157.834 -86.334 216.501 -152.001s103.167 -144.667 133.5 -237s45.5 -195.5 45.5 -309.5zM456.997 733.004c0 -98 6.33496 -185.333 19.002 -262
s33 -141.5 61 -194.5s64.167 -93.5 108.5 -121.5s98.166 -42 161.499 -42c64 0 118.167 14 162.5 42s80.166 68.5 107.499 121.5s47.166 117.833 59.499 194.5s18.5 164 18.5 262s-6.16699 185.333 -18.5 262s-32.166 141.5 -59.499 194.5s-63 93.333 -107 121
s-97.667 41.5 -161 41.5c-64 0 -118.333 -13.833 -163 -41.5s-81 -68 -109 -121s-48.333 -117.833 -61 -194.5s-19 -164 -19 -262zM665.999 1606l49.499 67.001l55.5 78.5c18.667 27 36.167 54 52.5 81s29.833 51.833 40.5 74.5h322v-21
c-12.667 -18 -33.667 -40.5 -63 -67.5s-62.166 -55.167 -98.499 -84.5s-74 -57.833 -113 -85.5s-74.5 -50.834 -106.5 -69.501h-139v27z" />
    <glyph glyph-name="Ocircumflex" unicode="&#xd4;" horiz-adv-x="1612" 
d="M1499 733c0 -112.667 -15.1699 -215.33 -45.5029 -307.997s-75 -172 -134 -238s-131.333 -117 -217 -153s-184.167 -54 -295.5 -54c-116.667 0 -218.5 18 -305.5 54s-159.167 87 -216.5 153s-100.333 145.5 -129 238.5s-43 196.167 -43 309.5s14.333 216.166 43 308.499
s71.834 171.166 129.501 236.499s130 115.833 217 151.5s189.167 53.5 306.5 53.5c110.667 0 208.834 -17.833 294.501 -53.5s157.834 -86.334 216.501 -152.001s103.167 -144.667 133.5 -237s45.5 -195.5 45.5 -309.5zM456.997 733.004c0 -98 6.33496 -185.333 19.002 -262
s33 -141.5 61 -194.5s64.167 -93.5 108.5 -121.5s98.166 -42 161.499 -42c64 0 118.167 14 162.5 42s80.166 68.5 107.499 121.5s47.166 117.833 59.499 194.5s18.5 164 18.5 262s-6.16699 185.333 -18.5 262s-32.166 141.5 -59.499 194.5s-63 93.333 -107 121
s-97.667 41.5 -161 41.5c-64 0 -118.333 -13.833 -163 -41.5s-81 -68 -109 -121s-48.333 -117.833 -61 -194.5s-19 -164 -19 -262zM439.999 1606l56.5 67l64.5 78.5c21.333 27 41.5 54 60.5 81s33.833 51.833 44.5 74.5h276c10.667 -22.667 25.5 -47.5 44.5 -74.5
s39.167 -54 60.5 -81l64 -78.5l56 -67v-27h-141l-50 40l-60 48l-60.5 50l-52.5 46l-52.5 -46l-60 -50l-59 -48l-49.5 -40h-142v27z" />
    <glyph glyph-name="Otilde" unicode="&#xd5;" horiz-adv-x="1612" 
d="M1499 733c0 -112.667 -15.1699 -215.33 -45.5029 -307.997s-75 -172 -134 -238s-131.333 -117 -217 -153s-184.167 -54 -295.5 -54c-116.667 0 -218.5 18 -305.5 54s-159.167 87 -216.5 153s-100.333 145.5 -129 238.5s-43 196.167 -43 309.5s14.333 216.166 43 308.499
s71.834 171.166 129.501 236.499s130 115.833 217 151.5s189.167 53.5 306.5 53.5c110.667 0 208.834 -17.833 294.501 -53.5s157.834 -86.334 216.501 -152.001s103.167 -144.667 133.5 -237s45.5 -195.5 45.5 -309.5zM456.997 733.004c0 -98 6.33496 -185.333 19.002 -262
s33 -141.5 61 -194.5s64.167 -93.5 108.5 -121.5s98.166 -42 161.499 -42c64 0 118.167 14 162.5 42s80.166 68.5 107.499 121.5s47.166 117.833 59.499 194.5s18.5 164 18.5 262s-6.16699 185.333 -18.5 262s-32.166 141.5 -59.499 194.5s-63 93.333 -107 121
s-97.667 41.5 -161 41.5c-64 0 -118.333 -13.833 -163 -41.5s-81 -68 -109 -121s-48.333 -117.833 -61 -194.5s-19 -164 -19 -262zM974.999 1774c14.667 0 27.8311 3 39.498 9s21.667 14 30 24s15 21.5 20 34.5s8.5 26.5 10.5 40.5h133
c-2 -41.333 -9.66699 -80.333 -23 -117s-31.166 -68.834 -53.499 -96.501s-48.666 -49.5 -78.999 -65.5s-63.833 -24 -100.5 -24s-69.834 6.66699 -99.501 20s-57.334 28.166 -83.001 44.499l-72 44.5c-22.333 13.333 -44.5 20 -66.5 20c-15.333 0 -28.833 -3 -40.5 -9
s-21.667 -14 -30 -24s-15 -21.5 -20 -34.5s-8.5 -26.5 -10.5 -40.5h-133c2 41.333 9.83301 80.333 23.5 117s31.667 68.834 54 96.501s48.833 49.5 79.5 65.5s64.334 24 101.001 24s69.834 -6.66699 99.501 -20s57.334 -28.166 83.001 -44.499l72 -44.5
c22.333 -13.333 44.166 -20 65.499 -20z" />
    <glyph glyph-name="Odieresis" unicode="&#xd6;" horiz-adv-x="1612" 
d="M1499 733c0 -112.667 -15.1699 -215.33 -45.5029 -307.997s-75 -172 -134 -238s-131.333 -117 -217 -153s-184.167 -54 -295.5 -54c-116.667 0 -218.5 18 -305.5 54s-159.167 87 -216.5 153s-100.333 145.5 -129 238.5s-43 196.167 -43 309.5s14.333 216.166 43 308.499
s71.834 171.166 129.501 236.499s130 115.833 217 151.5s189.167 53.5 306.5 53.5c110.667 0 208.834 -17.833 294.501 -53.5s157.834 -86.334 216.501 -152.001s103.167 -144.667 133.5 -237s45.5 -195.5 45.5 -309.5zM456.997 733.004c0 -98 6.33496 -185.333 19.002 -262
s33 -141.5 61 -194.5s64.167 -93.5 108.5 -121.5s98.166 -42 161.499 -42c64 0 118.167 14 162.5 42s80.166 68.5 107.499 121.5s47.166 117.833 59.499 194.5s18.5 164 18.5 262s-6.16699 185.333 -18.5 262s-32.166 141.5 -59.499 194.5s-63 93.333 -107 121
s-97.667 41.5 -161 41.5c-64 0 -118.333 -13.833 -163 -41.5s-81 -68 -109 -121s-48.333 -117.833 -61 -194.5s-19 -164 -19 -262zM462.999 1747c0 23.333 3.33301 43.166 10 59.499s15.5 29.5 26.5 39.5s23.833 17.167 38.5 21.5s30 6.5 46 6.5s31.333 -2.16699 46 -6.5
s27.667 -11.5 39 -21.5s20.5 -23.167 27.5 -39.5s10.5 -36.166 10.5 -59.499c0 -22.667 -3.5 -42.167 -10.5 -58.5s-16.167 -29.5 -27.5 -39.5s-24.333 -17.333 -39 -22s-30 -7 -46 -7s-31.333 2.33301 -46 7s-27.5 12 -38.5 22s-19.833 23.167 -26.5 39.5
s-10 35.833 -10 58.5zM882.999 1747c0 23.333 3.33301 43.166 10 59.499s15.667 29.5 27 39.5s24.333 17.167 39 21.5s30.334 6.5 47.001 6.5c15.333 0 30.166 -2.16699 44.499 -6.5s27.166 -11.5 38.499 -21.5s20.5 -23.167 27.5 -39.5s10.5 -36.166 10.5 -59.499
c0 -22.667 -3.5 -42.167 -10.5 -58.5s-16.167 -29.5 -27.5 -39.5s-24.166 -17.333 -38.499 -22s-29.166 -7 -44.499 -7c-16.667 0 -32.334 2.33301 -47.001 7s-27.667 12 -39 22s-20.333 23.167 -27 39.5s-10 35.833 -10 58.5z" />
    <glyph glyph-name="multiply" unicode="&#xd7;" 
d="M571 631l-301 -303l-104 104l301 303l-301 301l104 103l301 -301l301 303l105 -105l-303 -303l303 -303l-103 -102z" />
    <glyph glyph-name="Oslash" unicode="&#xd8;" horiz-adv-x="1612" 
d="M1499 733c0 -112.667 -15.168 -215.331 -45.501 -307.998s-75 -172 -134 -238s-131.333 -117 -217 -153s-184.167 -54 -295.5 -54c-115.333 0 -216.333 17.667 -303 53l-62 -115h-145l94 174c-93.333 64 -163 150.833 -209 260.5s-69 237.167 -69 382.5
c0 113.333 14.333 216.166 43 308.499s71.834 171.166 129.501 236.499s130 115.833 217 151.5s189.167 53.5 306.5 53.5c56.667 0 110 -5 160 -15s97 -24.333 141 -43l64 119h143l-96 -178c90.667 -64 159.667 -150 207 -258s71 -233.667 71 -377zM456.999 733.003
c0 -85.333 4.66699 -162 14 -230s24.333 -127.667 45 -179l506 942c-25.333 28 -55.833 49.333 -91.5 64s-76.167 22 -121.5 22c-64 0 -118.333 -13.833 -163 -41.5s-81 -68 -109 -121s-48.333 -117.833 -61 -194.5s-19 -164 -19 -262zM1155 733.003
c0 84.667 -4.66602 160.833 -13.999 228.5s-23.666 127.5 -42.999 179.5l-506 -944c26.667 -28 57.667 -49 93 -63s76 -21 122 -21c64 0 118.167 14 162.5 42s80.166 68.5 107.499 121.5s47.166 117.833 59.499 194.5s18.5 164 18.5 262z" />
    <glyph glyph-name="Ugrave" unicode="&#xd9;" horiz-adv-x="1530" 
d="M1497 1354l-87.9951 -0.00195312c-14 0 -27.333 -1.5 -40 -4.5s-23.834 -9.16699 -33.501 -18.5s-17.167 -22.666 -22.5 -39.999s-8 -40.666 -8 -69.999v-799c0 -68.667 -9.83301 -130.334 -29.5 -185.001s-50.334 -101 -92.001 -139s-94.834 -67.167 -159.501 -87.5
s-141.667 -30.5 -231 -30.5s-169.166 8.5 -239.499 25.5s-129.833 44.167 -178.5 81.5s-85.834 85.5 -111.501 144.5s-38.5 130.5 -38.5 214.5v783c0 27.333 -2.83301 49.166 -8.5 65.499s-13.334 28.833 -23.001 37.5s-20.667 14.5 -33 17.5s-25.5 4.5 -39.5 4.5h-88v108
h706v-108h-86c-14 0 -27.333 -1.5 -40 -4.5s-23.834 -9.16699 -33.501 -18.5s-17.167 -22.666 -22.5 -39.999s-8 -40.666 -8 -69.999v-791c0 -57.333 7.16699 -105.5 21.5 -144.5s34.833 -70.333 61.5 -94s58.667 -40.667 96 -51s79.333 -15.5 126 -15.5
c45.333 0 86.333 5.83301 123 17.5s67.834 29.834 93.501 54.501s45.5 56 59.5 94s21 83 21 135v803c0 27.333 -2.66699 49.166 -8 65.499s-12.833 28.833 -22.5 37.5s-20.834 14.5 -33.501 17.5s-26 4.5 -40 4.5h-86v108h536v-108zM813.005 1579
c-32 18.667 -67.502 41.833 -106.502 69.5s-76.667 56.167 -113 85.5s-69.166 57.5 -98.499 84.5s-50.333 49.5 -63 67.5v21h321c10.667 -22.667 24.334 -47.5 41.001 -74.5l52.5 -81l55.5 -78.5l50 -67v-27h-139z" />
    <glyph glyph-name="Uacute" unicode="&#xda;" horiz-adv-x="1530" 
d="M1497 1354l-87.9951 -0.00195312c-14 0 -27.333 -1.5 -40 -4.5s-23.834 -9.16699 -33.501 -18.5s-17.167 -22.666 -22.5 -39.999s-8 -40.666 -8 -69.999v-799c0 -68.667 -9.83301 -130.334 -29.5 -185.001s-50.334 -101 -92.001 -139s-94.834 -67.167 -159.501 -87.5
s-141.667 -30.5 -231 -30.5s-169.166 8.5 -239.499 25.5s-129.833 44.167 -178.5 81.5s-85.834 85.5 -111.501 144.5s-38.5 130.5 -38.5 214.5v783c0 27.333 -2.83301 49.166 -8.5 65.499s-13.334 28.833 -23.001 37.5s-20.667 14.5 -33 17.5s-25.5 4.5 -39.5 4.5h-88v108
h706v-108h-86c-14 0 -27.333 -1.5 -40 -4.5s-23.834 -9.16699 -33.501 -18.5s-17.167 -22.666 -22.5 -39.999s-8 -40.666 -8 -69.999v-791c0 -57.333 7.16699 -105.5 21.5 -144.5s34.833 -70.333 61.5 -94s58.667 -40.667 96 -51s79.333 -15.5 126 -15.5
c45.333 0 86.333 5.83301 123 17.5s67.834 29.834 93.501 54.501s45.5 56 59.5 94s21 83 21 135v803c0 27.333 -2.66699 49.166 -8 65.499s-12.833 28.833 -22.5 37.5s-20.834 14.5 -33.501 17.5s-26 4.5 -40 4.5h-86v108h536v-108zM643.005 1606l49.499 67.001l55.5 78.5
c18.667 27 36.167 54 52.5 81s29.833 51.833 40.5 74.5h322v-21c-12.667 -18 -33.667 -40.5 -63 -67.5s-62.166 -55.167 -98.499 -84.5s-74 -57.833 -113 -85.5s-74.5 -50.834 -106.5 -69.501h-139v27z" />
    <glyph glyph-name="Ucircumflex" unicode="&#xdb;" horiz-adv-x="1530" 
d="M1497 1354l-87.9951 -0.00195312c-14 0 -27.333 -1.5 -40 -4.5s-23.834 -9.16699 -33.501 -18.5s-17.167 -22.666 -22.5 -39.999s-8 -40.666 -8 -69.999v-799c0 -68.667 -9.83301 -130.334 -29.5 -185.001s-50.334 -101 -92.001 -139s-94.834 -67.167 -159.501 -87.5
s-141.667 -30.5 -231 -30.5s-169.166 8.5 -239.499 25.5s-129.833 44.167 -178.5 81.5s-85.834 85.5 -111.501 144.5s-38.5 130.5 -38.5 214.5v783c0 27.333 -2.83301 49.166 -8.5 65.499s-13.334 28.833 -23.001 37.5s-20.667 14.5 -33 17.5s-25.5 4.5 -39.5 4.5h-88v108
h706v-108h-86c-14 0 -27.333 -1.5 -40 -4.5s-23.834 -9.16699 -33.501 -18.5s-17.167 -22.666 -22.5 -39.999s-8 -40.666 -8 -69.999v-791c0 -57.333 7.16699 -105.5 21.5 -144.5s34.833 -70.333 61.5 -94s58.667 -40.667 96 -51s79.333 -15.5 126 -15.5
c45.333 0 86.333 5.83301 123 17.5s67.834 29.834 93.501 54.501s45.5 56 59.5 94s21 83 21 135v803c0 27.333 -2.66699 49.166 -8 65.499s-12.833 28.833 -22.5 37.5s-20.834 14.5 -33.501 17.5s-26 4.5 -40 4.5h-86v108h536v-108zM454.005 1606l56.5 67l64.5 78.5
c21.333 27 41.5 54 60.5 81s33.833 51.833 44.5 74.5h276c10.667 -22.667 25.5 -47.5 44.5 -74.5s39.167 -54 60.5 -81l64 -78.5l56 -67v-27h-141l-50 40l-60 48l-60.5 50l-52.5 46l-52.5 -46l-60 -50l-59 -48l-49.5 -40h-142v27z" />
    <glyph glyph-name="Udieresis" unicode="&#xdc;" horiz-adv-x="1530" 
d="M1497 1354l-87.9951 -0.00195312c-14 0 -27.333 -1.5 -40 -4.5s-23.834 -9.16699 -33.501 -18.5s-17.167 -22.666 -22.5 -39.999s-8 -40.666 -8 -69.999v-799c0 -68.667 -9.83301 -130.334 -29.5 -185.001s-50.334 -101 -92.001 -139s-94.834 -67.167 -159.501 -87.5
s-141.667 -30.5 -231 -30.5s-169.166 8.5 -239.499 25.5s-129.833 44.167 -178.5 81.5s-85.834 85.5 -111.501 144.5s-38.5 130.5 -38.5 214.5v783c0 27.333 -2.83301 49.166 -8.5 65.499s-13.334 28.833 -23.001 37.5s-20.667 14.5 -33 17.5s-25.5 4.5 -39.5 4.5h-88v108
h706v-108h-86c-14 0 -27.333 -1.5 -40 -4.5s-23.834 -9.16699 -33.501 -18.5s-17.167 -22.666 -22.5 -39.999s-8 -40.666 -8 -69.999v-791c0 -57.333 7.16699 -105.5 21.5 -144.5s34.833 -70.333 61.5 -94s58.667 -40.667 96 -51s79.333 -15.5 126 -15.5
c45.333 0 86.333 5.83301 123 17.5s67.834 29.834 93.501 54.501s45.5 56 59.5 94s21 83 21 135v803c0 27.333 -2.66699 49.166 -8 65.499s-12.833 28.833 -22.5 37.5s-20.834 14.5 -33.501 17.5s-26 4.5 -40 4.5h-86v108h536v-108zM494.005 1747
c0 23.333 3.33301 43.166 10 59.499s15.5 29.5 26.5 39.5s23.833 17.167 38.5 21.5s30 6.5 46 6.5s31.333 -2.16699 46 -6.5s27.667 -11.5 39 -21.5s20.5 -23.167 27.5 -39.5s10.5 -36.166 10.5 -59.499c0 -22.667 -3.5 -42.167 -10.5 -58.5s-16.167 -29.5 -27.5 -39.5
s-24.333 -17.333 -39 -22s-30 -7 -46 -7s-31.333 2.33301 -46 7s-27.5 12 -38.5 22s-19.833 23.167 -26.5 39.5s-10 35.833 -10 58.5zM914.005 1747c0 23.333 3.33301 43.166 10 59.499s15.667 29.5 27 39.5s24.333 17.167 39 21.5s30.334 6.5 47.001 6.5
c15.333 0 30.166 -2.16699 44.499 -6.5s27.166 -11.5 38.499 -21.5s20.5 -23.167 27.5 -39.5s10.5 -36.166 10.5 -59.499c0 -22.667 -3.5 -42.167 -10.5 -58.5s-16.167 -29.5 -27.5 -39.5s-24.166 -17.333 -38.499 -22s-29.166 -7 -44.499 -7
c-16.667 0 -32.334 2.33301 -47.001 7s-27.667 12 -39 22s-20.333 23.167 -27 39.5s-10 35.833 -10 58.5z" />
    <glyph glyph-name="Yacute" unicode="&#xdd;" horiz-adv-x="1419" 
d="M336 0l-0.00195312 108.998h96c16.667 0 32.167 1 46.5 3s26.833 7.16699 37.5 15.5s19.167 20.833 25.5 37.5s9.5 39.334 9.5 68.001v285l-379 727c-10 20 -19.5 37 -28.5 51s-18.833 25.167 -29.5 33.5s-22.834 14.5 -36.501 18.5s-30.5 6 -50.5 6h-27v108h686v-108
h-35c-41.333 0 -72.166 -8.33301 -92.499 -25s-30.5 -39 -30.5 -67c0 -17.333 3.16699 -36.166 9.5 -56.499s13.5 -39.166 21.5 -56.499l152 -301c21.333 -43.333 38.833 -81.666 52.5 -114.999s26.167 -66 37.5 -98c14 36 30.167 75.167 48.5 117.5s38.833 86.5 61.5 132.5
l119 245c14.667 30 24.167 55.167 28.5 75.5s6.5 36.166 6.5 47.499c0 35.333 -11.167 61 -33.5 77s-56.166 24 -101.499 24h-47v108h536v-108h-39c-17.333 0 -32.166 -2.33301 -44.499 -7s-24 -13 -35 -25s-22.333 -28.333 -34 -49s-25.5 -47 -41.5 -79l-348 -678v-280
c0 -30 3 -53.333 9 -70s14.167 -29.334 24.5 -38.001s22.333 -14 36 -16s28.5 -3 44.5 -3h101v-109h-756zM601.998 1606l49.499 67.001l55.5 78.5c18.667 27 36.167 54 52.5 81s29.833 51.833 40.5 74.5h322v-21c-12.667 -18 -33.667 -40.5 -63 -67.5
s-62.166 -55.167 -98.499 -84.5s-74 -57.833 -113 -85.5s-74.5 -50.834 -106.5 -69.501h-139v27z" />
    <glyph glyph-name="Thorn" unicode="&#xde;" horiz-adv-x="1307" 
d="M571 410l50.0029 0.00292969c50.667 0 93.667 6.33301 129 19s64.166 32.667 86.499 60s38.666 62.666 48.999 105.999s15.5 95.666 15.5 156.999c0 54.667 -4.5 102.167 -13.5 142.5s-23.333 73.666 -43 99.999s-45.334 46 -77.001 59s-70.5 19.5 -116.5 19.5h-80v-663z
M1245 760.003c0 -61.333 -10.666 -120.33 -31.999 -176.997s-56 -106.667 -104 -150s-110.333 -77.833 -187 -103.5s-170.334 -38.5 -281.001 -38.5h-70v-60c1.33301 -26.667 5 -48.167 11 -64.5s13.833 -28.666 23.5 -36.999s21 -13.833 34 -16.5s26.5 -4 40.5 -4h84v-109
h-707v109h86c15.333 0 29.333 1.5 42 4.5s23.667 9.16699 33 18.5s16.666 22.666 21.999 39.999s8 40.666 8 69.999v979c0 29.333 -2.66699 52.666 -8 69.999s-12.666 30.666 -21.999 39.999s-20.333 15.5 -33 18.5s-26.667 4.5 -42 4.5h-86v108h707v-108h-84
c-14 0 -27.667 -1.33301 -41 -4s-25 -8.33398 -35 -17.001s-18 -21 -24 -37s-9 -37.667 -9 -65v-37h115c94.667 -1.33301 177 -12.166 247 -32.499s128.167 -49 174.5 -86s80.833 -82 103.5 -135s34 -113.167 34 -180.5z" />
    <glyph glyph-name="germandbls" unicode="&#xdf;" horiz-adv-x="1446" 
d="M205 1118c0 85.333 13.6631 157.34 40.9961 216.007s64.833 106 112.5 142s103.834 61.833 168.501 77.5s134.667 23.5 210 23.5c94.667 0 175 -12.333 241 -37s119.833 -61.167 161.5 -109.5s72 -108 91 -179s28.833 -152.833 29.5 -245.5h-115
c-33.333 0 -64.5 -2 -93.5 -6s-54.333 -11.333 -76 -22s-38.834 -24.834 -51.501 -42.501s-19 -40.167 -19 -67.5c0 -24 4.16699 -45 12.5 -63s21.5 -34.833 39.5 -50.5s41.5 -31.334 70.5 -47.001s64.167 -33.167 105.5 -52.5c42.667 -20 78.667 -42.5 108 -67.5
s53.166 -51.833 71.499 -80.5s31.5 -58.334 39.5 -89.001s12 -62 12 -94c0 -58 -9.16699 -108.5 -27.5 -151.5s-44.666 -78.833 -78.999 -107.5s-76.5 -50 -126.5 -64s-106.667 -21 -170 -21c-62 0 -120.833 6.16699 -176.5 18.5s-105.5 31.166 -149.5 56.499v248h110
c4.66699 -27.333 12.834 -53.333 24.501 -78s26.334 -46.167 44.001 -64.5s38.167 -33 61.5 -44s49 -16.5 77 -16.5c46 0 82.5 12 109.5 36s40.5 58 40.5 102c0 24 -3.16699 46.167 -9.5 66.5s-17.333 39.833 -33 58.5s-36.834 37 -63.501 55s-60.334 36.333 -101.001 55
c-50 23.333 -91.5 48.5 -124.5 75.5s-59.333 55.833 -79 86.5s-33.667 62.667 -42 96s-12.5 67.666 -12.5 102.999c0 47.333 8.16699 88.166 24.5 122.499s39.333 63 69 86s64.834 40.667 105.501 53s85 19.833 133 22.5c-0.666992 62.667 -6.16699 115.834 -16.5 159.501
s-25.166 79.167 -44.499 106.5s-42.833 47.166 -70.5 59.499s-59.167 18.5 -94.5 18.5c-34.667 0 -66.167 -5.66699 -94.5 -17s-52.5 -28.833 -72.5 -52.5s-35.333 -53.667 -46 -90s-16 -79.166 -16 -128.499v-1174h-502v109h88c14.667 0 28.334 1.5 41.001 4.5
s23.834 9.16699 33.501 18.5s17.167 22.666 22.5 39.999s8 40.666 8 69.999v714h-164v142h164v20z" />
    <glyph glyph-name="agrave" unicode="&#xe0;" horiz-adv-x="1227" 
d="M410 305c0 -58.667 9.33301 -102.667 28 -132s48 -44 88 -44c29.333 0 55.833 6.16699 79.5 18.5s44 29.833 61 52.5s30 50.167 39 82.5s13.5 68.5 13.5 108.5v154l-92 -6c-40.667 -2 -75 -8.5 -103 -19.5s-50.333 -26.167 -67 -45.5s-28.667 -43 -36 -71
s-11 -60.667 -11 -98zM592 999c-26 0 -47.8291 -5.50879 -65.4961 -16.5088s-31.834 -26.333 -42.501 -46s-18.167 -43 -22.5 -70s-6.5 -56.5 -6.5 -88.5c-92 0 -161.167 10.333 -207.5 31s-69.5 56 -69.5 106c0 37.333 11.167 69.333 33.5 96s52.666 48.334 90.999 65.001
s83 28.834 134 36.501s105.5 11.5 163.5 11.5c72 0 134.833 -6.16699 188.5 -18.5s98.334 -32.166 134.001 -59.499s62.5 -63.166 80.5 -107.499s27 -98.5 27 -162.5v-522c0 -28 2.16699 -51.333 6.5 -70s11.166 -33.5 20.499 -44.5s22 -18.833 38 -23.5s35.333 -7 58 -7h8
v-109h-381l-43 141h-18c-22.667 -27.333 -44 -51.166 -64 -71.499s-41.333 -37.166 -64 -50.499s-48.167 -23.166 -76.5 -29.499s-61.833 -9.5 -100.5 -9.5c-45.333 0 -87.5 6.66699 -126.5 20s-73 33.833 -102 61.5s-51.833 62.334 -68.5 104.001s-25 90.834 -25 147.501
c0 111.333 38.167 193.666 114.5 246.999s191.166 82.333 344.499 87l168 6v113c0 34 -1.33301 65.333 -4 94s-8.33398 53.334 -17.001 74.001s-21.5 36.667 -38.5 48s-39.5 17 -67.5 17zM618.004 1240.99c-32 18.667 -67.502 41.833 -106.502 69.5
s-76.667 56.167 -113 85.5s-69.166 57.5 -98.499 84.5s-50.333 49.5 -63 67.5v21h321c10.667 -22.667 24.334 -47.5 41.001 -74.5l52.5 -81l55.5 -78.5l50 -67v-27h-139z" />
    <glyph glyph-name="aacute" unicode="&#xe1;" horiz-adv-x="1227" 
d="M410 305c0 -58.667 9.33301 -102.667 28 -132s48 -44 88 -44c29.333 0 55.833 6.16699 79.5 18.5s44 29.833 61 52.5s30 50.167 39 82.5s13.5 68.5 13.5 108.5v154l-92 -6c-40.667 -2 -75 -8.5 -103 -19.5s-50.333 -26.167 -67 -45.5s-28.667 -43 -36 -71
s-11 -60.667 -11 -98zM592 999c-26 0 -47.8291 -5.50879 -65.4961 -16.5088s-31.834 -26.333 -42.501 -46s-18.167 -43 -22.5 -70s-6.5 -56.5 -6.5 -88.5c-92 0 -161.167 10.333 -207.5 31s-69.5 56 -69.5 106c0 37.333 11.167 69.333 33.5 96s52.666 48.334 90.999 65.001
s83 28.834 134 36.501s105.5 11.5 163.5 11.5c72 0 134.833 -6.16699 188.5 -18.5s98.334 -32.166 134.001 -59.499s62.5 -63.166 80.5 -107.499s27 -98.5 27 -162.5v-522c0 -28 2.16699 -51.333 6.5 -70s11.166 -33.5 20.499 -44.5s22 -18.833 38 -23.5s35.333 -7 58 -7h8
v-109h-381l-43 141h-18c-22.667 -27.333 -44 -51.166 -64 -71.499s-41.333 -37.166 -64 -50.499s-48.167 -23.166 -76.5 -29.499s-61.833 -9.5 -100.5 -9.5c-45.333 0 -87.5 6.66699 -126.5 20s-73 33.833 -102 61.5s-51.833 62.334 -68.5 104.001s-25 90.834 -25 147.501
c0 111.333 38.167 193.666 114.5 246.999s191.166 82.333 344.499 87l168 6v113c0 34 -1.33301 65.333 -4 94s-8.33398 53.334 -17.001 74.001s-21.5 36.667 -38.5 48s-39.5 17 -67.5 17zM467.004 1267.99l49.499 67.001l55.5 78.5c18.667 27 36.167 54 52.5 81
s29.833 51.833 40.5 74.5h322v-21c-12.667 -18 -33.667 -40.5 -63 -67.5s-62.166 -55.167 -98.499 -84.5s-74 -57.833 -113 -85.5s-74.5 -50.834 -106.5 -69.501h-139v27z" />
    <glyph glyph-name="acircumflex" unicode="&#xe2;" horiz-adv-x="1227" 
d="M410 305c0 -58.667 9.33301 -102.667 28 -132s48 -44 88 -44c29.333 0 55.833 6.16699 79.5 18.5s44 29.833 61 52.5s30 50.167 39 82.5s13.5 68.5 13.5 108.5v154l-92 -6c-40.667 -2 -75 -8.5 -103 -19.5s-50.333 -26.167 -67 -45.5s-28.667 -43 -36 -71
s-11 -60.667 -11 -98zM592 999c-26 0 -47.8291 -5.50879 -65.4961 -16.5088s-31.834 -26.333 -42.501 -46s-18.167 -43 -22.5 -70s-6.5 -56.5 -6.5 -88.5c-92 0 -161.167 10.333 -207.5 31s-69.5 56 -69.5 106c0 37.333 11.167 69.333 33.5 96s52.666 48.334 90.999 65.001
s83 28.834 134 36.501s105.5 11.5 163.5 11.5c72 0 134.833 -6.16699 188.5 -18.5s98.334 -32.166 134.001 -59.499s62.5 -63.166 80.5 -107.499s27 -98.5 27 -162.5v-522c0 -28 2.16699 -51.333 6.5 -70s11.166 -33.5 20.499 -44.5s22 -18.833 38 -23.5s35.333 -7 58 -7h8
v-109h-381l-43 141h-18c-22.667 -27.333 -44 -51.166 -64 -71.499s-41.333 -37.166 -64 -50.499s-48.167 -23.166 -76.5 -29.499s-61.833 -9.5 -100.5 -9.5c-45.333 0 -87.5 6.66699 -126.5 20s-73 33.833 -102 61.5s-51.833 62.334 -68.5 104.001s-25 90.834 -25 147.501
c0 111.333 38.167 193.666 114.5 246.999s191.166 82.333 344.499 87l168 6v113c0 34 -1.33301 65.333 -4 94s-8.33398 53.334 -17.001 74.001s-21.5 36.667 -38.5 48s-39.5 17 -67.5 17zM256.004 1267.99l56.5 67l64.5 78.5c21.333 27 41.5 54 60.5 81
s33.833 51.833 44.5 74.5h276c10.667 -22.667 25.5 -47.5 44.5 -74.5s39.167 -54 60.5 -81l64 -78.5l56 -67v-27h-141l-50 40l-60 48l-60.5 50l-52.5 46l-52.5 -46l-60 -50l-59 -48l-49.5 -40h-142v27z" />
    <glyph glyph-name="atilde" unicode="&#xe3;" horiz-adv-x="1227" 
d="M410 305c0 -58.667 9.33301 -102.667 28 -132s48 -44 88 -44c29.333 0 55.833 6.16699 79.5 18.5s44 29.833 61 52.5s30 50.167 39 82.5s13.5 68.5 13.5 108.5v154l-92 -6c-40.667 -2 -75 -8.5 -103 -19.5s-50.333 -26.167 -67 -45.5s-28.667 -43 -36 -71
s-11 -60.667 -11 -98zM592 999c-26 0 -47.8291 -5.50879 -65.4961 -16.5088s-31.834 -26.333 -42.501 -46s-18.167 -43 -22.5 -70s-6.5 -56.5 -6.5 -88.5c-92 0 -161.167 10.333 -207.5 31s-69.5 56 -69.5 106c0 37.333 11.167 69.333 33.5 96s52.666 48.334 90.999 65.001
s83 28.834 134 36.501s105.5 11.5 163.5 11.5c72 0 134.833 -6.16699 188.5 -18.5s98.334 -32.166 134.001 -59.499s62.5 -63.166 80.5 -107.499s27 -98.5 27 -162.5v-522c0 -28 2.16699 -51.333 6.5 -70s11.166 -33.5 20.499 -44.5s22 -18.833 38 -23.5s35.333 -7 58 -7h8
v-109h-381l-43 141h-18c-22.667 -27.333 -44 -51.166 -64 -71.499s-41.333 -37.166 -64 -50.499s-48.167 -23.166 -76.5 -29.499s-61.833 -9.5 -100.5 -9.5c-45.333 0 -87.5 6.66699 -126.5 20s-73 33.833 -102 61.5s-51.833 62.334 -68.5 104.001s-25 90.834 -25 147.501
c0 111.333 38.167 193.666 114.5 246.999s191.166 82.333 344.499 87l168 6v113c0 34 -1.33301 65.333 -4 94s-8.33398 53.334 -17.001 74.001s-21.5 36.667 -38.5 48s-39.5 17 -67.5 17zM789.004 1435.99c14.667 0 27.8311 3 39.498 9s21.667 14 30 24s15 21.5 20 34.5
s8.5 26.5 10.5 40.5h133c-2 -41.333 -9.66699 -80.333 -23 -117s-31.166 -68.834 -53.499 -96.501s-48.666 -49.5 -78.999 -65.5s-63.833 -24 -100.5 -24s-69.834 6.66699 -99.501 20s-57.334 28.166 -83.001 44.499l-72 44.5c-22.333 13.333 -44.5 20 -66.5 20
c-15.333 0 -28.833 -3 -40.5 -9s-21.667 -14 -30 -24s-15 -21.5 -20 -34.5s-8.5 -26.5 -10.5 -40.5h-133c2 41.333 9.83301 80.333 23.5 117s31.667 68.834 54 96.501s48.833 49.5 79.5 65.5s64.334 24 101.001 24s69.834 -6.66699 99.501 -20
s57.334 -28.166 83.001 -44.499l72 -44.5c22.333 -13.333 44.166 -20 65.499 -20z" />
    <glyph glyph-name="adieresis" unicode="&#xe4;" horiz-adv-x="1227" 
d="M410 305c0 -58.667 9.33301 -102.667 28 -132s48 -44 88 -44c29.333 0 55.833 6.16699 79.5 18.5s44 29.833 61 52.5s30 50.167 39 82.5s13.5 68.5 13.5 108.5v154l-92 -6c-40.667 -2 -75 -8.5 -103 -19.5s-50.333 -26.167 -67 -45.5s-28.667 -43 -36 -71
s-11 -60.667 -11 -98zM592 999c-26 0 -47.8291 -5.50879 -65.4961 -16.5088s-31.834 -26.333 -42.501 -46s-18.167 -43 -22.5 -70s-6.5 -56.5 -6.5 -88.5c-92 0 -161.167 10.333 -207.5 31s-69.5 56 -69.5 106c0 37.333 11.167 69.333 33.5 96s52.666 48.334 90.999 65.001
s83 28.834 134 36.501s105.5 11.5 163.5 11.5c72 0 134.833 -6.16699 188.5 -18.5s98.334 -32.166 134.001 -59.499s62.5 -63.166 80.5 -107.499s27 -98.5 27 -162.5v-522c0 -28 2.16699 -51.333 6.5 -70s11.166 -33.5 20.499 -44.5s22 -18.833 38 -23.5s35.333 -7 58 -7h8
v-109h-381l-43 141h-18c-22.667 -27.333 -44 -51.166 -64 -71.499s-41.333 -37.166 -64 -50.499s-48.167 -23.166 -76.5 -29.499s-61.833 -9.5 -100.5 -9.5c-45.333 0 -87.5 6.66699 -126.5 20s-73 33.833 -102 61.5s-51.833 62.334 -68.5 104.001s-25 90.834 -25 147.501
c0 111.333 38.167 193.666 114.5 246.999s191.166 82.333 344.499 87l168 6v113c0 34 -1.33301 65.333 -4 94s-8.33398 53.334 -17.001 74.001s-21.5 36.667 -38.5 48s-39.5 17 -67.5 17zM278.004 1408.99c0 23.333 3.33301 43.166 10 59.499s15.5 29.5 26.5 39.5
s23.833 17.167 38.5 21.5s30 6.5 46 6.5s31.333 -2.16699 46 -6.5s27.667 -11.5 39 -21.5s20.5 -23.167 27.5 -39.5s10.5 -36.166 10.5 -59.499c0 -22.667 -3.5 -42.167 -10.5 -58.5s-16.167 -29.5 -27.5 -39.5s-24.333 -17.333 -39 -22s-30 -7 -46 -7
s-31.333 2.33301 -46 7s-27.5 12 -38.5 22s-19.833 23.167 -26.5 39.5s-10 35.833 -10 58.5zM698.004 1408.99c0 23.333 3.33301 43.166 10 59.499s15.667 29.5 27 39.5s24.333 17.167 39 21.5s30.334 6.5 47.001 6.5c15.333 0 30.166 -2.16699 44.499 -6.5
s27.166 -11.5 38.499 -21.5s20.5 -23.167 27.5 -39.5s10.5 -36.166 10.5 -59.499c0 -22.667 -3.5 -42.167 -10.5 -58.5s-16.167 -29.5 -27.5 -39.5s-24.166 -17.333 -38.499 -22s-29.166 -7 -44.499 -7c-16.667 0 -32.334 2.33301 -47.001 7s-27.667 12 -39 22
s-20.333 23.167 -27 39.5s-10 35.833 -10 58.5z" />
    <glyph glyph-name="aring" unicode="&#xe5;" horiz-adv-x="1227" 
d="M410 305c0 -58.667 9.33301 -102.667 28 -132s48 -44 88 -44c29.333 0 55.833 6.16699 79.5 18.5s44 29.833 61 52.5s30 50.167 39 82.5s13.5 68.5 13.5 108.5v154l-92 -6c-40.667 -2 -75 -8.5 -103 -19.5s-50.333 -26.167 -67 -45.5s-28.667 -43 -36 -71
s-11 -60.667 -11 -98zM592 999c-26 0 -47.8291 -5.50879 -65.4961 -16.5088s-31.834 -26.333 -42.501 -46s-18.167 -43 -22.5 -70s-6.5 -56.5 -6.5 -88.5c-92 0 -161.167 10.333 -207.5 31s-69.5 56 -69.5 106c0 37.333 11.167 69.333 33.5 96s52.666 48.334 90.999 65.001
s83 28.834 134 36.501s105.5 11.5 163.5 11.5c72 0 134.833 -6.16699 188.5 -18.5s98.334 -32.166 134.001 -59.499s62.5 -63.166 80.5 -107.499s27 -98.5 27 -162.5v-522c0 -28 2.16699 -51.333 6.5 -70s11.166 -33.5 20.499 -44.5s22 -18.833 38 -23.5s35.333 -7 58 -7h8
v-109h-381l-43 141h-18c-22.667 -27.333 -44 -51.166 -64 -71.499s-41.333 -37.166 -64 -50.499s-48.167 -23.166 -76.5 -29.499s-61.833 -9.5 -100.5 -9.5c-45.333 0 -87.5 6.66699 -126.5 20s-73 33.833 -102 61.5s-51.833 62.334 -68.5 104.001s-25 90.834 -25 147.501
c0 111.333 38.167 193.666 114.5 246.999s191.166 82.333 344.499 87l168 6v113c0 34 -1.33301 65.333 -4 94s-8.33398 53.334 -17.001 74.001s-21.5 36.667 -38.5 48s-39.5 17 -67.5 17zM865.004 1443.99c0 -36.667 -6.33301 -68.834 -19 -96.501
s-30.167 -50.834 -52.5 -69.501s-48.5 -32.834 -78.5 -42.501s-62 -14.5 -96 -14.5s-66 4.83301 -96 14.5s-56.167 23.834 -78.5 42.501s-39.833 41.834 -52.5 69.501s-19 59.834 -19 96.501c0 36 6.33301 68 19 96s30.167 51.333 52.5 70s48.5 32.834 78.5 42.501
s62 14.5 96 14.5s66 -4.83301 96 -14.5s56.167 -23.834 78.5 -42.501s39.833 -42 52.5 -70s19 -60 19 -96zM740.004 1443.99c0 20 -3.16699 37 -9.5 51s-15 25.333 -26 34s-23.833 15 -38.5 19s-30.334 6 -47.001 6s-32.334 -2 -47.001 -6s-27.5 -10.333 -38.5 -19
s-19.667 -20 -26 -34s-9.5 -31 -9.5 -51s3.16699 -37 9.5 -51s15 -25.5 26 -34.5s23.833 -15.5 38.5 -19.5s30.334 -6 47.001 -6s32.334 2 47.001 6s27.5 10.5 38.5 19.5s19.667 20.5 26 34.5s9.5 31 9.5 51z" />
    <glyph glyph-name="ae" unicode="&#xe6;" horiz-adv-x="1792" 
d="M410 305c0 -58.667 9.33301 -102.667 28 -132s48 -44 88 -44c29.333 0 55.833 6.16699 79.5 18.5s44 29.833 61 52.5s30 50.167 39 82.5s13.5 68.5 13.5 108.5v154l-92 -6c-40.667 -2 -75 -8.5 -103 -19.5s-50.333 -26.167 -67 -45.5s-28.667 -43 -36 -71
s-11 -60.667 -11 -98zM1231 991c-56.667 0 -102.168 -28.333 -136.501 -85s-53.166 -139.667 -56.499 -249h355c0 106.667 -13 189 -39 247s-67 87 -123 87zM1253 -20c-100.667 0 -187.495 16.6611 -260.495 49.9941s-131.5 82 -175.5 146
c-46 -68.667 -103 -118.5 -171 -149.5s-145.333 -46.5 -232 -46.5c-45.333 0 -87.5 6.66699 -126.5 20s-73 33.833 -102 61.5s-51.833 62.334 -68.5 104.001s-25 90.834 -25 147.501c0 111.333 38.167 193.666 114.5 246.999s191.166 82.333 344.499 87l168 6v113
c0 34 -1.33301 65.333 -4 94s-8.33398 53.334 -17.001 74.001s-21.5 36.667 -38.5 48s-39.5 17 -67.5 17c-26 0 -47.833 -5.5 -65.5 -16.5s-31.834 -26.333 -42.501 -46s-18.167 -43 -22.5 -70s-6.5 -56.5 -6.5 -88.5c-92 0 -161.167 10.333 -207.5 31s-69.5 56 -69.5 106
c0 37.333 11.167 69.333 33.5 96s52.666 48.334 90.999 65.001s83 28.834 134 36.501s105.5 11.5 163.5 11.5c72.667 0 136.167 -9 190.5 -27s99.5 -47.667 135.5 -89c40 38 85 66.833 135 86.5s105.333 29.5 166 29.5c74 0 140.667 -10.5 200 -31.5
s109.666 -52.167 150.999 -93.5s73 -92.666 95 -153.999s33 -132.666 33 -213.999v-105h-672c2 -68.667 9.5 -127.667 22.5 -177s31.167 -90 54.5 -122s51.5 -55.667 84.5 -71s70.833 -23 113.5 -23c35.333 0 68 4.16699 98 12.5s57.167 20 81.5 35s45.5 32.667 63.5 53
s33 42.166 45 65.499c37.333 -20 56 -53.333 56 -100c0 -29.333 -7.83301 -57.166 -23.5 -83.499s-39.834 -49.5 -72.501 -69.5s-74.167 -36 -124.5 -48s-110.166 -18 -179.499 -18z" />
    <glyph glyph-name="ccedilla" unicode="&#xe7;" horiz-adv-x="1079" 
d="M604 -20c-75.333 0 -144.167 9.66992 -206.5 29.0029s-115.833 51.333 -160.5 96s-79.334 103 -104.001 175s-37 160.333 -37 265c0 110.667 12.833 203 38.5 277s61 133.333 106 178s98.167 76.5 159.5 95.5s127.333 28.5 198 28.5c66 0 124.333 -5.5 175 -16.5
s93 -26.167 127 -45.5s59.833 -42.166 77.5 -68.499s26.5 -54.5 26.5 -84.5c0 -22 -3.83301 -43.5 -11.5 -64.5s-21.334 -39.5 -41.001 -55.5s-46.667 -29 -81 -39s-78.166 -15 -131.499 -15c0 35.333 -2.16699 69 -6.5 101s-11.5 60 -21.5 84s-23.5 43.167 -40.5 57.5
s-38.5 21.5 -64.5 21.5c-30 0 -56.833 -7.16699 -80.5 -21.5s-44 -38.833 -61 -73.5s-30 -81 -39 -139s-13.5 -130.667 -13.5 -218c0 -138.667 19 -242.334 57 -311.001s100 -103 186 -103c35.333 0 68.5 4.16699 99.5 12.5s59.167 20 84.5 35s47.5 32.667 66.5 53
s34.5 42.166 46.5 65.499c16.667 -10 29 -23.5 37 -40.5s12 -34.833 12 -53.5c0 -26 -7.66699 -52.333 -23 -79s-39.166 -50.834 -71.499 -72.501s-73.5 -39.334 -123.5 -53.001s-109.667 -20.5 -179 -20.5zM838.999 -257.997c0 -36 -7.00098 -68.501 -21.001 -97.501
s-33.667 -53.667 -59 -74s-55.833 -35.833 -91.5 -46.5s-75.167 -16 -118.5 -16c-10.667 0 -23.667 0.5 -39 1.5s-31.333 2.5 -48 4.5s-33 4.5 -49 7.5s-30.333 6.16699 -43 9.5v125c25.333 -5.33301 50.333 -9.33301 75 -12s46.334 -4 65.001 -4
c38.667 0 69.167 6.83301 91.5 20.5s33.5 38.167 33.5 73.5c0 20 -3.83301 36.333 -11.5 49s-18.5 22.834 -32.5 30.501s-30.333 13.334 -49 17.001s-39 6.16699 -61 7.5l43 180h117l-21 -88c33.333 -2.66699 63.5 -8.83398 90.5 -18.501s50 -22.5 69 -38.5
s33.667 -35.167 44 -57.5s15.5 -46.833 15.5 -73.5z" />
    <glyph glyph-name="egrave" unicode="&#xe8;" horiz-adv-x="1169" 
d="M608 991c-57.333 0 -102.834 -28.333 -136.501 -85s-52.167 -139.667 -55.5 -249h354c0 52 -3 98.667 -9 140s-15.5 76.333 -28.5 105s-29.667 50.667 -50 66s-45.166 23 -74.499 23zM626.999 -20c-86.667 0 -163.166 12.6641 -229.499 37.9971s-121.833 62 -166.5 110
s-78.334 106.833 -101.001 176.5s-34 149.167 -34 238.5c0 96 11.333 180.333 34 253s55.667 133.334 99 182.001s96.5 85.167 159.5 109.5s134.833 36.5 215.5 36.5c74 0 140.667 -10.5 200 -31.5s109.666 -52.167 150.999 -93.5s73 -92.666 95 -153.999
s33 -132.666 33 -213.999v-105h-671c2 -68.667 9.5 -127.667 22.5 -177s31 -90 54 -122s51 -55.667 84 -71s70.833 -23 113.5 -23c35.333 0 68 4.16699 98 12.5s57.167 20 81.5 35s45.666 32.667 63.999 53s33.5 42.166 45.5 65.499c36.667 -20 55 -53.333 55 -100
c0 -29.333 -8 -57.166 -24 -83.499s-40.667 -49.5 -74 -69.5s-75.166 -36 -125.499 -48s-110.166 -18 -179.499 -18zM642 1241c-32 18.667 -67.502 41.833 -106.502 69.5s-76.667 56.167 -113 85.5s-69.166 57.5 -98.499 84.5s-50.333 49.5 -63 67.5v21h321
c10.667 -22.667 24.334 -47.5 41.001 -74.5l52.5 -81l55.5 -78.5l50 -67v-27h-139z" />
    <glyph glyph-name="eacute" unicode="&#xe9;" horiz-adv-x="1169" 
d="M608 991c-57.333 0 -102.834 -28.333 -136.501 -85s-52.167 -139.667 -55.5 -249h354c0 52 -3 98.667 -9 140s-15.5 76.333 -28.5 105s-29.667 50.667 -50 66s-45.166 23 -74.499 23zM626.999 -20c-86.667 0 -163.166 12.6641 -229.499 37.9971s-121.833 62 -166.5 110
s-78.334 106.833 -101.001 176.5s-34 149.167 -34 238.5c0 96 11.333 180.333 34 253s55.667 133.334 99 182.001s96.5 85.167 159.5 109.5s134.833 36.5 215.5 36.5c74 0 140.667 -10.5 200 -31.5s109.666 -52.167 150.999 -93.5s73 -92.666 95 -153.999
s33 -132.666 33 -213.999v-105h-671c2 -68.667 9.5 -127.667 22.5 -177s31 -90 54 -122s51 -55.667 84 -71s70.833 -23 113.5 -23c35.333 0 68 4.16699 98 12.5s57.167 20 81.5 35s45.666 32.667 63.999 53s33.5 42.166 45.5 65.499c36.667 -20 55 -53.333 55 -100
c0 -29.333 -8 -57.166 -24 -83.499s-40.667 -49.5 -74 -69.5s-75.166 -36 -125.499 -48s-110.166 -18 -179.499 -18zM473 1268l49.499 67.001l55.5 78.5c18.667 27 36.167 54 52.5 81s29.833 51.833 40.5 74.5h322v-21c-12.667 -18 -33.667 -40.5 -63 -67.5
s-62.166 -55.167 -98.499 -84.5s-74 -57.833 -113 -85.5s-74.5 -50.834 -106.5 -69.501h-139v27z" />
    <glyph glyph-name="ecircumflex" unicode="&#xea;" horiz-adv-x="1169" 
d="M608 991c-57.333 0 -102.834 -28.333 -136.501 -85s-52.167 -139.667 -55.5 -249h354c0 52 -3 98.667 -9 140s-15.5 76.333 -28.5 105s-29.667 50.667 -50 66s-45.166 23 -74.499 23zM626.999 -20c-86.667 0 -163.166 12.6641 -229.499 37.9971s-121.833 62 -166.5 110
s-78.334 106.833 -101.001 176.5s-34 149.167 -34 238.5c0 96 11.333 180.333 34 253s55.667 133.334 99 182.001s96.5 85.167 159.5 109.5s134.833 36.5 215.5 36.5c74 0 140.667 -10.5 200 -31.5s109.666 -52.167 150.999 -93.5s73 -92.666 95 -153.999
s33 -132.666 33 -213.999v-105h-671c2 -68.667 9.5 -127.667 22.5 -177s31 -90 54 -122s51 -55.667 84 -71s70.833 -23 113.5 -23c35.333 0 68 4.16699 98 12.5s57.167 20 81.5 35s45.666 32.667 63.999 53s33.5 42.166 45.5 65.499c36.667 -20 55 -53.333 55 -100
c0 -29.333 -8 -57.166 -24 -83.499s-40.667 -49.5 -74 -69.5s-75.166 -36 -125.499 -48s-110.166 -18 -179.499 -18zM254 1268l56.5 67l64.5 78.5c21.333 27 41.5 54 60.5 81s33.833 51.833 44.5 74.5h276c10.667 -22.667 25.5 -47.5 44.5 -74.5s39.167 -54 60.5 -81
l64 -78.5l56 -67v-27h-141l-50 40l-60 48l-60.5 50l-52.5 46l-52.5 -46l-60 -50l-59 -48l-49.5 -40h-142v27z" />
    <glyph glyph-name="edieresis" unicode="&#xeb;" horiz-adv-x="1169" 
d="M608 991c-57.333 0 -102.834 -28.333 -136.501 -85s-52.167 -139.667 -55.5 -249h354c0 52 -3 98.667 -9 140s-15.5 76.333 -28.5 105s-29.667 50.667 -50 66s-45.166 23 -74.499 23zM626.999 -20c-86.667 0 -163.166 12.6641 -229.499 37.9971s-121.833 62 -166.5 110
s-78.334 106.833 -101.001 176.5s-34 149.167 -34 238.5c0 96 11.333 180.333 34 253s55.667 133.334 99 182.001s96.5 85.167 159.5 109.5s134.833 36.5 215.5 36.5c74 0 140.667 -10.5 200 -31.5s109.666 -52.167 150.999 -93.5s73 -92.666 95 -153.999
s33 -132.666 33 -213.999v-105h-671c2 -68.667 9.5 -127.667 22.5 -177s31 -90 54 -122s51 -55.667 84 -71s70.833 -23 113.5 -23c35.333 0 68 4.16699 98 12.5s57.167 20 81.5 35s45.666 32.667 63.999 53s33.5 42.166 45.5 65.499c36.667 -20 55 -53.333 55 -100
c0 -29.333 -8 -57.166 -24 -83.499s-40.667 -49.5 -74 -69.5s-75.166 -36 -125.499 -48s-110.166 -18 -179.499 -18zM281 1409c0 23.333 3.33301 43.166 10 59.499s15.5 29.5 26.5 39.5s23.833 17.167 38.5 21.5s30 6.5 46 6.5s31.333 -2.16699 46 -6.5
s27.667 -11.5 39 -21.5s20.5 -23.167 27.5 -39.5s10.5 -36.166 10.5 -59.499c0 -22.667 -3.5 -42.167 -10.5 -58.5s-16.167 -29.5 -27.5 -39.5s-24.333 -17.333 -39 -22s-30 -7 -46 -7s-31.333 2.33301 -46 7s-27.5 12 -38.5 22s-19.833 23.167 -26.5 39.5
s-10 35.833 -10 58.5zM701 1409c0 23.333 3.33301 43.166 10 59.499s15.667 29.5 27 39.5s24.333 17.167 39 21.5s30.334 6.5 47.001 6.5c15.333 0 30.166 -2.16699 44.499 -6.5s27.166 -11.5 38.499 -21.5s20.5 -23.167 27.5 -39.5s10.5 -36.166 10.5 -59.499
c0 -22.667 -3.5 -42.167 -10.5 -58.5s-16.167 -29.5 -27.5 -39.5s-24.166 -17.333 -38.499 -22s-29.166 -7 -44.499 -7c-16.667 0 -32.334 2.33301 -47.001 7s-27.667 12 -39 22s-20.333 23.167 -27 39.5s-10 35.833 -10 58.5z" />
    <glyph glyph-name="igrave" unicode="&#xec;" horiz-adv-x="721" 
d="M59 109c15.333 0 31.502 1.50098 48.502 4.50098s32.667 9.16699 47 18.5s26.333 22.666 36 39.999s14.5 40.666 14.5 69.999v622c0 27.333 -4.83301 49.166 -14.5 65.499s-21.834 29 -36.501 38s-30.5 14.833 -47.5 17.5s-32.833 4 -47.5 4h-24v109h481v-856
c0 -29.333 4.83301 -52.666 14.5 -69.999s21.667 -30.666 36 -39.999s30.166 -15.5 47.499 -18.5s33.333 -4.5 48 -4.5h24v-109h-651v109h24zM370.002 1241c-32 18.667 -67.502 41.833 -106.502 69.5s-76.667 56.167 -113 85.5s-69.166 57.5 -98.499 84.5
s-50.333 49.5 -63 67.5v21h321c10.667 -22.667 24.334 -47.5 41.001 -74.5l52.5 -81l55.5 -78.5l50 -67v-27h-139z" />
    <glyph glyph-name="iacute" unicode="&#xed;" horiz-adv-x="721" 
d="M59 109c15.333 0 31.502 1.50098 48.502 4.50098s32.667 9.16699 47 18.5s26.333 22.666 36 39.999s14.5 40.666 14.5 69.999v622c0 27.333 -4.83301 49.166 -14.5 65.499s-21.834 29 -36.501 38s-30.5 14.833 -47.5 17.5s-32.833 4 -47.5 4h-24v109h481v-856
c0 -29.333 4.83301 -52.666 14.5 -69.999s21.667 -30.666 36 -39.999s30.166 -15.5 47.499 -18.5s33.333 -4.5 48 -4.5h24v-109h-651v109h24zM267.002 1268l49.499 67.001l55.5 78.5c18.667 27 36.167 54 52.5 81s29.833 51.833 40.5 74.5h322v-21
c-12.667 -18 -33.667 -40.5 -63 -67.5s-62.166 -55.167 -98.499 -84.5s-74 -57.833 -113 -85.5s-74.5 -50.834 -106.5 -69.501h-139v27z" />
    <glyph glyph-name="icircumflex" unicode="&#xee;" horiz-adv-x="721" 
d="M59 109c15.333 0 31.502 1.50098 48.502 4.50098s32.667 9.16699 47 18.5s26.333 22.666 36 39.999s14.5 40.666 14.5 69.999v622c0 27.333 -4.83301 49.166 -14.5 65.499s-21.834 29 -36.501 38s-30.5 14.833 -47.5 17.5s-32.833 4 -47.5 4h-24v109h481v-856
c0 -29.333 4.83301 -52.666 14.5 -69.999s21.667 -30.666 36 -39.999s30.166 -15.5 47.499 -18.5s33.333 -4.5 48 -4.5h24v-109h-651v109h24zM-29.998 1268l56.5 67l64.5 78.5c21.333 27 41.5 54 60.5 81s33.833 51.833 44.5 74.5h276c10.667 -22.667 25.5 -47.5 44.5 -74.5
s39.167 -54 60.5 -81l64 -78.5l56 -67v-27h-141l-50 40l-60 48l-60.5 50l-52.5 46l-52.5 -46l-60 -50l-59 -48l-49.5 -40h-142v27z" />
    <glyph glyph-name="idieresis" unicode="&#xef;" horiz-adv-x="721" 
d="M59 109c15.333 0 31.502 1.50098 48.502 4.50098s32.667 9.16699 47 18.5s26.333 22.666 36 39.999s14.5 40.666 14.5 69.999v622c0 27.333 -4.83301 49.166 -14.5 65.499s-21.834 29 -36.501 38s-30.5 14.833 -47.5 17.5s-32.833 4 -47.5 4h-24v109h481v-856
c0 -29.333 4.83301 -52.666 14.5 -69.999s21.667 -30.666 36 -39.999s30.166 -15.5 47.499 -18.5s33.333 -4.5 48 -4.5h24v-109h-651v109h24zM-0.998047 1409c0 23.333 3.33301 43.166 10 59.499s15.5 29.5 26.5 39.5s23.833 17.167 38.5 21.5s30 6.5 46 6.5
s31.333 -2.16699 46 -6.5s27.667 -11.5 39 -21.5s20.5 -23.167 27.5 -39.5s10.5 -36.166 10.5 -59.499c0 -22.667 -3.5 -42.167 -10.5 -58.5s-16.167 -29.5 -27.5 -39.5s-24.333 -17.333 -39 -22s-30 -7 -46 -7s-31.333 2.33301 -46 7s-27.5 12 -38.5 22
s-19.833 23.167 -26.5 39.5s-10 35.833 -10 58.5zM419.002 1409c0 23.333 3.33301 43.166 10 59.499s15.667 29.5 27 39.5s24.333 17.167 39 21.5s30.334 6.5 47.001 6.5c15.333 0 30.166 -2.16699 44.499 -6.5s27.166 -11.5 38.499 -21.5s20.5 -23.167 27.5 -39.5
s10.5 -36.166 10.5 -59.499c0 -22.667 -3.5 -42.167 -10.5 -58.5s-16.167 -29.5 -27.5 -39.5s-24.166 -17.333 -38.499 -22s-29.166 -7 -44.499 -7c-16.667 0 -32.334 2.33301 -47.001 7s-27.667 12 -39 22s-20.333 23.167 -27 39.5s-10 35.833 -10 58.5z" />
    <glyph glyph-name="eth" unicode="&#xf0;" horiz-adv-x="1253" 
d="M1157 596c0 -208 -45.1689 -362.667 -135.502 -464s-223.166 -152 -398.499 -152c-81.333 0 -154.5 11 -219.5 33s-120.333 55.5 -166 100.5s-80.667 101.5 -105 169.5s-36.5 147.667 -36.5 239c0 90.667 10.833 169.834 32.5 237.501s53.5 124 95.5 169
s93.667 78.667 155 101s131.666 33.5 210.999 33.5c45.333 0 87.5 -5.33301 126.5 -16s71.167 -23.667 96.5 -39c-7.33301 22 -15.666 43.833 -24.999 65.5s-20.666 43.334 -33.999 65.001s-29.333 43.334 -48 65.001s-41 43.167 -67 64.5l-289 -148v133l182 95
c-34 21.333 -70.167 38.166 -108.5 50.499s-82.5 22.833 -132.5 31.5v129c25.333 -2 55.5 -6.83301 90.5 -14.5s71.167 -17.334 108.5 -29.001s73.833 -24.834 109.5 -39.501s66.5 -30 92.5 -46l258 131v-136l-143 -73c52 -40.667 99.5 -87.5 142.5 -140.5
s79.833 -111.5 110.5 -175.5s54.5 -132.833 71.5 -206.5s25.5 -151.5 25.5 -233.5zM413.998 520c0 -67.333 3.83398 -126.665 11.501 -177.998s20 -94.166 37 -128.499s39.167 -60.333 66.5 -78s60.666 -26.5 99.999 -26.5c38.667 0 71.5 8.83301 98.5 26.5s49 43.667 66 78
s29.333 77.166 37 128.499s11.5 110.666 11.5 177.999c0 70 -3.83301 130.833 -11.5 182.5s-20 94.5 -37 128.5s-39.167 59.333 -66.5 76s-60.666 25 -99.999 25c-38.667 0 -71.667 -8.16699 -99 -24.5s-49.333 -41.333 -66 -75s-28.834 -76.334 -36.501 -128.001
s-11.5 -113.167 -11.5 -184.5z" />
    <glyph glyph-name="ntilde" unicode="&#xf1;" horiz-adv-x="1366" 
d="M858 0l0.00488281 674c0 44 -2.83301 83.167 -8.5 117.5s-15 63.166 -28 86.499s-30 41.166 -51 53.499s-46.5 18.5 -76.5 18.5c-34 0 -62.333 -8.66699 -85 -26s-40.834 -40.5 -54.501 -69.5s-23.5 -62.667 -29.5 -101s-9 -78.5 -9 -120.5v-391
c0 -28.667 3.5 -51.667 10.5 -69s16.833 -30.833 29.5 -40.5s28.167 -16 46.5 -19s38.833 -4.5 61.5 -4.5h6v-109h-629v109h4c23.333 0 44.666 1.5 63.999 4.5s36.166 9.5 50.499 19.5s25.5 24.333 33.5 43s12 43.334 12 74.001v606c0 28.667 -3.5 51.667 -10.5 69
s-17 30.833 -30 40.5s-28.5 16 -46.5 19s-38.333 4.5 -61 4.5h-6v109h430l27 -146h10c20.667 38.667 42.5 69.334 65.5 92.001s47.5 40 73.5 52s53.5 19.667 82.5 23s59.5 5 91.5 5c52.667 0 100 -7.66699 142 -23s77.5 -39 106.5 -71s51.167 -72.833 66.5 -122.5
s23 -109.167 23 -178.5v-475c0 -32 2.83301 -57.5 8.5 -76.5s14.167 -33.5 25.5 -43.5s25.666 -16.667 42.999 -20s37.666 -5 60.999 -5h6v-109h-455zM842.005 1436c14.667 0 27.8311 3 39.498 9s21.667 14 30 24s15 21.5 20 34.5s8.5 26.5 10.5 40.5h133
c-2 -41.333 -9.66699 -80.333 -23 -117s-31.166 -68.834 -53.499 -96.501s-48.666 -49.5 -78.999 -65.5s-63.833 -24 -100.5 -24s-69.834 6.66699 -99.501 20s-57.334 28.166 -83.001 44.499l-72 44.5c-22.333 13.333 -44.5 20 -66.5 20c-15.333 0 -28.833 -3 -40.5 -9
s-21.667 -14 -30 -24s-15 -21.5 -20 -34.5s-8.5 -26.5 -10.5 -40.5h-133c2 41.333 9.83301 80.333 23.5 117s31.667 68.834 54 96.501s48.833 49.5 79.5 65.5s64.334 24 101.001 24s69.834 -6.66699 99.501 -20s57.334 -28.166 83.001 -44.499l72 -44.5
c22.333 -13.333 44.166 -20 65.499 -20z" />
    <glyph glyph-name="ograve" unicode="&#xf2;" horiz-adv-x="1255" 
d="M1159 553c0 -192.667 -45.168 -336.334 -135.501 -431.001s-223.166 -142 -398.499 -142c-82 0 -155.667 11.833 -221 35.5s-120.833 59.167 -166.5 106.5s-80.667 107 -105 179s-36.5 156 -36.5 252c0 192.667 45.167 336 135.5 430s223.5 141 399.5 141
c82 0 155.5 -11.667 220.5 -35s120.333 -58.666 166 -105.999s80.667 -106.833 105 -178.5s36.5 -155.5 36.5 -251.5zM413.999 553c0 -72.667 3.83203 -136.667 11.499 -192s20 -101.666 37 -138.999s39.167 -65.5 66.5 -84.5s60.666 -28.5 99.999 -28.5s72.5 9.5 99.5 28.5
s49 47.167 66 84.5s29.167 83.666 36.5 138.999s11 119.333 11 192c0 73.333 -3.83301 137.5 -11.5 192.5s-20 100.833 -37 137.5s-39.167 64.167 -66.5 82.5s-60.666 27.5 -99.999 27.5s-72.666 -9.16699 -99.999 -27.5s-49.333 -45.833 -66 -82.5
s-28.667 -82.5 -36 -137.5s-11 -119.167 -11 -192.5zM617.998 1241c-32 18.667 -67.502 41.833 -106.502 69.5s-76.667 56.167 -113 85.5s-69.166 57.5 -98.499 84.5s-50.333 49.5 -63 67.5v21h321c10.667 -22.667 24.334 -47.5 41.001 -74.5l52.5 -81l55.5 -78.5l50 -67
v-27h-139z" />
    <glyph glyph-name="oacute" unicode="&#xf3;" horiz-adv-x="1255" 
d="M1159 553c0 -192.667 -45.168 -336.334 -135.501 -431.001s-223.166 -142 -398.499 -142c-82 0 -155.667 11.833 -221 35.5s-120.833 59.167 -166.5 106.5s-80.667 107 -105 179s-36.5 156 -36.5 252c0 192.667 45.167 336 135.5 430s223.5 141 399.5 141
c82 0 155.5 -11.667 220.5 -35s120.333 -58.666 166 -105.999s80.667 -106.833 105 -178.5s36.5 -155.5 36.5 -251.5zM413.999 553c0 -72.667 3.83203 -136.667 11.499 -192s20 -101.666 37 -138.999s39.167 -65.5 66.5 -84.5s60.666 -28.5 99.999 -28.5s72.5 9.5 99.5 28.5
s49 47.167 66 84.5s29.167 83.666 36.5 138.999s11 119.333 11 192c0 73.333 -3.83301 137.5 -11.5 192.5s-20 100.833 -37 137.5s-39.167 64.167 -66.5 82.5s-60.666 27.5 -99.999 27.5s-72.666 -9.16699 -99.999 -27.5s-49.333 -45.833 -66 -82.5
s-28.667 -82.5 -36 -137.5s-11 -119.167 -11 -192.5zM503.998 1268l49.499 67.001l55.5 78.5c18.667 27 36.167 54 52.5 81s29.833 51.833 40.5 74.5h322v-21c-12.667 -18 -33.667 -40.5 -63 -67.5s-62.166 -55.167 -98.499 -84.5s-74 -57.833 -113 -85.5
s-74.5 -50.834 -106.5 -69.501h-139v27z" />
    <glyph glyph-name="ocircumflex" unicode="&#xf4;" horiz-adv-x="1255" 
d="M1159 553c0 -192.667 -45.168 -336.334 -135.501 -431.001s-223.166 -142 -398.499 -142c-82 0 -155.667 11.833 -221 35.5s-120.833 59.167 -166.5 106.5s-80.667 107 -105 179s-36.5 156 -36.5 252c0 192.667 45.167 336 135.5 430s223.5 141 399.5 141
c82 0 155.5 -11.667 220.5 -35s120.333 -58.666 166 -105.999s80.667 -106.833 105 -178.5s36.5 -155.5 36.5 -251.5zM413.999 553c0 -72.667 3.83203 -136.667 11.499 -192s20 -101.666 37 -138.999s39.167 -65.5 66.5 -84.5s60.666 -28.5 99.999 -28.5s72.5 9.5 99.5 28.5
s49 47.167 66 84.5s29.167 83.666 36.5 138.999s11 119.333 11 192c0 73.333 -3.83301 137.5 -11.5 192.5s-20 100.833 -37 137.5s-39.167 64.167 -66.5 82.5s-60.666 27.5 -99.999 27.5s-72.666 -9.16699 -99.999 -27.5s-49.333 -45.833 -66 -82.5
s-28.667 -82.5 -36 -137.5s-11 -119.167 -11 -192.5zM261.998 1268l56.5 67l64.5 78.5c21.333 27 41.5 54 60.5 81s33.833 51.833 44.5 74.5h276c10.667 -22.667 25.5 -47.5 44.5 -74.5s39.167 -54 60.5 -81l64 -78.5l56 -67v-27h-141l-50 40l-60 48l-60.5 50l-52.5 46
l-52.5 -46l-60 -50l-59 -48l-49.5 -40h-142v27z" />
    <glyph glyph-name="otilde" unicode="&#xf5;" horiz-adv-x="1255" 
d="M1159 553c0 -192.667 -45.168 -336.334 -135.501 -431.001s-223.166 -142 -398.499 -142c-82 0 -155.667 11.833 -221 35.5s-120.833 59.167 -166.5 106.5s-80.667 107 -105 179s-36.5 156 -36.5 252c0 192.667 45.167 336 135.5 430s223.5 141 399.5 141
c82 0 155.5 -11.667 220.5 -35s120.333 -58.666 166 -105.999s80.667 -106.833 105 -178.5s36.5 -155.5 36.5 -251.5zM413.999 553c0 -72.667 3.83203 -136.667 11.499 -192s20 -101.666 37 -138.999s39.167 -65.5 66.5 -84.5s60.666 -28.5 99.999 -28.5s72.5 9.5 99.5 28.5
s49 47.167 66 84.5s29.167 83.666 36.5 138.999s11 119.333 11 192c0 73.333 -3.83301 137.5 -11.5 192.5s-20 100.833 -37 137.5s-39.167 64.167 -66.5 82.5s-60.666 27.5 -99.999 27.5s-72.666 -9.16699 -99.999 -27.5s-49.333 -45.833 -66 -82.5
s-28.667 -82.5 -36 -137.5s-11 -119.167 -11 -192.5zM794.998 1436c14.667 0 27.8311 3 39.498 9s21.667 14 30 24s15 21.5 20 34.5s8.5 26.5 10.5 40.5h133c-2 -41.333 -9.66699 -80.333 -23 -117s-31.166 -68.834 -53.499 -96.501s-48.666 -49.5 -78.999 -65.5
s-63.833 -24 -100.5 -24s-69.834 6.66699 -99.501 20s-57.334 28.166 -83.001 44.499l-72 44.5c-22.333 13.333 -44.5 20 -66.5 20c-15.333 0 -28.833 -3 -40.5 -9s-21.667 -14 -30 -24s-15 -21.5 -20 -34.5s-8.5 -26.5 -10.5 -40.5h-133c2 41.333 9.83301 80.333 23.5 117
s31.667 68.834 54 96.501s48.833 49.5 79.5 65.5s64.334 24 101.001 24s69.834 -6.66699 99.501 -20s57.334 -28.166 83.001 -44.499l72 -44.5c22.333 -13.333 44.166 -20 65.499 -20z" />
    <glyph glyph-name="odieresis" unicode="&#xf6;" horiz-adv-x="1255" 
d="M1159 553c0 -192.667 -45.168 -336.334 -135.501 -431.001s-223.166 -142 -398.499 -142c-82 0 -155.667 11.833 -221 35.5s-120.833 59.167 -166.5 106.5s-80.667 107 -105 179s-36.5 156 -36.5 252c0 192.667 45.167 336 135.5 430s223.5 141 399.5 141
c82 0 155.5 -11.667 220.5 -35s120.333 -58.666 166 -105.999s80.667 -106.833 105 -178.5s36.5 -155.5 36.5 -251.5zM413.999 553c0 -72.667 3.83203 -136.667 11.499 -192s20 -101.666 37 -138.999s39.167 -65.5 66.5 -84.5s60.666 -28.5 99.999 -28.5s72.5 9.5 99.5 28.5
s49 47.167 66 84.5s29.167 83.666 36.5 138.999s11 119.333 11 192c0 73.333 -3.83301 137.5 -11.5 192.5s-20 100.833 -37 137.5s-39.167 64.167 -66.5 82.5s-60.666 27.5 -99.999 27.5s-72.666 -9.16699 -99.999 -27.5s-49.333 -45.833 -66 -82.5
s-28.667 -82.5 -36 -137.5s-11 -119.167 -11 -192.5zM292.998 1409c0 23.333 3.33301 43.166 10 59.499s15.5 29.5 26.5 39.5s23.833 17.167 38.5 21.5s30 6.5 46 6.5s31.333 -2.16699 46 -6.5s27.667 -11.5 39 -21.5s20.5 -23.167 27.5 -39.5s10.5 -36.166 10.5 -59.499
c0 -22.667 -3.5 -42.167 -10.5 -58.5s-16.167 -29.5 -27.5 -39.5s-24.333 -17.333 -39 -22s-30 -7 -46 -7s-31.333 2.33301 -46 7s-27.5 12 -38.5 22s-19.833 23.167 -26.5 39.5s-10 35.833 -10 58.5zM712.998 1409c0 23.333 3.33301 43.166 10 59.499s15.667 29.5 27 39.5
s24.333 17.167 39 21.5s30.334 6.5 47.001 6.5c15.333 0 30.166 -2.16699 44.499 -6.5s27.166 -11.5 38.499 -21.5s20.5 -23.167 27.5 -39.5s10.5 -36.166 10.5 -59.499c0 -22.667 -3.5 -42.167 -10.5 -58.5s-16.167 -29.5 -27.5 -39.5s-24.166 -17.333 -38.499 -22
s-29.166 -7 -44.499 -7c-16.667 0 -32.334 2.33301 -47.001 7s-27.667 12 -39 22s-20.333 23.167 -27 39.5s-10 35.833 -10 58.5z" />
    <glyph glyph-name="divide" unicode="&#xf7;" 
d="M459 1120c0 23.333 2.83398 43 8.50098 59s13.667 28.833 24 38.5s22.5 16.667 36.5 21s29 6.5 45 6.5s31 -2.16699 45 -6.5s26.167 -11.333 36.5 -21s18.5 -22.5 24.5 -38.5s9 -35.667 9 -59c0 -22.667 -3 -42 -9 -58s-14.167 -29 -24.5 -39s-22.5 -17.167 -36.5 -21.5
s-29 -6.5 -45 -6.5c-32.667 0 -59.834 9.33301 -81.501 28s-32.5 51 -32.5 97zM459.001 344c0 23.333 2.83398 43 8.50098 59s13.667 28.833 24 38.5s22.5 16.667 36.5 21s29 6.5 45 6.5s31 -2.16699 45 -6.5s26.167 -11.333 36.5 -21s18.5 -22.5 24.5 -38.5
s9 -35.667 9 -59c0 -22.667 -3 -42 -9 -58s-14.167 -29 -24.5 -39s-22.5 -17.167 -36.5 -21.5s-29 -6.5 -45 -6.5c-32.667 0 -59.834 9.33301 -81.501 28s-32.5 51 -32.5 97zM1012 659h-879v146h879v-146z" />
    <glyph glyph-name="oslash" unicode="&#xf8;" horiz-adv-x="1255" 
d="M1159 553c0 -192.667 -45.168 -336.331 -135.501 -430.998s-223.166 -142 -398.499 -142c-92 0 -172.667 14.333 -242 43l-66 -105h-145l102 168c-57.333 47.333 -101.333 109.666 -132 186.999s-46 170.666 -46 279.999c0 192.667 45.167 336 135.5 430
s223.5 141 399.5 141c48 0 93.333 -4 136 -12s82 -20.333 118 -37l65 105h144l-105 -172c54.667 -48 96.667 -109.333 126 -184s44 -165 44 -271zM413.999 553.003c0 -42 0.999023 -81.167 2.99902 -117.5s5.66699 -69.5 11 -99.5l352 571
c-34.667 57.333 -85.667 86 -153 86c-39.333 0 -72.666 -9.16699 -99.999 -27.5s-49.333 -45.833 -66 -82.5s-28.667 -82.5 -36 -137.5s-11 -119.167 -11 -192.5zM841.998 553.003c0 37.333 -1 72.1689 -3 104.502s-5.33301 63.166 -10 92.499l-348 -566
c34 -50 83.333 -75 148 -75c39.333 0 72.5 9.5 99.5 28.5s49 47.167 66 84.5s29.167 83.666 36.5 138.999s11 119.333 11 192z" />
    <glyph glyph-name="ugrave" unicode="&#xf9;" horiz-adv-x="1366" 
d="M907 0l-45.002 145h-10c-20.667 -35.333 -43 -63.833 -67 -85.5s-49.667 -38.334 -77 -50.001s-56.166 -19.5 -86.499 -23.5s-61.5 -6 -93.5 -6c-106.667 0 -188.5 33 -245.5 99s-85.5 168 -85.5 306v459c0 30 -2.66699 54.333 -8 73s-13.666 33.334 -24.999 44.001
s-25.833 18 -43.5 22s-38.834 6 -63.501 6h-4v109h455v-656c0 -44 2.5 -83.667 7.5 -119s13.5 -65.5 25.5 -90.5s28 -44.333 48 -58s45 -20.5 75 -20.5c32.667 0 60.834 7.16699 84.501 21.5s43 35 58 62s26 59.667 33 98s10.5 81.5 10.5 129.5v393c0 30 -4 53.667 -12 71
s-18.667 30.5 -32 39.5s-29 14.667 -47 17s-37 3.5 -57 3.5h-6v109h465v-860c0 -30 3.5 -53.5 10.5 -70.5s16.5 -29.833 28.5 -38.5s26.333 -14.167 43 -16.5s35 -3.5 55 -3.5h17v-109h-408zM633.998 1241c-32 18.667 -67.502 41.833 -106.502 69.5
s-76.667 56.167 -113 85.5s-69.166 57.5 -98.499 84.5s-50.333 49.5 -63 67.5v21h321c10.667 -22.667 24.334 -47.5 41.001 -74.5l52.5 -81l55.5 -78.5l50 -67v-27h-139z" />
    <glyph glyph-name="uacute" unicode="&#xfa;" horiz-adv-x="1366" 
d="M907 0l-45.002 145h-10c-20.667 -35.333 -43 -63.833 -67 -85.5s-49.667 -38.334 -77 -50.001s-56.166 -19.5 -86.499 -23.5s-61.5 -6 -93.5 -6c-106.667 0 -188.5 33 -245.5 99s-85.5 168 -85.5 306v459c0 30 -2.66699 54.333 -8 73s-13.666 33.334 -24.999 44.001
s-25.833 18 -43.5 22s-38.834 6 -63.501 6h-4v109h455v-656c0 -44 2.5 -83.667 7.5 -119s13.5 -65.5 25.5 -90.5s28 -44.333 48 -58s45 -20.5 75 -20.5c32.667 0 60.834 7.16699 84.501 21.5s43 35 58 62s26 59.667 33 98s10.5 81.5 10.5 129.5v393c0 30 -4 53.667 -12 71
s-18.667 30.5 -32 39.5s-29 14.667 -47 17s-37 3.5 -57 3.5h-6v109h465v-860c0 -30 3.5 -53.5 10.5 -70.5s16.5 -29.833 28.5 -38.5s26.333 -14.167 43 -16.5s35 -3.5 55 -3.5h17v-109h-408zM526.998 1268l49.499 67.001l55.5 78.5c18.667 27 36.167 54 52.5 81
s29.833 51.833 40.5 74.5h322v-21c-12.667 -18 -33.667 -40.5 -63 -67.5s-62.166 -55.167 -98.499 -84.5s-74 -57.833 -113 -85.5s-74.5 -50.834 -106.5 -69.501h-139v27z" />
    <glyph glyph-name="ucircumflex" unicode="&#xfb;" horiz-adv-x="1366" 
d="M907 0l-45.002 145h-10c-20.667 -35.333 -43 -63.833 -67 -85.5s-49.667 -38.334 -77 -50.001s-56.166 -19.5 -86.499 -23.5s-61.5 -6 -93.5 -6c-106.667 0 -188.5 33 -245.5 99s-85.5 168 -85.5 306v459c0 30 -2.66699 54.333 -8 73s-13.666 33.334 -24.999 44.001
s-25.833 18 -43.5 22s-38.834 6 -63.501 6h-4v109h455v-656c0 -44 2.5 -83.667 7.5 -119s13.5 -65.5 25.5 -90.5s28 -44.333 48 -58s45 -20.5 75 -20.5c32.667 0 60.834 7.16699 84.501 21.5s43 35 58 62s26 59.667 33 98s10.5 81.5 10.5 129.5v393c0 30 -4 53.667 -12 71
s-18.667 30.5 -32 39.5s-29 14.667 -47 17s-37 3.5 -57 3.5h-6v109h465v-860c0 -30 3.5 -53.5 10.5 -70.5s16.5 -29.833 28.5 -38.5s26.333 -14.167 43 -16.5s35 -3.5 55 -3.5h17v-109h-408zM294.998 1268l56.5 67l64.5 78.5c21.333 27 41.5 54 60.5 81
s33.833 51.833 44.5 74.5h276c10.667 -22.667 25.5 -47.5 44.5 -74.5s39.167 -54 60.5 -81l64 -78.5l56 -67v-27h-141l-50 40l-60 48l-60.5 50l-52.5 46l-52.5 -46l-60 -50l-59 -48l-49.5 -40h-142v27z" />
    <glyph glyph-name="udieresis" unicode="&#xfc;" horiz-adv-x="1366" 
d="M907 0l-45.002 145h-10c-20.667 -35.333 -43 -63.833 -67 -85.5s-49.667 -38.334 -77 -50.001s-56.166 -19.5 -86.499 -23.5s-61.5 -6 -93.5 -6c-106.667 0 -188.5 33 -245.5 99s-85.5 168 -85.5 306v459c0 30 -2.66699 54.333 -8 73s-13.666 33.334 -24.999 44.001
s-25.833 18 -43.5 22s-38.834 6 -63.501 6h-4v109h455v-656c0 -44 2.5 -83.667 7.5 -119s13.5 -65.5 25.5 -90.5s28 -44.333 48 -58s45 -20.5 75 -20.5c32.667 0 60.834 7.16699 84.501 21.5s43 35 58 62s26 59.667 33 98s10.5 81.5 10.5 129.5v393c0 30 -4 53.667 -12 71
s-18.667 30.5 -32 39.5s-29 14.667 -47 17s-37 3.5 -57 3.5h-6v109h465v-860c0 -30 3.5 -53.5 10.5 -70.5s16.5 -29.833 28.5 -38.5s26.333 -14.167 43 -16.5s35 -3.5 55 -3.5h17v-109h-408zM331.998 1409c0 23.333 3.33301 43.166 10 59.499s15.5 29.5 26.5 39.5
s23.833 17.167 38.5 21.5s30 6.5 46 6.5s31.333 -2.16699 46 -6.5s27.667 -11.5 39 -21.5s20.5 -23.167 27.5 -39.5s10.5 -36.166 10.5 -59.499c0 -22.667 -3.5 -42.167 -10.5 -58.5s-16.167 -29.5 -27.5 -39.5s-24.333 -17.333 -39 -22s-30 -7 -46 -7
s-31.333 2.33301 -46 7s-27.5 12 -38.5 22s-19.833 23.167 -26.5 39.5s-10 35.833 -10 58.5zM751.998 1409c0 23.333 3.33301 43.166 10 59.499s15.667 29.5 27 39.5s24.333 17.167 39 21.5s30.334 6.5 47.001 6.5c15.333 0 30.166 -2.16699 44.499 -6.5
s27.166 -11.5 38.499 -21.5s20.5 -23.167 27.5 -39.5s10.5 -36.166 10.5 -59.499c0 -22.667 -3.5 -42.167 -10.5 -58.5s-16.167 -29.5 -27.5 -39.5s-24.166 -17.333 -38.499 -22s-29.166 -7 -44.499 -7c-16.667 0 -32.334 2.33301 -47.001 7s-27.667 12 -39 22
s-20.333 23.167 -27 39.5s-10 35.833 -10 58.5z" />
    <glyph glyph-name="yacute" unicode="&#xfd;" horiz-adv-x="1186" 
d="M1186 1098l0.000976562 -108.998c-20.667 0 -38.834 -2.33301 -54.501 -7s-29.834 -12.834 -42.501 -24.501s-24.334 -27 -35.001 -46s-21.334 -42.833 -32.001 -71.5l-75 -208l-78.5 -212.5l-79 -212l-76.5 -207.5c-24 -66 -46.667 -124 -68 -174
s-43.833 -93.333 -67.5 -130s-49.834 -67 -78.501 -91s-62 -43.167 -100 -57.5s-82.167 -24.5 -132.5 -30.5s-109.166 -9 -176.499 -9h-35v119c71.333 0 132 8.66699 182 26s92.333 42 127 74s63.167 70.333 85.5 115s41.833 94 58.5 148l-369 901
c-8 19.333 -17 34.666 -27 45.999s-20.667 20 -32 26s-23.666 9.83301 -36.999 11.5s-27.666 2.5 -42.999 2.5v121h584v-109c-40 0 -71.5 -5.16699 -94.5 -15.5s-34.5 -30.5 -34.5 -60.5c0 -11.333 2.33301 -24.833 7 -40.5s9 -28.5 13 -38.5l37.5 -93.5l38 -101l35.5 -97.5
l30 -83c10 -26 18.333 -49.5 25 -70.5s12.167 -40 16.5 -57s7.83301 -32.667 10.5 -47s4.66699 -28.5 6 -42.5c1.33301 14 4 29.5 8 46.5s8.33301 33.333 13 49s9.33398 29.667 14.001 42l10 26.5l135 401c2.66699 6.66699 5.16699 14.5 7.5 23.5s4.5 18.167 6.5 27.5
s3.5 18.333 4.5 27s1.5 16 1.5 22c0 31.333 -13 52.833 -39 64.5s-62.667 17.5 -110 17.5v109h461zM463.001 1268l49.499 67.001l55.5 78.5c18.667 27 36.167 54 52.5 81s29.833 51.833 40.5 74.5h322v-21c-12.667 -18 -33.667 -40.5 -63 -67.5
s-62.166 -55.167 -98.499 -84.5s-74 -57.833 -113 -85.5s-74.5 -50.834 -106.5 -69.501h-139v27z" />
    <glyph glyph-name="thorn" unicode="&#xfe;" horiz-adv-x="1321" 
d="M51 -383c14.667 0 30.668 1.50195 48.001 4.50195s33.166 9.16699 47.499 18.5s26.333 22.666 36 39.999s14.5 40.666 14.5 69.999v1555c0 31.333 -3.5 56.333 -10.5 75s-16.667 33 -29 43s-27 16.667 -44 20s-35.167 5 -54.5 5h-14v108h463v-376
c0 -19.333 -1.33301 -42.833 -4 -70.5s-5.66699 -54.167 -9 -79.5c-3.33301 -30 -7.33301 -60.667 -12 -92h9c14.667 26.667 31.834 51 51.501 73s42.334 41 68.001 57s54.5 28.333 86.5 37s67.667 13 107 13c68 0 128.167 -11.167 180.5 -33.5s96.166 -57 131.499 -104
s62.166 -106.5 80.499 -178.5s27.5 -157.667 27.5 -257c0 -98.667 -9 -183.834 -27 -255.501s-44.5 -130.834 -79.5 -177.501s-78 -81.167 -129 -103.5s-109.833 -33.5 -176.5 -33.5c-78 0 -141.333 14.833 -190 44.5s-87.667 69.5 -117 119.5h-14l8 -92
c2 -25.333 3.83301 -52.333 5.5 -81s2.5 -53.667 2.5 -75v-141c0 -29.333 4.83301 -52.666 14.5 -69.999s21.667 -30.666 36 -39.999s30 -15.5 47 -18.5s32.833 -4.5 47.5 -4.5h45v-109h-671v109h24zM717.001 127.002c68.667 0 117.832 34.499 147.499 103.499
s44.5 173.167 44.5 312.5c0 136 -14.833 240.333 -44.5 313s-78.167 109 -145.5 109c-41.333 0 -75.5 -9.16699 -102.5 -27.5s-48.5 -45.333 -64.5 -81s-27.333 -79.667 -34 -132s-10 -112.166 -10 -179.499c0 -70.667 3.33301 -132.167 10 -184.5s18 -95.833 34 -130.5
s37.333 -60.5 64 -77.5s60.334 -25.5 101.001 -25.5z" />
    <glyph glyph-name="ydieresis" unicode="&#xff;" horiz-adv-x="1186" 
d="M1186 1098l0.000976562 -108.998c-20.667 0 -38.834 -2.33301 -54.501 -7s-29.834 -12.834 -42.501 -24.501s-24.334 -27 -35.001 -46s-21.334 -42.833 -32.001 -71.5l-75 -208l-78.5 -212.5l-79 -212l-76.5 -207.5c-24 -66 -46.667 -124 -68 -174
s-43.833 -93.333 -67.5 -130s-49.834 -67 -78.501 -91s-62 -43.167 -100 -57.5s-82.167 -24.5 -132.5 -30.5s-109.166 -9 -176.499 -9h-35v119c71.333 0 132 8.66699 182 26s92.333 42 127 74s63.167 70.333 85.5 115s41.833 94 58.5 148l-369 901
c-8 19.333 -17 34.666 -27 45.999s-20.667 20 -32 26s-23.666 9.83301 -36.999 11.5s-27.666 2.5 -42.999 2.5v121h584v-109c-40 0 -71.5 -5.16699 -94.5 -15.5s-34.5 -30.5 -34.5 -60.5c0 -11.333 2.33301 -24.833 7 -40.5s9 -28.5 13 -38.5l37.5 -93.5l38 -101l35.5 -97.5
l30 -83c10 -26 18.333 -49.5 25 -70.5s12.167 -40 16.5 -57s7.83301 -32.667 10.5 -47s4.66699 -28.5 6 -42.5c1.33301 14 4 29.5 8 46.5s8.33301 33.333 13 49s9.33398 29.667 14.001 42l10 26.5l135 401c2.66699 6.66699 5.16699 14.5 7.5 23.5s4.5 18.167 6.5 27.5
s3.5 18.333 4.5 27s1.5 16 1.5 22c0 31.333 -13 52.833 -39 64.5s-62.667 17.5 -110 17.5v109h461zM266.001 1409c0 23.333 3.33301 43.166 10 59.499s15.5 29.5 26.5 39.5s23.833 17.167 38.5 21.5s30 6.5 46 6.5s31.333 -2.16699 46 -6.5s27.667 -11.5 39 -21.5
s20.5 -23.167 27.5 -39.5s10.5 -36.166 10.5 -59.499c0 -22.667 -3.5 -42.167 -10.5 -58.5s-16.167 -29.5 -27.5 -39.5s-24.333 -17.333 -39 -22s-30 -7 -46 -7s-31.333 2.33301 -46 7s-27.5 12 -38.5 22s-19.833 23.167 -26.5 39.5s-10 35.833 -10 58.5zM686.001 1409
c0 23.333 3.33301 43.166 10 59.499s15.667 29.5 27 39.5s24.333 17.167 39 21.5s30.334 6.5 47.001 6.5c15.333 0 30.166 -2.16699 44.499 -6.5s27.166 -11.5 38.499 -21.5s20.5 -23.167 27.5 -39.5s10.5 -36.166 10.5 -59.499c0 -22.667 -3.5 -42.167 -10.5 -58.5
s-16.167 -29.5 -27.5 -39.5s-24.166 -17.333 -38.499 -22s-29.166 -7 -44.499 -7c-16.667 0 -32.334 2.33301 -47.001 7s-27.667 12 -39 22s-20.333 23.167 -27 39.5s-10 35.833 -10 58.5z" />
    <glyph glyph-name="dotlessi" unicode="&#x131;" horiz-adv-x="721" 
d="M59 109c15.333 0 31.502 1.50098 48.502 4.50098s32.667 9.16699 47 18.5s26.333 22.666 36 39.999s14.5 40.666 14.5 69.999v622c0 27.333 -4.83301 49.166 -14.5 65.499s-21.834 29 -36.501 38s-30.5 14.833 -47.5 17.5s-32.833 4 -47.5 4h-24v109h481v-856
c0 -29.333 4.83301 -52.666 14.5 -69.999s21.667 -30.666 36 -39.999s30.166 -15.5 47.499 -18.5s33.333 -4.5 48 -4.5h24v-109h-651v109h24z" />
    <glyph glyph-name="circumflex" unicode="&#x2c6;" horiz-adv-x="1182" 
d="M227 1268l56.5 67l64.5 78.5c21.333 27 41.5 54 60.5 81s33.833 51.833 44.5 74.5h276c10.667 -22.667 25.5 -47.5 44.5 -74.5s39.167 -54 60.5 -81l64 -78.5l56 -67v-27h-141l-50 40l-60 48l-60.5 50l-52.5 46l-52.5 -46l-60 -50l-59 -48l-49.5 -40h-142v27z" />
    <glyph glyph-name="ring" unicode="&#x2da;" horiz-adv-x="682" 
d="M586 1444c0 -36.667 -6.33301 -68.834 -19 -96.501s-30.167 -50.834 -52.5 -69.501s-48.5 -32.834 -78.5 -42.501s-62 -14.5 -96 -14.5s-66 4.83301 -96 14.5s-56.167 23.834 -78.5 42.501s-39.833 41.834 -52.5 69.501s-19 59.834 -19 96.501c0 36 6.33301 68 19 96
s30.167 51.333 52.5 70s48.5 32.834 78.5 42.501s62 14.5 96 14.5s66 -4.83301 96 -14.5s56.167 -23.834 78.5 -42.501s39.833 -42 52.5 -70s19 -60 19 -96zM461 1444c0 20 -3.16699 37 -9.5 51s-15 25.333 -26 34s-23.833 15 -38.5 19s-30.334 6 -47.001 6
s-32.334 -2 -47.001 -6s-27.5 -10.333 -38.5 -19s-19.667 -20 -26 -34s-9.5 -31 -9.5 -51s3.16699 -37 9.5 -51s15 -25.5 26 -34.5s23.833 -15.5 38.5 -19.5s30.334 -6 47.001 -6s32.334 2 47.001 6s27.5 10.5 38.5 19.5s19.667 20.5 26 34.5s9.5 31 9.5 51z" />
    <glyph glyph-name="tilde" unicode="&#x2dc;" horiz-adv-x="1182" 
d="M762 1436c14.667 0 27.8311 3 39.498 9s21.667 14 30 24s15 21.5 20 34.5s8.5 26.5 10.5 40.5h133c-2 -41.333 -9.66699 -80.333 -23 -117s-31.166 -68.834 -53.499 -96.501s-48.666 -49.5 -78.999 -65.5s-63.833 -24 -100.5 -24s-69.834 6.66699 -99.501 20
s-57.334 28.166 -83.001 44.499l-72 44.5c-22.333 13.333 -44.5 20 -66.5 20c-15.333 0 -28.833 -3 -40.5 -9s-21.667 -14 -30 -24s-15 -21.5 -20 -34.5s-8.5 -26.5 -10.5 -40.5h-133c2 41.333 9.83301 80.333 23.5 117s31.667 68.834 54 96.501s48.833 49.5 79.5 65.5
s64.334 24 101.001 24s69.834 -6.66699 99.501 -20s57.334 -28.166 83.001 -44.499l72 -44.5c22.333 -13.333 44.166 -20 65.499 -20z" />
    <glyph glyph-name="endash" unicode="&#x2013;" horiz-adv-x="1024" 
d="M1034 477h-1044v146h1044v-146z" />
    <glyph glyph-name="emdash" unicode="&#x2014;" horiz-adv-x="2048" 
d="M2058 477h-2068v146h2068v-146z" />
    <glyph glyph-name="quoteleft" unicode="&#x2018;" horiz-adv-x="573" 
d="M115 1061c0 43.333 6.66895 85.333 20.002 126s34.5 78.334 63.5 113.001s66.667 65.834 113 93.501s102.833 50.5 169.5 68.5v-106c-30 -10.667 -56.167 -21.334 -78.5 -32.001s-41 -22.167 -56 -34.5s-26.333 -26 -34 -41s-11.5 -32.5 -11.5 -52.5
c0 -13.333 3.66699 -24 11 -32s16.666 -15.667 27.999 -23l36 -22.5c12.667 -7.66699 24.667 -17.334 36 -29.001s20.666 -26.5 27.999 -44.5s11 -40.667 11 -68c0 -46 -14.167 -81 -42.5 -105s-63.5 -36 -105.5 -36c-58 0 -103.833 20 -137.5 60s-50.5 95 -50.5 165z" />
    <glyph glyph-name="quoteright" unicode="&#x2019;" horiz-adv-x="573" 
d="M459 1237c0 -43.333 -6.66895 -85.332 -20.002 -125.999s-34.666 -78.334 -63.999 -113.001s-67.166 -65.834 -113.499 -93.501s-102.833 -50.5 -169.5 -68.5v106c30 10.667 56.167 21.334 78.5 32.001s41 22.167 56 34.5s26.333 26 34 41s11.5 32.5 11.5 52.5
c0 13.333 -3.66699 24 -11 32s-16.5 15.667 -27.5 23s-23 14.833 -36 22.5s-25 17.5 -36 29.5s-20.167 26.833 -27.5 44.5s-11 40.167 -11 67.5c0 46 14 81 42 105s63 36 105 36c58 0 104 -20 138 -60s51 -95 51 -165z" />
    <glyph glyph-name="quotesinglbase" unicode="&#x201a;" horiz-adv-x="602" 
d="M459 86c0 -43.333 -6.66895 -85.3311 -20.002 -125.998s-34.666 -78.334 -63.999 -113.001s-67.166 -65.834 -113.499 -93.501s-102.833 -50.5 -169.5 -68.5v106c30 10.667 56.167 21.334 78.5 32.001s41 22.167 56 34.5s26.333 26 34 41s11.5 32.5 11.5 52.5
c0 12.667 -3.66699 23.167 -11 31.5s-16.5 16.166 -27.5 23.499s-23 14.833 -36 22.5s-25 17.5 -36 29.5s-20.167 26.833 -27.5 44.5s-11 40.167 -11 67.5c0 46 14 81 42 105s63 36 105 36c58 0 104 -20 138 -60s51 -95 51 -165z" />
    <glyph glyph-name="quotedblleft" unicode="&#x201c;" horiz-adv-x="1001" 
d="M543 1061c0 43.333 6.66895 85.333 20.002 126s34.5 78.334 63.5 113.001s66.667 65.834 113 93.501s102.833 50.5 169.5 68.5v-106c-29.333 -10.667 -55.333 -21.334 -78 -32.001s-41.5 -22.167 -56.5 -34.5s-26.333 -26 -34 -41s-11.5 -32.5 -11.5 -52.5
c0 -13.333 3.66699 -24 11 -32s16.666 -15.667 27.999 -23l36 -22.5c12.667 -7.66699 24.667 -17.334 36 -29.001s20.666 -26.5 27.999 -44.5s11 -40.667 11 -68c0 -46 -14.167 -81 -42.5 -105s-63.5 -36 -105.5 -36c-58 0 -103.833 20 -137.5 60s-50.5 95 -50.5 165z
M115.002 1061c0 43.333 6.66895 85.333 20.002 126s34.5 78.334 63.5 113.001s66.667 65.834 113 93.501s102.833 50.5 169.5 68.5v-106c-30 -10.667 -56.167 -21.334 -78.5 -32.001s-41 -22.167 -56 -34.5s-26.333 -26 -34 -41s-11.5 -32.5 -11.5 -52.5
c0 -13.333 3.66699 -24 11 -32s16.666 -15.667 27.999 -23l36 -22.5c12.667 -7.66699 24.667 -17.334 36 -29.001s20.666 -26.5 27.999 -44.5s11 -40.667 11 -68c0 -46 -14.167 -81 -42.5 -105s-63.5 -36 -105.5 -36c-58 0 -103.833 20 -137.5 60s-50.5 95 -50.5 165z" />
    <glyph glyph-name="quotedblright" unicode="&#x201d;" horiz-adv-x="1001" 
d="M459 1237c0 -43.333 -6.66895 -85.332 -20.002 -125.999s-34.666 -78.334 -63.999 -113.001s-67.166 -65.834 -113.499 -93.501s-102.833 -50.5 -169.5 -68.5v106c30 10.667 56.167 21.334 78.5 32.001s41 22.167 56 34.5s26.333 26 34 41s11.5 32.5 11.5 52.5
c0 13.333 -3.66699 24 -11 32s-16.5 15.667 -27.5 23s-23 14.833 -36 22.5s-25 17.5 -36 29.5s-20.167 26.833 -27.5 44.5s-11 40.167 -11 67.5c0 46 14 81 42 105s63 36 105 36c58 0 104 -20 138 -60s51 -95 51 -165zM886.998 1237
c0 -43.333 -6.66895 -85.332 -20.002 -125.999s-34.666 -78.334 -63.999 -113.001s-67.166 -65.834 -113.499 -93.501s-102.833 -50.5 -169.5 -68.5v106c30 10.667 56.167 21.334 78.5 32.001s41 22.167 56 34.5s26.333 26 34 41s11.5 32.5 11.5 52.5
c0 13.333 -3.66699 24 -11 32s-16.5 15.667 -27.5 23s-23 14.833 -36 22.5s-25 17.5 -36 29.5s-20.167 26.833 -27.5 44.5s-11 40.167 -11 67.5c0 46 14 81 42 105s63 36 105 36c58 0 104 -20 138 -60s51 -95 51 -165z" />
    <glyph glyph-name="quotedblbase" unicode="&#x201e;" horiz-adv-x="1030" 
d="M459 86c0 -43.333 -6.66895 -85.3311 -20.002 -125.998s-34.666 -78.334 -63.999 -113.001s-67.166 -65.834 -113.499 -93.501s-102.833 -50.5 -169.5 -68.5v106c30 10.667 56.167 21.334 78.5 32.001s41 22.167 56 34.5s26.333 26 34 41s11.5 32.5 11.5 52.5
c0 12.667 -3.66699 23.167 -11 31.5s-16.5 16.166 -27.5 23.499s-23 14.833 -36 22.5s-25 17.5 -36 29.5s-20.167 26.833 -27.5 44.5s-11 40.167 -11 67.5c0 46 14 81 42 105s63 36 105 36c58 0 104 -20 138 -60s51 -95 51 -165zM886.998 86.002
c0 -43.333 -6.66895 -85.3311 -20.002 -125.998s-34.666 -78.334 -63.999 -113.001s-67.166 -65.834 -113.499 -93.501s-102.833 -50.5 -169.5 -68.5v106c30 10.667 56.167 21.334 78.5 32.001s41 22.167 56 34.5s26.333 26 34 41s11.5 32.5 11.5 52.5
c0 12.667 -3.66699 23.167 -11 31.5s-16.5 16.166 -27.5 23.499s-23 14.833 -36 22.5s-25 17.5 -36 29.5s-20.167 26.833 -27.5 44.5s-11 40.167 -11 67.5c0 46 14 81 42 105s63 36 105 36c58 0 104 -20 138 -60s51 -95 51 -165z" />
    <glyph glyph-name="bullet" unicode="&#x2022;" horiz-adv-x="819" 
d="M115 729c0 61.333 7.33301 112.833 22 154.5s35.167 75 61.5 100s57.5 42.833 93.5 53.5s75.333 16 118 16c40 0 78 -5.33301 114 -16s67.333 -28.5 94 -53.5s47.834 -58.333 63.501 -100s23.5 -93.167 23.5 -154.5c0 -60.667 -7.83301 -111.667 -23.5 -153
s-36.834 -74.666 -63.501 -99.999s-58 -43.333 -94 -54s-74 -16 -114 -16c-42.667 0 -82 5.33301 -118 16s-67.167 28.667 -93.5 54s-46.833 58.666 -61.5 99.999s-22 92.333 -22 153z" />
    <glyph glyph-name="guilsinglleft" unicode="&#x2039;" horiz-adv-x="723" 
d="M133 606l313 357h144l-207 -410l207 -410h-144l-313 357v106z" />
    <glyph glyph-name="guilsinglright" unicode="&#x203a;" horiz-adv-x="723" 
d="M590 500l-314 -357h-143l207 410l-207 410h143l314 -357v-106z" />
    <glyph glyph-name="fraction" unicode="&#x2044;" horiz-adv-x="127" 
d="M-221 0h-160l731 1462h158z" />
    <glyph glyph-name=".null" horiz-adv-x="0" 
 />
    <glyph glyph-name="nonmarkingreturn" horiz-adv-x="2048" 
 />
    <glyph glyph-name="foursuperior" horiz-adv-x="819" 
d="M625 827v-71c0 -17.333 2.33301 -31.166 7 -41.499s11 -18.166 19 -23.499s17.167 -8.83301 27.5 -10.5s21.166 -2.5 32.499 -2.5h41v-90h-471v90h57c11.333 0 22 0.833008 32 2.5s18.833 5.16699 26.5 10.5s13.834 13.166 18.501 23.499s7 24.166 7 41.499v71h-389v82
l407 564h185v-537h159v-109h-159zM422 1182c0 21.333 0.833008 42.5 2.5 63.5s4.16699 44.167 7.5 69.5c-5.33301 -11.333 -11 -22.5 -17 -33.5s-10.667 -19.167 -14 -24.5l-233 -321h254v246z" />
    </font>
</defs>
</svg>
